<?xml version="1.0" encoding="UTF-8" standalone="no"?>
<!DOCTYPE svg PUBLIC "-//W3C//DTD SVG 1.1//EN"
 "http://www.w3.org/Graphics/SVG/1.1/DTD/svg11.dtd">
<!-- Generated by graphviz version 2.43.0 (0)
 -->
<!-- Title: and8_1b Pages: 1 -->
<svg width="1168pt" height="403pt"
 viewBox="0.00 0.00 1168.00 403.00" xmlns="http://www.w3.org/2000/svg" xmlns:xlink="http://www.w3.org/1999/xlink">
<g id="page0,1_graph0" class="graph" transform="scale(1 1) rotate(0) translate(4 399)">
<title>and8_1b</title>
<polygon fill="white" stroke="transparent" points="-4,4 -4,-399 1164,-399 1164,4 -4,4"/>
<text text-anchor="middle" x="580" y="-7.8" font-family="Times,serif" font-size="14.00">and8_1b</text>
<!-- n7 -->
<g id="node1" class="node">
<title>n7</title>
<polygon fill="none" stroke="black" points="54,-191.04 54,-205.96 38.18,-216.5 15.82,-216.5 0,-205.96 0,-191.04 15.82,-180.5 38.18,-180.5 54,-191.04"/>
<text text-anchor="middle" x="27" y="-194.8" font-family="Times,serif" font-size="14.00">A</text>
</g>
<!-- x0 -->
<g id="node4" class="node">
<title>x0</title>
<path fill="none" stroke="black" d="M102,-358.5C102,-358.5 141,-358.5 141,-358.5 147,-358.5 153,-364.5 153,-370.5 153,-370.5 153,-382.5 153,-382.5 153,-388.5 147,-394.5 141,-394.5 141,-394.5 102,-394.5 102,-394.5 96,-394.5 90,-388.5 90,-382.5 90,-382.5 90,-370.5 90,-370.5 90,-364.5 96,-358.5 102,-358.5"/>
<text text-anchor="middle" x="121.5" y="-372.8" font-family="Times,serif" font-size="14.00">0:0 &#45; 0:0</text>
</g>
<!-- n7&#45;&gt;x0 -->
<g id="edge15" class="edge">
<title>n7:e&#45;&gt;x0:w</title>
<path fill="none" stroke="black" d="M54,-198.5C130.93,-198.5 20.59,-360.2 79.97,-375.36"/>
<polygon fill="black" stroke="black" points="79.67,-378.85 90,-376.5 80.46,-371.9 79.67,-378.85"/>
</g>
<!-- x1 -->
<g id="node5" class="node">
<title>x1</title>
<path fill="none" stroke="black" d="M102,-303.5C102,-303.5 141,-303.5 141,-303.5 147,-303.5 153,-309.5 153,-315.5 153,-315.5 153,-327.5 153,-327.5 153,-333.5 147,-339.5 141,-339.5 141,-339.5 102,-339.5 102,-339.5 96,-339.5 90,-333.5 90,-327.5 90,-327.5 90,-315.5 90,-315.5 90,-309.5 96,-303.5 102,-303.5"/>
<text text-anchor="middle" x="121.5" y="-317.8" font-family="Times,serif" font-size="14.00">1:1 &#45; 0:0</text>
</g>
<!-- n7&#45;&gt;x1 -->
<g id="edge16" class="edge">
<title>n7:e&#45;&gt;x1:w</title>
<path fill="none" stroke="black" d="M54,-198.5C106.96,-198.5 43.33,-304.81 79.89,-319.76"/>
<polygon fill="black" stroke="black" points="79.55,-323.25 90,-321.5 80.74,-316.36 79.55,-323.25"/>
</g>
<!-- x2 -->
<g id="node7" class="node">
<title>x2</title>
<path fill="none" stroke="black" d="M102,-248.5C102,-248.5 141,-248.5 141,-248.5 147,-248.5 153,-254.5 153,-260.5 153,-260.5 153,-272.5 153,-272.5 153,-278.5 147,-284.5 141,-284.5 141,-284.5 102,-284.5 102,-284.5 96,-284.5 90,-278.5 90,-272.5 90,-272.5 90,-260.5 90,-260.5 90,-254.5 96,-248.5 102,-248.5"/>
<text text-anchor="middle" x="121.5" y="-262.8" font-family="Times,serif" font-size="14.00">2:2 &#45; 0:0</text>
</g>
<!-- n7&#45;&gt;x2 -->
<g id="edge17" class="edge">
<title>n7:e&#45;&gt;x2:w</title>
<path fill="none" stroke="black" d="M54,-198.5C83.92,-198.5 62.86,-250.56 80.04,-263.58"/>
<polygon fill="black" stroke="black" points="79.42,-267.04 90,-266.5 81.39,-260.33 79.42,-267.04"/>
</g>
<!-- x3 -->
<g id="node9" class="node">
<title>x3</title>
<path fill="none" stroke="black" d="M348,-207.5C348,-207.5 387,-207.5 387,-207.5 393,-207.5 399,-213.5 399,-219.5 399,-219.5 399,-231.5 399,-231.5 399,-237.5 393,-243.5 387,-243.5 387,-243.5 348,-243.5 348,-243.5 342,-243.5 336,-237.5 336,-231.5 336,-231.5 336,-219.5 336,-219.5 336,-213.5 342,-207.5 348,-207.5"/>
<text text-anchor="middle" x="367.5" y="-221.8" font-family="Times,serif" font-size="14.00">3:3 &#45; 0:0</text>
</g>
<!-- n7&#45;&gt;x3 -->
<g id="edge18" class="edge">
<title>n7:e&#45;&gt;x3:w</title>
<path fill="none" stroke="black" d="M54,-198.5C70.22,-198.5 73.91,-202.47 90,-204.5 194.72,-217.7 223.59,-225.02 324.21,-225.48"/>
<polygon fill="black" stroke="black" points="324.49,-228.98 334.5,-225.5 324.51,-221.98 324.49,-228.98"/>
</g>
<!-- x4 -->
<g id="node11" class="node">
<title>x4</title>
<path fill="none" stroke="black" d="M217,-160.5C217,-160.5 256,-160.5 256,-160.5 262,-160.5 268,-166.5 268,-172.5 268,-172.5 268,-184.5 268,-184.5 268,-190.5 262,-196.5 256,-196.5 256,-196.5 217,-196.5 217,-196.5 211,-196.5 205,-190.5 205,-184.5 205,-184.5 205,-172.5 205,-172.5 205,-166.5 211,-160.5 217,-160.5"/>
<text text-anchor="middle" x="236.5" y="-174.8" font-family="Times,serif" font-size="14.00">4:4 &#45; 0:0</text>
</g>
<!-- n7&#45;&gt;x4 -->
<g id="edge19" class="edge">
<title>n7:e&#45;&gt;x4:w</title>
<path fill="none" stroke="black" d="M54,-198.5C117.5,-198.5 134.69,-180.55 193.31,-178.66"/>
<polygon fill="black" stroke="black" points="193.56,-182.16 203.5,-178.5 193.45,-175.16 193.56,-182.16"/>
</g>
<!-- x5 -->
<g id="node13" class="node">
<title>x5</title>
<path fill="none" stroke="black" d="M479,-113.5C479,-113.5 518,-113.5 518,-113.5 524,-113.5 530,-119.5 530,-125.5 530,-125.5 530,-137.5 530,-137.5 530,-143.5 524,-149.5 518,-149.5 518,-149.5 479,-149.5 479,-149.5 473,-149.5 467,-143.5 467,-137.5 467,-137.5 467,-125.5 467,-125.5 467,-119.5 473,-113.5 479,-113.5"/>
<text text-anchor="middle" x="498.5" y="-127.8" font-family="Times,serif" font-size="14.00">5:5 &#45; 0:0</text>
</g>
<!-- n7&#45;&gt;x5 -->
<g id="edge20" class="edge">
<title>n7:e&#45;&gt;x5:w</title>
<path fill="none" stroke="black" d="M54,-198.5C72.09,-198.5 73.23,-186.3 90,-179.5 132.49,-162.27 143.87,-158.56 189,-150.5 306.82,-129.45 340.43,-131.37 455.25,-131.49"/>
<polygon fill="black" stroke="black" points="455.5,-134.99 465.5,-131.5 455.5,-127.99 455.5,-134.99"/>
</g>
<!-- x6 -->
<g id="node15" class="node">
<title>x6</title>
<path fill="none" stroke="black" d="M348,-66.5C348,-66.5 387,-66.5 387,-66.5 393,-66.5 399,-72.5 399,-78.5 399,-78.5 399,-90.5 399,-90.5 399,-96.5 393,-102.5 387,-102.5 387,-102.5 348,-102.5 348,-102.5 342,-102.5 336,-96.5 336,-90.5 336,-90.5 336,-78.5 336,-78.5 336,-72.5 342,-66.5 348,-66.5"/>
<text text-anchor="middle" x="367.5" y="-80.8" font-family="Times,serif" font-size="14.00">6:6 &#45; 0:0</text>
</g>
<!-- n7&#45;&gt;x6 -->
<g id="edge21" class="edge">
<title>n7:e&#45;&gt;x6:w</title>
<path fill="none" stroke="black" d="M54,-198.5C93.4,-198.5 58.48,-141.13 90,-117.5 174.99,-53.78 221.86,-82.55 324.4,-84.41"/>
<polygon fill="black" stroke="black" points="324.47,-87.91 334.5,-84.5 324.53,-80.91 324.47,-87.91"/>
</g>
<!-- x7 -->
<g id="node17" class="node">
<title>x7</title>
<path fill="none" stroke="black" d="M217,-23.5C217,-23.5 256,-23.5 256,-23.5 262,-23.5 268,-29.5 268,-35.5 268,-35.5 268,-47.5 268,-47.5 268,-53.5 262,-59.5 256,-59.5 256,-59.5 217,-59.5 217,-59.5 211,-59.5 205,-53.5 205,-47.5 205,-47.5 205,-35.5 205,-35.5 205,-29.5 211,-23.5 217,-23.5"/>
<text text-anchor="middle" x="236.5" y="-37.8" font-family="Times,serif" font-size="14.00">7:7 &#45; 0:0</text>
</g>
<!-- n7&#45;&gt;x7 -->
<g id="edge22" class="edge">
<title>n7:e&#45;&gt;x7:w</title>
<path fill="none" stroke="black" d="M54,-198.5C111.39,-198.5 49.43,-115.09 90,-74.5 124.67,-39.81 147.74,-41.13 193.4,-41.46"/>
<polygon fill="black" stroke="black" points="193.49,-44.96 203.5,-41.5 193.51,-37.96 193.49,-44.96"/>
</g>
<!-- n8 -->
<g id="node2" class="node">
<title>n8</title>
<polygon fill="none" stroke="black" points="1160,-59.04 1160,-73.96 1144.18,-84.5 1121.82,-84.5 1106,-73.96 1106,-59.04 1121.82,-48.5 1144.18,-48.5 1160,-59.04"/>
<text text-anchor="middle" x="1133" y="-62.8" font-family="Times,serif" font-size="14.00">out</text>
</g>
<!-- c11 -->
<g id="node3" class="node">
<title>c11</title>
<polygon fill="none" stroke="black" points="189,-310.5 189,-356.5 284,-356.5 284,-310.5 189,-310.5"/>
<text text-anchor="middle" x="202" y="-341.3" font-family="Times,serif" font-size="14.00">A</text>
<polyline fill="none" stroke="black" points="189,-333.5 215,-333.5 "/>
<text text-anchor="middle" x="202" y="-318.3" font-family="Times,serif" font-size="14.00">B</text>
<polyline fill="none" stroke="black" points="215,-310.5 215,-356.5 "/>
<text text-anchor="middle" x="236.5" y="-337.3" font-family="Times,serif" font-size="14.00">$58</text>
<text text-anchor="middle" x="236.5" y="-322.3" font-family="Times,serif" font-size="14.00">$and</text>
<polyline fill="none" stroke="black" points="258,-310.5 258,-356.5 "/>
<text text-anchor="middle" x="271" y="-329.8" font-family="Times,serif" font-size="14.00">Y</text>
</g>
<!-- c12 -->
<g id="node6" class="node">
<title>c12</title>
<polygon fill="none" stroke="black" points="320,-262.5 320,-308.5 415,-308.5 415,-262.5 320,-262.5"/>
<text text-anchor="middle" x="333" y="-293.3" font-family="Times,serif" font-size="14.00">A</text>
<polyline fill="none" stroke="black" points="320,-285.5 346,-285.5 "/>
<text text-anchor="middle" x="333" y="-270.3" font-family="Times,serif" font-size="14.00">B</text>
<polyline fill="none" stroke="black" points="346,-262.5 346,-308.5 "/>
<text text-anchor="middle" x="367.5" y="-289.3" font-family="Times,serif" font-size="14.00">$59</text>
<text text-anchor="middle" x="367.5" y="-274.3" font-family="Times,serif" font-size="14.00">$and</text>
<polyline fill="none" stroke="black" points="389,-262.5 389,-308.5 "/>
<text text-anchor="middle" x="402" y="-281.8" font-family="Times,serif" font-size="14.00">Y</text>
</g>
<!-- c11&#45;&gt;c12 -->
<g id="edge9" class="edge">
<title>c11:e&#45;&gt;c12:w</title>
<path fill="none" stroke="black" d="M284,-333.5C302.38,-333.5 299.72,-309.73 310.21,-300.82"/>
<polygon fill="black" stroke="black" points="311.66,-304.03 320,-297.5 309.41,-297.4 311.66,-304.03"/>
</g>
<!-- x0&#45;&gt;c11 -->
<g id="edge1" class="edge">
<title>x0:e&#45;&gt;c11:w</title>
<path fill="none" stroke="black" d="M164.31,-371.93C169.95,-366.13 171.93,-356.19 177.48,-350.3"/>
<polygon fill="none" stroke="black" points="164.12,-372 160.06,-377.96 153,-376.5 157.06,-370.54 164.12,-372"/>
<polygon fill="none" stroke="black" points="177.92,-350.11 181.92,-344.11 189,-345.5 185,-351.5 177.92,-350.11"/>
</g>
<!-- x1&#45;&gt;c11 -->
<g id="edge2" class="edge">
<title>x1:e&#45;&gt;c11:w</title>
<path fill="none" stroke="black" d="M165.22,-321.5C169.29,-321.5 172.73,-321.5 176.81,-321.5"/>
<polygon fill="none" stroke="black" points="165,-321.5 159,-325.5 153,-321.5 159,-317.5 165,-321.5"/>
<polygon fill="none" stroke="black" points="177,-321.5 183,-317.5 189,-321.5 183,-325.5 177,-321.5"/>
</g>
<!-- c13 -->
<g id="node8" class="node">
<title>c13</title>
<polygon fill="none" stroke="black" points="451,-214.5 451,-260.5 546,-260.5 546,-214.5 451,-214.5"/>
<text text-anchor="middle" x="464" y="-245.3" font-family="Times,serif" font-size="14.00">A</text>
<polyline fill="none" stroke="black" points="451,-237.5 477,-237.5 "/>
<text text-anchor="middle" x="464" y="-222.3" font-family="Times,serif" font-size="14.00">B</text>
<polyline fill="none" stroke="black" points="477,-214.5 477,-260.5 "/>
<text text-anchor="middle" x="498.5" y="-241.3" font-family="Times,serif" font-size="14.00">$60</text>
<text text-anchor="middle" x="498.5" y="-226.3" font-family="Times,serif" font-size="14.00">$and</text>
<polyline fill="none" stroke="black" points="520,-214.5 520,-260.5 "/>
<text text-anchor="middle" x="533" y="-233.8" font-family="Times,serif" font-size="14.00">Y</text>
</g>
<!-- c12&#45;&gt;c13 -->
<g id="edge10" class="edge">
<title>c12:e&#45;&gt;c13:w</title>
<path fill="none" stroke="black" d="M415,-285.5C433.38,-285.5 430.72,-261.73 441.21,-252.82"/>
<polygon fill="black" stroke="black" points="442.66,-256.03 451,-249.5 440.41,-249.4 442.66,-256.03"/>
</g>
<!-- x2&#45;&gt;c12 -->
<g id="edge3" class="edge">
<title>x2:e&#45;&gt;c12:w</title>
<path fill="none" stroke="black" d="M165.11,-266.56C225.65,-267.23 247.29,-272.77 307.8,-273.43"/>
<polygon fill="none" stroke="black" points="165,-266.56 158.98,-270.53 153,-266.5 159.02,-262.53 165,-266.56"/>
<polygon fill="none" stroke="black" points="308,-273.44 314.02,-269.47 320,-273.5 313.98,-277.47 308,-273.44"/>
</g>
<!-- c14 -->
<g id="node10" class="node">
<title>c14</title>
<polygon fill="none" stroke="black" points="582,-167.5 582,-213.5 677,-213.5 677,-167.5 582,-167.5"/>
<text text-anchor="middle" x="595" y="-198.3" font-family="Times,serif" font-size="14.00">A</text>
<polyline fill="none" stroke="black" points="582,-190.5 608,-190.5 "/>
<text text-anchor="middle" x="595" y="-175.3" font-family="Times,serif" font-size="14.00">B</text>
<polyline fill="none" stroke="black" points="608,-167.5 608,-213.5 "/>
<text text-anchor="middle" x="629.5" y="-194.3" font-family="Times,serif" font-size="14.00">$61</text>
<text text-anchor="middle" x="629.5" y="-179.3" font-family="Times,serif" font-size="14.00">$and</text>
<polyline fill="none" stroke="black" points="651,-167.5 651,-213.5 "/>
<text text-anchor="middle" x="664" y="-186.8" font-family="Times,serif" font-size="14.00">Y</text>
</g>
<!-- c13&#45;&gt;c14 -->
<g id="edge11" class="edge">
<title>c13:e&#45;&gt;c14:w</title>
<path fill="none" stroke="black" d="M546,-237.5C564.13,-237.5 561.83,-214.39 572.3,-205.73"/>
<polygon fill="black" stroke="black" points="573.62,-208.98 582,-202.5 571.41,-202.34 573.62,-208.98"/>
</g>
<!-- x3&#45;&gt;c13 -->
<g id="edge4" class="edge">
<title>x3:e&#45;&gt;c13:w</title>
<path fill="none" stroke="black" d="M412.77,-225.5C422.53,-225.5 429.02,-225.5 438.8,-225.5"/>
<polygon fill="none" stroke="black" points="412.5,-225.5 406.5,-229.5 400.5,-225.5 406.5,-221.5 412.5,-225.5"/>
<polygon fill="none" stroke="black" points="439,-225.5 445,-221.5 451,-225.5 445,-229.5 439,-225.5"/>
</g>
<!-- c15 -->
<g id="node12" class="node">
<title>c15</title>
<polygon fill="none" stroke="black" points="713,-120.5 713,-166.5 808,-166.5 808,-120.5 713,-120.5"/>
<text text-anchor="middle" x="726" y="-151.3" font-family="Times,serif" font-size="14.00">A</text>
<polyline fill="none" stroke="black" points="713,-143.5 739,-143.5 "/>
<text text-anchor="middle" x="726" y="-128.3" font-family="Times,serif" font-size="14.00">B</text>
<polyline fill="none" stroke="black" points="739,-120.5 739,-166.5 "/>
<text text-anchor="middle" x="760.5" y="-147.3" font-family="Times,serif" font-size="14.00">$62</text>
<text text-anchor="middle" x="760.5" y="-132.3" font-family="Times,serif" font-size="14.00">$and</text>
<polyline fill="none" stroke="black" points="782,-120.5 782,-166.5 "/>
<text text-anchor="middle" x="795" y="-139.8" font-family="Times,serif" font-size="14.00">Y</text>
</g>
<!-- c14&#45;&gt;c15 -->
<g id="edge12" class="edge">
<title>c14:e&#45;&gt;c15:w</title>
<path fill="none" stroke="black" d="M677,-190.5C695.13,-190.5 692.83,-167.39 703.3,-158.73"/>
<polygon fill="black" stroke="black" points="704.62,-161.98 713,-155.5 702.41,-155.34 704.62,-161.98"/>
</g>
<!-- x4&#45;&gt;c14 -->
<g id="edge5" class="edge">
<title>x4:e&#45;&gt;c14:w</title>
<path fill="none" stroke="black" d="M281.83,-178.5C406.56,-178.5 444.93,-178.5 569.65,-178.5"/>
<polygon fill="none" stroke="black" points="281.5,-178.5 275.5,-182.5 269.5,-178.5 275.5,-174.5 281.5,-178.5"/>
<polygon fill="none" stroke="black" points="570,-178.5 576,-174.5 582,-178.5 576,-182.5 570,-178.5"/>
</g>
<!-- c16 -->
<g id="node14" class="node">
<title>c16</title>
<polygon fill="none" stroke="black" points="844,-73.5 844,-119.5 939,-119.5 939,-73.5 844,-73.5"/>
<text text-anchor="middle" x="857" y="-104.3" font-family="Times,serif" font-size="14.00">A</text>
<polyline fill="none" stroke="black" points="844,-96.5 870,-96.5 "/>
<text text-anchor="middle" x="857" y="-81.3" font-family="Times,serif" font-size="14.00">B</text>
<polyline fill="none" stroke="black" points="870,-73.5 870,-119.5 "/>
<text text-anchor="middle" x="891.5" y="-100.3" font-family="Times,serif" font-size="14.00">$63</text>
<text text-anchor="middle" x="891.5" y="-85.3" font-family="Times,serif" font-size="14.00">$and</text>
<polyline fill="none" stroke="black" points="913,-73.5 913,-119.5 "/>
<text text-anchor="middle" x="926" y="-92.8" font-family="Times,serif" font-size="14.00">Y</text>
</g>
<!-- c15&#45;&gt;c16 -->
<g id="edge13" class="edge">
<title>c15:e&#45;&gt;c16:w</title>
<path fill="none" stroke="black" d="M808,-143.5C826.13,-143.5 823.83,-120.39 834.3,-111.73"/>
<polygon fill="black" stroke="black" points="835.62,-114.98 844,-108.5 833.41,-108.34 835.62,-114.98"/>
</g>
<!-- x5&#45;&gt;c15 -->
<g id="edge6" class="edge">
<title>x5:e&#45;&gt;c15:w</title>
<path fill="none" stroke="black" d="M543.77,-131.5C610.6,-131.5 634.02,-131.5 700.93,-131.5"/>
<polygon fill="none" stroke="black" points="543.5,-131.5 537.5,-135.5 531.5,-131.5 537.5,-127.5 543.5,-131.5"/>
<polygon fill="none" stroke="black" points="701,-131.5 707,-127.5 713,-131.5 707,-135.5 701,-131.5"/>
</g>
<!-- c17 -->
<g id="node16" class="node">
<title>c17</title>
<polygon fill="none" stroke="black" points="975,-43.5 975,-89.5 1070,-89.5 1070,-43.5 975,-43.5"/>
<text text-anchor="middle" x="988" y="-74.3" font-family="Times,serif" font-size="14.00">A</text>
<polyline fill="none" stroke="black" points="975,-66.5 1001,-66.5 "/>
<text text-anchor="middle" x="988" y="-51.3" font-family="Times,serif" font-size="14.00">B</text>
<polyline fill="none" stroke="black" points="1001,-43.5 1001,-89.5 "/>
<text text-anchor="middle" x="1022.5" y="-70.3" font-family="Times,serif" font-size="14.00">$64</text>
<text text-anchor="middle" x="1022.5" y="-55.3" font-family="Times,serif" font-size="14.00">$and</text>
<polyline fill="none" stroke="black" points="1044,-43.5 1044,-89.5 "/>
<text text-anchor="middle" x="1057" y="-62.8" font-family="Times,serif" font-size="14.00">Y</text>
</g>
<!-- c16&#45;&gt;c17 -->
<g id="edge14" class="edge">
<title>c16:e&#45;&gt;c17:w</title>
<path fill="none" stroke="black" d="M939,-96.5C952.84,-96.5 956.1,-85.73 965.15,-80.85"/>
<polygon fill="black" stroke="black" points="966.09,-84.23 975,-78.5 964.46,-77.42 966.09,-84.23"/>
</g>
<!-- x6&#45;&gt;c16 -->
<g id="edge7" class="edge">
<title>x6:e&#45;&gt;c16:w</title>
<path fill="none" stroke="black" d="M412.72,-84.5C595.73,-84.5 648.76,-84.5 831.76,-84.5"/>
<polygon fill="none" stroke="black" points="412.5,-84.5 406.5,-88.5 400.5,-84.5 406.5,-80.5 412.5,-84.5"/>
<polygon fill="none" stroke="black" points="832,-84.5 838,-80.5 844,-84.5 838,-88.5 832,-84.5"/>
</g>
<!-- c17&#45;&gt;n8 -->
<g id="edge23" class="edge">
<title>c17:e&#45;&gt;n8:w</title>
<path fill="none" stroke="black" d="M1070,-66.5C1082,-66.5 1087.25,-66.5 1095.88,-66.5"/>
<polygon fill="black" stroke="black" points="1096,-70 1106,-66.5 1096,-63 1096,-70"/>
</g>
<!-- x7&#45;&gt;c17 -->
<g id="edge8" class="edge">
<title>x7:e&#45;&gt;c17:w</title>
<path fill="none" stroke="black" d="M281.6,-41.48C373.05,-41.18 400.31,-37.5 497.5,-37.5 497.5,-37.5 497.5,-37.5 761.5,-37.5 852.51,-37.5 877.64,-53.04 962.86,-54.4"/>
<polygon fill="none" stroke="black" points="281.5,-41.48 275.51,-45.49 269.5,-41.5 275.49,-37.49 281.5,-41.48"/>
<polygon fill="none" stroke="black" points="963,-54.41 969.03,-50.45 975,-54.5 968.97,-58.45 963,-54.41"/>
</g>
</g>
</svg>
