<?xml version="1.0" encoding="UTF-8" standalone="no"?>
<!DOCTYPE svg PUBLIC "-//W3C//DTD SVG 1.1//EN"
 "http://www.w3.org/Graphics/SVG/1.1/DTD/svg11.dtd">
<!-- Generated by graphviz version 2.43.0 (0)
 -->
<!-- Title: mux2_1 Pages: 1 -->
<svg width="732pt" height="169pt"
 viewBox="0.00 0.00 732.33 169.00" xmlns="http://www.w3.org/2000/svg" xmlns:xlink="http://www.w3.org/1999/xlink">
<g id="page0,1_graph0" class="graph" transform="scale(1 1) rotate(0) translate(4 165)">
<title>mux2_1</title>
<polygon fill="white" stroke="transparent" points="-4,4 -4,-165 728.33,-165 728.33,4 -4,4"/>
<text text-anchor="middle" x="362.16" y="-7.8" font-family="Times,serif" font-size="14.00">mux2_1</text>
<!-- n1 -->
<g id="node1" class="node">
<title>n1</title>
<polygon fill="none" stroke="black" points="278.33,-81.54 278.33,-96.46 262.52,-107 240.15,-107 224.33,-96.46 224.33,-81.54 240.15,-71 262.52,-71 278.33,-81.54"/>
<text text-anchor="middle" x="251.33" y="-85.3" font-family="Times,serif" font-size="14.00">A</text>
</g>
<!-- c9 -->
<g id="node8" class="node">
<title>c9</title>
<polygon fill="none" stroke="black" points="317.66,-80 317.66,-126 412.66,-126 412.66,-80 317.66,-80"/>
<text text-anchor="middle" x="330.66" y="-110.8" font-family="Times,serif" font-size="14.00">A</text>
<polyline fill="none" stroke="black" points="317.66,-103 343.66,-103 "/>
<text text-anchor="middle" x="330.66" y="-87.8" font-family="Times,serif" font-size="14.00">B</text>
<polyline fill="none" stroke="black" points="343.66,-80 343.66,-126 "/>
<text text-anchor="middle" x="365.16" y="-106.8" font-family="Times,serif" font-size="14.00">$41</text>
<text text-anchor="middle" x="365.16" y="-91.8" font-family="Times,serif" font-size="14.00">$and</text>
<polyline fill="none" stroke="black" points="386.66,-80 386.66,-126 "/>
<text text-anchor="middle" x="399.66" y="-99.3" font-family="Times,serif" font-size="14.00">Y</text>
</g>
<!-- n1&#45;&gt;c9 -->
<g id="edge1" class="edge">
<title>n1:e&#45;&gt;c9:w</title>
<path fill="none" stroke="black" d="M279.33,-89C292.39,-89 297.92,-90.17 307.46,-90.72"/>
<polygon fill="black" stroke="black" points="307.57,-94.23 317.66,-91 307.76,-87.23 307.57,-94.23"/>
</g>
<!-- n2 -->
<g id="node2" class="node">
<title>n2</title>
<polygon fill="none" stroke="black" points="54,-33.54 54,-48.46 38.18,-59 15.82,-59 0,-48.46 0,-33.54 15.82,-23 38.18,-23 54,-33.54"/>
<text text-anchor="middle" x="27" y="-37.3" font-family="Times,serif" font-size="14.00">B</text>
</g>
<!-- c10 -->
<g id="node9" class="node">
<title>c10</title>
<polygon fill="none" stroke="black" points="90,-30 90,-76 185,-76 185,-30 90,-30"/>
<text text-anchor="middle" x="103" y="-60.8" font-family="Times,serif" font-size="14.00">A</text>
<polyline fill="none" stroke="black" points="90,-53 116,-53 "/>
<text text-anchor="middle" x="103" y="-37.8" font-family="Times,serif" font-size="14.00">B</text>
<polyline fill="none" stroke="black" points="116,-30 116,-76 "/>
<text text-anchor="middle" x="137.5" y="-56.8" font-family="Times,serif" font-size="14.00">$42</text>
<text text-anchor="middle" x="137.5" y="-41.8" font-family="Times,serif" font-size="14.00">$and</text>
<polyline fill="none" stroke="black" points="159,-30 159,-76 "/>
<text text-anchor="middle" x="172" y="-49.3" font-family="Times,serif" font-size="14.00">Y</text>
</g>
<!-- n2&#45;&gt;c10 -->
<g id="edge2" class="edge">
<title>n2:e&#45;&gt;c10:w</title>
<path fill="none" stroke="black" d="M54,-41C66,-41 71.25,-41 79.88,-41"/>
<polygon fill="black" stroke="black" points="80,-44.5 90,-41 80,-37.5 80,-44.5"/>
</g>
<!-- n3 -->
<g id="node3" class="node">
<title>n3</title>
<polygon fill="none" stroke="black" points="724.33,-65.54 724.33,-80.46 708.51,-91 686.14,-91 670.33,-80.46 670.33,-65.54 686.14,-55 708.51,-55 724.33,-65.54"/>
<text text-anchor="middle" x="697.33" y="-69.3" font-family="Times,serif" font-size="14.00">out</text>
</g>
<!-- n4 -->
<g id="node4" class="node">
<title>n4</title>
<polygon fill="none" stroke="black" points="54,-96.54 54,-111.46 38.18,-122 15.82,-122 0,-111.46 0,-96.54 15.82,-86 38.18,-86 54,-96.54"/>
<text text-anchor="middle" x="27" y="-100.3" font-family="Times,serif" font-size="14.00">sel</text>
</g>
<!-- n4&#45;&gt;c10 -->
<g id="edge4" class="edge">
<title>n4:e&#45;&gt;c10:w</title>
<path fill="none" stroke="black" d="M54,-104C73.35,-104 69.31,-77.76 80.25,-68.33"/>
<polygon fill="black" stroke="black" points="81.66,-71.54 90,-65 79.41,-64.91 81.66,-71.54"/>
</g>
<!-- c11 -->
<g id="node10" class="node">
<title>c11</title>
<polygon fill="none" stroke="black" points="91,-114 91,-152 184,-152 184,-114 91,-114"/>
<text text-anchor="middle" x="104" y="-129.3" font-family="Times,serif" font-size="14.00">A</text>
<polyline fill="none" stroke="black" points="117,-114 117,-152 "/>
<text text-anchor="middle" x="137.5" y="-136.8" font-family="Times,serif" font-size="14.00">$44</text>
<text text-anchor="middle" x="137.5" y="-121.8" font-family="Times,serif" font-size="14.00">$not</text>
<polyline fill="none" stroke="black" points="158,-114 158,-152 "/>
<text text-anchor="middle" x="171" y="-129.3" font-family="Times,serif" font-size="14.00">Y</text>
</g>
<!-- n4&#45;&gt;c11 -->
<g id="edge5" class="edge">
<title>n4:e&#45;&gt;c11:w</title>
<path fill="none" stroke="black" d="M54,-104C70.37,-104 70.46,-122.42 80.22,-129.9"/>
<polygon fill="black" stroke="black" points="79.41,-133.31 90,-133 81.53,-126.64 79.41,-133.31"/>
</g>
<!-- n5 -->
<g id="node5" class="node">
<title>n5</title>
<polygon fill="none" stroke="black" points="251.33,-161 221.17,-143 251.33,-125 281.5,-143 251.33,-161"/>
<text text-anchor="middle" x="251.33" y="-139.3" font-family="Times,serif" font-size="14.00">w1</text>
</g>
<!-- n5&#45;&gt;c9 -->
<g id="edge7" class="edge">
<title>n5:e&#45;&gt;c9:w</title>
<path fill="none" stroke="black" d="M281.66,-143C297.82,-143 298.22,-125.22 307.97,-118"/>
<polygon fill="black" stroke="black" points="309.14,-121.3 317.66,-115 307.08,-114.61 309.14,-121.3"/>
</g>
<!-- n6 -->
<g id="node6" class="node">
<title>n6</title>
<polygon fill="none" stroke="black" points="479,-117 448.83,-99 479,-81 509.16,-99 479,-117"/>
<text text-anchor="middle" x="479" y="-95.3" font-family="Times,serif" font-size="14.00">w2</text>
</g>
<!-- c12 -->
<g id="node11" class="node">
<title>c12</title>
<polygon fill="none" stroke="black" points="545.33,-50 545.33,-96 634.33,-96 634.33,-50 545.33,-50"/>
<text text-anchor="middle" x="558.33" y="-80.8" font-family="Times,serif" font-size="14.00">A</text>
<polyline fill="none" stroke="black" points="545.33,-73 571.33,-73 "/>
<text text-anchor="middle" x="558.33" y="-57.8" font-family="Times,serif" font-size="14.00">B</text>
<polyline fill="none" stroke="black" points="571.33,-50 571.33,-96 "/>
<text text-anchor="middle" x="589.83" y="-76.8" font-family="Times,serif" font-size="14.00">$43</text>
<text text-anchor="middle" x="589.83" y="-61.8" font-family="Times,serif" font-size="14.00">$or</text>
<polyline fill="none" stroke="black" points="608.33,-50 608.33,-96 "/>
<text text-anchor="middle" x="621.33" y="-69.3" font-family="Times,serif" font-size="14.00">Y</text>
</g>
<!-- n6&#45;&gt;c12 -->
<g id="edge9" class="edge">
<title>n6:e&#45;&gt;c12:w</title>
<path fill="none" stroke="black" d="M509.33,-99C522.47,-99 526.53,-90.79 535.41,-86.95"/>
<polygon fill="black" stroke="black" points="536.19,-90.36 545.33,-85 534.84,-83.49 536.19,-90.36"/>
</g>
<!-- n7 -->
<g id="node7" class="node">
<title>n7</title>
<polygon fill="none" stroke="black" points="365.16,-61 335,-43 365.16,-25 395.33,-43 365.16,-61"/>
<text text-anchor="middle" x="365.16" y="-39.3" font-family="Times,serif" font-size="14.00">w3</text>
</g>
<!-- n7&#45;&gt;c12 -->
<g id="edge11" class="edge">
<title>n7:e&#45;&gt;c12:w</title>
<path fill="none" stroke="black" d="M396.16,-43C459.42,-43 476.76,-59.15 535.18,-60.86"/>
<polygon fill="black" stroke="black" points="535.28,-64.36 545.33,-61 535.38,-57.36 535.28,-64.36"/>
</g>
<!-- c9&#45;&gt;n6 -->
<g id="edge8" class="edge">
<title>c9:e&#45;&gt;n6:w</title>
<path fill="none" stroke="black" d="M412.66,-103C424.74,-103 429.9,-100.75 438.51,-99.62"/>
<polygon fill="black" stroke="black" points="438.9,-103.11 448.66,-99 438.47,-96.12 438.9,-103.11"/>
</g>
<!-- c10&#45;&gt;n7 -->
<g id="edge10" class="edge">
<title>c10:e&#45;&gt;n7:w</title>
<path fill="none" stroke="black" d="M185,-53C247.94,-53 265.86,-44.03 324.06,-43.08"/>
<polygon fill="black" stroke="black" points="324.19,-46.58 334.16,-43 324.14,-39.58 324.19,-46.58"/>
</g>
<!-- c11&#45;&gt;n5 -->
<g id="edge6" class="edge">
<title>c11:e&#45;&gt;n5:w</title>
<path fill="none" stroke="black" d="M185,-133C197.58,-133 202.23,-138.74 210.97,-141.52"/>
<polygon fill="black" stroke="black" points="210.6,-145.01 221,-143 211.62,-138.08 210.6,-145.01"/>
</g>
<!-- c12&#45;&gt;n3 -->
<g id="edge3" class="edge">
<title>c12:e&#45;&gt;n3:w</title>
<path fill="none" stroke="black" d="M634.33,-73C646.33,-73 651.58,-73 660.2,-73"/>
<polygon fill="black" stroke="black" points="660.33,-76.5 670.33,-73 660.33,-69.5 660.33,-76.5"/>
</g>
</g>
</svg>
