<?xml version="1.0" encoding="UTF-8" standalone="no"?>
<!DOCTYPE svg PUBLIC "-//W3C//DTD SVG 1.1//EN"
 "http://www.w3.org/Graphics/SVG/1.1/DTD/svg11.dtd">
<!-- Generated by graphviz version 2.43.0 (0)
 -->
<!-- Title: and8b Pages: 1 -->
<svg width="481pt" height="893pt"
 viewBox="0.00 0.00 481.00 893.00" xmlns="http://www.w3.org/2000/svg" xmlns:xlink="http://www.w3.org/1999/xlink">
<g id="page0,1_graph0" class="graph" transform="scale(1 1) rotate(0) translate(4 889)">
<title>and8b</title>
<polygon fill="white" stroke="transparent" points="-4,4 -4,-889 477,-889 477,4 -4,4"/>
<text text-anchor="middle" x="236.5" y="-7.8" font-family="Times,serif" font-size="14.00">and8b</text>
<!-- n1 -->
<g id="node1" class="node">
<title>n1</title>
<polygon fill="none" stroke="black" points="54,-529.04 54,-543.96 38.18,-554.5 15.82,-554.5 0,-543.96 0,-529.04 15.82,-518.5 38.18,-518.5 54,-529.04"/>
<text text-anchor="middle" x="27" y="-532.8" font-family="Times,serif" font-size="14.00">A</text>
</g>
<!-- x0 -->
<g id="node5" class="node">
<title>x0</title>
<path fill="none" stroke="black" d="M102,-848.5C102,-848.5 141,-848.5 141,-848.5 147,-848.5 153,-854.5 153,-860.5 153,-860.5 153,-872.5 153,-872.5 153,-878.5 147,-884.5 141,-884.5 141,-884.5 102,-884.5 102,-884.5 96,-884.5 90,-878.5 90,-872.5 90,-872.5 90,-860.5 90,-860.5 90,-854.5 96,-848.5 102,-848.5"/>
<text text-anchor="middle" x="121.5" y="-862.8" font-family="Times,serif" font-size="14.00">0:0 &#45; 0:0</text>
</g>
<!-- n1&#45;&gt;x0 -->
<g id="edge25" class="edge">
<title>n1:e&#45;&gt;x0:w</title>
<path fill="none" stroke="black" d="M54,-536.5C124.02,-536.5 27.08,-833.84 80.15,-864.03"/>
<polygon fill="black" stroke="black" points="79.45,-867.47 90,-866.5 81.15,-860.68 79.45,-867.47"/>
</g>
<!-- x3 -->
<g id="node9" class="node">
<title>x3</title>
<path fill="none" stroke="black" d="M102,-463.5C102,-463.5 141,-463.5 141,-463.5 147,-463.5 153,-469.5 153,-475.5 153,-475.5 153,-487.5 153,-487.5 153,-493.5 147,-499.5 141,-499.5 141,-499.5 102,-499.5 102,-499.5 96,-499.5 90,-493.5 90,-487.5 90,-487.5 90,-475.5 90,-475.5 90,-469.5 96,-463.5 102,-463.5"/>
<text text-anchor="middle" x="121.5" y="-477.8" font-family="Times,serif" font-size="14.00">1:1 &#45; 0:0</text>
</g>
<!-- n1&#45;&gt;x3 -->
<g id="edge30" class="edge">
<title>n1:e&#45;&gt;x3:w</title>
<path fill="none" stroke="black" d="M54,-536.5C78.88,-536.5 66.31,-496.62 80.07,-484.78"/>
<polygon fill="black" stroke="black" points="81.6,-487.96 90,-481.5 79.41,-481.31 81.6,-487.96"/>
</g>
<!-- x6 -->
<g id="node13" class="node">
<title>x6</title>
<path fill="none" stroke="black" d="M102,-793.5C102,-793.5 141,-793.5 141,-793.5 147,-793.5 153,-799.5 153,-805.5 153,-805.5 153,-817.5 153,-817.5 153,-823.5 147,-829.5 141,-829.5 141,-829.5 102,-829.5 102,-829.5 96,-829.5 90,-823.5 90,-817.5 90,-817.5 90,-805.5 90,-805.5 90,-799.5 96,-793.5 102,-793.5"/>
<text text-anchor="middle" x="121.5" y="-807.8" font-family="Times,serif" font-size="14.00">2:2 &#45; 0:0</text>
</g>
<!-- n1&#45;&gt;x6 -->
<g id="edge31" class="edge">
<title>n1:e&#45;&gt;x6:w</title>
<path fill="none" stroke="black" d="M54,-536.5C111.9,-536.5 38.39,-779.21 80.38,-808.6"/>
<polygon fill="black" stroke="black" points="79.42,-811.96 90,-811.5 81.44,-805.26 79.42,-811.96"/>
</g>
<!-- x9 -->
<g id="node17" class="node">
<title>x9</title>
<path fill="none" stroke="black" d="M102,-353.5C102,-353.5 141,-353.5 141,-353.5 147,-353.5 153,-359.5 153,-365.5 153,-365.5 153,-377.5 153,-377.5 153,-383.5 147,-389.5 141,-389.5 141,-389.5 102,-389.5 102,-389.5 96,-389.5 90,-383.5 90,-377.5 90,-377.5 90,-365.5 90,-365.5 90,-359.5 96,-353.5 102,-353.5"/>
<text text-anchor="middle" x="121.5" y="-367.8" font-family="Times,serif" font-size="14.00">3:3 &#45; 0:0</text>
</g>
<!-- n1&#45;&gt;x9 -->
<g id="edge32" class="edge">
<title>n1:e&#45;&gt;x9:w</title>
<path fill="none" stroke="black" d="M54,-536.5C125.25,-536.5 26.04,-387.83 79.98,-372.73"/>
<polygon fill="black" stroke="black" points="80.5,-376.2 90,-371.5 79.65,-369.25 80.5,-376.2"/>
</g>
<!-- x12 -->
<g id="node21" class="node">
<title>x12</title>
<path fill="none" stroke="black" d="M102,-573.5C102,-573.5 141,-573.5 141,-573.5 147,-573.5 153,-579.5 153,-585.5 153,-585.5 153,-597.5 153,-597.5 153,-603.5 147,-609.5 141,-609.5 141,-609.5 102,-609.5 102,-609.5 96,-609.5 90,-603.5 90,-597.5 90,-597.5 90,-585.5 90,-585.5 90,-579.5 96,-573.5 102,-573.5"/>
<text text-anchor="middle" x="121.5" y="-587.8" font-family="Times,serif" font-size="14.00">4:4 &#45; 0:0</text>
</g>
<!-- n1&#45;&gt;x12 -->
<g id="edge26" class="edge">
<title>n1:e&#45;&gt;x12:w</title>
<path fill="none" stroke="black" d="M54,-536.5C78.88,-536.5 66.31,-576.38 80.07,-588.22"/>
<polygon fill="black" stroke="black" points="79.41,-591.69 90,-591.5 81.6,-585.04 79.41,-591.69"/>
</g>
<!-- x15 -->
<g id="node25" class="node">
<title>x15</title>
<path fill="none" stroke="black" d="M102,-133.5C102,-133.5 141,-133.5 141,-133.5 147,-133.5 153,-139.5 153,-145.5 153,-145.5 153,-157.5 153,-157.5 153,-163.5 147,-169.5 141,-169.5 141,-169.5 102,-169.5 102,-169.5 96,-169.5 90,-163.5 90,-157.5 90,-157.5 90,-145.5 90,-145.5 90,-139.5 96,-133.5 102,-133.5"/>
<text text-anchor="middle" x="121.5" y="-147.8" font-family="Times,serif" font-size="14.00">5:5 &#45; 0:0</text>
</g>
<!-- n1&#45;&gt;x15 -->
<g id="edge27" class="edge">
<title>n1:e&#45;&gt;x15:w</title>
<path fill="none" stroke="black" d="M54,-536.5C136.24,-536.5 15.34,-183.88 80.12,-153.57"/>
<polygon fill="black" stroke="black" points="80.93,-156.98 90,-151.5 79.49,-150.13 80.93,-156.98"/>
</g>
<!-- x18 -->
<g id="node29" class="node">
<title>x18</title>
<path fill="none" stroke="black" d="M102,-243.5C102,-243.5 141,-243.5 141,-243.5 147,-243.5 153,-249.5 153,-255.5 153,-255.5 153,-267.5 153,-267.5 153,-273.5 147,-279.5 141,-279.5 141,-279.5 102,-279.5 102,-279.5 96,-279.5 90,-273.5 90,-267.5 90,-267.5 90,-255.5 90,-255.5 90,-249.5 96,-243.5 102,-243.5"/>
<text text-anchor="middle" x="121.5" y="-257.8" font-family="Times,serif" font-size="14.00">6:6 &#45; 0:0</text>
</g>
<!-- n1&#45;&gt;x18 -->
<g id="edge28" class="edge">
<title>n1:e&#45;&gt;x18:w</title>
<path fill="none" stroke="black" d="M54,-536.5C111.9,-536.5 38.39,-293.79 80.38,-264.4"/>
<polygon fill="black" stroke="black" points="81.44,-267.74 90,-261.5 79.42,-261.04 81.44,-267.74"/>
</g>
<!-- x21 -->
<g id="node33" class="node">
<title>x21</title>
<path fill="none" stroke="black" d="M102,-683.5C102,-683.5 141,-683.5 141,-683.5 147,-683.5 153,-689.5 153,-695.5 153,-695.5 153,-707.5 153,-707.5 153,-713.5 147,-719.5 141,-719.5 141,-719.5 102,-719.5 102,-719.5 96,-719.5 90,-713.5 90,-707.5 90,-707.5 90,-695.5 90,-695.5 90,-689.5 96,-683.5 102,-683.5"/>
<text text-anchor="middle" x="121.5" y="-697.8" font-family="Times,serif" font-size="14.00">7:7 &#45; 0:0</text>
</g>
<!-- n1&#45;&gt;x21 -->
<g id="edge29" class="edge">
<title>n1:e&#45;&gt;x21:w</title>
<path fill="none" stroke="black" d="M54,-536.5C125.25,-536.5 26.04,-685.17 79.98,-700.27"/>
<polygon fill="black" stroke="black" points="79.65,-703.75 90,-701.5 80.5,-696.8 79.65,-703.75"/>
</g>
<!-- n2 -->
<g id="node2" class="node">
<title>n2</title>
<polygon fill="none" stroke="black" points="54,-364.04 54,-378.96 38.18,-389.5 15.82,-389.5 0,-378.96 0,-364.04 15.82,-353.5 38.18,-353.5 54,-364.04"/>
<text text-anchor="middle" x="27" y="-367.8" font-family="Times,serif" font-size="14.00">B</text>
</g>
<!-- x1 -->
<g id="node6" class="node">
<title>x1</title>
<path fill="none" stroke="black" d="M102,-738.5C102,-738.5 141,-738.5 141,-738.5 147,-738.5 153,-744.5 153,-750.5 153,-750.5 153,-762.5 153,-762.5 153,-768.5 147,-774.5 141,-774.5 141,-774.5 102,-774.5 102,-774.5 96,-774.5 90,-768.5 90,-762.5 90,-762.5 90,-750.5 90,-750.5 90,-744.5 96,-738.5 102,-738.5"/>
<text text-anchor="middle" x="121.5" y="-752.8" font-family="Times,serif" font-size="14.00">0:0 &#45; 0:0</text>
</g>
<!-- n2&#45;&gt;x1 -->
<g id="edge37" class="edge">
<title>n2:e&#45;&gt;x1:w</title>
<path fill="none" stroke="black" d="M54,-371.5C136.24,-371.5 15.34,-724.12 80.12,-754.43"/>
<polygon fill="black" stroke="black" points="79.49,-757.87 90,-756.5 80.93,-751.02 79.49,-757.87"/>
</g>
<!-- x4 -->
<g id="node10" class="node">
<title>x4</title>
<path fill="none" stroke="black" d="M102,-298.5C102,-298.5 141,-298.5 141,-298.5 147,-298.5 153,-304.5 153,-310.5 153,-310.5 153,-322.5 153,-322.5 153,-328.5 147,-334.5 141,-334.5 141,-334.5 102,-334.5 102,-334.5 96,-334.5 90,-328.5 90,-322.5 90,-322.5 90,-310.5 90,-310.5 90,-304.5 96,-298.5 102,-298.5"/>
<text text-anchor="middle" x="121.5" y="-312.8" font-family="Times,serif" font-size="14.00">1:1 &#45; 0:0</text>
</g>
<!-- n2&#45;&gt;x4 -->
<g id="edge39" class="edge">
<title>n2:e&#45;&gt;x4:w</title>
<path fill="none" stroke="black" d="M54,-371.5C78.88,-371.5 66.31,-331.62 80.07,-319.78"/>
<polygon fill="black" stroke="black" points="81.6,-322.96 90,-316.5 79.41,-316.31 81.6,-322.96"/>
</g>
<!-- x7 -->
<g id="node14" class="node">
<title>x7</title>
<path fill="none" stroke="black" d="M102,-628.5C102,-628.5 141,-628.5 141,-628.5 147,-628.5 153,-634.5 153,-640.5 153,-640.5 153,-652.5 153,-652.5 153,-658.5 147,-664.5 141,-664.5 141,-664.5 102,-664.5 102,-664.5 96,-664.5 90,-658.5 90,-652.5 90,-652.5 90,-640.5 90,-640.5 90,-634.5 96,-628.5 102,-628.5"/>
<text text-anchor="middle" x="121.5" y="-642.8" font-family="Times,serif" font-size="14.00">2:2 &#45; 0:0</text>
</g>
<!-- n2&#45;&gt;x7 -->
<g id="edge40" class="edge">
<title>n2:e&#45;&gt;x7:w</title>
<path fill="none" stroke="black" d="M54,-371.5C111.9,-371.5 38.39,-614.21 80.38,-643.6"/>
<polygon fill="black" stroke="black" points="79.42,-646.96 90,-646.5 81.44,-640.26 79.42,-646.96"/>
</g>
<!-- x10 -->
<g id="node18" class="node">
<title>x10</title>
<path fill="none" stroke="black" d="M102,-188.5C102,-188.5 141,-188.5 141,-188.5 147,-188.5 153,-194.5 153,-200.5 153,-200.5 153,-212.5 153,-212.5 153,-218.5 147,-224.5 141,-224.5 141,-224.5 102,-224.5 102,-224.5 96,-224.5 90,-218.5 90,-212.5 90,-212.5 90,-200.5 90,-200.5 90,-194.5 96,-188.5 102,-188.5"/>
<text text-anchor="middle" x="121.5" y="-202.8" font-family="Times,serif" font-size="14.00">3:3 &#45; 0:0</text>
</g>
<!-- n2&#45;&gt;x10 -->
<g id="edge33" class="edge">
<title>n2:e&#45;&gt;x10:w</title>
<path fill="none" stroke="black" d="M54,-371.5C125.25,-371.5 26.04,-222.83 79.98,-207.73"/>
<polygon fill="black" stroke="black" points="80.5,-211.2 90,-206.5 79.65,-204.25 80.5,-211.2"/>
</g>
<!-- x13 -->
<g id="node22" class="node">
<title>x13</title>
<path fill="none" stroke="black" d="M102,-408.5C102,-408.5 141,-408.5 141,-408.5 147,-408.5 153,-414.5 153,-420.5 153,-420.5 153,-432.5 153,-432.5 153,-438.5 147,-444.5 141,-444.5 141,-444.5 102,-444.5 102,-444.5 96,-444.5 90,-438.5 90,-432.5 90,-432.5 90,-420.5 90,-420.5 90,-414.5 96,-408.5 102,-408.5"/>
<text text-anchor="middle" x="121.5" y="-422.8" font-family="Times,serif" font-size="14.00">4:4 &#45; 0:0</text>
</g>
<!-- n2&#45;&gt;x13 -->
<g id="edge34" class="edge">
<title>n2:e&#45;&gt;x13:w</title>
<path fill="none" stroke="black" d="M54,-371.5C78.88,-371.5 66.31,-411.38 80.07,-423.22"/>
<polygon fill="black" stroke="black" points="79.41,-426.69 90,-426.5 81.6,-420.04 79.41,-426.69"/>
</g>
<!-- x16 -->
<g id="node26" class="node">
<title>x16</title>
<path fill="none" stroke="black" d="M102,-23.5C102,-23.5 141,-23.5 141,-23.5 147,-23.5 153,-29.5 153,-35.5 153,-35.5 153,-47.5 153,-47.5 153,-53.5 147,-59.5 141,-59.5 141,-59.5 102,-59.5 102,-59.5 96,-59.5 90,-53.5 90,-47.5 90,-47.5 90,-35.5 90,-35.5 90,-29.5 96,-23.5 102,-23.5"/>
<text text-anchor="middle" x="121.5" y="-37.8" font-family="Times,serif" font-size="14.00">5:5 &#45; 0:0</text>
</g>
<!-- n2&#45;&gt;x16 -->
<g id="edge35" class="edge">
<title>n2:e&#45;&gt;x16:w</title>
<path fill="none" stroke="black" d="M54,-371.5C124.02,-371.5 27.08,-74.16 80.15,-43.97"/>
<polygon fill="black" stroke="black" points="81.15,-47.32 90,-41.5 79.45,-40.53 81.15,-47.32"/>
</g>
<!-- x19 -->
<g id="node30" class="node">
<title>x19</title>
<path fill="none" stroke="black" d="M102,-78.5C102,-78.5 141,-78.5 141,-78.5 147,-78.5 153,-84.5 153,-90.5 153,-90.5 153,-102.5 153,-102.5 153,-108.5 147,-114.5 141,-114.5 141,-114.5 102,-114.5 102,-114.5 96,-114.5 90,-108.5 90,-102.5 90,-102.5 90,-90.5 90,-90.5 90,-84.5 96,-78.5 102,-78.5"/>
<text text-anchor="middle" x="121.5" y="-92.8" font-family="Times,serif" font-size="14.00">6:6 &#45; 0:0</text>
</g>
<!-- n2&#45;&gt;x19 -->
<g id="edge36" class="edge">
<title>n2:e&#45;&gt;x19:w</title>
<path fill="none" stroke="black" d="M54,-371.5C111.9,-371.5 38.39,-128.79 80.38,-99.4"/>
<polygon fill="black" stroke="black" points="81.44,-102.74 90,-96.5 79.42,-96.04 81.44,-102.74"/>
</g>
<!-- x22 -->
<g id="node34" class="node">
<title>x22</title>
<path fill="none" stroke="black" d="M102,-518.5C102,-518.5 141,-518.5 141,-518.5 147,-518.5 153,-524.5 153,-530.5 153,-530.5 153,-542.5 153,-542.5 153,-548.5 147,-554.5 141,-554.5 141,-554.5 102,-554.5 102,-554.5 96,-554.5 90,-548.5 90,-542.5 90,-542.5 90,-530.5 90,-530.5 90,-524.5 96,-518.5 102,-518.5"/>
<text text-anchor="middle" x="121.5" y="-532.8" font-family="Times,serif" font-size="14.00">7:7 &#45; 0:0</text>
</g>
<!-- n2&#45;&gt;x22 -->
<g id="edge38" class="edge">
<title>n2:e&#45;&gt;x22:w</title>
<path fill="none" stroke="black" d="M54,-371.5C125.25,-371.5 26.04,-520.17 79.98,-535.27"/>
<polygon fill="black" stroke="black" points="79.65,-538.75 90,-536.5 80.5,-531.8 79.65,-538.75"/>
</g>
<!-- n3 -->
<g id="node3" class="node">
<title>n3</title>
<polygon fill="none" stroke="black" points="473,-446.04 473,-460.96 457.18,-471.5 434.82,-471.5 419,-460.96 419,-446.04 434.82,-435.5 457.18,-435.5 473,-446.04"/>
<text text-anchor="middle" x="446" y="-449.8" font-family="Times,serif" font-size="14.00">out</text>
</g>
<!-- c5 -->
<g id="node4" class="node">
<title>c5</title>
<polygon fill="none" stroke="black" points="189,-745.5 189,-791.5 284,-791.5 284,-745.5 189,-745.5"/>
<text text-anchor="middle" x="202" y="-776.3" font-family="Times,serif" font-size="14.00">A</text>
<polyline fill="none" stroke="black" points="189,-768.5 215,-768.5 "/>
<text text-anchor="middle" x="202" y="-753.3" font-family="Times,serif" font-size="14.00">B</text>
<polyline fill="none" stroke="black" points="215,-745.5 215,-791.5 "/>
<text text-anchor="middle" x="236.5" y="-772.3" font-family="Times,serif" font-size="14.00">$89</text>
<text text-anchor="middle" x="236.5" y="-757.3" font-family="Times,serif" font-size="14.00">$and</text>
<polyline fill="none" stroke="black" points="258,-745.5 258,-791.5 "/>
<text text-anchor="middle" x="271" y="-764.8" font-family="Times,serif" font-size="14.00">Y</text>
</g>
<!-- x2 -->
<g id="node7" class="node">
<title>x2</title>
<path fill="none" stroke="black" d="M332,-705.5C332,-705.5 371,-705.5 371,-705.5 377,-705.5 383,-711.5 383,-717.5 383,-717.5 383,-729.5 383,-729.5 383,-735.5 377,-741.5 371,-741.5 371,-741.5 332,-741.5 332,-741.5 326,-741.5 320,-735.5 320,-729.5 320,-729.5 320,-717.5 320,-717.5 320,-711.5 326,-705.5 332,-705.5"/>
<text text-anchor="middle" x="351.5" y="-719.8" font-family="Times,serif" font-size="14.00">0:0 &#45; 0:0</text>
</g>
<!-- c5&#45;&gt;x2 -->
<g id="edge3" class="edge">
<title>c5:e&#45;&gt;x2:w</title>
<path fill="none" stroke="black" d="M295.24,-763.68C302.64,-754.98 301.39,-736.73 308.91,-728.15"/>
<polygon fill="none" stroke="black" points="295.03,-763.77 291.09,-769.81 284,-768.5 287.94,-762.46 295.03,-763.77"/>
<polygon fill="none" stroke="black" points="308.93,-728.14 312.92,-722.13 320,-723.5 316.01,-729.51 308.93,-728.14"/>
</g>
<!-- x0&#45;&gt;c5 -->
<g id="edge1" class="edge">
<title>x0:e&#45;&gt;c5:w</title>
<path fill="none" stroke="black" d="M164.74,-862.8C181.38,-848.66 160.56,-798.04 177.39,-784.09"/>
<polygon fill="none" stroke="black" points="164.45,-862.9 159.92,-868.51 153,-866.5 157.52,-860.88 164.45,-862.9"/>
<polygon fill="none" stroke="black" points="177.53,-784.04 182.09,-778.45 189,-780.5 184.45,-786.09 177.53,-784.04"/>
</g>
<!-- x1&#45;&gt;c5 -->
<g id="edge2" class="edge">
<title>x1:e&#45;&gt;c5:w</title>
<path fill="none" stroke="black" d="M165.22,-756.5C169.29,-756.5 172.73,-756.5 176.81,-756.5"/>
<polygon fill="none" stroke="black" points="165,-756.5 159,-760.5 153,-756.5 159,-752.5 165,-756.5"/>
<polygon fill="none" stroke="black" points="177,-756.5 183,-752.5 189,-756.5 183,-760.5 177,-756.5"/>
</g>
<!-- x2&#45;&gt;n3 -->
<g id="edge46" class="edge">
<title>x2:e&#45;&gt;n3:w</title>
<path fill="none" stroke="black" d="M383,-723.5C439.75,-723.5 368.53,-486.2 409.29,-456.53"/>
<polygon fill="black" stroke="black" points="410.5,-459.82 419,-453.5 408.41,-453.14 410.5,-459.82"/>
</g>
<!-- c6 -->
<g id="node8" class="node">
<title>c6</title>
<polygon fill="none" stroke="black" points="189,-398.5 189,-444.5 284,-444.5 284,-398.5 189,-398.5"/>
<text text-anchor="middle" x="202" y="-429.3" font-family="Times,serif" font-size="14.00">A</text>
<polyline fill="none" stroke="black" points="189,-421.5 215,-421.5 "/>
<text text-anchor="middle" x="202" y="-406.3" font-family="Times,serif" font-size="14.00">B</text>
<polyline fill="none" stroke="black" points="215,-398.5 215,-444.5 "/>
<text text-anchor="middle" x="236.5" y="-425.3" font-family="Times,serif" font-size="14.00">$90</text>
<text text-anchor="middle" x="236.5" y="-410.3" font-family="Times,serif" font-size="14.00">$and</text>
<polyline fill="none" stroke="black" points="258,-398.5 258,-444.5 "/>
<text text-anchor="middle" x="271" y="-417.8" font-family="Times,serif" font-size="14.00">Y</text>
</g>
<!-- x5 -->
<g id="node11" class="node">
<title>x5</title>
<path fill="none" stroke="black" d="M332,-408.5C332,-408.5 371,-408.5 371,-408.5 377,-408.5 383,-414.5 383,-420.5 383,-420.5 383,-432.5 383,-432.5 383,-438.5 377,-444.5 371,-444.5 371,-444.5 332,-444.5 332,-444.5 326,-444.5 320,-438.5 320,-432.5 320,-432.5 320,-420.5 320,-420.5 320,-414.5 326,-408.5 332,-408.5"/>
<text text-anchor="middle" x="351.5" y="-422.8" font-family="Times,serif" font-size="14.00">0:0 &#45; 1:1</text>
</g>
<!-- c6&#45;&gt;x5 -->
<g id="edge6" class="edge">
<title>c6:e&#45;&gt;x5:w</title>
<path fill="none" stroke="black" d="M296,-422.61C300.25,-423.44 303.76,-424.57 308.02,-425.39"/>
<polygon fill="none" stroke="black" points="295.95,-422.61 289.61,-426.04 284,-421.5 290.34,-418.07 295.95,-422.61"/>
<polygon fill="none" stroke="black" points="308.05,-425.4 314.39,-421.97 320,-426.5 313.66,-429.93 308.05,-425.4"/>
</g>
<!-- x3&#45;&gt;c6 -->
<g id="edge4" class="edge">
<title>x3:e&#45;&gt;c6:w</title>
<path fill="none" stroke="black" d="M164.25,-476.72C172.07,-467.52 169.93,-447.44 177.77,-438.26"/>
<polygon fill="none" stroke="black" points="164.04,-476.81 160.09,-482.84 153,-481.5 156.96,-475.47 164.04,-476.81"/>
<polygon fill="none" stroke="black" points="177.95,-438.18 181.91,-432.16 189,-433.5 185.04,-439.52 177.95,-438.18"/>
</g>
<!-- x4&#45;&gt;c6 -->
<g id="edge5" class="edge">
<title>x4:e&#45;&gt;c6:w</title>
<path fill="none" stroke="black" d="M164.61,-319.81C183.71,-334.18 158.47,-391.07 177.06,-405.93"/>
<polygon fill="none" stroke="black" points="164.54,-319.79 157.67,-321.99 153,-316.5 159.87,-314.3 164.54,-319.79"/>
<polygon fill="none" stroke="black" points="177.5,-406.07 184.4,-403.95 189,-409.5 182.11,-411.62 177.5,-406.07"/>
</g>
<!-- x5&#45;&gt;n3 -->
<g id="edge47" class="edge">
<title>x5:e&#45;&gt;n3:w</title>
<path fill="none" stroke="black" d="M383,-426.5C398.94,-426.5 399.63,-443.65 409.38,-450.61"/>
<polygon fill="black" stroke="black" points="408.42,-453.98 419,-453.5 410.43,-447.27 408.42,-453.98"/>
</g>
<!-- c7 -->
<g id="node12" class="node">
<title>c7</title>
<polygon fill="none" stroke="black" points="189,-635.5 189,-681.5 284,-681.5 284,-635.5 189,-635.5"/>
<text text-anchor="middle" x="202" y="-666.3" font-family="Times,serif" font-size="14.00">A</text>
<polyline fill="none" stroke="black" points="189,-658.5 215,-658.5 "/>
<text text-anchor="middle" x="202" y="-643.3" font-family="Times,serif" font-size="14.00">B</text>
<polyline fill="none" stroke="black" points="215,-635.5 215,-681.5 "/>
<text text-anchor="middle" x="236.5" y="-662.3" font-family="Times,serif" font-size="14.00">$91</text>
<text text-anchor="middle" x="236.5" y="-647.3" font-family="Times,serif" font-size="14.00">$and</text>
<polyline fill="none" stroke="black" points="258,-635.5 258,-681.5 "/>
<text text-anchor="middle" x="271" y="-654.8" font-family="Times,serif" font-size="14.00">Y</text>
</g>
<!-- x8 -->
<g id="node15" class="node">
<title>x8</title>
<path fill="none" stroke="black" d="M332,-609.5C332,-609.5 371,-609.5 371,-609.5 377,-609.5 383,-615.5 383,-621.5 383,-621.5 383,-633.5 383,-633.5 383,-639.5 377,-645.5 371,-645.5 371,-645.5 332,-645.5 332,-645.5 326,-645.5 320,-639.5 320,-633.5 320,-633.5 320,-621.5 320,-621.5 320,-615.5 326,-609.5 332,-609.5"/>
<text text-anchor="middle" x="351.5" y="-623.8" font-family="Times,serif" font-size="14.00">0:0 &#45; 2:2</text>
</g>
<!-- c7&#45;&gt;x8 -->
<g id="edge9" class="edge">
<title>c7:e&#45;&gt;x8:w</title>
<path fill="none" stroke="black" d="M295.31,-653.93C300.95,-648.13 302.93,-638.19 308.48,-632.3"/>
<polygon fill="none" stroke="black" points="295.12,-654 291.06,-659.96 284,-658.5 288.06,-652.54 295.12,-654"/>
<polygon fill="none" stroke="black" points="308.92,-632.11 312.92,-626.11 320,-627.5 316,-633.5 308.92,-632.11"/>
</g>
<!-- x6&#45;&gt;c7 -->
<g id="edge7" class="edge">
<title>x6:e&#45;&gt;c7:w</title>
<path fill="none" stroke="black" d="M164.92,-809.29C201.43,-792.82 140.74,-689.63 176.86,-672.82"/>
<polygon fill="none" stroke="black" points="164.8,-809.31 159.63,-814.34 153,-811.5 158.17,-806.47 164.8,-809.31"/>
<polygon fill="none" stroke="black" points="177.21,-672.75 182.36,-667.7 189,-670.5 183.86,-675.55 177.21,-672.75"/>
</g>
<!-- x7&#45;&gt;c7 -->
<g id="edge8" class="edge">
<title>x7:e&#45;&gt;c7:w</title>
<path fill="none" stroke="black" d="M165.22,-646.5C169.29,-646.5 172.73,-646.5 176.81,-646.5"/>
<polygon fill="none" stroke="black" points="165,-646.5 159,-650.5 153,-646.5 159,-642.5 165,-646.5"/>
<polygon fill="none" stroke="black" points="177,-646.5 183,-642.5 189,-646.5 183,-650.5 177,-646.5"/>
</g>
<!-- x8&#45;&gt;n3 -->
<g id="edge48" class="edge">
<title>x8:e&#45;&gt;n3:w</title>
<path fill="none" stroke="black" d="M383,-627.5C458.12,-627.5 351.46,-470.08 408.82,-454.7"/>
<polygon fill="black" stroke="black" points="409.48,-458.15 419,-453.5 408.66,-451.2 409.48,-458.15"/>
</g>
<!-- c8 -->
<g id="node16" class="node">
<title>c8</title>
<polygon fill="none" stroke="black" points="189,-333.5 189,-379.5 284,-379.5 284,-333.5 189,-333.5"/>
<text text-anchor="middle" x="202" y="-364.3" font-family="Times,serif" font-size="14.00">A</text>
<polyline fill="none" stroke="black" points="189,-356.5 215,-356.5 "/>
<text text-anchor="middle" x="202" y="-341.3" font-family="Times,serif" font-size="14.00">B</text>
<polyline fill="none" stroke="black" points="215,-333.5 215,-379.5 "/>
<text text-anchor="middle" x="236.5" y="-360.3" font-family="Times,serif" font-size="14.00">$92</text>
<text text-anchor="middle" x="236.5" y="-345.3" font-family="Times,serif" font-size="14.00">$and</text>
<polyline fill="none" stroke="black" points="258,-333.5 258,-379.5 "/>
<text text-anchor="middle" x="271" y="-352.8" font-family="Times,serif" font-size="14.00">Y</text>
</g>
<!-- x11 -->
<g id="node19" class="node">
<title>x11</title>
<path fill="none" stroke="black" d="M332,-348.5C332,-348.5 371,-348.5 371,-348.5 377,-348.5 383,-354.5 383,-360.5 383,-360.5 383,-372.5 383,-372.5 383,-378.5 377,-384.5 371,-384.5 371,-384.5 332,-384.5 332,-384.5 326,-384.5 320,-378.5 320,-372.5 320,-372.5 320,-360.5 320,-360.5 320,-354.5 326,-348.5 332,-348.5"/>
<text text-anchor="middle" x="351.5" y="-362.8" font-family="Times,serif" font-size="14.00">0:0 &#45; 3:3</text>
</g>
<!-- c8&#45;&gt;x11 -->
<g id="edge12" class="edge">
<title>c8:e&#45;&gt;x11:w</title>
<path fill="none" stroke="black" d="M295.86,-358.62C300.26,-360.32 303.74,-362.69 308.15,-364.38"/>
<polygon fill="none" stroke="black" points="295.81,-358.61 289.2,-361.49 284,-356.5 290.61,-353.62 295.81,-358.61"/>
<polygon fill="none" stroke="black" points="308.19,-364.39 314.8,-361.51 320,-366.5 313.39,-369.38 308.19,-364.39"/>
</g>
<!-- x9&#45;&gt;c8 -->
<g id="edge10" class="edge">
<title>x9:e&#45;&gt;c8:w</title>
<path fill="none" stroke="black" d="M165.23,-370.8C169.3,-370.32 172.73,-369.68 176.8,-369.19"/>
<polygon fill="none" stroke="black" points="164.98,-370.82 159.22,-375.15 153,-371.5 158.76,-367.17 164.98,-370.82"/>
<polygon fill="none" stroke="black" points="177.02,-369.18 182.78,-364.85 189,-368.5 183.24,-372.83 177.02,-369.18"/>
</g>
<!-- x10&#45;&gt;c8 -->
<g id="edge11" class="edge">
<title>x10:e&#45;&gt;c8:w</title>
<path fill="none" stroke="black" d="M164.94,-208.78C200.29,-225.25 141.67,-325.85 177.11,-342.24"/>
<polygon fill="none" stroke="black" points="164.79,-208.75 158.14,-211.55 153,-206.5 159.64,-203.7 164.79,-208.75"/>
<polygon fill="none" stroke="black" points="177.21,-342.26 183.85,-339.45 189,-344.5 182.36,-347.31 177.21,-342.26"/>
</g>
<!-- x11&#45;&gt;n3 -->
<g id="edge41" class="edge">
<title>x11:e&#45;&gt;n3:w</title>
<path fill="none" stroke="black" d="M383,-366.5C420.76,-366.5 385.61,-437.34 409.14,-451.17"/>
<polygon fill="black" stroke="black" points="408.46,-454.61 419,-453.5 410.07,-447.8 408.46,-454.61"/>
</g>
<!-- c9 -->
<g id="node20" class="node">
<title>c9</title>
<polygon fill="none" stroke="black" points="189,-463.5 189,-509.5 284,-509.5 284,-463.5 189,-463.5"/>
<text text-anchor="middle" x="202" y="-494.3" font-family="Times,serif" font-size="14.00">A</text>
<polyline fill="none" stroke="black" points="189,-486.5 215,-486.5 "/>
<text text-anchor="middle" x="202" y="-471.3" font-family="Times,serif" font-size="14.00">B</text>
<polyline fill="none" stroke="black" points="215,-463.5 215,-509.5 "/>
<text text-anchor="middle" x="236.5" y="-490.3" font-family="Times,serif" font-size="14.00">$93</text>
<text text-anchor="middle" x="236.5" y="-475.3" font-family="Times,serif" font-size="14.00">$and</text>
<polyline fill="none" stroke="black" points="258,-463.5 258,-509.5 "/>
<text text-anchor="middle" x="271" y="-482.8" font-family="Times,serif" font-size="14.00">Y</text>
</g>
<!-- x14 -->
<g id="node23" class="node">
<title>x14</title>
<path fill="none" stroke="black" d="M332,-465.5C332,-465.5 371,-465.5 371,-465.5 377,-465.5 383,-471.5 383,-477.5 383,-477.5 383,-489.5 383,-489.5 383,-495.5 377,-501.5 371,-501.5 371,-501.5 332,-501.5 332,-501.5 326,-501.5 320,-495.5 320,-489.5 320,-489.5 320,-477.5 320,-477.5 320,-471.5 326,-465.5 332,-465.5"/>
<text text-anchor="middle" x="351.5" y="-479.8" font-family="Times,serif" font-size="14.00">0:0 &#45; 4:4</text>
</g>
<!-- c9&#45;&gt;x14 -->
<g id="edge15" class="edge">
<title>c9:e&#45;&gt;x14:w</title>
<path fill="none" stroke="black" d="M296.23,-485.8C300.3,-485.32 303.73,-484.68 307.8,-484.19"/>
<polygon fill="none" stroke="black" points="295.98,-485.82 290.22,-490.15 284,-486.5 289.76,-482.17 295.98,-485.82"/>
<polygon fill="none" stroke="black" points="308.02,-484.18 313.78,-479.85 320,-483.5 314.24,-487.83 308.02,-484.18"/>
</g>
<!-- x12&#45;&gt;c9 -->
<g id="edge13" class="edge">
<title>x12:e&#45;&gt;c9:w</title>
<path fill="none" stroke="black" d="M164.61,-588.19C183.71,-573.82 158.47,-516.93 177.06,-502.07"/>
<polygon fill="none" stroke="black" points="164.54,-588.21 159.87,-593.7 153,-591.5 157.67,-586.01 164.54,-588.21"/>
<polygon fill="none" stroke="black" points="177.5,-501.93 182.11,-496.38 189,-498.5 184.4,-504.05 177.5,-501.93"/>
</g>
<!-- x13&#45;&gt;c9 -->
<g id="edge14" class="edge">
<title>x13:e&#45;&gt;c9:w</title>
<path fill="none" stroke="black" d="M164.25,-431.28C172.07,-440.48 169.93,-460.56 177.77,-469.74"/>
<polygon fill="none" stroke="black" points="164.04,-431.19 156.96,-432.53 153,-426.5 160.09,-425.16 164.04,-431.19"/>
<polygon fill="none" stroke="black" points="177.95,-469.82 185.04,-468.48 189,-474.5 181.91,-475.84 177.95,-469.82"/>
</g>
<!-- x14&#45;&gt;n3 -->
<g id="edge42" class="edge">
<title>x14:e&#45;&gt;n3:w</title>
<path fill="none" stroke="black" d="M383,-483.5C399.76,-483.5 399.37,-464.07 409.43,-456.49"/>
<polygon fill="black" stroke="black" points="410.5,-459.82 419,-453.5 408.41,-453.14 410.5,-459.82"/>
</g>
<!-- c10 -->
<g id="node24" class="node">
<title>c10</title>
<polygon fill="none" stroke="black" points="189,-116.5 189,-162.5 284,-162.5 284,-116.5 189,-116.5"/>
<text text-anchor="middle" x="202" y="-147.3" font-family="Times,serif" font-size="14.00">A</text>
<polyline fill="none" stroke="black" points="189,-139.5 215,-139.5 "/>
<text text-anchor="middle" x="202" y="-124.3" font-family="Times,serif" font-size="14.00">B</text>
<polyline fill="none" stroke="black" points="215,-116.5 215,-162.5 "/>
<text text-anchor="middle" x="236.5" y="-143.3" font-family="Times,serif" font-size="14.00">$94</text>
<text text-anchor="middle" x="236.5" y="-128.3" font-family="Times,serif" font-size="14.00">$and</text>
<polyline fill="none" stroke="black" points="258,-116.5 258,-162.5 "/>
<text text-anchor="middle" x="271" y="-135.8" font-family="Times,serif" font-size="14.00">Y</text>
</g>
<!-- x17 -->
<g id="node27" class="node">
<title>x17</title>
<path fill="none" stroke="black" d="M332,-148.5C332,-148.5 371,-148.5 371,-148.5 377,-148.5 383,-154.5 383,-160.5 383,-160.5 383,-172.5 383,-172.5 383,-178.5 377,-184.5 371,-184.5 371,-184.5 332,-184.5 332,-184.5 326,-184.5 320,-178.5 320,-172.5 320,-172.5 320,-160.5 320,-160.5 320,-154.5 326,-148.5 332,-148.5"/>
<text text-anchor="middle" x="351.5" y="-162.8" font-family="Times,serif" font-size="14.00">0:0 &#45; 5:5</text>
</g>
<!-- c10&#45;&gt;x17 -->
<g id="edge18" class="edge">
<title>c10:e&#45;&gt;x17:w</title>
<path fill="none" stroke="black" d="M295.25,-143.72C300.66,-148.7 303.17,-156.96 308.49,-162.04"/>
<polygon fill="none" stroke="black" points="295.24,-143.71 288.21,-145.35 284,-139.5 291.02,-137.86 295.24,-143.71"/>
<polygon fill="none" stroke="black" points="308.81,-162.16 315.85,-160.6 320,-166.5 312.96,-168.06 308.81,-162.16"/>
</g>
<!-- x15&#45;&gt;c10 -->
<g id="edge16" class="edge">
<title>x15:e&#45;&gt;c10:w</title>
<path fill="none" stroke="black" d="M165.22,-151.5C169.29,-151.5 172.73,-151.5 176.81,-151.5"/>
<polygon fill="none" stroke="black" points="165,-151.5 159,-155.5 153,-151.5 159,-147.5 165,-151.5"/>
<polygon fill="none" stroke="black" points="177,-151.5 183,-147.5 189,-151.5 183,-155.5 177,-151.5"/>
</g>
<!-- x16&#45;&gt;c10 -->
<g id="edge17" class="edge">
<title>x16:e&#45;&gt;c10:w</title>
<path fill="none" stroke="black" d="M164.74,-45.2C181.38,-59.34 160.56,-109.96 177.39,-123.91"/>
<polygon fill="none" stroke="black" points="164.45,-45.1 157.52,-47.12 153,-41.5 159.92,-39.49 164.45,-45.1"/>
<polygon fill="none" stroke="black" points="177.53,-123.96 184.45,-121.91 189,-127.5 182.09,-129.55 177.53,-123.96"/>
</g>
<!-- x17&#45;&gt;n3 -->
<g id="edge43" class="edge">
<title>x17:e&#45;&gt;n3:w</title>
<path fill="none" stroke="black" d="M383,-166.5C443.51,-166.5 365.03,-420.85 409.25,-450.66"/>
<polygon fill="black" stroke="black" points="408.42,-454.06 419,-453.5 410.38,-447.34 408.42,-454.06"/>
</g>
<!-- c11 -->
<g id="node28" class="node">
<title>c11</title>
<polygon fill="none" stroke="black" points="189,-226.5 189,-272.5 284,-272.5 284,-226.5 189,-226.5"/>
<text text-anchor="middle" x="202" y="-257.3" font-family="Times,serif" font-size="14.00">A</text>
<polyline fill="none" stroke="black" points="189,-249.5 215,-249.5 "/>
<text text-anchor="middle" x="202" y="-234.3" font-family="Times,serif" font-size="14.00">B</text>
<polyline fill="none" stroke="black" points="215,-226.5 215,-272.5 "/>
<text text-anchor="middle" x="236.5" y="-253.3" font-family="Times,serif" font-size="14.00">$95</text>
<text text-anchor="middle" x="236.5" y="-238.3" font-family="Times,serif" font-size="14.00">$and</text>
<polyline fill="none" stroke="black" points="258,-226.5 258,-272.5 "/>
<text text-anchor="middle" x="271" y="-245.8" font-family="Times,serif" font-size="14.00">Y</text>
</g>
<!-- x20 -->
<g id="node31" class="node">
<title>x20</title>
<path fill="none" stroke="black" d="M332,-263.5C332,-263.5 371,-263.5 371,-263.5 377,-263.5 383,-269.5 383,-275.5 383,-275.5 383,-287.5 383,-287.5 383,-293.5 377,-299.5 371,-299.5 371,-299.5 332,-299.5 332,-299.5 326,-299.5 320,-293.5 320,-287.5 320,-287.5 320,-275.5 320,-275.5 320,-269.5 326,-263.5 332,-263.5"/>
<text text-anchor="middle" x="351.5" y="-277.8" font-family="Times,serif" font-size="14.00">0:0 &#45; 6:6</text>
</g>
<!-- c11&#45;&gt;x20 -->
<g id="edge21" class="edge">
<title>c11:e&#45;&gt;x20:w</title>
<path fill="none" stroke="black" d="M295.39,-254.22C301.15,-260.34 302.95,-270.94 308.79,-276.97"/>
<polygon fill="none" stroke="black" points="295.09,-254.1 288.01,-255.49 284,-249.5 291.07,-248.1 295.09,-254.1"/>
<polygon fill="none" stroke="black" points="308.88,-277 315.94,-275.54 320,-281.5 312.94,-282.96 308.88,-277"/>
</g>
<!-- x18&#45;&gt;c11 -->
<g id="edge19" class="edge">
<title>x18:e&#45;&gt;c11:w</title>
<path fill="none" stroke="black" d="M165.22,-261.5C169.29,-261.5 172.73,-261.5 176.81,-261.5"/>
<polygon fill="none" stroke="black" points="165,-261.5 159,-265.5 153,-261.5 159,-257.5 165,-261.5"/>
<polygon fill="none" stroke="black" points="177,-261.5 183,-257.5 189,-261.5 183,-265.5 177,-261.5"/>
</g>
<!-- x19&#45;&gt;c11 -->
<g id="edge20" class="edge">
<title>x19:e&#45;&gt;c11:w</title>
<path fill="none" stroke="black" d="M164.92,-98.71C201.43,-115.18 140.74,-218.37 176.86,-235.18"/>
<polygon fill="none" stroke="black" points="164.8,-98.69 158.17,-101.53 153,-96.5 159.63,-93.66 164.8,-98.69"/>
<polygon fill="none" stroke="black" points="177.21,-235.25 183.86,-232.45 189,-237.5 182.36,-240.3 177.21,-235.25"/>
</g>
<!-- x20&#45;&gt;n3 -->
<g id="edge44" class="edge">
<title>x20:e&#45;&gt;n3:w</title>
<path fill="none" stroke="black" d="M383,-281.5C457.29,-281.5 352.16,-437.11 408.93,-452.31"/>
<polygon fill="black" stroke="black" points="408.66,-455.8 419,-453.5 409.48,-448.85 408.66,-455.8"/>
</g>
<!-- c12 -->
<g id="node32" class="node">
<title>c12</title>
<polygon fill="none" stroke="black" points="189,-528.5 189,-574.5 284,-574.5 284,-528.5 189,-528.5"/>
<text text-anchor="middle" x="202" y="-559.3" font-family="Times,serif" font-size="14.00">A</text>
<polyline fill="none" stroke="black" points="189,-551.5 215,-551.5 "/>
<text text-anchor="middle" x="202" y="-536.3" font-family="Times,serif" font-size="14.00">B</text>
<polyline fill="none" stroke="black" points="215,-528.5 215,-574.5 "/>
<text text-anchor="middle" x="236.5" y="-555.3" font-family="Times,serif" font-size="14.00">$96</text>
<text text-anchor="middle" x="236.5" y="-540.3" font-family="Times,serif" font-size="14.00">$and</text>
<polyline fill="none" stroke="black" points="258,-528.5 258,-574.5 "/>
<text text-anchor="middle" x="271" y="-547.8" font-family="Times,serif" font-size="14.00">Y</text>
</g>
<!-- x23 -->
<g id="node35" class="node">
<title>x23</title>
<path fill="none" stroke="black" d="M332,-526.5C332,-526.5 371,-526.5 371,-526.5 377,-526.5 383,-532.5 383,-538.5 383,-538.5 383,-550.5 383,-550.5 383,-556.5 377,-562.5 371,-562.5 371,-562.5 332,-562.5 332,-562.5 326,-562.5 320,-556.5 320,-550.5 320,-550.5 320,-538.5 320,-538.5 320,-532.5 326,-526.5 332,-526.5"/>
<text text-anchor="middle" x="351.5" y="-540.8" font-family="Times,serif" font-size="14.00">0:0 &#45; 7:7</text>
</g>
<!-- c12&#45;&gt;x23 -->
<g id="edge24" class="edge">
<title>c12:e&#45;&gt;x23:w</title>
<path fill="none" stroke="black" d="M296.04,-549.95C300.27,-548.79 303.74,-547.21 307.98,-546.05"/>
<polygon fill="none" stroke="black" points="295.9,-549.96 290.46,-554.7 284,-551.5 289.44,-546.76 295.9,-549.96"/>
<polygon fill="none" stroke="black" points="308.1,-546.03 313.54,-541.3 320,-544.5 314.56,-549.23 308.1,-546.03"/>
</g>
<!-- x21&#45;&gt;c12 -->
<g id="edge22" class="edge">
<title>x21:e&#45;&gt;c12:w</title>
<path fill="none" stroke="black" d="M164.94,-699.22C200.29,-682.75 141.67,-582.15 177.11,-565.76"/>
<polygon fill="none" stroke="black" points="164.79,-699.25 159.64,-704.3 153,-701.5 158.14,-696.45 164.79,-699.25"/>
<polygon fill="none" stroke="black" points="177.21,-565.74 182.36,-560.69 189,-563.5 183.85,-568.55 177.21,-565.74"/>
</g>
<!-- x22&#45;&gt;c12 -->
<g id="edge23" class="edge">
<title>x22:e&#45;&gt;c12:w</title>
<path fill="none" stroke="black" d="M165.23,-537.2C169.3,-537.68 172.73,-538.32 176.8,-538.81"/>
<polygon fill="none" stroke="black" points="164.98,-537.18 158.76,-540.83 153,-536.5 159.22,-532.85 164.98,-537.18"/>
<polygon fill="none" stroke="black" points="177.02,-538.82 183.24,-535.17 189,-539.5 182.78,-543.15 177.02,-538.82"/>
</g>
<!-- x23&#45;&gt;n3 -->
<g id="edge45" class="edge">
<title>x23:e&#45;&gt;n3:w</title>
<path fill="none" stroke="black" d="M383,-544.5C422.42,-544.5 384.24,-469.76 409.1,-455.75"/>
<polygon fill="black" stroke="black" points="410.02,-459.13 419,-453.5 408.47,-452.3 410.02,-459.13"/>
</g>
</g>
</svg>
