<?xml version="1.0" encoding="UTF-8" standalone="no"?>
<!DOCTYPE svg PUBLIC "-//W3C//DTD SVG 1.1//EN"
 "http://www.w3.org/Graphics/SVG/1.1/DTD/svg11.dtd">
<!-- Generated by graphviz version 2.43.0 (0)
 -->
<!-- Title: eightbitlu Pages: 1 -->
<svg width="571pt" height="364pt"
 viewBox="0.00 0.00 571.00 364.00" xmlns="http://www.w3.org/2000/svg" xmlns:xlink="http://www.w3.org/1999/xlink">
<g id="page0,1_graph0" class="graph" transform="scale(1 1) rotate(0) translate(4 360)">
<title>eightbitlu</title>
<polygon fill="white" stroke="transparent" points="-4,4 -4,-360 567,-360 567,4 -4,4"/>
<text text-anchor="middle" x="281.5" y="-7.8" font-family="Times,serif" font-size="14.00">eightbitlu</text>
<!-- n1 -->
<g id="node1" class="node">
<title>n1</title>
<polygon fill="none" stroke="black" points="54,-272.04 54,-286.96 38.18,-297.5 15.82,-297.5 0,-286.96 0,-272.04 15.82,-261.5 38.18,-261.5 54,-272.04"/>
<text text-anchor="middle" x="27" y="-275.8" font-family="Times,serif" font-size="14.00">A</text>
</g>
<!-- c9 -->
<g id="node9" class="node">
<title>c9</title>
<polygon fill="none" stroke="black" points="90,-309.5 90,-355.5 200,-355.5 200,-309.5 90,-309.5"/>
<text text-anchor="middle" x="103" y="-340.3" font-family="Times,serif" font-size="14.00">A</text>
<polyline fill="none" stroke="black" points="90,-332.5 116,-332.5 "/>
<text text-anchor="middle" x="103" y="-317.3" font-family="Times,serif" font-size="14.00">B</text>
<polyline fill="none" stroke="black" points="116,-309.5 116,-355.5 "/>
<text text-anchor="middle" x="141" y="-336.3" font-family="Times,serif" font-size="14.00">and1</text>
<text text-anchor="middle" x="141" y="-321.3" font-family="Times,serif" font-size="14.00">and8b</text>
<polyline fill="none" stroke="black" points="166,-309.5 166,-355.5 "/>
<text text-anchor="middle" x="183" y="-328.8" font-family="Times,serif" font-size="14.00">out</text>
</g>
<!-- n1&#45;&gt;c9 -->
<g id="edge5" class="edge">
<title>n1:e&#45;&gt;c9:w</title>
<path fill="none" stroke="black" stroke-width="3" d="M54,-279.5C82.9,-279.5 63.5,-329.27 80.33,-341.71"/>
<polygon fill="black" stroke="black" stroke-width="3" points="79.42,-345.09 90,-344.5 81.36,-338.36 79.42,-345.09"/>
</g>
<!-- c16 -->
<g id="node14" class="node">
<title>c16</title>
<polygon fill="none" stroke="black" points="94.5,-179.5 94.5,-225.5 195.5,-225.5 195.5,-179.5 94.5,-179.5"/>
<text text-anchor="middle" x="107.5" y="-210.3" font-family="Times,serif" font-size="14.00">A</text>
<polyline fill="none" stroke="black" points="94.5,-202.5 120.5,-202.5 "/>
<text text-anchor="middle" x="107.5" y="-187.3" font-family="Times,serif" font-size="14.00">B</text>
<polyline fill="none" stroke="black" points="120.5,-179.5 120.5,-225.5 "/>
<text text-anchor="middle" x="141" y="-206.3" font-family="Times,serif" font-size="14.00">or1</text>
<text text-anchor="middle" x="141" y="-191.3" font-family="Times,serif" font-size="14.00">or8b</text>
<polyline fill="none" stroke="black" points="161.5,-179.5 161.5,-225.5 "/>
<text text-anchor="middle" x="178.5" y="-198.8" font-family="Times,serif" font-size="14.00">out</text>
</g>
<!-- n1&#45;&gt;c16 -->
<g id="edge3" class="edge">
<title>n1:e&#45;&gt;c16:w</title>
<path fill="none" stroke="black" stroke-width="3" d="M54,-279.5C83.48,-279.5 65.44,-229.73 83.03,-217.29"/>
<polygon fill="black" stroke="black" stroke-width="3" points="84.32,-220.57 93,-214.5 82.43,-213.83 84.32,-220.57"/>
</g>
<!-- c17 -->
<g id="node15" class="node">
<title>c17</title>
<polygon fill="none" stroke="black" points="91,-244.5 91,-290.5 199,-290.5 199,-244.5 91,-244.5"/>
<text text-anchor="middle" x="104" y="-275.3" font-family="Times,serif" font-size="14.00">A</text>
<polyline fill="none" stroke="black" points="91,-267.5 117,-267.5 "/>
<text text-anchor="middle" x="104" y="-252.3" font-family="Times,serif" font-size="14.00">B</text>
<polyline fill="none" stroke="black" points="117,-244.5 117,-290.5 "/>
<text text-anchor="middle" x="141" y="-271.3" font-family="Times,serif" font-size="14.00">xor1</text>
<text text-anchor="middle" x="141" y="-256.3" font-family="Times,serif" font-size="14.00">xor8b</text>
<polyline fill="none" stroke="black" points="165,-244.5 165,-290.5 "/>
<text text-anchor="middle" x="182" y="-263.8" font-family="Times,serif" font-size="14.00">out</text>
</g>
<!-- n1&#45;&gt;c17 -->
<g id="edge4" class="edge">
<title>n1:e&#45;&gt;c17:w</title>
<path fill="none" stroke="black" stroke-width="3" d="M54,-279.5C66,-279.5 71.25,-279.5 79.88,-279.5"/>
<polygon fill="black" stroke="black" stroke-width="3" points="80,-283 90,-279.5 80,-276 80,-283"/>
</g>
<!-- n2 -->
<g id="node2" class="node">
<title>n2</title>
<polygon fill="none" stroke="black" points="54,-201.04 54,-215.96 38.18,-226.5 15.82,-226.5 0,-215.96 0,-201.04 15.82,-190.5 38.18,-190.5 54,-201.04"/>
<text text-anchor="middle" x="27" y="-204.8" font-family="Times,serif" font-size="14.00">B</text>
</g>
<!-- n2&#45;&gt;c9 -->
<g id="edge9" class="edge">
<title>n2:e&#45;&gt;c9:w</title>
<path fill="none" stroke="black" stroke-width="3" d="M54,-208.5C102.2,-208.5 47.69,-303.68 79.84,-318.56"/>
<polygon fill="black" stroke="black" stroke-width="3" points="79.52,-322.06 90,-320.5 80.84,-315.18 79.52,-322.06"/>
</g>
<!-- c15 -->
<g id="node13" class="node">
<title>c15</title>
<polygon fill="none" stroke="black" points="91.5,-122.5 91.5,-160.5 198.5,-160.5 198.5,-122.5 91.5,-122.5"/>
<text text-anchor="middle" x="104.5" y="-137.8" font-family="Times,serif" font-size="14.00">A</text>
<polyline fill="none" stroke="black" points="117.5,-122.5 117.5,-160.5 "/>
<text text-anchor="middle" x="141" y="-145.3" font-family="Times,serif" font-size="14.00">not1</text>
<text text-anchor="middle" x="141" y="-130.3" font-family="Times,serif" font-size="14.00">not8b</text>
<polyline fill="none" stroke="black" points="164.5,-122.5 164.5,-160.5 "/>
<text text-anchor="middle" x="181.5" y="-137.8" font-family="Times,serif" font-size="14.00">out</text>
</g>
<!-- n2&#45;&gt;c15 -->
<g id="edge6" class="edge">
<title>n2:e&#45;&gt;c15:w</title>
<path fill="none" stroke="black" stroke-width="3" d="M54,-208.5C83.58,-208.5 63.08,-157.2 80.13,-144.38"/>
<polygon fill="black" stroke="black" stroke-width="3" points="81.38,-147.66 90,-141.5 79.42,-140.94 81.38,-147.66"/>
</g>
<!-- n2&#45;&gt;c16 -->
<g id="edge7" class="edge">
<title>n2:e&#45;&gt;c16:w</title>
<path fill="none" stroke="black" stroke-width="3" d="M54,-208.5C69.06,-208.5 72.75,-197.29 83.02,-192.56"/>
<polygon fill="black" stroke="black" stroke-width="3" points="83.92,-195.95 93,-190.5 82.5,-189.1 83.92,-195.95"/>
</g>
<!-- n2&#45;&gt;c17 -->
<g id="edge8" class="edge">
<title>n2:e&#45;&gt;c17:w</title>
<path fill="none" stroke="black" stroke-width="3" d="M54,-208.5C76.2,-208.5 67.83,-241.96 80.48,-252.42"/>
<polygon fill="black" stroke="black" stroke-width="3" points="79.41,-255.75 90,-255.5 81.57,-249.09 79.41,-255.75"/>
</g>
<!-- n3 -->
<g id="node3" class="node">
<title>n3</title>
<polygon fill="none" stroke="black" points="563,-171.04 563,-185.96 547.18,-196.5 524.82,-196.5 509,-185.96 509,-171.04 524.82,-160.5 547.18,-160.5 563,-171.04"/>
<text text-anchor="middle" x="536" y="-174.8" font-family="Times,serif" font-size="14.00">out</text>
</g>
<!-- n4 -->
<g id="node4" class="node">
<title>n4</title>
<polygon fill="none" stroke="black" points="172,-60.04 172,-74.96 156.18,-85.5 133.82,-85.5 118,-74.96 118,-60.04 133.82,-49.5 156.18,-49.5 172,-60.04"/>
<text text-anchor="middle" x="145" y="-63.8" font-family="Times,serif" font-size="14.00">sel</text>
</g>
<!-- x0 -->
<g id="node11" class="node">
<title>x0</title>
<path fill="none" stroke="black" d="M248,-78.5C248,-78.5 287,-78.5 287,-78.5 293,-78.5 299,-84.5 299,-90.5 299,-90.5 299,-102.5 299,-102.5 299,-108.5 293,-114.5 287,-114.5 287,-114.5 248,-114.5 248,-114.5 242,-114.5 236,-108.5 236,-102.5 236,-102.5 236,-90.5 236,-90.5 236,-84.5 242,-78.5 248,-78.5"/>
<text text-anchor="middle" x="267.5" y="-92.8" font-family="Times,serif" font-size="14.00">1:1 &#45; 0:0</text>
</g>
<!-- n4&#45;&gt;x0 -->
<g id="edge11" class="edge">
<title>n4:e&#45;&gt;x0:w</title>
<path fill="none" stroke="black" d="M173,-67.5C200.09,-67.5 204.42,-89.9 225.99,-95.33"/>
<polygon fill="black" stroke="black" points="225.66,-98.81 236,-96.5 226.48,-91.86 225.66,-98.81"/>
</g>
<!-- x1 -->
<g id="node12" class="node">
<title>x1</title>
<path fill="none" stroke="black" d="M248,-23.5C248,-23.5 287,-23.5 287,-23.5 293,-23.5 299,-29.5 299,-35.5 299,-35.5 299,-47.5 299,-47.5 299,-53.5 293,-59.5 287,-59.5 287,-59.5 248,-59.5 248,-59.5 242,-59.5 236,-53.5 236,-47.5 236,-47.5 236,-35.5 236,-35.5 236,-29.5 242,-23.5 248,-23.5"/>
<text text-anchor="middle" x="267.5" y="-37.8" font-family="Times,serif" font-size="14.00">0:0 &#45; 0:0</text>
</g>
<!-- n4&#45;&gt;x1 -->
<g id="edge12" class="edge">
<title>n4:e&#45;&gt;x1:w</title>
<path fill="none" stroke="black" d="M173,-67.5C199.5,-67.5 204.67,-47.59 225.84,-42.62"/>
<polygon fill="black" stroke="black" points="226.44,-46.07 236,-41.5 225.68,-39.11 226.44,-46.07"/>
</g>
<!-- n5 -->
<g id="node5" class="node">
<title>n5</title>
<polygon fill="none" stroke="black" points="267.5,-345.5 237.33,-327.5 267.5,-309.5 297.67,-327.5 267.5,-345.5"/>
<text text-anchor="middle" x="267.5" y="-323.8" font-family="Times,serif" font-size="14.00">w1</text>
</g>
<!-- c14 -->
<g id="node10" class="node">
<title>c14</title>
<polygon fill="none" stroke="black" points="335,-109.5 335,-247.5 473,-247.5 473,-109.5 335,-109.5"/>
<text text-anchor="middle" x="349.5" y="-232.3" font-family="Times,serif" font-size="14.00">A</text>
<polyline fill="none" stroke="black" points="335,-224.5 364,-224.5 "/>
<text text-anchor="middle" x="349.5" y="-209.3" font-family="Times,serif" font-size="14.00">B</text>
<polyline fill="none" stroke="black" points="335,-201.5 364,-201.5 "/>
<text text-anchor="middle" x="349.5" y="-186.3" font-family="Times,serif" font-size="14.00">C</text>
<polyline fill="none" stroke="black" points="335,-178.5 364,-178.5 "/>
<text text-anchor="middle" x="349.5" y="-163.3" font-family="Times,serif" font-size="14.00">D</text>
<polyline fill="none" stroke="black" points="335,-155.5 364,-155.5 "/>
<text text-anchor="middle" x="349.5" y="-140.3" font-family="Times,serif" font-size="14.00">s0</text>
<polyline fill="none" stroke="black" points="335,-132.5 364,-132.5 "/>
<text text-anchor="middle" x="349.5" y="-117.3" font-family="Times,serif" font-size="14.00">s1</text>
<polyline fill="none" stroke="black" points="364,-109.5 364,-247.5 "/>
<text text-anchor="middle" x="401.5" y="-182.3" font-family="Times,serif" font-size="14.00">mx1</text>
<text text-anchor="middle" x="401.5" y="-167.3" font-family="Times,serif" font-size="14.00">mux8b4x1</text>
<polyline fill="none" stroke="black" points="439,-109.5 439,-247.5 "/>
<text text-anchor="middle" x="456" y="-174.8" font-family="Times,serif" font-size="14.00">out</text>
</g>
<!-- n5&#45;&gt;c14 -->
<g id="edge14" class="edge">
<title>n5:e&#45;&gt;c14:w</title>
<path fill="none" stroke="black" stroke-width="3" d="M298.5,-327.5C337.99,-327.5 300.09,-252.76 325.07,-238.75"/>
<polygon fill="black" stroke="black" stroke-width="3" points="326.02,-242.12 335,-236.5 324.47,-235.3 326.02,-242.12"/>
</g>
<!-- n6 -->
<g id="node6" class="node">
<title>n6</title>
<polygon fill="none" stroke="black" points="267.5,-282.5 237.33,-264.5 267.5,-246.5 297.67,-264.5 267.5,-282.5"/>
<text text-anchor="middle" x="267.5" y="-260.8" font-family="Times,serif" font-size="14.00">w2</text>
</g>
<!-- n6&#45;&gt;c14 -->
<g id="edge16" class="edge">
<title>n6:e&#45;&gt;c14:w</title>
<path fill="none" stroke="black" stroke-width="3" d="M298.5,-264.5C322.24,-264.5 311.8,-227.52 325.39,-216.54"/>
<polygon fill="black" stroke="black" stroke-width="3" points="326.52,-219.85 335,-213.5 324.41,-213.18 326.52,-219.85"/>
</g>
<!-- n7 -->
<g id="node7" class="node">
<title>n7</title>
<polygon fill="none" stroke="black" points="267.5,-223.5 237.33,-205.5 267.5,-187.5 297.67,-205.5 267.5,-223.5"/>
<text text-anchor="middle" x="267.5" y="-201.8" font-family="Times,serif" font-size="14.00">w3</text>
</g>
<!-- n7&#45;&gt;c14 -->
<g id="edge18" class="edge">
<title>n7:e&#45;&gt;c14:w</title>
<path fill="none" stroke="black" stroke-width="3" d="M298.5,-205.5C312.07,-205.5 315.99,-196.53 325.19,-192.46"/>
<polygon fill="black" stroke="black" stroke-width="3" points="325.88,-195.89 335,-190.5 324.51,-189.03 325.88,-195.89"/>
</g>
<!-- n8 -->
<g id="node8" class="node">
<title>n8</title>
<polygon fill="none" stroke="black" points="267.5,-169.5 237.33,-151.5 267.5,-133.5 297.67,-151.5 267.5,-169.5"/>
<text text-anchor="middle" x="267.5" y="-147.8" font-family="Times,serif" font-size="14.00">w4</text>
</g>
<!-- n8&#45;&gt;c14 -->
<g id="edge20" class="edge">
<title>n8:e&#45;&gt;c14:w</title>
<path fill="none" stroke="black" stroke-width="3" d="M298.5,-151.5C312.07,-151.5 315.99,-160.47 325.19,-164.54"/>
<polygon fill="black" stroke="black" stroke-width="3" points="324.51,-167.97 335,-166.5 325.88,-161.11 324.51,-167.97"/>
</g>
<!-- c9&#45;&gt;n5 -->
<g id="edge13" class="edge">
<title>c9:e&#45;&gt;n5:w</title>
<path fill="none" stroke="black" stroke-width="3" d="M200,-332.5C212.41,-332.5 217.57,-329.63 226.47,-328.24"/>
<polygon fill="black" stroke="black" stroke-width="3" points="226.78,-331.72 236.5,-327.5 226.27,-324.74 226.78,-331.72"/>
</g>
<!-- c14&#45;&gt;n3 -->
<g id="edge10" class="edge">
<title>c14:e&#45;&gt;n3:w</title>
<path fill="none" stroke="black" stroke-width="3" d="M473,-178.5C485,-178.5 490.25,-178.5 498.88,-178.5"/>
<polygon fill="black" stroke="black" stroke-width="3" points="499,-182 509,-178.5 499,-175 499,-182"/>
</g>
<!-- x0&#45;&gt;c14 -->
<g id="edge1" class="edge">
<title>x0:e&#45;&gt;c14:w</title>
<path fill="none" stroke="black" d="M310.14,-101.18C317.96,-110.19 316.04,-129.85 323.87,-138.84"/>
<polygon fill="none" stroke="black" points="310.06,-101.15 302.98,-102.51 299,-96.5 306.08,-95.13 310.06,-101.15"/>
<polygon fill="none" stroke="black" points="323.93,-138.86 331.01,-137.49 335,-143.5 327.92,-144.87 323.93,-138.86"/>
</g>
<!-- x1&#45;&gt;c14 -->
<g id="edge2" class="edge">
<title>x1:e&#45;&gt;c14:w</title>
<path fill="none" stroke="black" d="M310.53,-45.31C325.32,-58.63 308.75,-103 323.31,-116.54"/>
<polygon fill="none" stroke="black" points="310.39,-45.27 303.44,-47.18 299,-41.5 305.95,-39.59 310.39,-45.27"/>
<polygon fill="none" stroke="black" points="323.63,-116.65 330.6,-114.79 335,-120.5 328.03,-122.36 323.63,-116.65"/>
</g>
<!-- c15&#45;&gt;n8 -->
<g id="edge19" class="edge">
<title>c15:e&#45;&gt;n8:w</title>
<path fill="none" stroke="black" stroke-width="3" d="M200,-141.5C212.75,-141.5 217.48,-147.24 226.34,-150.02"/>
<polygon fill="black" stroke="black" stroke-width="3" points="226.1,-153.53 236.5,-151.5 227.11,-146.6 226.1,-153.53"/>
</g>
<!-- c16&#45;&gt;n7 -->
<g id="edge17" class="edge">
<title>c16:e&#45;&gt;n7:w</title>
<path fill="none" stroke="black" stroke-width="3" d="M197,-202.5C210.62,-202.5 216.27,-204.29 226.27,-205.11"/>
<polygon fill="black" stroke="black" stroke-width="3" points="226.37,-208.61 236.5,-205.5 226.64,-201.62 226.37,-208.61"/>
</g>
<!-- c17&#45;&gt;n6 -->
<g id="edge15" class="edge">
<title>c17:e&#45;&gt;n6:w</title>
<path fill="none" stroke="black" stroke-width="3" d="M200,-267.5C212.33,-267.5 217.59,-265.78 226.49,-264.94"/>
<polygon fill="black" stroke="black" stroke-width="3" points="226.66,-268.44 236.5,-264.5 226.36,-261.45 226.66,-268.44"/>
</g>
</g>
</svg>
