<?xml version="1.0" encoding="UTF-8" standalone="no"?>
<!DOCTYPE svg PUBLIC "-//W3C//DTD SVG 1.1//EN"
 "http://www.w3.org/Graphics/SVG/1.1/DTD/svg11.dtd">
<!-- Generated by graphviz version 2.43.0 (0)
 -->
<!-- Title: eightbitshfun Pages: 1 -->
<svg width="1586pt" height="842pt"
 viewBox="0.00 0.00 1585.66 841.88" xmlns="http://www.w3.org/2000/svg" xmlns:xlink="http://www.w3.org/1999/xlink">
<g id="page0,1_graph0" class="graph" transform="scale(1 1) rotate(0) translate(4 837.88)">
<title>eightbitshfun</title>
<polygon fill="white" stroke="transparent" points="-4,4 -4,-837.88 1581.66,-837.88 1581.66,4 -4,4"/>
<text text-anchor="middle" x="788.83" y="-7.8" font-family="Times,serif" font-size="14.00">eightbitshfun</text>
<!-- n4 -->
<g id="node1" class="node">
<title>n4</title>
<polygon fill="none" stroke="black" points="157,-330.26 157,-345.17 141.18,-355.72 118.82,-355.72 103,-345.17 103,-330.26 118.82,-319.72 141.18,-319.72 157,-330.26"/>
<text text-anchor="middle" x="130" y="-334.02" font-family="Times,serif" font-size="14.00">A</text>
</g>
<!-- x1 -->
<g id="node11" class="node">
<title>x1</title>
<path fill="none" stroke="black" d="M241.5,-255.72C241.5,-255.72 280.5,-255.72 280.5,-255.72 286.5,-255.72 292.5,-261.72 292.5,-267.72 292.5,-267.72 292.5,-279.72 292.5,-279.72 292.5,-285.72 286.5,-291.72 280.5,-291.72 280.5,-291.72 241.5,-291.72 241.5,-291.72 235.5,-291.72 229.5,-285.72 229.5,-279.72 229.5,-279.72 229.5,-267.72 229.5,-267.72 229.5,-261.72 235.5,-255.72 241.5,-255.72"/>
<text text-anchor="middle" x="261" y="-270.02" font-family="Times,serif" font-size="14.00">0:0 &#45; 0:0</text>
</g>
<!-- n4&#45;&gt;x1 -->
<g id="edge55" class="edge">
<title>n4:e&#45;&gt;x1:w</title>
<path fill="none" stroke="black" d="M158,-337.72C196.37,-337.72 187.96,-284.7 217.92,-275.17"/>
<polygon fill="black" stroke="black" points="218.6,-278.61 228,-273.72 217.6,-271.68 218.6,-278.61"/>
</g>
<!-- x4 -->
<g id="node16" class="node">
<title>x4</title>
<path fill="none" stroke="black" d="M241.5,-161.72C241.5,-161.72 280.5,-161.72 280.5,-161.72 286.5,-161.72 292.5,-167.72 292.5,-173.72 292.5,-173.72 292.5,-185.72 292.5,-185.72 292.5,-191.72 286.5,-197.72 280.5,-197.72 280.5,-197.72 241.5,-197.72 241.5,-197.72 235.5,-197.72 229.5,-191.72 229.5,-185.72 229.5,-185.72 229.5,-173.72 229.5,-173.72 229.5,-167.72 235.5,-161.72 241.5,-161.72"/>
<text text-anchor="middle" x="261" y="-176.02" font-family="Times,serif" font-size="14.00">7:7 &#45; 0:0</text>
</g>
<!-- n4&#45;&gt;x4 -->
<g id="edge56" class="edge">
<title>n4:e&#45;&gt;x4:w</title>
<path fill="none" stroke="black" d="M158,-337.72C231.06,-337.72 158.98,-194.77 217.86,-180.81"/>
<polygon fill="black" stroke="black" points="218.43,-184.27 228,-179.72 217.68,-177.31 218.43,-184.27"/>
</g>
<!-- c25 -->
<g id="node44" class="node">
<title>c25</title>
<polygon fill="none" stroke="black" points="614,-279.72 614,-325.72 724,-325.72 724,-279.72 614,-279.72"/>
<text text-anchor="middle" x="627" y="-310.52" font-family="Times,serif" font-size="14.00">A</text>
<polyline fill="none" stroke="black" points="614,-302.72 640,-302.72 "/>
<text text-anchor="middle" x="627" y="-287.52" font-family="Times,serif" font-size="14.00">B</text>
<polyline fill="none" stroke="black" points="640,-279.72 640,-325.72 "/>
<text text-anchor="middle" x="665" y="-306.52" font-family="Times,serif" font-size="14.00">and1</text>
<text text-anchor="middle" x="665" y="-291.52" font-family="Times,serif" font-size="14.00">and8b</text>
<polyline fill="none" stroke="black" points="690,-279.72 690,-325.72 "/>
<text text-anchor="middle" x="707" y="-299.02" font-family="Times,serif" font-size="14.00">out</text>
</g>
<!-- n4&#45;&gt;c25 -->
<g id="edge53" class="edge">
<title>n4:e&#45;&gt;c25:w</title>
<path fill="none" stroke="black" stroke-width="3" d="M158,-337.72C357.46,-337.72 409.32,-315.5 603.73,-314.74"/>
<polygon fill="black" stroke="black" stroke-width="3" points="604.01,-318.24 614,-314.72 603.99,-311.24 604.01,-318.24"/>
</g>
<!-- c26 -->
<g id="node46" class="node">
<title>c26</title>
<polygon fill="none" stroke="black" points="206,-387.72 206,-433.72 316,-433.72 316,-387.72 206,-387.72"/>
<text text-anchor="middle" x="219" y="-418.52" font-family="Times,serif" font-size="14.00">A</text>
<polyline fill="none" stroke="black" points="206,-410.72 232,-410.72 "/>
<text text-anchor="middle" x="219" y="-395.52" font-family="Times,serif" font-size="14.00">B</text>
<polyline fill="none" stroke="black" points="232,-387.72 232,-433.72 "/>
<text text-anchor="middle" x="257" y="-414.52" font-family="Times,serif" font-size="14.00">and2</text>
<text text-anchor="middle" x="257" y="-399.52" font-family="Times,serif" font-size="14.00">and8b</text>
<polyline fill="none" stroke="black" points="282,-387.72 282,-433.72 "/>
<text text-anchor="middle" x="299" y="-407.02" font-family="Times,serif" font-size="14.00">out</text>
</g>
<!-- n4&#45;&gt;c26 -->
<g id="edge54" class="edge">
<title>n4:e&#45;&gt;c26:w</title>
<path fill="none" stroke="black" stroke-width="3" d="M158,-337.72C197.49,-337.72 168.92,-408.13 196.18,-420.78"/>
<polygon fill="black" stroke="black" stroke-width="3" points="195.51,-424.22 206,-422.72 196.87,-417.35 195.51,-424.22"/>
</g>
<!-- n5 -->
<g id="node2" class="node">
<title>n5</title>
<polygon fill="none" stroke="black" points="669,-119.72 636.66,-101.72 669,-83.72 701.34,-101.72 669,-119.72"/>
<text text-anchor="middle" x="669" y="-98.02" font-family="Times,serif" font-size="14.00">left</text>
</g>
<!-- x27 -->
<g id="node50" class="node">
<title>x27</title>
<path fill="none" stroke="black" d="M772,-90.22C772,-90.22 811,-90.22 811,-90.22 817,-90.22 823,-96.22 823,-102.22 823,-102.22 823,-147.22 823,-147.22 823,-153.22 817,-159.22 811,-159.22 811,-159.22 772,-159.22 772,-159.22 766,-159.22 760,-153.22 760,-147.22 760,-147.22 760,-102.22 760,-102.22 760,-96.22 766,-90.22 772,-90.22"/>
<text text-anchor="middle" x="791.5" y="-144.02" font-family="Times,serif" font-size="14.00">0:0 &#45; 7:7</text>
<polyline fill="none" stroke="black" points="760,-136.22 823,-136.22 "/>
<text text-anchor="middle" x="791.5" y="-121.02" font-family="Times,serif" font-size="14.00">0 &#45;&gt; 6:1</text>
<polyline fill="none" stroke="black" points="760,-113.22 823,-113.22 "/>
<text text-anchor="middle" x="791.5" y="-98.02" font-family="Times,serif" font-size="14.00">0:0 &#45; 0:0</text>
</g>
<!-- n5&#45;&gt;x27 -->
<g id="edge58" class="edge">
<title>n5:e&#45;&gt;x27:w</title>
<path fill="none" stroke="black" d="M702,-101.72C723.95,-101.72 731.88,-101.72 749.67,-101.72"/>
<polygon fill="black" stroke="black" points="750,-105.22 760,-101.72 750,-98.22 750,-105.22"/>
</g>
<!-- n6 -->
<g id="node3" class="node">
<title>n6</title>
<polygon fill="none" stroke="black" points="1577.66,-104.26 1577.66,-119.17 1561.85,-129.72 1539.48,-129.72 1523.66,-119.17 1523.66,-104.26 1539.48,-93.72 1561.85,-93.72 1577.66,-104.26"/>
<text text-anchor="middle" x="1550.66" y="-108.02" font-family="Times,serif" font-size="14.00">out</text>
</g>
<!-- n7 -->
<g id="node4" class="node">
<title>n7</title>
<polygon fill="none" stroke="black" points="669,-211.72 630.29,-193.72 669,-175.72 707.71,-193.72 669,-211.72"/>
<text text-anchor="middle" x="669" y="-190.02" font-family="Times,serif" font-size="14.00">right</text>
</g>
<!-- n7&#45;&gt;x27 -->
<g id="edge61" class="edge">
<title>n7:e&#45;&gt;x27:w</title>
<path fill="none" stroke="black" d="M709,-193.72C735.47,-193.72 731.43,-159.12 749.79,-149.93"/>
<polygon fill="black" stroke="black" points="750.97,-153.26 760,-147.72 749.48,-146.42 750.97,-153.26"/>
</g>
<!-- n8 -->
<g id="node5" class="node">
<title>n8</title>
<polygon fill="none" stroke="black" points="54,-219.26 54,-234.17 38.18,-244.72 15.82,-244.72 0,-234.17 0,-219.26 15.82,-208.72 38.18,-208.72 54,-219.26"/>
<text text-anchor="middle" x="27" y="-223.02" font-family="Times,serif" font-size="14.00">sel</text>
</g>
<!-- x0 -->
<g id="node10" class="node">
<title>x0</title>
<path fill="none" stroke="black" d="M110.5,-264.72C110.5,-264.72 149.5,-264.72 149.5,-264.72 155.5,-264.72 161.5,-270.72 161.5,-276.72 161.5,-276.72 161.5,-288.72 161.5,-288.72 161.5,-294.72 155.5,-300.72 149.5,-300.72 149.5,-300.72 110.5,-300.72 110.5,-300.72 104.5,-300.72 98.5,-294.72 98.5,-288.72 98.5,-288.72 98.5,-276.72 98.5,-276.72 98.5,-270.72 104.5,-264.72 110.5,-264.72"/>
<text text-anchor="middle" x="130" y="-279.02" font-family="Times,serif" font-size="14.00">1:1 &#45; 0:0</text>
</g>
<!-- n8&#45;&gt;x0 -->
<g id="edge62" class="edge">
<title>n8:e&#45;&gt;x0:w</title>
<path fill="none" stroke="black" d="M54,-226.72C81.21,-226.72 69.97,-268.83 86.96,-280.02"/>
<polygon fill="black" stroke="black" points="86.43,-283.5 97,-282.72 88.25,-276.74 86.43,-283.5"/>
</g>
<!-- x2 -->
<g id="node13" class="node">
<title>x2</title>
<path fill="none" stroke="black" d="M380,-114.72C380,-114.72 419,-114.72 419,-114.72 425,-114.72 431,-120.72 431,-126.72 431,-126.72 431,-138.72 431,-138.72 431,-144.72 425,-150.72 419,-150.72 419,-150.72 380,-150.72 380,-150.72 374,-150.72 368,-144.72 368,-138.72 368,-138.72 368,-126.72 368,-126.72 368,-120.72 374,-114.72 380,-114.72"/>
<text text-anchor="middle" x="399.5" y="-129.02" font-family="Times,serif" font-size="14.00">0:0 &#45; 0:0</text>
</g>
<!-- n8&#45;&gt;x2 -->
<g id="edge64" class="edge">
<title>n8:e&#45;&gt;x2:w</title>
<path fill="none" stroke="black" d="M54,-226.72C74,-226.72 72.59,-209.55 90,-199.72 138.43,-172.36 152.16,-166.72 206,-152.72 272.17,-135.5 292.63,-132.94 356.34,-132.73"/>
<polygon fill="black" stroke="black" points="356.51,-136.23 366.5,-132.72 356.49,-129.23 356.51,-136.23"/>
</g>
<!-- x3 -->
<g id="node15" class="node">
<title>x3</title>
<path fill="none" stroke="black" d="M110.5,-208.72C110.5,-208.72 149.5,-208.72 149.5,-208.72 155.5,-208.72 161.5,-214.72 161.5,-220.72 161.5,-220.72 161.5,-232.72 161.5,-232.72 161.5,-238.72 155.5,-244.72 149.5,-244.72 149.5,-244.72 110.5,-244.72 110.5,-244.72 104.5,-244.72 98.5,-238.72 98.5,-232.72 98.5,-232.72 98.5,-220.72 98.5,-220.72 98.5,-214.72 104.5,-208.72 110.5,-208.72"/>
<text text-anchor="middle" x="130" y="-223.02" font-family="Times,serif" font-size="14.00">1:1 &#45; 0:0</text>
</g>
<!-- n8&#45;&gt;x3 -->
<g id="edge65" class="edge">
<title>n8:e&#45;&gt;x3:w</title>
<path fill="none" stroke="black" d="M54,-226.72C69.23,-226.72 75.36,-226.72 86.89,-226.72"/>
<polygon fill="black" stroke="black" points="87,-230.22 97,-226.72 87,-223.22 87,-230.22"/>
</g>
<!-- x5 -->
<g id="node19" class="node">
<title>x5</title>
<path fill="none" stroke="black" d="M110.5,-67.72C110.5,-67.72 149.5,-67.72 149.5,-67.72 155.5,-67.72 161.5,-73.72 161.5,-79.72 161.5,-79.72 161.5,-91.72 161.5,-91.72 161.5,-97.72 155.5,-103.72 149.5,-103.72 149.5,-103.72 110.5,-103.72 110.5,-103.72 104.5,-103.72 98.5,-97.72 98.5,-91.72 98.5,-91.72 98.5,-79.72 98.5,-79.72 98.5,-73.72 104.5,-67.72 110.5,-67.72"/>
<text text-anchor="middle" x="130" y="-82.02" font-family="Times,serif" font-size="14.00">0:0 &#45; 0:0</text>
</g>
<!-- n8&#45;&gt;x5 -->
<g id="edge66" class="edge">
<title>n8:e&#45;&gt;x5:w</title>
<path fill="none" stroke="black" d="M54,-226.72C115.68,-226.72 41.27,-101.76 87,-87.11"/>
<polygon fill="black" stroke="black" points="87.58,-90.57 97,-85.72 86.61,-83.63 87.58,-90.57"/>
</g>
<!-- x25 -->
<g id="node47" class="node">
<title>x25</title>
<path fill="none" stroke="black" d="M102,-374.72C102,-374.72 158,-374.72 158,-374.72 164,-374.72 170,-380.72 170,-386.72 170,-386.72 170,-408.72 170,-408.72 170,-414.72 164,-420.72 158,-420.72 158,-420.72 102,-420.72 102,-420.72 96,-420.72 90,-414.72 90,-408.72 90,-408.72 90,-386.72 90,-386.72 90,-380.72 96,-374.72 102,-374.72"/>
<text text-anchor="middle" x="130" y="-405.52" font-family="Times,serif" font-size="14.00">7x 0:0 &#45; 7:1</text>
<polyline fill="none" stroke="black" points="90,-397.72 170,-397.72 "/>
<text text-anchor="middle" x="130" y="-382.52" font-family="Times,serif" font-size="14.00">0 &#45;&gt; 0:0</text>
</g>
<!-- n8&#45;&gt;x25 -->
<g id="edge63" class="edge">
<title>n8:e&#45;&gt;x25:w</title>
<path fill="none" stroke="black" stroke-width="3" d="M54,-226.72C133.01,-226.72 18.81,-392.96 79.7,-408.55"/>
<polygon fill="black" stroke="black" stroke-width="3" points="79.67,-412.07 90,-409.72 80.46,-405.11 79.67,-412.07"/>
</g>
<!-- n9 -->
<g id="node6" class="node">
<title>n9</title>
<polygon fill="none" stroke="black" points="1212.33,-334.72 1182.17,-316.72 1212.33,-298.72 1242.5,-316.72 1212.33,-334.72"/>
<text text-anchor="middle" x="1212.33" y="-313.02" font-family="Times,serif" font-size="14.00">shf</text>
</g>
<!-- x26 -->
<g id="node49" class="node">
<title>x26</title>
<path fill="none" stroke="black" d="M1290.66,-165.22C1290.66,-165.22 1329.66,-165.22 1329.66,-165.22 1335.66,-165.22 1341.66,-171.22 1341.66,-177.22 1341.66,-177.22 1341.66,-222.22 1341.66,-222.22 1341.66,-228.22 1335.66,-234.22 1329.66,-234.22 1329.66,-234.22 1290.66,-234.22 1290.66,-234.22 1284.66,-234.22 1278.66,-228.22 1278.66,-222.22 1278.66,-222.22 1278.66,-177.22 1278.66,-177.22 1278.66,-171.22 1284.66,-165.22 1290.66,-165.22"/>
<text text-anchor="middle" x="1310.16" y="-219.02" font-family="Times,serif" font-size="14.00">6:6 &#45; 7:7</text>
<polyline fill="none" stroke="black" points="1278.66,-211.22 1341.66,-211.22 "/>
<text text-anchor="middle" x="1310.16" y="-196.02" font-family="Times,serif" font-size="14.00">6:1 &#45; 6:1</text>
<polyline fill="none" stroke="black" points="1278.66,-188.22 1341.66,-188.22 "/>
<text text-anchor="middle" x="1310.16" y="-173.02" font-family="Times,serif" font-size="14.00">1:1 &#45; 0:0</text>
</g>
<!-- n9&#45;&gt;x26 -->
<g id="edge75" class="edge">
<title>n9:e&#45;&gt;x26:w</title>
<path fill="none" stroke="black" stroke-width="3" d="M1242.66,-316.72C1293.03,-316.72 1234.37,-216.44 1268.55,-201.55"/>
<polygon fill="black" stroke="black" stroke-width="3" points="1269.45,-204.95 1278.66,-199.72 1268.2,-198.06 1269.45,-204.95"/>
</g>
<!-- n10 -->
<g id="node7" class="node">
<title>n10</title>
<polygon fill="none" stroke="black" points="791.5,-320.72 761.33,-302.72 791.5,-284.72 821.67,-302.72 791.5,-320.72"/>
<text text-anchor="middle" x="791.5" y="-299.02" font-family="Times,serif" font-size="14.00">w1</text>
</g>
<!-- x6 -->
<g id="node21" class="node">
<title>x6</title>
<path fill="none" stroke="black" d="M871,-201.72C871,-201.72 910,-201.72 910,-201.72 916,-201.72 922,-207.72 922,-213.72 922,-213.72 922,-225.72 922,-225.72 922,-231.72 916,-237.72 910,-237.72 910,-237.72 871,-237.72 871,-237.72 865,-237.72 859,-231.72 859,-225.72 859,-225.72 859,-213.72 859,-213.72 859,-207.72 865,-201.72 871,-201.72"/>
<text text-anchor="middle" x="890.5" y="-216.02" font-family="Times,serif" font-size="14.00">0:0 &#45; 0:0</text>
</g>
<!-- n10&#45;&gt;x6 -->
<g id="edge38" class="edge">
<title>n10:e&#45;&gt;x6:w</title>
<path fill="none" stroke="black" d="M822.5,-302.72C858.71,-302.72 826.79,-235.72 849.16,-222.11"/>
<polygon fill="black" stroke="black" points="850.11,-225.48 859,-219.72 848.46,-218.68 850.11,-225.48"/>
</g>
<!-- x9 -->
<g id="node25" class="node">
<title>x9</title>
<path fill="none" stroke="black" d="M871,-421.72C871,-421.72 910,-421.72 910,-421.72 916,-421.72 922,-427.72 922,-433.72 922,-433.72 922,-445.72 922,-445.72 922,-451.72 916,-457.72 910,-457.72 910,-457.72 871,-457.72 871,-457.72 865,-457.72 859,-451.72 859,-445.72 859,-445.72 859,-433.72 859,-433.72 859,-427.72 865,-421.72 871,-421.72"/>
<text text-anchor="middle" x="890.5" y="-436.02" font-family="Times,serif" font-size="14.00">1:1 &#45; 0:0</text>
</g>
<!-- n10&#45;&gt;x9 -->
<g id="edge39" class="edge">
<title>n10:e&#45;&gt;x9:w</title>
<path fill="none" stroke="black" d="M822.5,-302.72C881.57,-302.72 806.58,-423.13 848.9,-438.18"/>
<polygon fill="black" stroke="black" points="848.59,-441.67 859,-439.72 849.64,-434.75 848.59,-441.67"/>
</g>
<!-- x12 -->
<g id="node29" class="node">
<title>x12</title>
<path fill="none" stroke="black" d="M871,-311.72C871,-311.72 910,-311.72 910,-311.72 916,-311.72 922,-317.72 922,-323.72 922,-323.72 922,-335.72 922,-335.72 922,-341.72 916,-347.72 910,-347.72 910,-347.72 871,-347.72 871,-347.72 865,-347.72 859,-341.72 859,-335.72 859,-335.72 859,-323.72 859,-323.72 859,-317.72 865,-311.72 871,-311.72"/>
<text text-anchor="middle" x="890.5" y="-326.02" font-family="Times,serif" font-size="14.00">2:2 &#45; 0:0</text>
</g>
<!-- n10&#45;&gt;x12 -->
<g id="edge32" class="edge">
<title>n10:e&#45;&gt;x12:w</title>
<path fill="none" stroke="black" d="M822.5,-302.72C838.58,-302.72 839.4,-319.86 849.28,-326.83"/>
<polygon fill="black" stroke="black" points="848.42,-330.22 859,-329.72 850.41,-323.51 848.42,-330.22"/>
</g>
<!-- x15 -->
<g id="node33" class="node">
<title>x15</title>
<path fill="none" stroke="black" d="M871,-366.72C871,-366.72 910,-366.72 910,-366.72 916,-366.72 922,-372.72 922,-378.72 922,-378.72 922,-390.72 922,-390.72 922,-396.72 916,-402.72 910,-402.72 910,-402.72 871,-402.72 871,-402.72 865,-402.72 859,-396.72 859,-390.72 859,-390.72 859,-378.72 859,-378.72 859,-372.72 865,-366.72 871,-366.72"/>
<text text-anchor="middle" x="890.5" y="-381.02" font-family="Times,serif" font-size="14.00">3:3 &#45; 0:0</text>
</g>
<!-- n10&#45;&gt;x15 -->
<g id="edge33" class="edge">
<title>n10:e&#45;&gt;x15:w</title>
<path fill="none" stroke="black" d="M822.5,-302.72C858.34,-302.72 827.04,-368.91 849.25,-382.35"/>
<polygon fill="black" stroke="black" points="848.46,-385.76 859,-384.72 850.11,-378.96 848.46,-385.76"/>
</g>
<!-- x18 -->
<g id="node37" class="node">
<title>x18</title>
<path fill="none" stroke="black" d="M871,-146.72C871,-146.72 910,-146.72 910,-146.72 916,-146.72 922,-152.72 922,-158.72 922,-158.72 922,-170.72 922,-170.72 922,-176.72 916,-182.72 910,-182.72 910,-182.72 871,-182.72 871,-182.72 865,-182.72 859,-176.72 859,-170.72 859,-170.72 859,-158.72 859,-158.72 859,-152.72 865,-146.72 871,-146.72"/>
<text text-anchor="middle" x="890.5" y="-161.02" font-family="Times,serif" font-size="14.00">4:4 &#45; 0:0</text>
</g>
<!-- n10&#45;&gt;x18 -->
<g id="edge34" class="edge">
<title>n10:e&#45;&gt;x18:w</title>
<path fill="none" stroke="black" d="M822.5,-302.72C882.1,-302.72 805.94,-180.92 849.1,-166.17"/>
<polygon fill="black" stroke="black" points="849.62,-169.63 859,-164.72 848.6,-162.71 849.62,-169.63"/>
</g>
<!-- x21 -->
<g id="node41" class="node">
<title>x21</title>
<path fill="none" stroke="black" d="M871,-256.72C871,-256.72 910,-256.72 910,-256.72 916,-256.72 922,-262.72 922,-268.72 922,-268.72 922,-280.72 922,-280.72 922,-286.72 916,-292.72 910,-292.72 910,-292.72 871,-292.72 871,-292.72 865,-292.72 859,-286.72 859,-280.72 859,-280.72 859,-268.72 859,-268.72 859,-262.72 865,-256.72 871,-256.72"/>
<text text-anchor="middle" x="890.5" y="-271.02" font-family="Times,serif" font-size="14.00">5:5 &#45; 0:0</text>
</g>
<!-- n10&#45;&gt;x21 -->
<g id="edge35" class="edge">
<title>n10:e&#45;&gt;x21:w</title>
<path fill="none" stroke="black" d="M822.5,-302.72C838.79,-302.72 839.31,-284.94 849.2,-277.71"/>
<polygon fill="black" stroke="black" points="850.46,-280.99 859,-274.72 848.41,-274.29 850.46,-280.99"/>
</g>
<!-- n10&#45;&gt;x26 -->
<g id="edge36" class="edge">
<title>n10:e&#45;&gt;x26:w</title>
<path fill="none" stroke="black" d="M822.5,-302.72C872.06,-302.72 823.52,-117.32 859,-82.72 904.78,-38.06 937.55,-62.72 1001.5,-62.72 1001.5,-62.72 1001.5,-62.72 1115.5,-62.72 1213.49,-62.72 1179.73,-211.66 1268.46,-222.14"/>
<polygon fill="black" stroke="black" points="1268.48,-225.64 1278.66,-222.72 1268.88,-218.65 1268.48,-225.64"/>
</g>
<!-- x28 -->
<g id="node51" class="node">
<title>x28</title>
<path fill="none" stroke="black" d="M871,-476.72C871,-476.72 910,-476.72 910,-476.72 916,-476.72 922,-482.72 922,-488.72 922,-488.72 922,-510.72 922,-510.72 922,-516.72 916,-522.72 910,-522.72 910,-522.72 871,-522.72 871,-522.72 865,-522.72 859,-516.72 859,-510.72 859,-510.72 859,-488.72 859,-488.72 859,-482.72 865,-476.72 871,-476.72"/>
<text text-anchor="middle" x="890.5" y="-507.52" font-family="Times,serif" font-size="14.00">6:6 &#45; 1:1</text>
<polyline fill="none" stroke="black" points="859,-499.72 922,-499.72 "/>
<text text-anchor="middle" x="890.5" y="-484.52" font-family="Times,serif" font-size="14.00">1:1 &#45; 0:0</text>
</g>
<!-- n10&#45;&gt;x28 -->
<g id="edge37" class="edge">
<title>n10:e&#45;&gt;x28:w</title>
<path fill="none" stroke="black" d="M822.5,-302.72C912.93,-302.72 776.77,-494.92 848.61,-510.69"/>
<polygon fill="black" stroke="black" points="848.7,-514.22 859,-511.72 849.39,-507.25 848.7,-514.22"/>
</g>
<!-- n11 -->
<g id="node8" class="node">
<title>n11</title>
<polygon fill="none" stroke="black" points="791.5,-632.72 761.33,-614.72 791.5,-596.72 821.67,-614.72 791.5,-632.72"/>
<text text-anchor="middle" x="791.5" y="-611.02" font-family="Times,serif" font-size="14.00">w2</text>
</g>
<!-- x7 -->
<g id="node22" class="node">
<title>x7</title>
<path fill="none" stroke="black" d="M871,-541.72C871,-541.72 910,-541.72 910,-541.72 916,-541.72 922,-547.72 922,-553.72 922,-553.72 922,-565.72 922,-565.72 922,-571.72 916,-577.72 910,-577.72 910,-577.72 871,-577.72 871,-577.72 865,-577.72 859,-571.72 859,-565.72 859,-565.72 859,-553.72 859,-553.72 859,-547.72 865,-541.72 871,-541.72"/>
<text text-anchor="middle" x="890.5" y="-556.02" font-family="Times,serif" font-size="14.00">2:2 &#45; 0:0</text>
</g>
<!-- n11&#45;&gt;x7 -->
<g id="edge48" class="edge">
<title>n11:e&#45;&gt;x7:w</title>
<path fill="none" stroke="black" d="M822.5,-614.72C847.71,-614.72 834.88,-574.1 849.39,-562.67"/>
<polygon fill="black" stroke="black" points="850.47,-566 859,-559.72 848.41,-559.31 850.47,-566"/>
</g>
<!-- x10 -->
<g id="node26" class="node">
<title>x10</title>
<path fill="none" stroke="black" d="M871,-761.72C871,-761.72 910,-761.72 910,-761.72 916,-761.72 922,-767.72 922,-773.72 922,-773.72 922,-785.72 922,-785.72 922,-791.72 916,-797.72 910,-797.72 910,-797.72 871,-797.72 871,-797.72 865,-797.72 859,-791.72 859,-785.72 859,-785.72 859,-773.72 859,-773.72 859,-767.72 865,-761.72 871,-761.72"/>
<text text-anchor="middle" x="890.5" y="-776.02" font-family="Times,serif" font-size="14.00">3:3 &#45; 0:0</text>
</g>
<!-- n11&#45;&gt;x10 -->
<g id="edge41" class="edge">
<title>n11:e&#45;&gt;x10:w</title>
<path fill="none" stroke="black" d="M822.5,-614.72C893.79,-614.72 794.96,-763.38 848.97,-778.48"/>
<polygon fill="black" stroke="black" points="848.65,-781.97 859,-779.72 849.5,-775.02 848.65,-781.97"/>
</g>
<!-- x13 -->
<g id="node30" class="node">
<title>x13</title>
<path fill="none" stroke="black" d="M871,-651.72C871,-651.72 910,-651.72 910,-651.72 916,-651.72 922,-657.72 922,-663.72 922,-663.72 922,-675.72 922,-675.72 922,-681.72 916,-687.72 910,-687.72 910,-687.72 871,-687.72 871,-687.72 865,-687.72 859,-681.72 859,-675.72 859,-675.72 859,-663.72 859,-663.72 859,-657.72 865,-651.72 871,-651.72"/>
<text text-anchor="middle" x="890.5" y="-666.02" font-family="Times,serif" font-size="14.00">4:4 &#45; 0:0</text>
</g>
<!-- n11&#45;&gt;x13 -->
<g id="edge42" class="edge">
<title>n11:e&#45;&gt;x13:w</title>
<path fill="none" stroke="black" d="M822.5,-614.72C847.71,-614.72 834.88,-655.33 849.39,-666.76"/>
<polygon fill="black" stroke="black" points="848.41,-670.12 859,-669.72 850.47,-663.43 848.41,-670.12"/>
</g>
<!-- x16 -->
<g id="node34" class="node">
<title>x16</title>
<path fill="none" stroke="black" d="M871,-706.72C871,-706.72 910,-706.72 910,-706.72 916,-706.72 922,-712.72 922,-718.72 922,-718.72 922,-730.72 922,-730.72 922,-736.72 916,-742.72 910,-742.72 910,-742.72 871,-742.72 871,-742.72 865,-742.72 859,-736.72 859,-730.72 859,-730.72 859,-718.72 859,-718.72 859,-712.72 865,-706.72 871,-706.72"/>
<text text-anchor="middle" x="890.5" y="-721.02" font-family="Times,serif" font-size="14.00">5:5 &#45; 0:0</text>
</g>
<!-- n11&#45;&gt;x16 -->
<g id="edge43" class="edge">
<title>n11:e&#45;&gt;x16:w</title>
<path fill="none" stroke="black" d="M822.5,-614.72C869.99,-614.72 817.16,-708.2 848.98,-722.81"/>
<polygon fill="black" stroke="black" points="848.52,-726.28 859,-724.72 849.83,-719.41 848.52,-726.28"/>
</g>
<!-- x19 -->
<g id="node38" class="node">
<title>x19</title>
<path fill="none" stroke="black" d="M871,-91.72C871,-91.72 910,-91.72 910,-91.72 916,-91.72 922,-97.72 922,-103.72 922,-103.72 922,-115.72 922,-115.72 922,-121.72 916,-127.72 910,-127.72 910,-127.72 871,-127.72 871,-127.72 865,-127.72 859,-121.72 859,-115.72 859,-115.72 859,-103.72 859,-103.72 859,-97.72 865,-91.72 871,-91.72"/>
<text text-anchor="middle" x="890.5" y="-106.02" font-family="Times,serif" font-size="14.00">6:6 &#45; 0:0</text>
</g>
<!-- n11&#45;&gt;x19 -->
<g id="edge44" class="edge">
<title>n11:e&#45;&gt;x19:w</title>
<path fill="none" stroke="black" d="M822.5,-614.72C875.35,-614.72 811.46,-169.02 850.18,-115.05"/>
<polygon fill="black" stroke="black" points="852.25,-117.88 859,-109.72 848.63,-111.89 852.25,-117.88"/>
</g>
<!-- x22 -->
<g id="node42" class="node">
<title>x22</title>
<path fill="none" stroke="black" d="M871,-596.72C871,-596.72 910,-596.72 910,-596.72 916,-596.72 922,-602.72 922,-608.72 922,-608.72 922,-620.72 922,-620.72 922,-626.72 916,-632.72 910,-632.72 910,-632.72 871,-632.72 871,-632.72 865,-632.72 859,-626.72 859,-620.72 859,-620.72 859,-608.72 859,-608.72 859,-602.72 865,-596.72 871,-596.72"/>
<text text-anchor="middle" x="890.5" y="-611.02" font-family="Times,serif" font-size="14.00">7:7 &#45; 0:0</text>
</g>
<!-- n11&#45;&gt;x22 -->
<g id="edge45" class="edge">
<title>n11:e&#45;&gt;x22:w</title>
<path fill="none" stroke="black" d="M822.5,-614.72C834.67,-614.72 839.99,-614.72 848.73,-614.72"/>
<polygon fill="black" stroke="black" points="849,-618.22 859,-614.72 849,-611.22 849,-618.22"/>
</g>
<!-- n11&#45;&gt;x26 -->
<g id="edge46" class="edge">
<title>n11:e&#45;&gt;x26:w</title>
<path fill="none" stroke="black" d="M822.5,-614.72C909.8,-614.72 795.62,-747.69 859,-807.72 905.39,-851.65 937.61,-826.72 1001.5,-826.72 1001.5,-826.72 1001.5,-826.72 1115.5,-826.72 1337.48,-826.72 1191,-559.6 1242.66,-343.72 1250.64,-310.4 1242.62,-201.23 1268.87,-180.23"/>
<polygon fill="black" stroke="black" points="1270.43,-183.39 1278.66,-176.72 1268.07,-176.8 1270.43,-183.39"/>
</g>
<!-- n11&#45;&gt;x28 -->
<g id="edge47" class="edge">
<title>n11:e&#45;&gt;x28:w</title>
<path fill="none" stroke="black" d="M822.5,-614.72C877.33,-614.72 810.41,-504.02 849.07,-489.32"/>
<polygon fill="black" stroke="black" points="849.69,-492.77 859,-487.72 848.57,-485.86 849.69,-492.77"/>
</g>
<!-- c14 -->
<g id="node9" class="node">
<title>c14</title>
<polygon fill="none" stroke="black" points="352,-262.72 352,-308.72 447,-308.72 447,-262.72 352,-262.72"/>
<text text-anchor="middle" x="365" y="-293.52" font-family="Times,serif" font-size="14.00">A</text>
<polyline fill="none" stroke="black" points="352,-285.72 378,-285.72 "/>
<text text-anchor="middle" x="365" y="-270.52" font-family="Times,serif" font-size="14.00">B</text>
<polyline fill="none" stroke="black" points="378,-262.72 378,-308.72 "/>
<text text-anchor="middle" x="399.5" y="-289.52" font-family="Times,serif" font-size="14.00">$5</text>
<text text-anchor="middle" x="399.5" y="-274.52" font-family="Times,serif" font-size="14.00">$and</text>
<polyline fill="none" stroke="black" points="421,-262.72 421,-308.72 "/>
<text text-anchor="middle" x="434" y="-282.02" font-family="Times,serif" font-size="14.00">Y</text>
</g>
<!-- c15 -->
<g id="node12" class="node">
<title>c15</title>
<polygon fill="none" stroke="black" points="483,-208.72 483,-254.72 578,-254.72 578,-208.72 483,-208.72"/>
<text text-anchor="middle" x="496" y="-239.52" font-family="Times,serif" font-size="14.00">A</text>
<polyline fill="none" stroke="black" points="483,-231.72 509,-231.72 "/>
<text text-anchor="middle" x="496" y="-216.52" font-family="Times,serif" font-size="14.00">B</text>
<polyline fill="none" stroke="black" points="509,-208.72 509,-254.72 "/>
<text text-anchor="middle" x="530.5" y="-235.52" font-family="Times,serif" font-size="14.00">$6</text>
<text text-anchor="middle" x="530.5" y="-220.52" font-family="Times,serif" font-size="14.00">$and</text>
<polyline fill="none" stroke="black" points="552,-208.72 552,-254.72 "/>
<text text-anchor="middle" x="565" y="-228.02" font-family="Times,serif" font-size="14.00">Y</text>
</g>
<!-- c14&#45;&gt;c15 -->
<g id="edge30" class="edge">
<title>c14:e&#45;&gt;c15:w</title>
<path fill="none" stroke="black" d="M447,-285.72C467.36,-285.72 461.83,-256.91 473.29,-247.01"/>
<polygon fill="black" stroke="black" points="474.65,-250.24 483,-243.72 472.41,-243.61 474.65,-250.24"/>
</g>
<!-- x0&#45;&gt;c14 -->
<g id="edge1" class="edge">
<title>x0:e&#45;&gt;c14:w</title>
<path fill="none" stroke="black" d="M175.01,-284.81C185.7,-289.03 190.35,-298.41 206,-301.72 253.83,-311.81 267.19,-304.42 316,-301.72 327.18,-301.1 332.43,-299.41 340.01,-298.43"/>
<polygon fill="none" stroke="black" points="174.82,-284.78 168.22,-287.69 163,-282.72 169.6,-279.81 174.82,-284.78"/>
<polygon fill="none" stroke="black" points="340.02,-298.43 345.77,-294.08 352,-297.72 346.25,-302.07 340.02,-298.43"/>
</g>
<!-- x1&#45;&gt;c14 -->
<g id="edge2" class="edge">
<title>x1:e&#45;&gt;c14:w</title>
<path fill="none" stroke="black" d="M306.25,-273.72C319.12,-273.72 326.9,-273.72 339.77,-273.72"/>
<polygon fill="none" stroke="black" points="306,-273.72 300,-277.72 294,-273.72 300,-269.72 306,-273.72"/>
<polygon fill="none" stroke="black" points="340,-273.72 346,-269.72 352,-273.72 346,-277.72 340,-273.72"/>
</g>
<!-- c15&#45;&gt;n7 -->
<g id="edge60" class="edge">
<title>c15:e&#45;&gt;n7:w</title>
<path fill="none" stroke="black" d="M578,-231.72C602.29,-231.72 601.62,-203.65 618.89,-195.76"/>
<polygon fill="black" stroke="black" points="619.89,-199.13 629,-193.72 618.5,-192.27 619.89,-199.13"/>
</g>
<!-- x2&#45;&gt;c15 -->
<g id="edge3" class="edge">
<title>x2:e&#45;&gt;c15:w</title>
<path fill="none" stroke="black" d="M444.39,-135.61C466.63,-148.88 448.84,-203.79 471.24,-216.9"/>
<polygon fill="none" stroke="black" points="444.16,-135.56 437.38,-138.02 432.5,-132.72 439.28,-130.25 444.16,-135.56"/>
<polygon fill="none" stroke="black" points="471.33,-216.92 478.1,-214.43 483,-219.72 476.23,-222.21 471.33,-216.92"/>
</g>
<!-- c16 -->
<g id="node14" class="node">
<title>c16</title>
<polygon fill="none" stroke="black" points="352,-169.72 352,-215.72 447,-215.72 447,-169.72 352,-169.72"/>
<text text-anchor="middle" x="365" y="-200.52" font-family="Times,serif" font-size="14.00">A</text>
<polyline fill="none" stroke="black" points="352,-192.72 378,-192.72 "/>
<text text-anchor="middle" x="365" y="-177.52" font-family="Times,serif" font-size="14.00">B</text>
<polyline fill="none" stroke="black" points="378,-169.72 378,-215.72 "/>
<text text-anchor="middle" x="399.5" y="-196.52" font-family="Times,serif" font-size="14.00">$7</text>
<text text-anchor="middle" x="399.5" y="-181.52" font-family="Times,serif" font-size="14.00">$and</text>
<polyline fill="none" stroke="black" points="421,-169.72 421,-215.72 "/>
<text text-anchor="middle" x="434" y="-189.02" font-family="Times,serif" font-size="14.00">Y</text>
</g>
<!-- c17 -->
<g id="node17" class="node">
<title>c17</title>
<polygon fill="none" stroke="black" points="483,-78.72 483,-124.72 578,-124.72 578,-78.72 483,-78.72"/>
<text text-anchor="middle" x="496" y="-109.52" font-family="Times,serif" font-size="14.00">A</text>
<polyline fill="none" stroke="black" points="483,-101.72 509,-101.72 "/>
<text text-anchor="middle" x="496" y="-86.52" font-family="Times,serif" font-size="14.00">B</text>
<polyline fill="none" stroke="black" points="509,-78.72 509,-124.72 "/>
<text text-anchor="middle" x="530.5" y="-105.52" font-family="Times,serif" font-size="14.00">$9</text>
<text text-anchor="middle" x="530.5" y="-90.52" font-family="Times,serif" font-size="14.00">$and</text>
<polyline fill="none" stroke="black" points="552,-78.72 552,-124.72 "/>
<text text-anchor="middle" x="565" y="-98.02" font-family="Times,serif" font-size="14.00">Y</text>
</g>
<!-- c16&#45;&gt;c17 -->
<g id="edge49" class="edge">
<title>c16:e&#45;&gt;c17:w</title>
<path fill="none" stroke="black" d="M447,-192.72C481.52,-192.72 452.21,-129.5 473.27,-116.17"/>
<polygon fill="black" stroke="black" points="474.16,-119.55 483,-113.72 472.45,-112.76 474.16,-119.55"/>
</g>
<!-- x3&#45;&gt;c16 -->
<g id="edge4" class="edge">
<title>x3:e&#45;&gt;c16:w</title>
<path fill="none" stroke="black" d="M175.2,-225.88C211.28,-222.4 303.7,-209.04 339.79,-205.55"/>
<polygon fill="none" stroke="black" points="174.97,-225.9 169.26,-230.3 163,-226.72 168.71,-222.32 174.97,-225.9"/>
<polygon fill="none" stroke="black" points="340.03,-205.54 345.74,-201.14 352,-204.72 346.29,-209.12 340.03,-205.54"/>
</g>
<!-- x4&#45;&gt;c16 -->
<g id="edge5" class="edge">
<title>x4:e&#45;&gt;c16:w</title>
<path fill="none" stroke="black" d="M306.25,-179.8C319.12,-179.99 326.89,-180.44 339.77,-180.63"/>
<polygon fill="none" stroke="black" points="306,-179.8 299.97,-183.76 294,-179.72 300.03,-175.76 306,-179.8"/>
<polygon fill="none" stroke="black" points="340,-180.63 346.03,-176.67 352,-180.72 345.97,-184.67 340,-180.63"/>
</g>
<!-- c17&#45;&gt;n5 -->
<g id="edge57" class="edge">
<title>c17:e&#45;&gt;n5:w</title>
<path fill="none" stroke="black" d="M578,-101.72C599.95,-101.72 607.88,-101.72 625.67,-101.72"/>
<polygon fill="black" stroke="black" points="626,-105.22 636,-101.72 626,-98.22 626,-105.22"/>
</g>
<!-- c18 -->
<g id="node18" class="node">
<title>c18</title>
<polygon fill="none" stroke="black" points="214.5,-65.72 214.5,-103.72 307.5,-103.72 307.5,-65.72 214.5,-65.72"/>
<text text-anchor="middle" x="227.5" y="-81.02" font-family="Times,serif" font-size="14.00">A</text>
<polyline fill="none" stroke="black" points="240.5,-65.72 240.5,-103.72 "/>
<text text-anchor="middle" x="261" y="-88.52" font-family="Times,serif" font-size="14.00">$8</text>
<text text-anchor="middle" x="261" y="-73.52" font-family="Times,serif" font-size="14.00">$not</text>
<polyline fill="none" stroke="black" points="281.5,-65.72 281.5,-103.72 "/>
<text text-anchor="middle" x="294.5" y="-81.02" font-family="Times,serif" font-size="14.00">Y</text>
</g>
<!-- n3 -->
<g id="node53" class="node">
<title>n3</title>
<ellipse fill="black" stroke="black" cx="399.5" cy="-89.72" rx="1.8" ry="1.8"/>
</g>
<!-- c18&#45;&gt;n3 -->
<g id="edge50" class="edge">
<title>c18:e&#45;&gt;n3:w</title>
<path fill="none" stroke="black" d="M309,-84.72C344.3,-84.72 355.49,-88.82 386.27,-89.59"/>
<polygon fill="black" stroke="black" points="386.46,-93.09 396.5,-89.72 386.54,-86.1 386.46,-93.09"/>
</g>
<!-- x5&#45;&gt;c18 -->
<g id="edge6" class="edge">
<title>x5:e&#45;&gt;c18:w</title>
<path fill="none" stroke="black" d="M175.15,-85.6C184.81,-85.41 191.24,-85.02 200.92,-84.83"/>
<polygon fill="none" stroke="black" points="175,-85.6 169.04,-89.66 163,-85.72 168.96,-81.66 175,-85.6"/>
<polygon fill="none" stroke="black" points="201,-84.83 206.96,-80.77 213,-84.72 207.04,-88.77 201,-84.83"/>
</g>
<!-- c19 -->
<g id="node20" class="node">
<title>c19</title>
<polygon fill="none" stroke="black" points="958,-189.72 958,-235.72 1047,-235.72 1047,-189.72 958,-189.72"/>
<text text-anchor="middle" x="971" y="-220.52" font-family="Times,serif" font-size="14.00">A</text>
<polyline fill="none" stroke="black" points="958,-212.72 984,-212.72 "/>
<text text-anchor="middle" x="971" y="-197.52" font-family="Times,serif" font-size="14.00">B</text>
<polyline fill="none" stroke="black" points="984,-189.72 984,-235.72 "/>
<text text-anchor="middle" x="1002.5" y="-216.52" font-family="Times,serif" font-size="14.00">$10</text>
<text text-anchor="middle" x="1002.5" y="-201.52" font-family="Times,serif" font-size="14.00">$or</text>
<polyline fill="none" stroke="black" points="1021,-189.72 1021,-235.72 "/>
<text text-anchor="middle" x="1034" y="-209.02" font-family="Times,serif" font-size="14.00">Y</text>
</g>
<!-- x8 -->
<g id="node23" class="node">
<title>x8</title>
<path fill="none" stroke="black" d="M1095,-194.72C1095,-194.72 1134,-194.72 1134,-194.72 1140,-194.72 1146,-200.72 1146,-206.72 1146,-206.72 1146,-218.72 1146,-218.72 1146,-224.72 1140,-230.72 1134,-230.72 1134,-230.72 1095,-230.72 1095,-230.72 1089,-230.72 1083,-224.72 1083,-218.72 1083,-218.72 1083,-206.72 1083,-206.72 1083,-200.72 1089,-194.72 1095,-194.72"/>
<text text-anchor="middle" x="1114.5" y="-209.02" font-family="Times,serif" font-size="14.00">0:0 &#45; 1:1</text>
</g>
<!-- c19&#45;&gt;x8 -->
<g id="edge9" class="edge">
<title>c19:e&#45;&gt;x8:w</title>
<path fill="none" stroke="black" d="M1059.22,-212.72C1063.29,-212.72 1066.73,-212.72 1070.81,-212.72"/>
<polygon fill="none" stroke="black" points="1059,-212.72 1053,-216.72 1047,-212.72 1053,-208.72 1059,-212.72"/>
<polygon fill="none" stroke="black" points="1071,-212.72 1077,-208.72 1083,-212.72 1077,-216.72 1071,-212.72"/>
</g>
<!-- x6&#45;&gt;c19 -->
<g id="edge7" class="edge">
<title>x6:e&#45;&gt;c19:w</title>
<path fill="none" stroke="black" d="M934,-220.83C938.25,-221.65 941.76,-222.78 946.02,-223.61"/>
<polygon fill="none" stroke="black" points="933.95,-220.82 927.61,-224.25 922,-219.72 928.34,-216.29 933.95,-220.82"/>
<polygon fill="none" stroke="black" points="946.05,-223.61 952.39,-220.18 958,-224.72 951.66,-228.15 946.05,-223.61"/>
</g>
<!-- x7&#45;&gt;c19 -->
<g id="edge8" class="edge">
<title>x7:e&#45;&gt;c19:w</title>
<path fill="none" stroke="black" d="M933.73,-556.39C985.42,-522.39 894.65,-238.37 946.19,-204.1"/>
<polygon fill="none" stroke="black" points="933.55,-556.44 928.86,-561.93 922,-559.72 926.68,-554.23 933.55,-556.44"/>
<polygon fill="none" stroke="black" points="946.46,-204.02 951.13,-198.52 958,-200.72 953.33,-206.21 946.46,-204.02"/>
</g>
<!-- x8&#45;&gt;n9 -->
<g id="edge74" class="edge">
<title>x8:e&#45;&gt;n9:w</title>
<path fill="none" stroke="black" d="M1146,-212.72C1190.9,-212.72 1142.49,-300.35 1172.08,-314.73"/>
<polygon fill="black" stroke="black" points="1171.51,-318.19 1182,-316.72 1172.88,-311.32 1171.51,-318.19"/>
</g>
<!-- c20 -->
<g id="node24" class="node">
<title>c20</title>
<polygon fill="none" stroke="black" points="958,-488.72 958,-534.72 1047,-534.72 1047,-488.72 958,-488.72"/>
<text text-anchor="middle" x="971" y="-519.52" font-family="Times,serif" font-size="14.00">A</text>
<polyline fill="none" stroke="black" points="958,-511.72 984,-511.72 "/>
<text text-anchor="middle" x="971" y="-496.52" font-family="Times,serif" font-size="14.00">B</text>
<polyline fill="none" stroke="black" points="984,-488.72 984,-534.72 "/>
<text text-anchor="middle" x="1002.5" y="-515.52" font-family="Times,serif" font-size="14.00">$11</text>
<text text-anchor="middle" x="1002.5" y="-500.52" font-family="Times,serif" font-size="14.00">$or</text>
<polyline fill="none" stroke="black" points="1021,-488.72 1021,-534.72 "/>
<text text-anchor="middle" x="1034" y="-508.02" font-family="Times,serif" font-size="14.00">Y</text>
</g>
<!-- x11 -->
<g id="node27" class="node">
<title>x11</title>
<path fill="none" stroke="black" d="M1095,-488.72C1095,-488.72 1134,-488.72 1134,-488.72 1140,-488.72 1146,-494.72 1146,-500.72 1146,-500.72 1146,-512.72 1146,-512.72 1146,-518.72 1140,-524.72 1134,-524.72 1134,-524.72 1095,-524.72 1095,-524.72 1089,-524.72 1083,-518.72 1083,-512.72 1083,-512.72 1083,-500.72 1083,-500.72 1083,-494.72 1089,-488.72 1095,-488.72"/>
<text text-anchor="middle" x="1114.5" y="-503.02" font-family="Times,serif" font-size="14.00">0:0 &#45; 2:2</text>
</g>
<!-- c20&#45;&gt;x11 -->
<g id="edge12" class="edge">
<title>c20:e&#45;&gt;x11:w</title>
<path fill="none" stroke="black" d="M1059,-510.61C1063.25,-509.78 1066.76,-508.65 1071.02,-507.82"/>
<polygon fill="none" stroke="black" points="1058.95,-510.61 1053.34,-515.15 1047,-511.72 1052.61,-507.18 1058.95,-510.61"/>
<polygon fill="none" stroke="black" points="1071.05,-507.82 1076.66,-503.28 1083,-506.72 1077.39,-511.25 1071.05,-507.82"/>
</g>
<!-- x9&#45;&gt;c20 -->
<g id="edge10" class="edge">
<title>x9:e&#45;&gt;c20:w</title>
<path fill="none" stroke="black" d="M933.54,-443.33C949.81,-457.02 930.34,-505.69 946.14,-519.83"/>
<polygon fill="none" stroke="black" points="933.45,-443.3 926.53,-445.32 922,-439.72 928.92,-437.69 933.45,-443.3"/>
<polygon fill="none" stroke="black" points="946.6,-519.98 953.54,-518.05 958,-523.72 951.05,-525.65 946.6,-519.98"/>
</g>
<!-- x10&#45;&gt;c20 -->
<g id="edge11" class="edge">
<title>x10:e&#45;&gt;c20:w</title>
<path fill="none" stroke="black" d="M933.58,-775.32C969.27,-742.48 910.55,-535.97 946.66,-503.9"/>
<polygon fill="none" stroke="black" points="933.22,-775.45 929.03,-781.32 922,-779.72 926.19,-773.85 933.22,-775.45"/>
<polygon fill="none" stroke="black" points="946.74,-503.87 950.99,-498.04 958,-499.72 953.75,-505.55 946.74,-503.87"/>
</g>
<!-- x11&#45;&gt;n9 -->
<g id="edge67" class="edge">
<title>x11:e&#45;&gt;n9:w</title>
<path fill="none" stroke="black" d="M1146,-506.72C1228.09,-506.72 1107.81,-333.4 1171.72,-317.83"/>
<polygon fill="black" stroke="black" points="1172.44,-321.27 1182,-316.72 1171.68,-314.32 1172.44,-321.27"/>
</g>
<!-- c21 -->
<g id="node28" class="node">
<title>c21</title>
<polygon fill="none" stroke="black" points="958,-358.72 958,-404.72 1047,-404.72 1047,-358.72 958,-358.72"/>
<text text-anchor="middle" x="971" y="-389.52" font-family="Times,serif" font-size="14.00">A</text>
<polyline fill="none" stroke="black" points="958,-381.72 984,-381.72 "/>
<text text-anchor="middle" x="971" y="-366.52" font-family="Times,serif" font-size="14.00">B</text>
<polyline fill="none" stroke="black" points="984,-358.72 984,-404.72 "/>
<text text-anchor="middle" x="1002.5" y="-385.52" font-family="Times,serif" font-size="14.00">$12</text>
<text text-anchor="middle" x="1002.5" y="-370.52" font-family="Times,serif" font-size="14.00">$or</text>
<polyline fill="none" stroke="black" points="1021,-358.72 1021,-404.72 "/>
<text text-anchor="middle" x="1034" y="-378.02" font-family="Times,serif" font-size="14.00">Y</text>
</g>
<!-- x14 -->
<g id="node31" class="node">
<title>x14</title>
<path fill="none" stroke="black" d="M1095,-370.72C1095,-370.72 1134,-370.72 1134,-370.72 1140,-370.72 1146,-376.72 1146,-382.72 1146,-382.72 1146,-394.72 1146,-394.72 1146,-400.72 1140,-406.72 1134,-406.72 1134,-406.72 1095,-406.72 1095,-406.72 1089,-406.72 1083,-400.72 1083,-394.72 1083,-394.72 1083,-382.72 1083,-382.72 1083,-376.72 1089,-370.72 1095,-370.72"/>
<text text-anchor="middle" x="1114.5" y="-385.02" font-family="Times,serif" font-size="14.00">0:0 &#45; 3:3</text>
</g>
<!-- c21&#45;&gt;x14 -->
<g id="edge15" class="edge">
<title>c21:e&#45;&gt;x14:w</title>
<path fill="none" stroke="black" d="M1059.04,-383.27C1063.27,-384.43 1066.74,-386.01 1070.98,-387.17"/>
<polygon fill="none" stroke="black" points="1058.9,-383.25 1052.44,-386.45 1047,-381.72 1053.46,-378.52 1058.9,-383.25"/>
<polygon fill="none" stroke="black" points="1071.1,-387.18 1077.56,-383.98 1083,-388.72 1076.54,-391.92 1071.1,-387.18"/>
</g>
<!-- x12&#45;&gt;c21 -->
<g id="edge13" class="edge">
<title>x12:e&#45;&gt;c21:w</title>
<path fill="none" stroke="black" d="M933.61,-334.32C944.24,-346.24 935.69,-378 946.74,-389.49"/>
<polygon fill="none" stroke="black" points="933.16,-334.14 926.1,-335.65 922,-329.72 929.05,-328.21 933.16,-334.14"/>
<polygon fill="none" stroke="black" points="946.76,-389.5 953.79,-387.86 958,-393.72 950.98,-395.35 946.76,-389.5"/>
</g>
<!-- x13&#45;&gt;c21 -->
<g id="edge14" class="edge">
<title>x13:e&#45;&gt;c21:w</title>
<path fill="none" stroke="black" d="M933.56,-665.7C973.38,-632.67 906.51,-406.18 946.59,-373.61"/>
<polygon fill="none" stroke="black" points="933.34,-665.78 928.98,-671.53 922,-669.72 926.36,-663.97 933.34,-665.78"/>
<polygon fill="none" stroke="black" points="946.64,-373.59 951.03,-367.87 958,-369.72 953.61,-375.44 946.64,-373.59"/>
</g>
<!-- x14&#45;&gt;n9 -->
<g id="edge68" class="edge">
<title>x14:e&#45;&gt;n9:w</title>
<path fill="none" stroke="black" d="M1146,-388.72C1177.58,-388.72 1153.58,-332.6 1172.13,-319.45"/>
<polygon fill="black" stroke="black" points="1173.3,-322.76 1182,-316.72 1171.43,-316.01 1173.3,-322.76"/>
</g>
<!-- c22 -->
<g id="node32" class="node">
<title>c22</title>
<polygon fill="none" stroke="black" points="958,-423.72 958,-469.72 1047,-469.72 1047,-423.72 958,-423.72"/>
<text text-anchor="middle" x="971" y="-454.52" font-family="Times,serif" font-size="14.00">A</text>
<polyline fill="none" stroke="black" points="958,-446.72 984,-446.72 "/>
<text text-anchor="middle" x="971" y="-431.52" font-family="Times,serif" font-size="14.00">B</text>
<polyline fill="none" stroke="black" points="984,-423.72 984,-469.72 "/>
<text text-anchor="middle" x="1002.5" y="-450.52" font-family="Times,serif" font-size="14.00">$13</text>
<text text-anchor="middle" x="1002.5" y="-435.52" font-family="Times,serif" font-size="14.00">$or</text>
<polyline fill="none" stroke="black" points="1021,-423.72 1021,-469.72 "/>
<text text-anchor="middle" x="1034" y="-443.02" font-family="Times,serif" font-size="14.00">Y</text>
</g>
<!-- x17 -->
<g id="node35" class="node">
<title>x17</title>
<path fill="none" stroke="black" d="M1095,-427.72C1095,-427.72 1134,-427.72 1134,-427.72 1140,-427.72 1146,-433.72 1146,-439.72 1146,-439.72 1146,-451.72 1146,-451.72 1146,-457.72 1140,-463.72 1134,-463.72 1134,-463.72 1095,-463.72 1095,-463.72 1089,-463.72 1083,-457.72 1083,-451.72 1083,-451.72 1083,-439.72 1083,-439.72 1083,-433.72 1089,-427.72 1095,-427.72"/>
<text text-anchor="middle" x="1114.5" y="-442.02" font-family="Times,serif" font-size="14.00">0:0 &#45; 4:4</text>
</g>
<!-- c22&#45;&gt;x17 -->
<g id="edge18" class="edge">
<title>c22:e&#45;&gt;x17:w</title>
<path fill="none" stroke="black" d="M1059.22,-446.48C1063.29,-446.32 1066.73,-446.11 1070.81,-445.95"/>
<polygon fill="none" stroke="black" points="1059,-446.49 1053.07,-450.6 1047,-446.72 1052.92,-442.6 1059,-446.49"/>
<polygon fill="none" stroke="black" points="1071,-445.94 1076.93,-441.83 1083,-445.72 1077.08,-449.83 1071,-445.94"/>
</g>
<!-- x15&#45;&gt;c22 -->
<g id="edge16" class="edge">
<title>x15:e&#45;&gt;c22:w</title>
<path fill="none" stroke="black" d="M933.47,-388.69C946.94,-401.54 933.07,-441.84 946.51,-454.72"/>
<polygon fill="none" stroke="black" points="933.34,-388.65 926.36,-390.46 922,-384.72 928.98,-382.9 933.34,-388.65"/>
<polygon fill="none" stroke="black" points="946.67,-454.77 953.65,-452.97 958,-458.72 951.02,-460.52 946.67,-454.77"/>
</g>
<!-- x16&#45;&gt;c22 -->
<g id="edge17" class="edge">
<title>x16:e&#45;&gt;c22:w</title>
<path fill="none" stroke="black" d="M933.45,-720.62C971.31,-688.12 908.92,-472.57 946.24,-439.08"/>
<polygon fill="none" stroke="black" points="933.3,-720.67 929,-726.46 922,-724.72 926.3,-718.93 933.3,-720.67"/>
<polygon fill="none" stroke="black" points="946.75,-438.89 950.98,-433.06 958,-434.72 953.77,-440.55 946.75,-438.89"/>
</g>
<!-- x17&#45;&gt;n9 -->
<g id="edge69" class="edge">
<title>x17:e&#45;&gt;n9:w</title>
<path fill="none" stroke="black" d="M1146,-445.72C1201.57,-445.72 1132.88,-333.28 1171.94,-318.35"/>
<polygon fill="black" stroke="black" points="1172.69,-321.77 1182,-316.72 1171.57,-314.86 1172.69,-321.77"/>
</g>
<!-- c23 -->
<g id="node36" class="node">
<title>c23</title>
<polygon fill="none" stroke="black" points="958,-124.72 958,-170.72 1047,-170.72 1047,-124.72 958,-124.72"/>
<text text-anchor="middle" x="971" y="-155.52" font-family="Times,serif" font-size="14.00">A</text>
<polyline fill="none" stroke="black" points="958,-147.72 984,-147.72 "/>
<text text-anchor="middle" x="971" y="-132.52" font-family="Times,serif" font-size="14.00">B</text>
<polyline fill="none" stroke="black" points="984,-124.72 984,-170.72 "/>
<text text-anchor="middle" x="1002.5" y="-151.52" font-family="Times,serif" font-size="14.00">$14</text>
<text text-anchor="middle" x="1002.5" y="-136.52" font-family="Times,serif" font-size="14.00">$or</text>
<polyline fill="none" stroke="black" points="1021,-124.72 1021,-170.72 "/>
<text text-anchor="middle" x="1034" y="-144.02" font-family="Times,serif" font-size="14.00">Y</text>
</g>
<!-- x20 -->
<g id="node39" class="node">
<title>x20</title>
<path fill="none" stroke="black" d="M1095,-134.72C1095,-134.72 1134,-134.72 1134,-134.72 1140,-134.72 1146,-140.72 1146,-146.72 1146,-146.72 1146,-158.72 1146,-158.72 1146,-164.72 1140,-170.72 1134,-170.72 1134,-170.72 1095,-170.72 1095,-170.72 1089,-170.72 1083,-164.72 1083,-158.72 1083,-158.72 1083,-146.72 1083,-146.72 1083,-140.72 1089,-134.72 1095,-134.72"/>
<text text-anchor="middle" x="1114.5" y="-149.02" font-family="Times,serif" font-size="14.00">0:0 &#45; 5:5</text>
</g>
<!-- c23&#45;&gt;x20 -->
<g id="edge21" class="edge">
<title>c23:e&#45;&gt;x20:w</title>
<path fill="none" stroke="black" d="M1059,-148.83C1063.25,-149.65 1066.76,-150.78 1071.02,-151.61"/>
<polygon fill="none" stroke="black" points="1058.95,-148.82 1052.61,-152.25 1047,-147.72 1053.34,-144.29 1058.95,-148.82"/>
<polygon fill="none" stroke="black" points="1071.05,-151.61 1077.39,-148.18 1083,-152.72 1076.66,-156.15 1071.05,-151.61"/>
</g>
<!-- x18&#45;&gt;c23 -->
<g id="edge19" class="edge">
<title>x18:e&#45;&gt;c23:w</title>
<path fill="none" stroke="black" d="M934,-163.61C938.25,-162.78 941.76,-161.65 946.02,-160.82"/>
<polygon fill="none" stroke="black" points="933.95,-163.61 928.34,-168.15 922,-164.72 927.61,-160.18 933.95,-163.61"/>
<polygon fill="none" stroke="black" points="946.05,-160.82 951.66,-156.28 958,-159.72 952.39,-164.25 946.05,-160.82"/>
</g>
<!-- x19&#45;&gt;c23 -->
<g id="edge20" class="edge">
<title>x19:e&#45;&gt;c23:w</title>
<path fill="none" stroke="black" d="M933.68,-114.24C938.71,-119.02 941.33,-126.49 946.37,-131.24"/>
<polygon fill="none" stroke="black" points="933.19,-114.05 926.15,-115.61 922,-109.72 929.04,-108.15 933.19,-114.05"/>
<polygon fill="none" stroke="black" points="946.8,-131.4 953.84,-129.83 958,-135.72 950.96,-137.29 946.8,-131.4"/>
</g>
<!-- x20&#45;&gt;n9 -->
<g id="edge70" class="edge">
<title>x20:e&#45;&gt;n9:w</title>
<path fill="none" stroke="black" d="M1146,-152.72C1216.83,-152.72 1118.39,-300.48 1172.04,-315.49"/>
<polygon fill="black" stroke="black" points="1171.65,-318.97 1182,-316.72 1172.5,-312.02 1171.65,-318.97"/>
</g>
<!-- c24 -->
<g id="node40" class="node">
<title>c24</title>
<polygon fill="none" stroke="black" points="958,-254.72 958,-300.72 1047,-300.72 1047,-254.72 958,-254.72"/>
<text text-anchor="middle" x="971" y="-285.52" font-family="Times,serif" font-size="14.00">A</text>
<polyline fill="none" stroke="black" points="958,-277.72 984,-277.72 "/>
<text text-anchor="middle" x="971" y="-262.52" font-family="Times,serif" font-size="14.00">B</text>
<polyline fill="none" stroke="black" points="984,-254.72 984,-300.72 "/>
<text text-anchor="middle" x="1002.5" y="-281.52" font-family="Times,serif" font-size="14.00">$15</text>
<text text-anchor="middle" x="1002.5" y="-266.52" font-family="Times,serif" font-size="14.00">$or</text>
<polyline fill="none" stroke="black" points="1021,-254.72 1021,-300.72 "/>
<text text-anchor="middle" x="1034" y="-274.02" font-family="Times,serif" font-size="14.00">Y</text>
</g>
<!-- x23 -->
<g id="node43" class="node">
<title>x23</title>
<path fill="none" stroke="black" d="M1095,-250.72C1095,-250.72 1134,-250.72 1134,-250.72 1140,-250.72 1146,-256.72 1146,-262.72 1146,-262.72 1146,-274.72 1146,-274.72 1146,-280.72 1140,-286.72 1134,-286.72 1134,-286.72 1095,-286.72 1095,-286.72 1089,-286.72 1083,-280.72 1083,-274.72 1083,-274.72 1083,-262.72 1083,-262.72 1083,-256.72 1089,-250.72 1095,-250.72"/>
<text text-anchor="middle" x="1114.5" y="-265.02" font-family="Times,serif" font-size="14.00">0:0 &#45; 6:6</text>
</g>
<!-- c24&#45;&gt;x23 -->
<g id="edge24" class="edge">
<title>c24:e&#45;&gt;x23:w</title>
<path fill="none" stroke="black" d="M1059.08,-275.72C1063.3,-274.23 1066.71,-272.2 1070.93,-270.71"/>
<polygon fill="none" stroke="black" points="1058.84,-275.76 1053.57,-280.68 1047,-277.72 1052.27,-272.79 1058.84,-275.76"/>
<polygon fill="none" stroke="black" points="1071.16,-270.67 1076.43,-265.75 1083,-268.72 1077.73,-273.64 1071.16,-270.67"/>
</g>
<!-- x21&#45;&gt;c24 -->
<g id="edge22" class="edge">
<title>x21:e&#45;&gt;c24:w</title>
<path fill="none" stroke="black" d="M933.79,-277.75C938.33,-280.35 941.67,-284.08 946.21,-286.69"/>
<polygon fill="none" stroke="black" points="933.62,-277.71 926.81,-280.09 922,-274.72 928.81,-272.34 933.62,-277.71"/>
<polygon fill="none" stroke="black" points="946.38,-286.73 953.19,-284.35 958,-289.72 951.19,-292.1 946.38,-286.73"/>
</g>
<!-- x22&#45;&gt;c24 -->
<g id="edge23" class="edge">
<title>x22:e&#45;&gt;c24:w</title>
<path fill="none" stroke="black" d="M933.75,-611.26C983.29,-577.28 896.75,-303.31 946.21,-269.2"/>
<polygon fill="none" stroke="black" points="933.51,-611.33 928.88,-616.86 922,-614.72 926.63,-609.19 933.51,-611.33"/>
<polygon fill="none" stroke="black" points="946.49,-269.12 951.11,-263.58 958,-265.72 953.38,-271.25 946.49,-269.12"/>
</g>
<!-- x23&#45;&gt;n9 -->
<g id="edge71" class="edge">
<title>x23:e&#45;&gt;n9:w</title>
<path fill="none" stroke="black" d="M1146,-268.72C1168.5,-268.72 1159.68,-302.89 1172.39,-313.57"/>
<polygon fill="black" stroke="black" points="1171.41,-316.93 1182,-316.72 1173.59,-310.28 1171.41,-316.93"/>
</g>
<!-- c25&#45;&gt;n10 -->
<g id="edge31" class="edge">
<title>c25:e&#45;&gt;n10:w</title>
<path fill="none" stroke="black" stroke-width="3" d="M724,-302.72C736.17,-302.72 741.49,-302.72 750.23,-302.72"/>
<polygon fill="black" stroke="black" stroke-width="3" points="750.5,-306.22 760.5,-302.72 750.5,-299.22 750.5,-306.22"/>
</g>
<!-- x24 -->
<g id="node45" class="node">
<title>x24</title>
<path fill="none" stroke="black" d="M502.5,-143.72C502.5,-143.72 558.5,-143.72 558.5,-143.72 564.5,-143.72 570.5,-149.72 570.5,-155.72 570.5,-155.72 570.5,-177.72 570.5,-177.72 570.5,-183.72 564.5,-189.72 558.5,-189.72 558.5,-189.72 502.5,-189.72 502.5,-189.72 496.5,-189.72 490.5,-183.72 490.5,-177.72 490.5,-177.72 490.5,-155.72 490.5,-155.72 490.5,-149.72 496.5,-143.72 502.5,-143.72"/>
<text text-anchor="middle" x="530.5" y="-174.52" font-family="Times,serif" font-size="14.00">0 &#45;&gt; 7:7</text>
<polyline fill="none" stroke="black" points="490.5,-166.72 570.5,-166.72 "/>
<text text-anchor="middle" x="530.5" y="-151.52" font-family="Times,serif" font-size="14.00">7x 0:0 &#45; 6:0</text>
</g>
<!-- x24&#45;&gt;c25 -->
<g id="edge25" class="edge">
<title>x24:e&#45;&gt;c25:w</title>
<path fill="none" stroke="black" stroke-width="3" d="M583.31,-169.08C615.34,-184.69 570.19,-272.65 602.14,-288.32"/>
<polygon fill="none" stroke="black" stroke-width="3" points="583.27,-169.07 576.6,-171.82 571.5,-166.72 578.17,-163.97 583.27,-169.07"/>
<polygon fill="none" stroke="black" stroke-width="3" points="602.24,-288.34 608.91,-285.61 614,-290.72 607.33,-293.45 602.24,-288.34"/>
</g>
<!-- c26&#45;&gt;n11 -->
<g id="edge40" class="edge">
<title>c26:e&#45;&gt;n11:w</title>
<path fill="none" stroke="black" stroke-width="3" d="M316,-410.72C529.97,-410.72 542.78,-608.39 750.46,-614.57"/>
<polygon fill="black" stroke="black" stroke-width="3" points="750.45,-618.07 760.5,-614.72 750.55,-611.07 750.45,-618.07"/>
</g>
<!-- x25&#45;&gt;c26 -->
<g id="edge26" class="edge">
<title>x25:e&#45;&gt;c26:w</title>
<path fill="none" stroke="black" stroke-width="3" d="M182.22,-397.95C186.29,-398.11 189.73,-398.32 193.81,-398.49"/>
<polygon fill="none" stroke="black" stroke-width="3" points="182,-397.94 175.92,-401.83 170,-397.72 176.07,-393.83 182,-397.94"/>
<polygon fill="none" stroke="black" stroke-width="3" points="194,-398.49 200.08,-394.6 206,-398.72 199.93,-402.6 194,-398.49"/>
</g>
<!-- c27 -->
<g id="node48" class="node">
<title>c27</title>
<polygon fill="none" stroke="black" points="1377.66,-88.72 1377.66,-134.72 1487.66,-134.72 1487.66,-88.72 1377.66,-88.72"/>
<text text-anchor="middle" x="1390.66" y="-119.52" font-family="Times,serif" font-size="14.00">A</text>
<polyline fill="none" stroke="black" points="1377.66,-111.72 1403.66,-111.72 "/>
<text text-anchor="middle" x="1390.66" y="-96.52" font-family="Times,serif" font-size="14.00">B</text>
<polyline fill="none" stroke="black" points="1403.66,-88.72 1403.66,-134.72 "/>
<text text-anchor="middle" x="1428.66" y="-115.52" font-family="Times,serif" font-size="14.00">or_rot</text>
<text text-anchor="middle" x="1428.66" y="-100.52" font-family="Times,serif" font-size="14.00">or8b</text>
<polyline fill="none" stroke="black" points="1453.66,-88.72 1453.66,-134.72 "/>
<text text-anchor="middle" x="1470.66" y="-108.02" font-family="Times,serif" font-size="14.00">out</text>
</g>
<!-- c27&#45;&gt;n6 -->
<g id="edge59" class="edge">
<title>c27:e&#45;&gt;n6:w</title>
<path fill="none" stroke="black" stroke-width="3" d="M1487.66,-111.72C1499.66,-111.72 1504.91,-111.72 1513.54,-111.72"/>
<polygon fill="black" stroke="black" stroke-width="3" points="1513.66,-115.22 1523.66,-111.72 1513.66,-108.22 1513.66,-115.22"/>
</g>
<!-- x26&#45;&gt;c27 -->
<g id="edge27" class="edge">
<title>x26:e&#45;&gt;c27:w</title>
<path fill="none" stroke="black" stroke-width="3" d="M1353.34,-195.63C1366.97,-182.43 1352.37,-141.05 1365.97,-127.82"/>
<polygon fill="none" stroke="black" stroke-width="3" points="1352.99,-195.75 1348.65,-201.51 1341.66,-199.72 1346.01,-193.96 1352.99,-195.75"/>
<polygon fill="none" stroke="black" stroke-width="3" points="1366.34,-127.69 1370.68,-121.93 1377.66,-123.72 1373.33,-129.48 1366.34,-127.69"/>
</g>
<!-- x27&#45;&gt;c27 -->
<g id="edge28" class="edge">
<title>x27:e&#45;&gt;c27:w</title>
<path fill="none" stroke="black" stroke-width="3" d="M835.09,-121.65C851.64,-110.41 834.76,-71.17 859,-52.72 910.36,-13.62 936.96,-24.72 1001.5,-24.72 1001.5,-24.72 1001.5,-24.72 1213.33,-24.72 1289.38,-24.72 1296.77,-92.01 1365.58,-99.11"/>
<polygon fill="none" stroke="black" stroke-width="3" points="834.63,-121.76 829.8,-127.12 823,-124.72 827.83,-119.36 834.63,-121.76"/>
<polygon fill="none" stroke="black" stroke-width="3" points="1365.68,-99.12 1371.87,-95.42 1377.66,-99.72 1371.47,-103.41 1365.68,-99.12"/>
</g>
<!-- x29 -->
<g id="node52" class="node">
<title>x29</title>
<path fill="none" stroke="black" d="M1095,-305.72C1095,-305.72 1134,-305.72 1134,-305.72 1140,-305.72 1146,-311.72 1146,-317.72 1146,-317.72 1146,-339.72 1146,-339.72 1146,-345.72 1140,-351.72 1134,-351.72 1134,-351.72 1095,-351.72 1095,-351.72 1089,-351.72 1083,-345.72 1083,-339.72 1083,-339.72 1083,-317.72 1083,-317.72 1083,-311.72 1089,-305.72 1095,-305.72"/>
<text text-anchor="middle" x="1114.5" y="-336.52" font-family="Times,serif" font-size="14.00">1:1 &#45; 7:7</text>
<polyline fill="none" stroke="black" points="1083,-328.72 1146,-328.72 "/>
<text text-anchor="middle" x="1114.5" y="-313.52" font-family="Times,serif" font-size="14.00">0:0 &#45; 0:0</text>
</g>
<!-- x28&#45;&gt;x29 -->
<g id="edge29" class="edge">
<title>x28:e&#45;&gt;x29:w</title>
<path fill="none" stroke="black" stroke-width="3" d="M934.03,-498.32C979.88,-485.87 911.3,-393.29 958,-349.72 996.13,-314.13 1022.51,-326.44 1070.92,-328.46"/>
<polygon fill="none" stroke="black" stroke-width="3" points="933.92,-498.33 928.42,-503 922,-499.72 927.5,-495.05 933.92,-498.33"/>
<polygon fill="none" stroke="black" stroke-width="3" points="1071,-328.46 1077.09,-324.59 1083,-328.72 1076.92,-332.59 1071,-328.46"/>
</g>
<!-- x29&#45;&gt;n9 -->
<g id="edge72" class="edge">
<title>x29:e&#45;&gt;n9:w</title>
<path fill="none" stroke="black" d="M1146,-316.72C1158,-316.72 1163.25,-316.72 1171.88,-316.72"/>
<polygon fill="black" stroke="black" points="1172,-320.22 1182,-316.72 1172,-313.22 1172,-320.22"/>
</g>
<!-- x29&#45;&gt;n9 -->
<g id="edge73" class="edge">
<title>x29:e&#45;&gt;n9:w</title>
<path fill="none" stroke="black" d="M1146,-340.72C1161.17,-340.72 1162.84,-325.77 1172.32,-319.47"/>
<polygon fill="black" stroke="black" points="1173.34,-322.82 1182,-316.72 1171.42,-316.09 1173.34,-322.82"/>
</g>
<!-- n3&#45;&gt;c17 -->
<g id="edge51" class="edge">
<title>n3:e&#45;&gt;c17:w</title>
<path fill="none" stroke="black" d="M402.5,-89.72C434.64,-89.72 445.13,-89.72 472.87,-89.72"/>
<polygon fill="black" stroke="black" points="473,-93.22 483,-89.72 473,-86.22 473,-93.22"/>
</g>
<!-- n3&#45;&gt;x24 -->
<g id="edge52" class="edge">
<title>n3:e&#45;&gt;x24:w</title>
<path fill="none" stroke="black" stroke-width="3" d="M402.5,-89.72C423.52,-89.72 429.66,-93.84 447,-105.72 467.44,-119.72 462.84,-145.84 479.45,-152.91"/>
<polygon fill="black" stroke="black" stroke-width="3" points="479.04,-156.4 489.5,-154.72 480.28,-149.51 479.04,-156.4"/>
</g>
</g>
</svg>
