<?xml version="1.0" encoding="UTF-8" standalone="no"?>
<!DOCTYPE svg PUBLIC "-//W3C//DTD SVG 1.1//EN"
 "http://www.w3.org/Graphics/SVG/1.1/DTD/svg11.dtd">
<!-- Generated by graphviz version 2.43.0 (0)
 -->
<!-- Title: active_low_asynch_rst_dff Pages: 1 -->
<svg width="338pt" height="229pt"
 viewBox="0.00 0.00 337.98 229.00" xmlns="http://www.w3.org/2000/svg" xmlns:xlink="http://www.w3.org/1999/xlink">
<g id="graph0" class="graph" transform="scale(1 1) rotate(0) translate(4 225)">
<title>active_low_asynch_rst_dff</title>
<polygon fill="white" stroke="transparent" points="-4,4 -4,-225 333.98,-225 333.98,4 -4,4"/>
<text text-anchor="middle" x="164.99" y="-7.8" font-family="Times,serif" font-size="14.00">active_low_asynch_rst_dff</text>
<!-- n1 -->
<g id="node1" class="node">
<title>n1</title>
<polygon fill="none" stroke="black" points="70.21,-33.54 70.21,-48.46 51.34,-59 24.64,-59 5.77,-48.46 5.77,-33.54 24.64,-23 51.34,-23 70.21,-33.54"/>
<text text-anchor="middle" x="37.99" y="-37.3" font-family="Times,serif" font-size="14.00">R_W</text>
</g>
<!-- c11 -->
<g id="node6" class="node">
<title>c11</title>
<polygon fill="none" stroke="black" points="111.98,-76 111.98,-168 239.98,-168 239.98,-76 111.98,-76"/>
<text text-anchor="middle" x="137.48" y="-152.8" font-family="Times,serif" font-size="14.00">ARST</text>
<polyline fill="none" stroke="black" points="111.98,-145 162.98,-145 "/>
<text text-anchor="middle" x="137.48" y="-129.8" font-family="Times,serif" font-size="14.00">CLK</text>
<polyline fill="none" stroke="black" points="111.98,-122 162.98,-122 "/>
<text text-anchor="middle" x="137.48" y="-106.8" font-family="Times,serif" font-size="14.00">D</text>
<polyline fill="none" stroke="black" points="111.98,-99 162.98,-99 "/>
<text text-anchor="middle" x="137.48" y="-83.8" font-family="Times,serif" font-size="14.00">EN</text>
<polyline fill="none" stroke="black" points="162.98,-76 162.98,-168 "/>
<text text-anchor="middle" x="188.48" y="-125.8" font-family="Times,serif" font-size="14.00">$332</text>
<text text-anchor="middle" x="188.48" y="-110.8" font-family="Times,serif" font-size="14.00">$adffe</text>
<polyline fill="none" stroke="black" points="213.98,-76 213.98,-168 "/>
<text text-anchor="middle" x="226.98" y="-118.3" font-family="Times,serif" font-size="14.00">Q</text>
</g>
<!-- n1&#45;&gt;c11 -->
<g id="edge1" class="edge">
<title>n1:e&#45;&gt;c11:w</title>
<path fill="none" stroke="black" d="M70.99,-41C94.31,-41 87.78,-74.36 102.23,-84.26"/>
<polygon fill="black" stroke="black" points="101.4,-87.66 111.98,-87 103.3,-80.92 101.4,-87.66"/>
</g>
<!-- n2 -->
<g id="node2" class="node">
<title>n2</title>
<polygon fill="none" stroke="black" points="68.9,-141.54 68.9,-156.46 50.79,-167 25.19,-167 7.08,-156.46 7.08,-141.54 25.19,-131 50.79,-131 68.9,-141.54"/>
<text text-anchor="middle" x="37.99" y="-145.3" font-family="Times,serif" font-size="14.00">i_clk</text>
</g>
<!-- n2&#45;&gt;c11 -->
<g id="edge2" class="edge">
<title>n2:e&#45;&gt;c11:w</title>
<path fill="none" stroke="black" d="M69.99,-149C85.78,-149 90.48,-139.47 101.77,-135.61"/>
<polygon fill="black" stroke="black" points="102.64,-139.01 111.98,-134 101.55,-132.1 102.64,-139.01"/>
</g>
<!-- n3 -->
<g id="node3" class="node">
<title>n3</title>
<polygon fill="none" stroke="black" points="64.99,-87.54 64.99,-102.46 49.17,-113 26.8,-113 10.99,-102.46 10.99,-87.54 26.8,-77 49.17,-77 64.99,-87.54"/>
<text text-anchor="middle" x="37.99" y="-91.3" font-family="Times,serif" font-size="14.00">i_d</text>
</g>
<!-- n3&#45;&gt;c11 -->
<g id="edge3" class="edge">
<title>n3:e&#45;&gt;c11:w</title>
<path fill="none" stroke="black" stroke-width="3" d="M65.99,-95C83.62,-95 88.81,-105.09 101.97,-108.72"/>
<polygon fill="black" stroke="black" stroke-width="3" points="101.61,-112.2 111.98,-110 102.5,-105.26 101.61,-112.2"/>
</g>
<!-- n4 -->
<g id="node4" class="node">
<title>n4</title>
<polygon fill="none" stroke="black" points="75.97,-195.54 75.97,-210.46 53.72,-221 22.26,-221 0.01,-210.46 0.01,-195.54 22.26,-185 53.72,-185 75.97,-195.54"/>
<text text-anchor="middle" x="37.99" y="-199.3" font-family="Times,serif" font-size="14.00">i_rst_n</text>
</g>
<!-- n4&#45;&gt;c11 -->
<g id="edge4" class="edge">
<title>n4:e&#45;&gt;c11:w</title>
<path fill="none" stroke="black" d="M75.98,-203C97.68,-203 90.11,-170.86 102.21,-160.31"/>
<polygon fill="black" stroke="black" points="103.63,-163.52 111.98,-157 101.38,-156.89 103.63,-163.52"/>
</g>
<!-- n5 -->
<g id="node5" class="node">
<title>n5</title>
<polygon fill="none" stroke="black" points="329.98,-114.54 329.98,-129.46 314.16,-140 291.79,-140 275.98,-129.46 275.98,-114.54 291.79,-104 314.16,-104 329.98,-114.54"/>
<text text-anchor="middle" x="302.98" y="-118.3" font-family="Times,serif" font-size="14.00">o_q</text>
</g>
<!-- c11&#45;&gt;n5 -->
<g id="edge5" class="edge">
<title>c11:e&#45;&gt;n5:w</title>
<path fill="none" stroke="black" stroke-width="3" d="M239.98,-122C251.98,-122 257.23,-122 265.85,-122"/>
<polygon fill="black" stroke="black" stroke-width="3" points="265.98,-125.5 275.98,-122 265.98,-118.5 265.98,-125.5"/>
</g>
</g>
</svg>
