<?xml version="1.0" encoding="UTF-8" standalone="no"?>
<!DOCTYPE svg PUBLIC "-//W3C//DTD SVG 1.1//EN"
 "http://www.w3.org/Graphics/SVG/1.1/DTD/svg11.dtd">
<!-- Generated by graphviz version 2.43.0 (0)
 -->
<!-- Title: full_adder Pages: 1 -->
<svg width="747pt" height="291pt"
 viewBox="0.00 0.00 747.31 290.94" xmlns="http://www.w3.org/2000/svg" xmlns:xlink="http://www.w3.org/1999/xlink">
<g id="page0,1_graph0" class="graph" transform="scale(1 1) rotate(0) translate(4 286.94)">
<title>full_adder</title>
<polygon fill="white" stroke="transparent" points="-4,4 -4,-286.94 743.31,-286.94 743.31,4 -4,4"/>
<text text-anchor="middle" x="369.66" y="-7.8" font-family="Times,serif" font-size="14.00">full_adder</text>
<!-- n1 -->
<g id="node1" class="node">
<title>n1</title>
<polygon fill="none" stroke="black" points="54,-213.99 54,-228.9 38.18,-239.44 15.82,-239.44 0,-228.9 0,-213.99 15.82,-203.44 38.18,-203.44 54,-213.99"/>
<text text-anchor="middle" x="27" y="-217.74" font-family="Times,serif" font-size="14.00">A</text>
</g>
<!-- c12 -->
<g id="node11" class="node">
<title>c12</title>
<polygon fill="none" stroke="black" points="90,-236.44 90,-282.44 185,-282.44 185,-236.44 90,-236.44"/>
<text text-anchor="middle" x="103" y="-267.24" font-family="Times,serif" font-size="14.00">A</text>
<polyline fill="none" stroke="black" points="90,-259.44 116,-259.44 "/>
<text text-anchor="middle" x="103" y="-244.24" font-family="Times,serif" font-size="14.00">B</text>
<polyline fill="none" stroke="black" points="116,-236.44 116,-282.44 "/>
<text text-anchor="middle" x="137.5" y="-263.24" font-family="Times,serif" font-size="14.00">$36</text>
<text text-anchor="middle" x="137.5" y="-248.24" font-family="Times,serif" font-size="14.00">$and</text>
<polyline fill="none" stroke="black" points="159,-236.44 159,-282.44 "/>
<text text-anchor="middle" x="172" y="-255.74" font-family="Times,serif" font-size="14.00">Y</text>
</g>
<!-- n1&#45;&gt;c12 -->
<g id="edge1" class="edge">
<title>n1:e&#45;&gt;c12:w</title>
<path fill="none" stroke="black" d="M54,-221.44C77.1,-221.44 67.35,-257.04 80.19,-268.16"/>
<polygon fill="black" stroke="black" points="79.41,-271.59 90,-271.44 81.63,-264.95 79.41,-271.59"/>
</g>
<!-- c14 -->
<g id="node13" class="node">
<title>c14</title>
<polygon fill="none" stroke="black" points="90,-41.44 90,-87.44 185,-87.44 185,-41.44 90,-41.44"/>
<text text-anchor="middle" x="103" y="-72.24" font-family="Times,serif" font-size="14.00">A</text>
<polyline fill="none" stroke="black" points="90,-64.44 116,-64.44 "/>
<text text-anchor="middle" x="103" y="-49.24" font-family="Times,serif" font-size="14.00">B</text>
<polyline fill="none" stroke="black" points="116,-41.44 116,-87.44 "/>
<text text-anchor="middle" x="137.5" y="-68.24" font-family="Times,serif" font-size="14.00">$38</text>
<text text-anchor="middle" x="137.5" y="-53.24" font-family="Times,serif" font-size="14.00">$and</text>
<polyline fill="none" stroke="black" points="159,-41.44 159,-87.44 "/>
<text text-anchor="middle" x="172" y="-60.74" font-family="Times,serif" font-size="14.00">Y</text>
</g>
<!-- n1&#45;&gt;c14 -->
<g id="edge2" class="edge">
<title>n1:e&#45;&gt;c14:w</title>
<path fill="none" stroke="black" d="M54,-221.44C116.51,-221.44 34.38,-92.94 79.94,-77.88"/>
<polygon fill="black" stroke="black" points="80.59,-81.32 90,-76.44 79.61,-74.39 80.59,-81.32"/>
</g>
<!-- c17 -->
<g id="node16" class="node">
<title>c17</title>
<polygon fill="none" stroke="black" points="91,-171.44 91,-217.44 184,-217.44 184,-171.44 91,-171.44"/>
<text text-anchor="middle" x="104" y="-202.24" font-family="Times,serif" font-size="14.00">A</text>
<polyline fill="none" stroke="black" points="91,-194.44 117,-194.44 "/>
<text text-anchor="middle" x="104" y="-179.24" font-family="Times,serif" font-size="14.00">B</text>
<polyline fill="none" stroke="black" points="117,-171.44 117,-217.44 "/>
<text text-anchor="middle" x="137.5" y="-198.24" font-family="Times,serif" font-size="14.00">$34</text>
<text text-anchor="middle" x="137.5" y="-183.24" font-family="Times,serif" font-size="14.00">$xor</text>
<polyline fill="none" stroke="black" points="158,-171.44 158,-217.44 "/>
<text text-anchor="middle" x="171" y="-190.74" font-family="Times,serif" font-size="14.00">Y</text>
</g>
<!-- n1&#45;&gt;c17 -->
<g id="edge3" class="edge">
<title>n1:e&#45;&gt;c17:w</title>
<path fill="none" stroke="black" d="M54,-221.44C67.27,-221.44 71.16,-212.65 80.04,-208.53"/>
<polygon fill="black" stroke="black" points="80.93,-211.92 90,-206.44 79.49,-205.07 80.93,-211.92"/>
</g>
<!-- n2 -->
<g id="node2" class="node">
<title>n2</title>
<polygon fill="none" stroke="black" points="54,-159.99 54,-174.9 38.18,-185.44 15.82,-185.44 0,-174.9 0,-159.99 15.82,-149.44 38.18,-149.44 54,-159.99"/>
<text text-anchor="middle" x="27" y="-163.74" font-family="Times,serif" font-size="14.00">B</text>
</g>
<!-- n2&#45;&gt;c12 -->
<g id="edge6" class="edge">
<title>n2:e&#45;&gt;c12:w</title>
<path fill="none" stroke="black" d="M54,-167.44C88.88,-167.44 58.96,-231.46 80.18,-244.96"/>
<polygon fill="black" stroke="black" points="79.45,-248.39 90,-247.44 81.16,-241.6 79.45,-248.39"/>
</g>
<!-- c13 -->
<g id="node12" class="node">
<title>c13</title>
<polygon fill="none" stroke="black" points="90,-106.44 90,-152.44 185,-152.44 185,-106.44 90,-106.44"/>
<text text-anchor="middle" x="103" y="-137.24" font-family="Times,serif" font-size="14.00">A</text>
<polyline fill="none" stroke="black" points="90,-129.44 116,-129.44 "/>
<text text-anchor="middle" x="103" y="-114.24" font-family="Times,serif" font-size="14.00">B</text>
<polyline fill="none" stroke="black" points="116,-106.44 116,-152.44 "/>
<text text-anchor="middle" x="137.5" y="-133.24" font-family="Times,serif" font-size="14.00">$37</text>
<text text-anchor="middle" x="137.5" y="-118.24" font-family="Times,serif" font-size="14.00">$and</text>
<polyline fill="none" stroke="black" points="159,-106.44 159,-152.44 "/>
<text text-anchor="middle" x="172" y="-125.74" font-family="Times,serif" font-size="14.00">Y</text>
</g>
<!-- n2&#45;&gt;c13 -->
<g id="edge7" class="edge">
<title>n2:e&#45;&gt;c13:w</title>
<path fill="none" stroke="black" d="M54,-167.44C69.57,-167.44 70.7,-151.26 80.17,-144.43"/>
<polygon fill="black" stroke="black" points="81.45,-147.7 90,-141.44 79.41,-141 81.45,-147.7"/>
</g>
<!-- n2&#45;&gt;c17 -->
<g id="edge8" class="edge">
<title>n2:e&#45;&gt;c17:w</title>
<path fill="none" stroke="black" d="M54,-167.44C67.27,-167.44 71.16,-176.24 80.04,-180.36"/>
<polygon fill="black" stroke="black" points="79.49,-183.82 90,-182.44 80.93,-176.97 79.49,-183.82"/>
</g>
<!-- n3 -->
<g id="node3" class="node">
<title>n3</title>
<polygon fill="none" stroke="black" points="54,-44.99 54,-59.9 38.18,-70.44 15.82,-70.44 0,-59.9 0,-44.99 15.82,-34.44 38.18,-34.44 54,-44.99"/>
<text text-anchor="middle" x="27" y="-48.74" font-family="Times,serif" font-size="14.00">C</text>
</g>
<!-- n3&#45;&gt;c13 -->
<g id="edge9" class="edge">
<title>n3:e&#45;&gt;c13:w</title>
<path fill="none" stroke="black" d="M54,-52.44C82.9,-52.44 63.5,-102.21 80.33,-114.65"/>
<polygon fill="black" stroke="black" points="79.42,-118.03 90,-117.44 81.36,-111.31 79.42,-118.03"/>
</g>
<!-- n3&#45;&gt;c14 -->
<g id="edge10" class="edge">
<title>n3:e&#45;&gt;c14:w</title>
<path fill="none" stroke="black" d="M54,-52.44C66,-52.44 71.25,-52.44 79.88,-52.44"/>
<polygon fill="black" stroke="black" points="80,-55.94 90,-52.44 80,-48.94 80,-55.94"/>
</g>
<!-- c18 -->
<g id="node17" class="node">
<title>c18</title>
<polygon fill="none" stroke="black" points="317.66,-101.44 317.66,-147.44 410.66,-147.44 410.66,-101.44 317.66,-101.44"/>
<text text-anchor="middle" x="330.66" y="-132.24" font-family="Times,serif" font-size="14.00">A</text>
<polyline fill="none" stroke="black" points="317.66,-124.44 343.66,-124.44 "/>
<text text-anchor="middle" x="330.66" y="-109.24" font-family="Times,serif" font-size="14.00">B</text>
<polyline fill="none" stroke="black" points="343.66,-101.44 343.66,-147.44 "/>
<text text-anchor="middle" x="364.16" y="-128.24" font-family="Times,serif" font-size="14.00">$35</text>
<text text-anchor="middle" x="364.16" y="-113.24" font-family="Times,serif" font-size="14.00">$xor</text>
<polyline fill="none" stroke="black" points="384.66,-101.44 384.66,-147.44 "/>
<text text-anchor="middle" x="397.66" y="-120.74" font-family="Times,serif" font-size="14.00">Y</text>
</g>
<!-- n3&#45;&gt;c18 -->
<g id="edge11" class="edge">
<title>n3:e&#45;&gt;c18:w</title>
<path fill="none" stroke="black" d="M54,-52.44C72.52,-52.44 72.12,-36.28 90,-31.44 130.76,-20.42 144.35,-20.02 185,-31.44 248,-49.15 248.7,-105.99 307.32,-111.94"/>
<polygon fill="black" stroke="black" points="307.51,-115.45 317.66,-112.44 307.85,-108.46 307.51,-115.45"/>
</g>
<!-- n4 -->
<g id="node4" class="node">
<title>n4</title>
<polygon fill="none" stroke="black" points="251.33,-271.44 224.33,-253.44 251.33,-235.44 278.33,-253.44 251.33,-271.44"/>
<text text-anchor="middle" x="251.33" y="-249.74" font-family="Times,serif" font-size="14.00">c1</text>
</g>
<!-- c15 -->
<g id="node14" class="node">
<title>c15</title>
<polygon fill="none" stroke="black" points="319.66,-166.44 319.66,-212.44 408.66,-212.44 408.66,-166.44 319.66,-166.44"/>
<text text-anchor="middle" x="332.66" y="-197.24" font-family="Times,serif" font-size="14.00">A</text>
<polyline fill="none" stroke="black" points="319.66,-189.44 345.66,-189.44 "/>
<text text-anchor="middle" x="332.66" y="-174.24" font-family="Times,serif" font-size="14.00">B</text>
<polyline fill="none" stroke="black" points="345.66,-166.44 345.66,-212.44 "/>
<text text-anchor="middle" x="364.16" y="-193.24" font-family="Times,serif" font-size="14.00">$39</text>
<text text-anchor="middle" x="364.16" y="-178.24" font-family="Times,serif" font-size="14.00">$or</text>
<polyline fill="none" stroke="black" points="382.66,-166.44 382.66,-212.44 "/>
<text text-anchor="middle" x="395.66" y="-185.74" font-family="Times,serif" font-size="14.00">Y</text>
</g>
<!-- n4&#45;&gt;c15 -->
<g id="edge13" class="edge">
<title>n4:e&#45;&gt;c15:w</title>
<path fill="none" stroke="black" d="M279.33,-253.44C304.12,-253.44 293.68,-215.04 308.56,-204.24"/>
<polygon fill="black" stroke="black" points="309.54,-207.6 318.16,-201.44 307.58,-200.88 309.54,-207.6"/>
</g>
<!-- n5 -->
<g id="node5" class="node">
<title>n5</title>
<polygon fill="none" stroke="black" points="251.33,-150.44 224.33,-132.44 251.33,-114.44 278.33,-132.44 251.33,-150.44"/>
<text text-anchor="middle" x="251.33" y="-128.74" font-family="Times,serif" font-size="14.00">c2</text>
</g>
<!-- n5&#45;&gt;c15 -->
<g id="edge15" class="edge">
<title>n5:e&#45;&gt;c15:w</title>
<path fill="none" stroke="black" d="M279.33,-132.44C301.62,-132.44 295.14,-164.48 308.43,-174.49"/>
<polygon fill="black" stroke="black" points="307.58,-177.89 318.16,-177.44 309.61,-171.19 307.58,-177.89"/>
</g>
<!-- n6 -->
<g id="node6" class="node">
<title>n6</title>
<polygon fill="none" stroke="black" points="364.16,-82.44 337.16,-64.44 364.16,-46.44 391.16,-64.44 364.16,-82.44"/>
<text text-anchor="middle" x="364.16" y="-60.74" font-family="Times,serif" font-size="14.00">c3</text>
</g>
<!-- c16 -->
<g id="node15" class="node">
<title>c16</title>
<polygon fill="none" stroke="black" points="558.04,-98.44 558.04,-144.44 647.04,-144.44 647.04,-98.44 558.04,-98.44"/>
<text text-anchor="middle" x="571.04" y="-129.24" font-family="Times,serif" font-size="14.00">A</text>
<polyline fill="none" stroke="black" points="558.04,-121.44 584.04,-121.44 "/>
<text text-anchor="middle" x="571.04" y="-106.24" font-family="Times,serif" font-size="14.00">B</text>
<polyline fill="none" stroke="black" points="584.04,-98.44 584.04,-144.44 "/>
<text text-anchor="middle" x="602.54" y="-125.24" font-family="Times,serif" font-size="14.00">$40</text>
<text text-anchor="middle" x="602.54" y="-110.24" font-family="Times,serif" font-size="14.00">$or</text>
<polyline fill="none" stroke="black" points="621.04,-98.44 621.04,-144.44 "/>
<text text-anchor="middle" x="634.04" y="-117.74" font-family="Times,serif" font-size="14.00">Y</text>
</g>
<!-- n6&#45;&gt;c16 -->
<g id="edge17" class="edge">
<title>n6:e&#45;&gt;c16:w</title>
<path fill="none" stroke="black" d="M392.16,-64.44C451.72,-64.44 464.89,-80.68 522.04,-97.44 534.3,-101.04 538.96,-106.08 547.84,-108.31"/>
<polygon fill="black" stroke="black" points="547.71,-111.81 558.04,-109.44 548.49,-104.86 547.71,-111.81"/>
</g>
<!-- n7 -->
<g id="node7" class="node">
<title>n7</title>
<polygon fill="none" stroke="black" points="739.46,-113.99 739.46,-128.9 722.89,-139.44 699.46,-139.44 682.89,-128.9 682.89,-113.99 699.46,-103.44 722.89,-103.44 739.46,-113.99"/>
<text text-anchor="middle" x="711.17" y="-117.74" font-family="Times,serif" font-size="14.00">cout</text>
</g>
<!-- n8 -->
<g id="node8" class="node">
<title>n8</title>
<polygon fill="none" stroke="black" points="484.35,-201.44 446.48,-183.44 484.35,-165.44 522.22,-183.44 484.35,-201.44"/>
<text text-anchor="middle" x="484.35" y="-179.74" font-family="Times,serif" font-size="14.00">out1</text>
</g>
<!-- n8&#45;&gt;c16 -->
<g id="edge20" class="edge">
<title>n8:e&#45;&gt;c16:w</title>
<path fill="none" stroke="black" d="M522.04,-183.44C545.14,-183.44 535.39,-147.85 548.23,-136.72"/>
<polygon fill="black" stroke="black" points="549.66,-139.93 558.04,-133.44 547.44,-133.3 549.66,-139.93"/>
</g>
<!-- n9 -->
<g id="node9" class="node">
<title>n9</title>
<polygon fill="none" stroke="black" points="512.63,-116.99 512.63,-131.9 496.06,-142.44 472.64,-142.44 456.07,-131.9 456.07,-116.99 472.64,-106.44 496.06,-106.44 512.63,-116.99"/>
<text text-anchor="middle" x="484.35" y="-120.74" font-family="Times,serif" font-size="14.00">sum</text>
</g>
<!-- n10 -->
<g id="node10" class="node">
<title>n10</title>
<polygon fill="none" stroke="black" points="251.33,-209.44 221.17,-191.44 251.33,-173.44 281.5,-191.44 251.33,-209.44"/>
<text text-anchor="middle" x="251.33" y="-187.74" font-family="Times,serif" font-size="14.00">w1</text>
</g>
<!-- n10&#45;&gt;c18 -->
<g id="edge5" class="edge">
<title>n10:e&#45;&gt;c18:w</title>
<path fill="none" stroke="black" d="M281.66,-191.44C306.54,-191.44 293.97,-151.56 307.73,-139.72"/>
<polygon fill="black" stroke="black" points="309.26,-142.9 317.66,-136.44 307.07,-136.25 309.26,-142.9"/>
</g>
<!-- c12&#45;&gt;n4 -->
<g id="edge12" class="edge">
<title>c12:e&#45;&gt;n4:w</title>
<path fill="none" stroke="black" d="M185,-259.44C198.2,-259.44 203.55,-255.93 213.07,-254.28"/>
<polygon fill="black" stroke="black" points="213.65,-257.74 223.33,-253.44 213.08,-250.77 213.65,-257.74"/>
</g>
<!-- c13&#45;&gt;n5 -->
<g id="edge14" class="edge">
<title>c13:e&#45;&gt;n5:w</title>
<path fill="none" stroke="black" d="M185,-129.44C198.08,-129.44 203.59,-131.2 213.12,-132.03"/>
<polygon fill="black" stroke="black" points="213.2,-135.53 223.33,-132.44 213.48,-128.54 213.2,-135.53"/>
</g>
<!-- c14&#45;&gt;n6 -->
<g id="edge16" class="edge">
<title>c14:e&#45;&gt;n6:w</title>
<path fill="none" stroke="black" d="M185,-64.44C248.64,-64.44 267.07,-64.44 325.94,-64.44"/>
<polygon fill="black" stroke="black" points="326.16,-67.94 336.16,-64.44 326.16,-60.94 326.16,-67.94"/>
</g>
<!-- c15&#45;&gt;n8 -->
<g id="edge19" class="edge">
<title>c15:e&#45;&gt;n8:w</title>
<path fill="none" stroke="black" d="M410.16,-189.44C422.62,-189.44 427.72,-186 436.61,-184.33"/>
<polygon fill="black" stroke="black" points="437.01,-187.81 446.66,-183.44 436.4,-180.83 437.01,-187.81"/>
</g>
<!-- c16&#45;&gt;n7 -->
<g id="edge18" class="edge">
<title>c16:e&#45;&gt;n7:w</title>
<path fill="none" stroke="black" d="M647.04,-121.44C659.04,-121.44 664.29,-121.44 672.91,-121.44"/>
<polygon fill="black" stroke="black" points="673.04,-124.94 683.04,-121.44 673.04,-117.94 673.04,-124.94"/>
</g>
<!-- c17&#45;&gt;n10 -->
<g id="edge4" class="edge">
<title>c17:e&#45;&gt;n10:w</title>
<path fill="none" stroke="black" d="M185,-194.44C197.04,-194.44 202.24,-192.76 210.86,-191.91"/>
<polygon fill="black" stroke="black" points="211.17,-195.4 221,-191.44 210.85,-188.41 211.17,-195.4"/>
</g>
<!-- c18&#45;&gt;n9 -->
<g id="edge21" class="edge">
<title>c18:e&#45;&gt;n9:w</title>
<path fill="none" stroke="black" d="M410.66,-124.44C426.65,-124.44 432.98,-124.44 445.2,-124.44"/>
<polygon fill="black" stroke="black" points="445.35,-127.94 455.35,-124.44 445.35,-120.94 445.35,-127.94"/>
</g>
</g>
</svg>
