<?xml version="1.0" encoding="UTF-8" standalone="no"?>
<!DOCTYPE svg PUBLIC "-//W3C//DTD SVG 1.1//EN"
 "http://www.w3.org/Graphics/SVG/1.1/DTD/svg11.dtd">
<!-- Generated by graphviz version 2.43.0 (0)
 -->
<!-- Title: mux8b2_1 Pages: 1 -->
<svg width="558pt" height="948pt"
 viewBox="0.00 0.00 558.00 948.00" xmlns="http://www.w3.org/2000/svg" xmlns:xlink="http://www.w3.org/1999/xlink">
<g id="page0,1_graph0" class="graph" transform="scale(1 1) rotate(0) translate(4 944)">
<title>mux8b2_1</title>
<polygon fill="white" stroke="transparent" points="-4,4 -4,-944 554,-944 554,4 -4,4"/>
<text text-anchor="middle" x="275" y="-7.8" font-family="Times,serif" font-size="14.00">mux8b2_1</text>
<!-- n1 -->
<g id="node1" class="node">
<title>n1</title>
<polygon fill="none" stroke="black" points="54,-515.04 54,-529.96 38.18,-540.5 15.82,-540.5 0,-529.96 0,-515.04 15.82,-504.5 38.18,-504.5 54,-515.04"/>
<text text-anchor="middle" x="27" y="-518.8" font-family="Times,serif" font-size="14.00">A</text>
</g>
<!-- x0 -->
<g id="node6" class="node">
<title>x0</title>
<path fill="none" stroke="black" d="M102,-903.5C102,-903.5 141,-903.5 141,-903.5 147,-903.5 153,-909.5 153,-915.5 153,-915.5 153,-927.5 153,-927.5 153,-933.5 147,-939.5 141,-939.5 141,-939.5 102,-939.5 102,-939.5 96,-939.5 90,-933.5 90,-927.5 90,-927.5 90,-915.5 90,-915.5 90,-909.5 96,-903.5 102,-903.5"/>
<text text-anchor="middle" x="121.5" y="-917.8" font-family="Times,serif" font-size="14.00">0:0 &#45; 0:0</text>
</g>
<!-- n1&#45;&gt;x0 -->
<g id="edge25" class="edge">
<title>n1:e&#45;&gt;x0:w</title>
<path fill="none" stroke="black" d="M54,-522.5C139.38,-522.5 12.24,-889.44 80.18,-919.54"/>
<polygon fill="black" stroke="black" points="79.51,-922.98 90,-921.5 80.88,-916.11 79.51,-922.98"/>
</g>
<!-- x3 -->
<g id="node10" class="node">
<title>x3</title>
<path fill="none" stroke="black" d="M102,-848.5C102,-848.5 141,-848.5 141,-848.5 147,-848.5 153,-854.5 153,-860.5 153,-860.5 153,-872.5 153,-872.5 153,-878.5 147,-884.5 141,-884.5 141,-884.5 102,-884.5 102,-884.5 96,-884.5 90,-878.5 90,-872.5 90,-872.5 90,-860.5 90,-860.5 90,-854.5 96,-848.5 102,-848.5"/>
<text text-anchor="middle" x="121.5" y="-862.8" font-family="Times,serif" font-size="14.00">1:1 &#45; 0:0</text>
</g>
<!-- n1&#45;&gt;x3 -->
<g id="edge30" class="edge">
<title>n1:e&#45;&gt;x3:w</title>
<path fill="none" stroke="black" d="M54,-522.5C127.11,-522.5 24.17,-833.73 80.09,-864.12"/>
<polygon fill="black" stroke="black" points="79.46,-867.57 90,-866.5 81.09,-860.76 79.46,-867.57"/>
</g>
<!-- x6 -->
<g id="node14" class="node">
<title>x6</title>
<path fill="none" stroke="black" d="M102,-738.5C102,-738.5 141,-738.5 141,-738.5 147,-738.5 153,-744.5 153,-750.5 153,-750.5 153,-762.5 153,-762.5 153,-768.5 147,-774.5 141,-774.5 141,-774.5 102,-774.5 102,-774.5 96,-774.5 90,-768.5 90,-762.5 90,-762.5 90,-750.5 90,-750.5 90,-744.5 96,-738.5 102,-738.5"/>
<text text-anchor="middle" x="121.5" y="-752.8" font-family="Times,serif" font-size="14.00">2:2 &#45; 0:0</text>
</g>
<!-- n1&#45;&gt;x6 -->
<g id="edge31" class="edge">
<title>n1:e&#45;&gt;x6:w</title>
<path fill="none" stroke="black" d="M54,-522.5C155.52,-522.5 -3.3,-740.34 79.91,-755.65"/>
<polygon fill="black" stroke="black" points="79.74,-759.15 90,-756.5 80.33,-752.17 79.74,-759.15"/>
</g>
<!-- x9 -->
<g id="node18" class="node">
<title>x9</title>
<path fill="none" stroke="black" d="M102,-628.5C102,-628.5 141,-628.5 141,-628.5 147,-628.5 153,-634.5 153,-640.5 153,-640.5 153,-652.5 153,-652.5 153,-658.5 147,-664.5 141,-664.5 141,-664.5 102,-664.5 102,-664.5 96,-664.5 90,-658.5 90,-652.5 90,-652.5 90,-640.5 90,-640.5 90,-634.5 96,-628.5 102,-628.5"/>
<text text-anchor="middle" x="121.5" y="-642.8" font-family="Times,serif" font-size="14.00">3:3 &#45; 0:0</text>
</g>
<!-- n1&#45;&gt;x9 -->
<g id="edge32" class="edge">
<title>n1:e&#45;&gt;x9:w</title>
<path fill="none" stroke="black" d="M54,-522.5C107.35,-522.5 43.02,-629.68 79.82,-644.75"/>
<polygon fill="black" stroke="black" points="79.55,-648.25 90,-646.5 80.74,-641.35 79.55,-648.25"/>
</g>
<!-- x12 -->
<g id="node22" class="node">
<title>x12</title>
<path fill="none" stroke="black" d="M102,-353.5C102,-353.5 141,-353.5 141,-353.5 147,-353.5 153,-359.5 153,-365.5 153,-365.5 153,-377.5 153,-377.5 153,-383.5 147,-389.5 141,-389.5 141,-389.5 102,-389.5 102,-389.5 96,-389.5 90,-383.5 90,-377.5 90,-377.5 90,-365.5 90,-365.5 90,-359.5 96,-353.5 102,-353.5"/>
<text text-anchor="middle" x="121.5" y="-367.8" font-family="Times,serif" font-size="14.00">4:4 &#45; 0:0</text>
</g>
<!-- n1&#45;&gt;x12 -->
<g id="edge26" class="edge">
<title>n1:e&#45;&gt;x12:w</title>
<path fill="none" stroke="black" d="M54,-522.5C119.08,-522.5 32.01,-388.12 79.86,-372.9"/>
<polygon fill="black" stroke="black" points="80.57,-376.33 90,-371.5 79.62,-369.4 80.57,-376.33"/>
</g>
<!-- x15 -->
<g id="node26" class="node">
<title>x15</title>
<path fill="none" stroke="black" d="M102,-243.5C102,-243.5 141,-243.5 141,-243.5 147,-243.5 153,-249.5 153,-255.5 153,-255.5 153,-267.5 153,-267.5 153,-273.5 147,-279.5 141,-279.5 141,-279.5 102,-279.5 102,-279.5 96,-279.5 90,-273.5 90,-267.5 90,-267.5 90,-255.5 90,-255.5 90,-249.5 96,-243.5 102,-243.5"/>
<text text-anchor="middle" x="121.5" y="-257.8" font-family="Times,serif" font-size="14.00">5:5 &#45; 0:0</text>
</g>
<!-- n1&#45;&gt;x15 -->
<g id="edge27" class="edge">
<title>n1:e&#45;&gt;x15:w</title>
<path fill="none" stroke="black" d="M54,-522.5C108.66,-522.5 41.61,-295.01 80.1,-264.8"/>
<polygon fill="black" stroke="black" points="81.62,-267.98 90,-261.5 79.41,-261.34 81.62,-267.98"/>
</g>
<!-- x18 -->
<g id="node30" class="node">
<title>x18</title>
<path fill="none" stroke="black" d="M102,-133.5C102,-133.5 141,-133.5 141,-133.5 147,-133.5 153,-139.5 153,-145.5 153,-145.5 153,-157.5 153,-157.5 153,-163.5 147,-169.5 141,-169.5 141,-169.5 102,-169.5 102,-169.5 96,-169.5 90,-163.5 90,-157.5 90,-157.5 90,-145.5 90,-145.5 90,-139.5 96,-133.5 102,-133.5"/>
<text text-anchor="middle" x="121.5" y="-147.8" font-family="Times,serif" font-size="14.00">6:6 &#45; 0:0</text>
</g>
<!-- n1&#45;&gt;x18 -->
<g id="edge28" class="edge">
<title>n1:e&#45;&gt;x18:w</title>
<path fill="none" stroke="black" d="M54,-522.5C133.11,-522.5 18.39,-184.08 80.09,-153.68"/>
<polygon fill="black" stroke="black" points="80.98,-157.06 90,-151.5 79.48,-150.23 80.98,-157.06"/>
</g>
<!-- x21 -->
<g id="node34" class="node">
<title>x21</title>
<path fill="none" stroke="black" d="M102,-408.5C102,-408.5 141,-408.5 141,-408.5 147,-408.5 153,-414.5 153,-420.5 153,-420.5 153,-432.5 153,-432.5 153,-438.5 147,-444.5 141,-444.5 141,-444.5 102,-444.5 102,-444.5 96,-444.5 90,-438.5 90,-432.5 90,-432.5 90,-420.5 90,-420.5 90,-414.5 96,-408.5 102,-408.5"/>
<text text-anchor="middle" x="121.5" y="-422.8" font-family="Times,serif" font-size="14.00">7:7 &#45; 0:0</text>
</g>
<!-- n1&#45;&gt;x21 -->
<g id="edge29" class="edge">
<title>n1:e&#45;&gt;x21:w</title>
<path fill="none" stroke="black" d="M54,-522.5C95.47,-522.5 53.53,-442.98 80.01,-428.69"/>
<polygon fill="black" stroke="black" points="80.98,-432.06 90,-426.5 79.48,-425.22 80.98,-432.06"/>
</g>
<!-- n2 -->
<g id="node2" class="node">
<title>n2</title>
<polygon fill="none" stroke="black" points="54,-433.04 54,-447.96 38.18,-458.5 15.82,-458.5 0,-447.96 0,-433.04 15.82,-422.5 38.18,-422.5 54,-433.04"/>
<text text-anchor="middle" x="27" y="-436.8" font-family="Times,serif" font-size="14.00">B</text>
</g>
<!-- x1 -->
<g id="node7" class="node">
<title>x1</title>
<path fill="none" stroke="black" d="M102,-793.5C102,-793.5 141,-793.5 141,-793.5 147,-793.5 153,-799.5 153,-805.5 153,-805.5 153,-817.5 153,-817.5 153,-823.5 147,-829.5 141,-829.5 141,-829.5 102,-829.5 102,-829.5 96,-829.5 90,-823.5 90,-817.5 90,-817.5 90,-805.5 90,-805.5 90,-799.5 96,-793.5 102,-793.5"/>
<text text-anchor="middle" x="121.5" y="-807.8" font-family="Times,serif" font-size="14.00">0:0 &#45; 0:0</text>
</g>
<!-- n2&#45;&gt;x1 -->
<g id="edge37" class="edge">
<title>n2:e&#45;&gt;x1:w</title>
<path fill="none" stroke="black" d="M54,-440.5C133.11,-440.5 18.39,-778.92 80.09,-809.32"/>
<polygon fill="black" stroke="black" points="79.48,-812.77 90,-811.5 80.98,-805.94 79.48,-812.77"/>
</g>
<!-- x4 -->
<g id="node11" class="node">
<title>x4</title>
<path fill="none" stroke="black" d="M102,-683.5C102,-683.5 141,-683.5 141,-683.5 147,-683.5 153,-689.5 153,-695.5 153,-695.5 153,-707.5 153,-707.5 153,-713.5 147,-719.5 141,-719.5 141,-719.5 102,-719.5 102,-719.5 96,-719.5 90,-713.5 90,-707.5 90,-707.5 90,-695.5 90,-695.5 90,-689.5 96,-683.5 102,-683.5"/>
<text text-anchor="middle" x="121.5" y="-697.8" font-family="Times,serif" font-size="14.00">1:1 &#45; 0:0</text>
</g>
<!-- n2&#45;&gt;x4 -->
<g id="edge39" class="edge">
<title>n2:e&#45;&gt;x4:w</title>
<path fill="none" stroke="black" d="M54,-440.5C108.66,-440.5 41.61,-667.99 80.1,-698.2"/>
<polygon fill="black" stroke="black" points="79.41,-701.66 90,-701.5 81.62,-695.02 79.41,-701.66"/>
</g>
<!-- x7 -->
<g id="node15" class="node">
<title>x7</title>
<path fill="none" stroke="black" d="M102,-573.5C102,-573.5 141,-573.5 141,-573.5 147,-573.5 153,-579.5 153,-585.5 153,-585.5 153,-597.5 153,-597.5 153,-603.5 147,-609.5 141,-609.5 141,-609.5 102,-609.5 102,-609.5 96,-609.5 90,-603.5 90,-597.5 90,-597.5 90,-585.5 90,-585.5 90,-579.5 96,-573.5 102,-573.5"/>
<text text-anchor="middle" x="121.5" y="-587.8" font-family="Times,serif" font-size="14.00">2:2 &#45; 0:0</text>
</g>
<!-- n2&#45;&gt;x7 -->
<g id="edge40" class="edge">
<title>n2:e&#45;&gt;x7:w</title>
<path fill="none" stroke="black" d="M54,-440.5C119.08,-440.5 32.01,-574.88 79.86,-590.1"/>
<polygon fill="black" stroke="black" points="79.62,-593.6 90,-591.5 80.57,-586.67 79.62,-593.6"/>
</g>
<!-- x10 -->
<g id="node19" class="node">
<title>x10</title>
<path fill="none" stroke="black" d="M102,-518.5C102,-518.5 141,-518.5 141,-518.5 147,-518.5 153,-524.5 153,-530.5 153,-530.5 153,-542.5 153,-542.5 153,-548.5 147,-554.5 141,-554.5 141,-554.5 102,-554.5 102,-554.5 96,-554.5 90,-548.5 90,-542.5 90,-542.5 90,-530.5 90,-530.5 90,-524.5 96,-518.5 102,-518.5"/>
<text text-anchor="middle" x="121.5" y="-532.8" font-family="Times,serif" font-size="14.00">3:3 &#45; 0:0</text>
</g>
<!-- n2&#45;&gt;x10 -->
<g id="edge33" class="edge">
<title>n2:e&#45;&gt;x10:w</title>
<path fill="none" stroke="black" d="M54,-440.5C95.47,-440.5 53.53,-520.02 80.01,-534.31"/>
<polygon fill="black" stroke="black" points="79.48,-537.78 90,-536.5 80.98,-530.94 79.48,-537.78"/>
</g>
<!-- x13 -->
<g id="node23" class="node">
<title>x13</title>
<path fill="none" stroke="black" d="M102,-188.5C102,-188.5 141,-188.5 141,-188.5 147,-188.5 153,-194.5 153,-200.5 153,-200.5 153,-212.5 153,-212.5 153,-218.5 147,-224.5 141,-224.5 141,-224.5 102,-224.5 102,-224.5 96,-224.5 90,-218.5 90,-212.5 90,-212.5 90,-200.5 90,-200.5 90,-194.5 96,-188.5 102,-188.5"/>
<text text-anchor="middle" x="121.5" y="-202.8" font-family="Times,serif" font-size="14.00">4:4 &#45; 0:0</text>
</g>
<!-- n2&#45;&gt;x13 -->
<g id="edge34" class="edge">
<title>n2:e&#45;&gt;x13:w</title>
<path fill="none" stroke="black" d="M54,-440.5C155.52,-440.5 -3.3,-222.66 79.91,-207.35"/>
<polygon fill="black" stroke="black" points="80.33,-210.83 90,-206.5 79.74,-203.85 80.33,-210.83"/>
</g>
<!-- x16 -->
<g id="node27" class="node">
<title>x16</title>
<path fill="none" stroke="black" d="M102,-78.5C102,-78.5 141,-78.5 141,-78.5 147,-78.5 153,-84.5 153,-90.5 153,-90.5 153,-102.5 153,-102.5 153,-108.5 147,-114.5 141,-114.5 141,-114.5 102,-114.5 102,-114.5 96,-114.5 90,-108.5 90,-102.5 90,-102.5 90,-90.5 90,-90.5 90,-84.5 96,-78.5 102,-78.5"/>
<text text-anchor="middle" x="121.5" y="-92.8" font-family="Times,serif" font-size="14.00">5:5 &#45; 0:0</text>
</g>
<!-- n2&#45;&gt;x16 -->
<g id="edge35" class="edge">
<title>n2:e&#45;&gt;x16:w</title>
<path fill="none" stroke="black" d="M54,-440.5C127.11,-440.5 24.17,-129.27 80.09,-98.88"/>
<polygon fill="black" stroke="black" points="81.09,-102.24 90,-96.5 79.46,-95.43 81.09,-102.24"/>
</g>
<!-- x19 -->
<g id="node31" class="node">
<title>x19</title>
<path fill="none" stroke="black" d="M102,-23.5C102,-23.5 141,-23.5 141,-23.5 147,-23.5 153,-29.5 153,-35.5 153,-35.5 153,-47.5 153,-47.5 153,-53.5 147,-59.5 141,-59.5 141,-59.5 102,-59.5 102,-59.5 96,-59.5 90,-53.5 90,-47.5 90,-47.5 90,-35.5 90,-35.5 90,-29.5 96,-23.5 102,-23.5"/>
<text text-anchor="middle" x="121.5" y="-37.8" font-family="Times,serif" font-size="14.00">6:6 &#45; 0:0</text>
</g>
<!-- n2&#45;&gt;x19 -->
<g id="edge36" class="edge">
<title>n2:e&#45;&gt;x19:w</title>
<path fill="none" stroke="black" d="M54,-440.5C139.38,-440.5 12.24,-73.56 80.18,-43.46"/>
<polygon fill="black" stroke="black" points="80.88,-46.89 90,-41.5 79.51,-40.02 80.88,-46.89"/>
</g>
<!-- x22 -->
<g id="node35" class="node">
<title>x22</title>
<path fill="none" stroke="black" d="M102,-298.5C102,-298.5 141,-298.5 141,-298.5 147,-298.5 153,-304.5 153,-310.5 153,-310.5 153,-322.5 153,-322.5 153,-328.5 147,-334.5 141,-334.5 141,-334.5 102,-334.5 102,-334.5 96,-334.5 90,-328.5 90,-322.5 90,-322.5 90,-310.5 90,-310.5 90,-304.5 96,-298.5 102,-298.5"/>
<text text-anchor="middle" x="121.5" y="-312.8" font-family="Times,serif" font-size="14.00">7:7 &#45; 0:0</text>
</g>
<!-- n2&#45;&gt;x22 -->
<g id="edge38" class="edge">
<title>n2:e&#45;&gt;x22:w</title>
<path fill="none" stroke="black" d="M54,-440.5C107.35,-440.5 43.02,-333.32 79.82,-318.25"/>
<polygon fill="black" stroke="black" points="80.74,-321.65 90,-316.5 79.55,-314.75 80.74,-321.65"/>
</g>
<!-- n3 -->
<g id="node3" class="node">
<title>n3</title>
<polygon fill="none" stroke="black" points="550,-449.04 550,-463.96 534.18,-474.5 511.82,-474.5 496,-463.96 496,-449.04 511.82,-438.5 534.18,-438.5 550,-449.04"/>
<text text-anchor="middle" x="523" y="-452.8" font-family="Times,serif" font-size="14.00">out</text>
</g>
<!-- n4 -->
<g id="node4" class="node">
<title>n4</title>
<polygon fill="none" stroke="black" points="148.5,-474.04 148.5,-488.96 132.68,-499.5 110.32,-499.5 94.5,-488.96 94.5,-474.04 110.32,-463.5 132.68,-463.5 148.5,-474.04"/>
<text text-anchor="middle" x="121.5" y="-477.8" font-family="Times,serif" font-size="14.00">sel</text>
</g>
<!-- c5 -->
<g id="node5" class="node">
<title>c5</title>
<polygon fill="none" stroke="black" points="189,-765 189,-834 361,-834 361,-765 189,-765"/>
<text text-anchor="middle" x="205" y="-818.8" font-family="Times,serif" font-size="14.00">A</text>
<polyline fill="none" stroke="black" points="189,-811 221,-811 "/>
<text text-anchor="middle" x="205" y="-795.8" font-family="Times,serif" font-size="14.00">B</text>
<polyline fill="none" stroke="black" points="189,-788 221,-788 "/>
<text text-anchor="middle" x="205" y="-772.8" font-family="Times,serif" font-size="14.00">sel</text>
<polyline fill="none" stroke="black" points="221,-765 221,-834 "/>
<text text-anchor="middle" x="274" y="-803.3" font-family="Times,serif" font-size="14.00">mux2_1[0].mx1</text>
<text text-anchor="middle" x="274" y="-788.3" font-family="Times,serif" font-size="14.00">mux2_1</text>
<polyline fill="none" stroke="black" points="327,-765 327,-834 "/>
<text text-anchor="middle" x="344" y="-795.8" font-family="Times,serif" font-size="14.00">out</text>
</g>
<!-- n4&#45;&gt;c5 -->
<g id="edge52" class="edge">
<title>n4:e&#45;&gt;c5:w</title>
<path fill="none" stroke="black" d="M149.5,-481.5C211.89,-481.5 132.86,-744.03 179.23,-773.77"/>
<polygon fill="black" stroke="black" points="178.43,-777.18 189,-776.5 180.31,-770.44 178.43,-777.18"/>
</g>
<!-- c6 -->
<g id="node9" class="node">
<title>c6</title>
<polygon fill="none" stroke="black" points="189,-661 189,-730 361,-730 361,-661 189,-661"/>
<text text-anchor="middle" x="205" y="-714.8" font-family="Times,serif" font-size="14.00">A</text>
<polyline fill="none" stroke="black" points="189,-707 221,-707 "/>
<text text-anchor="middle" x="205" y="-691.8" font-family="Times,serif" font-size="14.00">B</text>
<polyline fill="none" stroke="black" points="189,-684 221,-684 "/>
<text text-anchor="middle" x="205" y="-668.8" font-family="Times,serif" font-size="14.00">sel</text>
<polyline fill="none" stroke="black" points="221,-661 221,-730 "/>
<text text-anchor="middle" x="274" y="-699.3" font-family="Times,serif" font-size="14.00">mux2_1[1].mx1</text>
<text text-anchor="middle" x="274" y="-684.3" font-family="Times,serif" font-size="14.00">mux2_1</text>
<polyline fill="none" stroke="black" points="327,-661 327,-730 "/>
<text text-anchor="middle" x="344" y="-691.8" font-family="Times,serif" font-size="14.00">out</text>
</g>
<!-- n4&#45;&gt;c6 -->
<g id="edge53" class="edge">
<title>n4:e&#45;&gt;c6:w</title>
<path fill="none" stroke="black" d="M149.5,-481.5C232.46,-481.5 113.41,-656.44 179.01,-671.47"/>
<polygon fill="black" stroke="black" points="178.69,-674.96 189,-672.5 179.41,-667.99 178.69,-674.96"/>
</g>
<!-- c7 -->
<g id="node13" class="node">
<title>c7</title>
<polygon fill="none" stroke="black" points="189,-563 189,-632 361,-632 361,-563 189,-563"/>
<text text-anchor="middle" x="205" y="-616.8" font-family="Times,serif" font-size="14.00">A</text>
<polyline fill="none" stroke="black" points="189,-609 221,-609 "/>
<text text-anchor="middle" x="205" y="-593.8" font-family="Times,serif" font-size="14.00">B</text>
<polyline fill="none" stroke="black" points="189,-586 221,-586 "/>
<text text-anchor="middle" x="205" y="-570.8" font-family="Times,serif" font-size="14.00">sel</text>
<polyline fill="none" stroke="black" points="221,-563 221,-632 "/>
<text text-anchor="middle" x="274" y="-601.3" font-family="Times,serif" font-size="14.00">mux2_1[2].mx1</text>
<text text-anchor="middle" x="274" y="-586.3" font-family="Times,serif" font-size="14.00">mux2_1</text>
<polyline fill="none" stroke="black" points="327,-563 327,-632 "/>
<text text-anchor="middle" x="344" y="-593.8" font-family="Times,serif" font-size="14.00">out</text>
</g>
<!-- n4&#45;&gt;c7 -->
<g id="edge54" class="edge">
<title>n4:e&#45;&gt;c7:w</title>
<path fill="none" stroke="black" d="M149.5,-481.5C190.37,-481.5 152.37,-558.54 179.06,-572.38"/>
<polygon fill="black" stroke="black" points="178.49,-575.84 189,-574.5 179.95,-568.99 178.49,-575.84"/>
</g>
<!-- c8 -->
<g id="node17" class="node">
<title>c8</title>
<polygon fill="none" stroke="black" points="189,-475 189,-544 361,-544 361,-475 189,-475"/>
<text text-anchor="middle" x="205" y="-528.8" font-family="Times,serif" font-size="14.00">A</text>
<polyline fill="none" stroke="black" points="189,-521 221,-521 "/>
<text text-anchor="middle" x="205" y="-505.8" font-family="Times,serif" font-size="14.00">B</text>
<polyline fill="none" stroke="black" points="189,-498 221,-498 "/>
<text text-anchor="middle" x="205" y="-482.8" font-family="Times,serif" font-size="14.00">sel</text>
<polyline fill="none" stroke="black" points="221,-475 221,-544 "/>
<text text-anchor="middle" x="274" y="-513.3" font-family="Times,serif" font-size="14.00">mux2_1[3].mx1</text>
<text text-anchor="middle" x="274" y="-498.3" font-family="Times,serif" font-size="14.00">mux2_1</text>
<polyline fill="none" stroke="black" points="327,-475 327,-544 "/>
<text text-anchor="middle" x="344" y="-505.8" font-family="Times,serif" font-size="14.00">out</text>
</g>
<!-- n4&#45;&gt;c8 -->
<g id="edge55" class="edge">
<title>n4:e&#45;&gt;c8:w</title>
<path fill="none" stroke="black" d="M149.5,-481.5C163.19,-481.5 168.75,-484.49 178.75,-485.85"/>
<polygon fill="black" stroke="black" points="178.8,-489.36 189,-486.5 179.24,-482.37 178.8,-489.36"/>
</g>
<!-- c9 -->
<g id="node21" class="node">
<title>c9</title>
<polygon fill="none" stroke="black" points="189,-299 189,-368 361,-368 361,-299 189,-299"/>
<text text-anchor="middle" x="205" y="-352.8" font-family="Times,serif" font-size="14.00">A</text>
<polyline fill="none" stroke="black" points="189,-345 221,-345 "/>
<text text-anchor="middle" x="205" y="-329.8" font-family="Times,serif" font-size="14.00">B</text>
<polyline fill="none" stroke="black" points="189,-322 221,-322 "/>
<text text-anchor="middle" x="205" y="-306.8" font-family="Times,serif" font-size="14.00">sel</text>
<polyline fill="none" stroke="black" points="221,-299 221,-368 "/>
<text text-anchor="middle" x="274" y="-337.3" font-family="Times,serif" font-size="14.00">mux2_1[4].mx1</text>
<text text-anchor="middle" x="274" y="-322.3" font-family="Times,serif" font-size="14.00">mux2_1</text>
<polyline fill="none" stroke="black" points="327,-299 327,-368 "/>
<text text-anchor="middle" x="344" y="-329.8" font-family="Times,serif" font-size="14.00">out</text>
</g>
<!-- n4&#45;&gt;c9 -->
<g id="edge56" class="edge">
<title>n4:e&#45;&gt;c9:w</title>
<path fill="none" stroke="black" d="M149.5,-481.5C223.69,-481.5 121.91,-326.79 178.92,-311.68"/>
<polygon fill="black" stroke="black" points="179.48,-315.14 189,-310.5 178.66,-308.19 179.48,-315.14"/>
</g>
<!-- c10 -->
<g id="node25" class="node">
<title>c10</title>
<polygon fill="none" stroke="black" points="189,-207 189,-276 361,-276 361,-207 189,-207"/>
<text text-anchor="middle" x="205" y="-260.8" font-family="Times,serif" font-size="14.00">A</text>
<polyline fill="none" stroke="black" points="189,-253 221,-253 "/>
<text text-anchor="middle" x="205" y="-237.8" font-family="Times,serif" font-size="14.00">B</text>
<polyline fill="none" stroke="black" points="189,-230 221,-230 "/>
<text text-anchor="middle" x="205" y="-214.8" font-family="Times,serif" font-size="14.00">sel</text>
<polyline fill="none" stroke="black" points="221,-207 221,-276 "/>
<text text-anchor="middle" x="274" y="-245.3" font-family="Times,serif" font-size="14.00">mux2_1[5].mx1</text>
<text text-anchor="middle" x="274" y="-230.3" font-family="Times,serif" font-size="14.00">mux2_1</text>
<polyline fill="none" stroke="black" points="327,-207 327,-276 "/>
<text text-anchor="middle" x="344" y="-237.8" font-family="Times,serif" font-size="14.00">out</text>
</g>
<!-- n4&#45;&gt;c10 -->
<g id="edge49" class="edge">
<title>n4:e&#45;&gt;c10:w</title>
<path fill="none" stroke="black" d="M149.5,-481.5C204.68,-481.5 139.74,-252.27 178.97,-221.83"/>
<polygon fill="black" stroke="black" points="180.61,-224.97 189,-218.5 178.41,-218.32 180.61,-224.97"/>
</g>
<!-- c11 -->
<g id="node29" class="node">
<title>c11</title>
<polygon fill="none" stroke="black" points="189,-108 189,-177 361,-177 361,-108 189,-108"/>
<text text-anchor="middle" x="205" y="-161.8" font-family="Times,serif" font-size="14.00">A</text>
<polyline fill="none" stroke="black" points="189,-154 221,-154 "/>
<text text-anchor="middle" x="205" y="-138.8" font-family="Times,serif" font-size="14.00">B</text>
<polyline fill="none" stroke="black" points="189,-131 221,-131 "/>
<text text-anchor="middle" x="205" y="-115.8" font-family="Times,serif" font-size="14.00">sel</text>
<polyline fill="none" stroke="black" points="221,-108 221,-177 "/>
<text text-anchor="middle" x="274" y="-146.3" font-family="Times,serif" font-size="14.00">mux2_1[6].mx1</text>
<text text-anchor="middle" x="274" y="-131.3" font-family="Times,serif" font-size="14.00">mux2_1</text>
<polyline fill="none" stroke="black" points="327,-108 327,-177 "/>
<text text-anchor="middle" x="344" y="-138.8" font-family="Times,serif" font-size="14.00">out</text>
</g>
<!-- n4&#45;&gt;c11 -->
<g id="edge50" class="edge">
<title>n4:e&#45;&gt;c11:w</title>
<path fill="none" stroke="black" d="M149.5,-481.5C226.63,-481.5 119.1,-152.64 178.92,-121.81"/>
<polygon fill="black" stroke="black" points="180.04,-125.15 189,-119.5 178.47,-118.32 180.04,-125.15"/>
</g>
<!-- c12 -->
<g id="node33" class="node">
<title>c12</title>
<polygon fill="none" stroke="black" points="189,-387 189,-456 361,-456 361,-387 189,-387"/>
<text text-anchor="middle" x="205" y="-440.8" font-family="Times,serif" font-size="14.00">A</text>
<polyline fill="none" stroke="black" points="189,-433 221,-433 "/>
<text text-anchor="middle" x="205" y="-417.8" font-family="Times,serif" font-size="14.00">B</text>
<polyline fill="none" stroke="black" points="189,-410 221,-410 "/>
<text text-anchor="middle" x="205" y="-394.8" font-family="Times,serif" font-size="14.00">sel</text>
<polyline fill="none" stroke="black" points="221,-387 221,-456 "/>
<text text-anchor="middle" x="274" y="-425.3" font-family="Times,serif" font-size="14.00">mux2_1[7].mx1</text>
<text text-anchor="middle" x="274" y="-410.3" font-family="Times,serif" font-size="14.00">mux2_1</text>
<polyline fill="none" stroke="black" points="327,-387 327,-456 "/>
<text text-anchor="middle" x="344" y="-417.8" font-family="Times,serif" font-size="14.00">out</text>
</g>
<!-- n4&#45;&gt;c12 -->
<g id="edge51" class="edge">
<title>n4:e&#45;&gt;c12:w</title>
<path fill="none" stroke="black" d="M149.5,-481.5C186.2,-481.5 155.86,-414.5 178.95,-400.89"/>
<polygon fill="black" stroke="black" points="180.08,-404.22 189,-398.5 178.46,-397.41 180.08,-404.22"/>
</g>
<!-- x2 -->
<g id="node8" class="node">
<title>x2</title>
<path fill="none" stroke="black" d="M409,-732.5C409,-732.5 448,-732.5 448,-732.5 454,-732.5 460,-738.5 460,-744.5 460,-744.5 460,-756.5 460,-756.5 460,-762.5 454,-768.5 448,-768.5 448,-768.5 409,-768.5 409,-768.5 403,-768.5 397,-762.5 397,-756.5 397,-756.5 397,-744.5 397,-744.5 397,-738.5 403,-732.5 409,-732.5"/>
<text text-anchor="middle" x="428.5" y="-746.8" font-family="Times,serif" font-size="14.00">0:0 &#45; 0:0</text>
</g>
<!-- c5&#45;&gt;x2 -->
<g id="edge3" class="edge">
<title>c5:e&#45;&gt;x2:w</title>
<path fill="none" stroke="black" d="M372.35,-794.62C380.19,-785.23 377.81,-764.73 385.67,-755.36"/>
<polygon fill="none" stroke="black" points="372.02,-794.76 368.09,-800.81 361,-799.5 364.93,-793.46 372.02,-794.76"/>
<polygon fill="none" stroke="black" points="385.97,-755.23 389.91,-749.19 397,-750.5 393.06,-756.54 385.97,-755.23"/>
</g>
<!-- x0&#45;&gt;c5 -->
<g id="edge1" class="edge">
<title>x0:e&#45;&gt;c5:w</title>
<path fill="none" stroke="black" d="M164.89,-918.21C185.61,-903.11 156.32,-840.62 177.23,-825.71"/>
<polygon fill="none" stroke="black" points="164.56,-918.3 159.85,-923.75 153,-921.5 157.71,-916.04 164.56,-918.3"/>
<polygon fill="none" stroke="black" points="177.42,-825.66 182.16,-820.22 189,-822.5 184.26,-827.94 177.42,-825.66"/>
</g>
<!-- x1&#45;&gt;c5 -->
<g id="edge2" class="edge">
<title>x1:e&#45;&gt;c5:w</title>
<path fill="none" stroke="black" d="M164.93,-808.96C169.3,-806.92 172.7,-804.08 177.08,-802.04"/>
<polygon fill="none" stroke="black" points="164.74,-809 159.7,-814.16 153,-811.5 158.03,-806.34 164.74,-809"/>
<polygon fill="none" stroke="black" points="177.26,-802 182.3,-796.84 189,-799.5 183.97,-804.66 177.26,-802"/>
</g>
<!-- x2&#45;&gt;n3 -->
<g id="edge46" class="edge">
<title>x2:e&#45;&gt;n3:w</title>
<path fill="none" stroke="black" d="M460,-750.5C522.09,-750.5 440.5,-488.86 486.31,-459.22"/>
<polygon fill="black" stroke="black" points="487.32,-462.57 496,-456.5 485.43,-455.84 487.32,-462.57"/>
</g>
<!-- x5 -->
<g id="node12" class="node">
<title>x5</title>
<path fill="none" stroke="black" d="M409,-646.5C409,-646.5 448,-646.5 448,-646.5 454,-646.5 460,-652.5 460,-658.5 460,-658.5 460,-670.5 460,-670.5 460,-676.5 454,-682.5 448,-682.5 448,-682.5 409,-682.5 409,-682.5 403,-682.5 397,-676.5 397,-670.5 397,-670.5 397,-658.5 397,-658.5 397,-652.5 403,-646.5 409,-646.5"/>
<text text-anchor="middle" x="428.5" y="-660.8" font-family="Times,serif" font-size="14.00">0:0 &#45; 1:1</text>
</g>
<!-- c6&#45;&gt;x5 -->
<g id="edge6" class="edge">
<title>c6:e&#45;&gt;x5:w</title>
<path fill="none" stroke="black" d="M372.31,-690.93C377.95,-685.13 379.93,-675.19 385.48,-669.3"/>
<polygon fill="none" stroke="black" points="372.12,-691 368.06,-696.96 361,-695.5 365.06,-689.54 372.12,-691"/>
<polygon fill="none" stroke="black" points="385.92,-669.11 389.92,-663.11 397,-664.5 393,-670.5 385.92,-669.11"/>
</g>
<!-- x3&#45;&gt;c6 -->
<g id="edge4" class="edge">
<title>x3:e&#45;&gt;c6:w</title>
<path fill="none" stroke="black" d="M164.92,-864.41C204.3,-847.79 137.76,-737.35 177.01,-720.62"/>
<polygon fill="none" stroke="black" points="164.82,-864.43 159.6,-869.4 153,-866.5 158.22,-861.52 164.82,-864.43"/>
<polygon fill="none" stroke="black" points="177.18,-720.59 182.39,-715.61 189,-718.5 183.79,-723.48 177.18,-720.59"/>
</g>
<!-- x4&#45;&gt;c6 -->
<g id="edge5" class="edge">
<title>x4:e&#45;&gt;c6:w</title>
<path fill="none" stroke="black" d="M165.02,-700.17C169.26,-699.17 172.75,-697.82 177,-696.83"/>
<polygon fill="none" stroke="black" points="164.93,-700.18 159.4,-704.81 153,-701.5 158.52,-696.86 164.93,-700.18"/>
<polygon fill="none" stroke="black" points="177.07,-696.82 182.6,-692.18 189,-695.5 183.48,-700.14 177.07,-696.82"/>
</g>
<!-- x5&#45;&gt;n3 -->
<g id="edge47" class="edge">
<title>x5:e&#45;&gt;n3:w</title>
<path fill="none" stroke="black" d="M460,-664.5C549.97,-664.5 414.21,-473.21 485.66,-457.52"/>
<polygon fill="black" stroke="black" points="486.39,-460.97 496,-456.5 485.7,-454 486.39,-460.97"/>
</g>
<!-- x8 -->
<g id="node16" class="node">
<title>x8</title>
<path fill="none" stroke="black" d="M409,-562.5C409,-562.5 448,-562.5 448,-562.5 454,-562.5 460,-568.5 460,-574.5 460,-574.5 460,-586.5 460,-586.5 460,-592.5 454,-598.5 448,-598.5 448,-598.5 409,-598.5 409,-598.5 403,-598.5 397,-592.5 397,-586.5 397,-586.5 397,-574.5 397,-574.5 397,-568.5 403,-562.5 409,-562.5"/>
<text text-anchor="middle" x="428.5" y="-576.8" font-family="Times,serif" font-size="14.00">0:0 &#45; 2:2</text>
</g>
<!-- c7&#45;&gt;x8 -->
<g id="edge9" class="edge">
<title>c7:e&#45;&gt;x8:w</title>
<path fill="none" stroke="black" d="M372.64,-594.22C377.36,-591.21 380.65,-586.77 385.38,-583.77"/>
<polygon fill="none" stroke="black" points="372.55,-594.25 367.86,-599.72 361,-597.5 365.69,-592.02 372.55,-594.25"/>
<polygon fill="none" stroke="black" points="385.45,-583.75 390.14,-578.27 397,-580.5 392.31,-585.97 385.45,-583.75"/>
</g>
<!-- x6&#45;&gt;c7 -->
<g id="edge7" class="edge">
<title>x6:e&#45;&gt;c7:w</title>
<path fill="none" stroke="black" d="M165.02,-754.14C199.31,-737.63 142.79,-639.65 176.84,-622.93"/>
<polygon fill="none" stroke="black" points="164.78,-754.19 159.66,-759.27 153,-756.5 158.12,-751.42 164.78,-754.19"/>
<polygon fill="none" stroke="black" points="177.23,-622.85 182.33,-617.75 189,-620.5 183.9,-625.6 177.23,-622.85"/>
</g>
<!-- x7&#45;&gt;c7 -->
<g id="edge8" class="edge">
<title>x7:e&#45;&gt;c7:w</title>
<path fill="none" stroke="black" d="M165.02,-592.83C169.26,-593.83 172.75,-595.18 177,-596.17"/>
<polygon fill="none" stroke="black" points="164.93,-592.82 158.52,-596.14 153,-591.5 159.4,-588.19 164.93,-592.82"/>
<polygon fill="none" stroke="black" points="177.07,-596.18 183.48,-592.86 189,-597.5 182.6,-600.82 177.07,-596.18"/>
</g>
<!-- x8&#45;&gt;n3 -->
<g id="edge48" class="edge">
<title>x8:e&#45;&gt;n3:w</title>
<path fill="none" stroke="black" d="M460,-580.5C513.35,-580.5 449.02,-473.32 485.82,-458.25"/>
<polygon fill="black" stroke="black" points="486.74,-461.65 496,-456.5 485.55,-454.75 486.74,-461.65"/>
</g>
<!-- x11 -->
<g id="node20" class="node">
<title>x11</title>
<path fill="none" stroke="black" d="M409,-482.5C409,-482.5 448,-482.5 448,-482.5 454,-482.5 460,-488.5 460,-494.5 460,-494.5 460,-506.5 460,-506.5 460,-512.5 454,-518.5 448,-518.5 448,-518.5 409,-518.5 409,-518.5 403,-518.5 397,-512.5 397,-506.5 397,-506.5 397,-494.5 397,-494.5 397,-488.5 403,-482.5 409,-482.5"/>
<text text-anchor="middle" x="428.5" y="-496.8" font-family="Times,serif" font-size="14.00">0:0 &#45; 3:3</text>
</g>
<!-- c8&#45;&gt;x11 -->
<g id="edge12" class="edge">
<title>c8:e&#45;&gt;x11:w</title>
<path fill="none" stroke="black" d="M373.08,-507.5C377.3,-506.01 380.71,-503.98 384.93,-502.49"/>
<polygon fill="none" stroke="black" points="372.84,-507.54 367.57,-512.47 361,-509.5 366.27,-504.58 372.84,-507.54"/>
<polygon fill="none" stroke="black" points="385.16,-502.45 390.43,-497.53 397,-500.5 391.73,-505.42 385.16,-502.45"/>
</g>
<!-- x9&#45;&gt;c8 -->
<g id="edge10" class="edge">
<title>x9:e&#45;&gt;c8:w</title>
<path fill="none" stroke="black" d="M164.89,-643.68C191.08,-627.91 150.8,-550.73 177.27,-535.22"/>
<polygon fill="none" stroke="black" points="164.68,-643.73 159.76,-649.01 153,-646.5 157.92,-641.22 164.68,-643.73"/>
<polygon fill="none" stroke="black" points="177.31,-535.21 182.25,-529.96 189,-532.5 184.06,-537.75 177.31,-535.21"/>
</g>
<!-- x10&#45;&gt;c8 -->
<g id="edge11" class="edge">
<title>x10:e&#45;&gt;c8:w</title>
<path fill="none" stroke="black" d="M164.25,-532.28C169.66,-527.3 172.17,-519.04 177.49,-513.96"/>
<polygon fill="none" stroke="black" points="164.24,-532.29 160.02,-538.14 153,-536.5 157.21,-530.65 164.24,-532.29"/>
<polygon fill="none" stroke="black" points="177.81,-513.84 181.96,-507.94 189,-509.5 184.85,-515.4 177.81,-513.84"/>
</g>
<!-- x11&#45;&gt;n3 -->
<g id="edge41" class="edge">
<title>x11:e&#45;&gt;n3:w</title>
<path fill="none" stroke="black" d="M460,-500.5C481.12,-500.5 474.43,-469.75 486.43,-459.66"/>
<polygon fill="black" stroke="black" points="487.6,-462.96 496,-456.5 485.41,-456.32 487.6,-462.96"/>
</g>
<!-- x14 -->
<g id="node24" class="node">
<title>x14</title>
<path fill="none" stroke="black" d="M409,-331.5C409,-331.5 448,-331.5 448,-331.5 454,-331.5 460,-337.5 460,-343.5 460,-343.5 460,-355.5 460,-355.5 460,-361.5 454,-367.5 448,-367.5 448,-367.5 409,-367.5 409,-367.5 403,-367.5 397,-361.5 397,-355.5 397,-355.5 397,-343.5 397,-343.5 397,-337.5 403,-331.5 409,-331.5"/>
<text text-anchor="middle" x="428.5" y="-345.8" font-family="Times,serif" font-size="14.00">0:0 &#45; 4:4</text>
</g>
<!-- c9&#45;&gt;x14 -->
<g id="edge15" class="edge">
<title>c9:e&#45;&gt;x14:w</title>
<path fill="none" stroke="black" d="M372.84,-336.74C377.36,-339.51 380.64,-343.49 385.17,-346.27"/>
<polygon fill="none" stroke="black" points="372.57,-336.67 365.73,-338.94 361,-333.5 367.84,-331.22 372.57,-336.67"/>
<polygon fill="none" stroke="black" points="385.42,-346.34 392.27,-344.06 397,-349.5 390.16,-351.78 385.42,-346.34"/>
</g>
<!-- x12&#45;&gt;c9 -->
<g id="edge13" class="edge">
<title>x12:e&#45;&gt;c9:w</title>
<path fill="none" stroke="black" d="M164.79,-368.46C169.33,-365.86 172.67,-362.13 177.21,-359.53"/>
<polygon fill="none" stroke="black" points="164.62,-368.51 159.81,-373.88 153,-371.5 157.81,-366.13 164.62,-368.51"/>
<polygon fill="none" stroke="black" points="177.38,-359.49 182.19,-354.12 189,-356.5 184.19,-361.87 177.38,-359.49"/>
</g>
<!-- x13&#45;&gt;c9 -->
<g id="edge14" class="edge">
<title>x13:e&#45;&gt;c9:w</title>
<path fill="none" stroke="black" d="M164.77,-208.92C196.17,-224.9 145.87,-314.99 177.18,-331.05"/>
<polygon fill="none" stroke="black" points="164.75,-208.92 158.07,-211.63 153,-206.5 159.68,-203.79 164.75,-208.92"/>
<polygon fill="none" stroke="black" points="177.25,-331.06 183.94,-328.37 189,-333.5 182.31,-336.2 177.25,-331.06"/>
</g>
<!-- x14&#45;&gt;n3 -->
<g id="edge42" class="edge">
<title>x14:e&#45;&gt;n3:w</title>
<path fill="none" stroke="black" d="M460,-349.5C506.06,-349.5 455.61,-439.67 485.84,-454.46"/>
<polygon fill="black" stroke="black" points="485.51,-457.96 496,-456.5 486.89,-451.1 485.51,-457.96"/>
</g>
<!-- x17 -->
<g id="node28" class="node">
<title>x17</title>
<path fill="none" stroke="black" d="M409,-251.5C409,-251.5 448,-251.5 448,-251.5 454,-251.5 460,-257.5 460,-263.5 460,-263.5 460,-275.5 460,-275.5 460,-281.5 454,-287.5 448,-287.5 448,-287.5 409,-287.5 409,-287.5 403,-287.5 397,-281.5 397,-275.5 397,-275.5 397,-263.5 397,-263.5 397,-257.5 403,-251.5 409,-251.5"/>
<text text-anchor="middle" x="428.5" y="-265.8" font-family="Times,serif" font-size="14.00">0:0 &#45; 5:5</text>
</g>
<!-- c10&#45;&gt;x17 -->
<g id="edge18" class="edge">
<title>c10:e&#45;&gt;x17:w</title>
<path fill="none" stroke="black" d="M372.33,-245.88C377.72,-251.04 380.12,-259.6 385.42,-264.88"/>
<polygon fill="none" stroke="black" points="372.19,-245.82 365.16,-247.39 361,-241.5 368.04,-239.93 372.19,-245.82"/>
<polygon fill="none" stroke="black" points="385.86,-265.05 392.91,-263.56 397,-269.5 389.94,-270.99 385.86,-265.05"/>
</g>
<!-- x15&#45;&gt;c10 -->
<g id="edge16" class="edge">
<title>x15:e&#45;&gt;c10:w</title>
<path fill="none" stroke="black" d="M165.23,-262.2C169.3,-262.68 172.73,-263.32 176.8,-263.81"/>
<polygon fill="none" stroke="black" points="164.98,-262.18 158.76,-265.83 153,-261.5 159.22,-257.85 164.98,-262.18"/>
<polygon fill="none" stroke="black" points="177.02,-263.82 183.24,-260.17 189,-264.5 182.78,-268.15 177.02,-263.82"/>
</g>
<!-- x16&#45;&gt;c10 -->
<g id="edge17" class="edge">
<title>x16:e&#45;&gt;c10:w</title>
<path fill="none" stroke="black" d="M164.96,-98.66C203.04,-115.29 138.99,-222.65 177.01,-239.33"/>
<polygon fill="none" stroke="black" points="164.81,-98.63 158.19,-101.5 153,-96.5 159.62,-93.63 164.81,-98.63"/>
<polygon fill="none" stroke="black" points="177.19,-239.36 183.81,-236.49 189,-241.5 182.38,-244.36 177.19,-239.36"/>
</g>
<!-- x17&#45;&gt;n3 -->
<g id="edge43" class="edge">
<title>x17:e&#45;&gt;n3:w</title>
<path fill="none" stroke="black" d="M460,-269.5C540.84,-269.5 422.9,-440.08 485.87,-455.4"/>
<polygon fill="black" stroke="black" points="485.68,-458.9 496,-456.5 486.44,-451.94 485.68,-458.9"/>
</g>
<!-- x20 -->
<g id="node32" class="node">
<title>x20</title>
<path fill="none" stroke="black" d="M409,-180.5C409,-180.5 448,-180.5 448,-180.5 454,-180.5 460,-186.5 460,-192.5 460,-192.5 460,-204.5 460,-204.5 460,-210.5 454,-216.5 448,-216.5 448,-216.5 409,-216.5 409,-216.5 403,-216.5 397,-210.5 397,-204.5 397,-204.5 397,-192.5 397,-192.5 397,-186.5 403,-180.5 409,-180.5"/>
<text text-anchor="middle" x="428.5" y="-194.8" font-family="Times,serif" font-size="14.00">0:0 &#45; 6:6</text>
</g>
<!-- c11&#45;&gt;x20 -->
<g id="edge21" class="edge">
<title>c11:e&#45;&gt;x20:w</title>
<path fill="none" stroke="black" d="M372.45,-147.27C381.53,-157.96 376.46,-183.68 385.83,-194.05"/>
<polygon fill="none" stroke="black" points="372.08,-147.12 365,-148.5 361,-142.5 368.08,-141.12 372.08,-147.12"/>
<polygon fill="none" stroke="black" points="385.85,-194.06 392.91,-192.56 397,-198.5 389.95,-199.99 385.85,-194.06"/>
</g>
<!-- x18&#45;&gt;c11 -->
<g id="edge19" class="edge">
<title>x18:e&#45;&gt;c11:w</title>
<path fill="none" stroke="black" d="M164.75,-154.33C169.31,-156.76 172.7,-160.24 177.26,-162.67"/>
<polygon fill="none" stroke="black" points="164.67,-154.31 157.9,-156.79 153,-151.5 159.77,-149.02 164.67,-154.31"/>
<polygon fill="none" stroke="black" points="177.33,-162.69 184.1,-160.21 189,-165.5 182.23,-167.98 177.33,-162.69"/>
</g>
<!-- x19&#45;&gt;c11 -->
<g id="edge20" class="edge">
<title>x19:e&#45;&gt;c11:w</title>
<path fill="none" stroke="black" d="M164.76,-44.63C186.45,-59.68 155.51,-124.43 177.29,-139.4"/>
<polygon fill="none" stroke="black" points="164.6,-44.59 157.77,-46.91 153,-41.5 159.83,-39.18 164.6,-44.59"/>
<polygon fill="none" stroke="black" points="177.4,-139.43 184.22,-137.1 189,-142.5 182.18,-144.83 177.4,-139.43"/>
</g>
<!-- x20&#45;&gt;n3 -->
<g id="edge44" class="edge">
<title>x20:e&#45;&gt;n3:w</title>
<path fill="none" stroke="black" d="M460,-198.5C514.04,-198.5 448.1,-423.37 486.21,-453.24"/>
<polygon fill="black" stroke="black" points="485.41,-456.66 496,-456.5 487.62,-450.02 485.41,-456.66"/>
</g>
<!-- x23 -->
<g id="node36" class="node">
<title>x23</title>
<path fill="none" stroke="black" d="M409,-411.5C409,-411.5 448,-411.5 448,-411.5 454,-411.5 460,-417.5 460,-423.5 460,-423.5 460,-435.5 460,-435.5 460,-441.5 454,-447.5 448,-447.5 448,-447.5 409,-447.5 409,-447.5 403,-447.5 397,-441.5 397,-435.5 397,-435.5 397,-423.5 397,-423.5 397,-417.5 403,-411.5 409,-411.5"/>
<text text-anchor="middle" x="428.5" y="-425.8" font-family="Times,serif" font-size="14.00">0:0 &#45; 7:7</text>
</g>
<!-- c12&#45;&gt;x23 -->
<g id="edge24" class="edge">
<title>c12:e&#45;&gt;x23:w</title>
<path fill="none" stroke="black" d="M373.06,-423.28C377.29,-424.6 380.73,-426.4 384.96,-427.73"/>
<polygon fill="none" stroke="black" points="372.87,-423.25 366.35,-426.33 361,-421.5 367.52,-418.42 372.87,-423.25"/>
<polygon fill="none" stroke="black" points="385.13,-427.75 391.65,-424.67 397,-429.5 390.48,-432.58 385.13,-427.75"/>
</g>
<!-- x21&#45;&gt;c12 -->
<g id="edge22" class="edge">
<title>x21:e&#45;&gt;c12:w</title>
<path fill="none" stroke="black" d="M164.69,-429.97C169.39,-433.16 172.62,-437.86 177.33,-441.04"/>
<polygon fill="none" stroke="black" points="164.5,-429.92 157.61,-432.04 153,-426.5 159.89,-424.37 164.5,-429.92"/>
<polygon fill="none" stroke="black" points="177.49,-441.09 184.38,-438.96 189,-444.5 182.11,-446.63 177.49,-441.09"/>
</g>
<!-- x22&#45;&gt;c12 -->
<g id="edge23" class="edge">
<title>x22:e&#45;&gt;c12:w</title>
<path fill="none" stroke="black" d="M164.8,-319.53C187.82,-334.79 154.19,-403.16 177.18,-418.46"/>
<polygon fill="none" stroke="black" points="164.62,-319.48 157.82,-321.87 153,-316.5 159.81,-314.12 164.62,-319.48"/>
<polygon fill="none" stroke="black" points="177.38,-418.51 184.19,-416.13 189,-421.5 182.19,-423.88 177.38,-418.51"/>
</g>
<!-- x23&#45;&gt;n3 -->
<g id="edge45" class="edge">
<title>x23:e&#45;&gt;n3:w</title>
<path fill="none" stroke="black" d="M460,-429.5C475.94,-429.5 476.63,-446.65 486.38,-453.61"/>
<polygon fill="black" stroke="black" points="485.42,-456.98 496,-456.5 487.43,-450.27 485.42,-456.98"/>
</g>
</g>
</svg>
