<?xml version="1.0" encoding="UTF-8" standalone="no"?>
<!DOCTYPE svg PUBLIC "-//W3C//DTD SVG 1.1//EN"
 "http://www.w3.org/Graphics/SVG/1.1/DTD/svg11.dtd">
<!-- Generated by graphviz version 2.43.0 (0)
 -->
<!-- Title: mux_4x1 Pages: 1 -->
<svg width="1148pt" height="365pt"
 viewBox="0.00 0.00 1147.66 364.65" xmlns="http://www.w3.org/2000/svg" xmlns:xlink="http://www.w3.org/1999/xlink">
<g id="page0,1_graph0" class="graph" transform="scale(1 1) rotate(0) translate(4 360.65)">
<title>mux_4x1</title>
<polygon fill="white" stroke="transparent" points="-4,4 -4,-360.65 1143.66,-360.65 1143.66,4 -4,4"/>
<text text-anchor="middle" x="569.83" y="-7.8" font-family="Times,serif" font-size="14.00">mux_4x1</text>
<!-- n7 -->
<g id="node1" class="node">
<title>n7</title>
<polygon fill="none" stroke="black" points="295.5,-303.04 295.5,-317.96 279.68,-328.5 257.32,-328.5 241.5,-317.96 241.5,-303.04 257.32,-292.5 279.68,-292.5 295.5,-303.04"/>
<text text-anchor="middle" x="268.5" y="-306.8" font-family="Times,serif" font-size="14.00">A</text>
</g>
<!-- c21 -->
<g id="node14" class="node">
<title>c21</title>
<polygon fill="none" stroke="black" points="352,-265.5 352,-311.5 447,-311.5 447,-265.5 352,-265.5"/>
<text text-anchor="middle" x="365" y="-296.3" font-family="Times,serif" font-size="14.00">A</text>
<polyline fill="none" stroke="black" points="352,-288.5 378,-288.5 "/>
<text text-anchor="middle" x="365" y="-273.3" font-family="Times,serif" font-size="14.00">B</text>
<polyline fill="none" stroke="black" points="378,-265.5 378,-311.5 "/>
<text text-anchor="middle" x="399.5" y="-292.3" font-family="Times,serif" font-size="14.00">$45</text>
<text text-anchor="middle" x="399.5" y="-277.3" font-family="Times,serif" font-size="14.00">$and</text>
<polyline fill="none" stroke="black" points="421,-265.5 421,-311.5 "/>
<text text-anchor="middle" x="434" y="-284.8" font-family="Times,serif" font-size="14.00">Y</text>
</g>
<!-- n7&#45;&gt;c21 -->
<g id="edge29" class="edge">
<title>n7:e&#45;&gt;c21:w</title>
<path fill="none" stroke="black" d="M296.5,-310.5C317.84,-310.5 324.91,-303.25 342.01,-301.1"/>
<polygon fill="black" stroke="black" points="342.23,-304.59 352,-300.5 341.81,-297.6 342.23,-304.59"/>
</g>
<!-- n8 -->
<g id="node2" class="node">
<title>n8</title>
<polygon fill="none" stroke="black" points="295.5,-191.04 295.5,-205.96 279.68,-216.5 257.32,-216.5 241.5,-205.96 241.5,-191.04 257.32,-180.5 279.68,-180.5 295.5,-191.04"/>
<text text-anchor="middle" x="268.5" y="-194.8" font-family="Times,serif" font-size="14.00">B</text>
</g>
<!-- c23 -->
<g id="node16" class="node">
<title>c23</title>
<polygon fill="none" stroke="black" points="352,-138.5 352,-184.5 447,-184.5 447,-138.5 352,-138.5"/>
<text text-anchor="middle" x="365" y="-169.3" font-family="Times,serif" font-size="14.00">A</text>
<polyline fill="none" stroke="black" points="352,-161.5 378,-161.5 "/>
<text text-anchor="middle" x="365" y="-146.3" font-family="Times,serif" font-size="14.00">B</text>
<polyline fill="none" stroke="black" points="378,-138.5 378,-184.5 "/>
<text text-anchor="middle" x="399.5" y="-165.3" font-family="Times,serif" font-size="14.00">$47</text>
<text text-anchor="middle" x="399.5" y="-150.3" font-family="Times,serif" font-size="14.00">$and</text>
<polyline fill="none" stroke="black" points="421,-138.5 421,-184.5 "/>
<text text-anchor="middle" x="434" y="-157.8" font-family="Times,serif" font-size="14.00">Y</text>
</g>
<!-- n8&#45;&gt;c23 -->
<g id="edge30" class="edge">
<title>n8:e&#45;&gt;c23:w</title>
<path fill="none" stroke="black" d="M296.5,-198.5C319.75,-198.5 324.05,-180.04 341.97,-174.84"/>
<polygon fill="black" stroke="black" points="342.55,-178.3 352,-173.5 341.62,-171.36 342.55,-178.3"/>
</g>
<!-- n9 -->
<g id="node3" class="node">
<title>n9</title>
<polygon fill="none" stroke="black" points="54,-300.04 54,-314.96 38.18,-325.5 15.82,-325.5 0,-314.96 0,-300.04 15.82,-289.5 38.18,-289.5 54,-300.04"/>
<text text-anchor="middle" x="27" y="-303.8" font-family="Times,serif" font-size="14.00">C</text>
</g>
<!-- c25 -->
<g id="node18" class="node">
<title>c25</title>
<polygon fill="none" stroke="black" points="90,-272.5 90,-318.5 185,-318.5 185,-272.5 90,-272.5"/>
<text text-anchor="middle" x="103" y="-303.3" font-family="Times,serif" font-size="14.00">A</text>
<polyline fill="none" stroke="black" points="90,-295.5 116,-295.5 "/>
<text text-anchor="middle" x="103" y="-280.3" font-family="Times,serif" font-size="14.00">B</text>
<polyline fill="none" stroke="black" points="116,-272.5 116,-318.5 "/>
<text text-anchor="middle" x="137.5" y="-299.3" font-family="Times,serif" font-size="14.00">$49</text>
<text text-anchor="middle" x="137.5" y="-284.3" font-family="Times,serif" font-size="14.00">$and</text>
<polyline fill="none" stroke="black" points="159,-272.5 159,-318.5 "/>
<text text-anchor="middle" x="172" y="-291.8" font-family="Times,serif" font-size="14.00">Y</text>
</g>
<!-- n9&#45;&gt;c25 -->
<g id="edge31" class="edge">
<title>n9:e&#45;&gt;c25:w</title>
<path fill="none" stroke="black" d="M54,-307.5C66,-307.5 71.25,-307.5 79.88,-307.5"/>
<polygon fill="black" stroke="black" points="80,-311 90,-307.5 80,-304 80,-311"/>
</g>
<!-- n10 -->
<g id="node4" class="node">
<title>n10</title>
<polygon fill="none" stroke="black" points="54,-53.04 54,-67.96 38.18,-78.5 15.82,-78.5 0,-67.96 0,-53.04 15.82,-42.5 38.18,-42.5 54,-53.04"/>
<text text-anchor="middle" x="27" y="-56.8" font-family="Times,serif" font-size="14.00">D</text>
</g>
<!-- c27 -->
<g id="node20" class="node">
<title>c27</title>
<polygon fill="none" stroke="black" points="90,-25.5 90,-71.5 185,-71.5 185,-25.5 90,-25.5"/>
<text text-anchor="middle" x="103" y="-56.3" font-family="Times,serif" font-size="14.00">A</text>
<polyline fill="none" stroke="black" points="90,-48.5 116,-48.5 "/>
<text text-anchor="middle" x="103" y="-33.3" font-family="Times,serif" font-size="14.00">B</text>
<polyline fill="none" stroke="black" points="116,-25.5 116,-71.5 "/>
<text text-anchor="middle" x="137.5" y="-52.3" font-family="Times,serif" font-size="14.00">$51</text>
<text text-anchor="middle" x="137.5" y="-37.3" font-family="Times,serif" font-size="14.00">$and</text>
<polyline fill="none" stroke="black" points="159,-25.5 159,-71.5 "/>
<text text-anchor="middle" x="172" y="-44.8" font-family="Times,serif" font-size="14.00">Y</text>
</g>
<!-- n10&#45;&gt;c27 -->
<g id="edge2" class="edge">
<title>n10:e&#45;&gt;c27:w</title>
<path fill="none" stroke="black" d="M54,-60.5C66,-60.5 71.25,-60.5 79.88,-60.5"/>
<polygon fill="black" stroke="black" points="80,-64 90,-60.5 80,-57 80,-64"/>
</g>
<!-- n11 -->
<g id="node5" class="node">
<title>n11</title>
<polygon fill="none" stroke="black" points="1139.66,-128.04 1139.66,-142.96 1123.85,-153.5 1101.48,-153.5 1085.66,-142.96 1085.66,-128.04 1101.48,-117.5 1123.85,-117.5 1139.66,-128.04"/>
<text text-anchor="middle" x="1112.66" y="-131.8" font-family="Times,serif" font-size="14.00">out</text>
</g>
<!-- n12 -->
<g id="node6" class="node">
<title>n12</title>
<polygon fill="none" stroke="black" points="54,-157.04 54,-171.96 38.18,-182.5 15.82,-182.5 0,-171.96 0,-157.04 15.82,-146.5 38.18,-146.5 54,-157.04"/>
<text text-anchor="middle" x="27" y="-160.8" font-family="Times,serif" font-size="14.00">s0</text>
</g>
<!-- n12&#45;&gt;c25 -->
<g id="edge4" class="edge">
<title>n12:e&#45;&gt;c25:w</title>
<path fill="none" stroke="black" d="M54,-164.5C105.16,-164.5 45.09,-266.49 79.74,-281.63"/>
<polygon fill="black" stroke="black" points="79.53,-285.15 90,-283.5 80.79,-278.27 79.53,-285.15"/>
</g>
<!-- n12&#45;&gt;c27 -->
<g id="edge5" class="edge">
<title>n12:e&#45;&gt;c27:w</title>
<path fill="none" stroke="black" d="M54,-164.5C109.17,-164.5 41.2,-52.94 80.01,-38.12"/>
<polygon fill="black" stroke="black" points="80.69,-41.55 90,-36.5 79.57,-34.64 80.69,-41.55"/>
</g>
<!-- c29 -->
<g id="node22" class="node">
<title>c29</title>
<polygon fill="none" stroke="black" points="91,-145.5 91,-183.5 184,-183.5 184,-145.5 91,-145.5"/>
<text text-anchor="middle" x="104" y="-160.8" font-family="Times,serif" font-size="14.00">A</text>
<polyline fill="none" stroke="black" points="117,-145.5 117,-183.5 "/>
<text text-anchor="middle" x="137.5" y="-168.3" font-family="Times,serif" font-size="14.00">$56</text>
<text text-anchor="middle" x="137.5" y="-153.3" font-family="Times,serif" font-size="14.00">$not</text>
<polyline fill="none" stroke="black" points="158,-145.5 158,-183.5 "/>
<text text-anchor="middle" x="171" y="-160.8" font-family="Times,serif" font-size="14.00">Y</text>
</g>
<!-- n12&#45;&gt;c29 -->
<g id="edge6" class="edge">
<title>n12:e&#45;&gt;c29:w</title>
<path fill="none" stroke="black" d="M54,-164.5C66,-164.5 71.25,-164.5 79.88,-164.5"/>
<polygon fill="black" stroke="black" points="80,-168 90,-164.5 80,-161 80,-168"/>
</g>
<!-- n13 -->
<g id="node7" class="node">
<title>n13</title>
<polygon fill="none" stroke="black" points="268.5,-162.5 236.16,-144.5 268.5,-126.5 300.84,-144.5 268.5,-162.5"/>
<text text-anchor="middle" x="268.5" y="-140.8" font-family="Times,serif" font-size="14.00">s0n</text>
</g>
<!-- n13&#45;&gt;c21 -->
<g id="edge8" class="edge">
<title>n13:e&#45;&gt;c21:w</title>
<path fill="none" stroke="black" d="M301.5,-144.5C360.51,-144.5 297.78,-261 342.05,-275.11"/>
<polygon fill="black" stroke="black" points="341.61,-278.58 352,-276.5 342.58,-271.65 341.61,-278.58"/>
</g>
<!-- n13&#45;&gt;c23 -->
<g id="edge9" class="edge">
<title>n13:e&#45;&gt;c23:w</title>
<path fill="none" stroke="black" d="M301.5,-144.5C320.18,-144.5 327.09,-147.93 341.72,-149.11"/>
<polygon fill="black" stroke="black" points="341.87,-152.62 352,-149.5 342.14,-145.62 341.87,-152.62"/>
</g>
<!-- n14 -->
<g id="node8" class="node">
<title>n14</title>
<polygon fill="none" stroke="black" points="164.5,-101.04 164.5,-115.96 148.68,-126.5 126.32,-126.5 110.5,-115.96 110.5,-101.04 126.32,-90.5 148.68,-90.5 164.5,-101.04"/>
<text text-anchor="middle" x="137.5" y="-104.8" font-family="Times,serif" font-size="14.00">s1</text>
</g>
<!-- c24 -->
<g id="node17" class="node">
<title>c24</title>
<polygon fill="none" stroke="black" points="483,-126.5 483,-172.5 578,-172.5 578,-126.5 483,-126.5"/>
<text text-anchor="middle" x="496" y="-157.3" font-family="Times,serif" font-size="14.00">A</text>
<polyline fill="none" stroke="black" points="483,-149.5 509,-149.5 "/>
<text text-anchor="middle" x="496" y="-134.3" font-family="Times,serif" font-size="14.00">B</text>
<polyline fill="none" stroke="black" points="509,-126.5 509,-172.5 "/>
<text text-anchor="middle" x="530.5" y="-153.3" font-family="Times,serif" font-size="14.00">$48</text>
<text text-anchor="middle" x="530.5" y="-138.3" font-family="Times,serif" font-size="14.00">$and</text>
<polyline fill="none" stroke="black" points="552,-126.5 552,-172.5 "/>
<text text-anchor="middle" x="565" y="-145.8" font-family="Times,serif" font-size="14.00">Y</text>
</g>
<!-- n14&#45;&gt;c24 -->
<g id="edge10" class="edge">
<title>n14:e&#45;&gt;c24:w</title>
<path fill="none" stroke="black" d="M165.5,-108.5C290.96,-108.5 323.05,-110.13 447,-129.5 459.27,-131.42 464.21,-135.02 473.01,-136.66"/>
<polygon fill="black" stroke="black" points="472.74,-140.15 483,-137.5 473.33,-133.17 472.74,-140.15"/>
</g>
<!-- c28 -->
<g id="node21" class="node">
<title>c28</title>
<polygon fill="none" stroke="black" points="221,-23.5 221,-69.5 316,-69.5 316,-23.5 221,-23.5"/>
<text text-anchor="middle" x="234" y="-54.3" font-family="Times,serif" font-size="14.00">A</text>
<polyline fill="none" stroke="black" points="221,-46.5 247,-46.5 "/>
<text text-anchor="middle" x="234" y="-31.3" font-family="Times,serif" font-size="14.00">B</text>
<polyline fill="none" stroke="black" points="247,-23.5 247,-69.5 "/>
<text text-anchor="middle" x="268.5" y="-50.3" font-family="Times,serif" font-size="14.00">$52</text>
<text text-anchor="middle" x="268.5" y="-35.3" font-family="Times,serif" font-size="14.00">$and</text>
<polyline fill="none" stroke="black" points="290,-23.5 290,-69.5 "/>
<text text-anchor="middle" x="303" y="-42.8" font-family="Times,serif" font-size="14.00">Y</text>
</g>
<!-- n14&#45;&gt;c28 -->
<g id="edge11" class="edge">
<title>n14:e&#45;&gt;c28:w</title>
<path fill="none" stroke="black" d="M165.5,-108.5C202.76,-108.5 184.3,-47.72 211.11,-36.33"/>
<polygon fill="black" stroke="black" points="211.8,-39.76 221,-34.5 210.53,-32.88 211.8,-39.76"/>
</g>
<!-- c30 -->
<g id="node23" class="node">
<title>c30</title>
<polygon fill="none" stroke="black" points="222,-235.5 222,-273.5 315,-273.5 315,-235.5 222,-235.5"/>
<text text-anchor="middle" x="235" y="-250.8" font-family="Times,serif" font-size="14.00">A</text>
<polyline fill="none" stroke="black" points="248,-235.5 248,-273.5 "/>
<text text-anchor="middle" x="268.5" y="-258.3" font-family="Times,serif" font-size="14.00">$57</text>
<text text-anchor="middle" x="268.5" y="-243.3" font-family="Times,serif" font-size="14.00">$not</text>
<polyline fill="none" stroke="black" points="289,-235.5 289,-273.5 "/>
<text text-anchor="middle" x="302" y="-250.8" font-family="Times,serif" font-size="14.00">Y</text>
</g>
<!-- n14&#45;&gt;c30 -->
<g id="edge12" class="edge">
<title>n14:e&#45;&gt;c30:w</title>
<path fill="none" stroke="black" d="M165.5,-108.5C231.12,-108.5 160.24,-238.97 210.93,-253.24"/>
<polygon fill="black" stroke="black" points="210.64,-256.73 221,-254.5 211.51,-249.78 210.64,-256.73"/>
</g>
<!-- n15 -->
<g id="node9" class="node">
<title>n15</title>
<polygon fill="none" stroke="black" points="399.5,-246.5 367.16,-228.5 399.5,-210.5 431.84,-228.5 399.5,-246.5"/>
<text text-anchor="middle" x="399.5" y="-224.8" font-family="Times,serif" font-size="14.00">s1n</text>
</g>
<!-- c22 -->
<g id="node15" class="node">
<title>c22</title>
<polygon fill="none" stroke="black" points="483,-211.5 483,-257.5 578,-257.5 578,-211.5 483,-211.5"/>
<text text-anchor="middle" x="496" y="-242.3" font-family="Times,serif" font-size="14.00">A</text>
<polyline fill="none" stroke="black" points="483,-234.5 509,-234.5 "/>
<text text-anchor="middle" x="496" y="-219.3" font-family="Times,serif" font-size="14.00">B</text>
<polyline fill="none" stroke="black" points="509,-211.5 509,-257.5 "/>
<text text-anchor="middle" x="530.5" y="-238.3" font-family="Times,serif" font-size="14.00">$46</text>
<text text-anchor="middle" x="530.5" y="-223.3" font-family="Times,serif" font-size="14.00">$and</text>
<polyline fill="none" stroke="black" points="552,-211.5 552,-257.5 "/>
<text text-anchor="middle" x="565" y="-230.8" font-family="Times,serif" font-size="14.00">Y</text>
</g>
<!-- n15&#45;&gt;c22 -->
<g id="edge14" class="edge">
<title>n15:e&#45;&gt;c22:w</title>
<path fill="none" stroke="black" d="M432.5,-228.5C451.22,-228.5 458.07,-224.39 472.7,-222.97"/>
<polygon fill="black" stroke="black" points="473.17,-226.45 483,-222.5 472.85,-219.46 473.17,-226.45"/>
</g>
<!-- c26 -->
<g id="node19" class="node">
<title>c26</title>
<polygon fill="none" stroke="black" points="483,-276.5 483,-322.5 578,-322.5 578,-276.5 483,-276.5"/>
<text text-anchor="middle" x="496" y="-307.3" font-family="Times,serif" font-size="14.00">A</text>
<polyline fill="none" stroke="black" points="483,-299.5 509,-299.5 "/>
<text text-anchor="middle" x="496" y="-284.3" font-family="Times,serif" font-size="14.00">B</text>
<polyline fill="none" stroke="black" points="509,-276.5 509,-322.5 "/>
<text text-anchor="middle" x="530.5" y="-303.3" font-family="Times,serif" font-size="14.00">$50</text>
<text text-anchor="middle" x="530.5" y="-288.3" font-family="Times,serif" font-size="14.00">$and</text>
<polyline fill="none" stroke="black" points="552,-276.5 552,-322.5 "/>
<text text-anchor="middle" x="565" y="-295.8" font-family="Times,serif" font-size="14.00">Y</text>
</g>
<!-- n15&#45;&gt;c26 -->
<g id="edge15" class="edge">
<title>n15:e&#45;&gt;c26:w</title>
<path fill="none" stroke="black" d="M432.5,-228.5C463.11,-228.5 452,-274.89 473.16,-285.4"/>
<polygon fill="black" stroke="black" points="472.49,-288.84 483,-287.5 473.95,-281.99 472.49,-288.84"/>
</g>
<!-- n16 -->
<g id="node10" class="node">
<title>n16</title>
<polygon fill="none" stroke="black" points="644.33,-239.5 614.17,-221.5 644.33,-203.5 674.5,-221.5 644.33,-239.5"/>
<text text-anchor="middle" x="644.33" y="-217.8" font-family="Times,serif" font-size="14.00">w1</text>
</g>
<!-- c31 -->
<g id="node24" class="node">
<title>c31</title>
<polygon fill="none" stroke="black" points="710.66,-158.5 710.66,-204.5 799.66,-204.5 799.66,-158.5 710.66,-158.5"/>
<text text-anchor="middle" x="723.66" y="-189.3" font-family="Times,serif" font-size="14.00">A</text>
<polyline fill="none" stroke="black" points="710.66,-181.5 736.66,-181.5 "/>
<text text-anchor="middle" x="723.66" y="-166.3" font-family="Times,serif" font-size="14.00">B</text>
<polyline fill="none" stroke="black" points="736.66,-158.5 736.66,-204.5 "/>
<text text-anchor="middle" x="755.16" y="-185.3" font-family="Times,serif" font-size="14.00">$53</text>
<text text-anchor="middle" x="755.16" y="-170.3" font-family="Times,serif" font-size="14.00">$or</text>
<polyline fill="none" stroke="black" points="773.66,-158.5 773.66,-204.5 "/>
<text text-anchor="middle" x="786.66" y="-177.8" font-family="Times,serif" font-size="14.00">Y</text>
</g>
<!-- n16&#45;&gt;c31 -->
<g id="edge17" class="edge">
<title>n16:e&#45;&gt;c31:w</title>
<path fill="none" stroke="black" d="M674.66,-221.5C690.82,-221.5 691.22,-203.72 700.97,-196.5"/>
<polygon fill="black" stroke="black" points="702.14,-199.8 710.66,-193.5 700.08,-193.11 702.14,-199.8"/>
</g>
<!-- n17 -->
<g id="node11" class="node">
<title>n17</title>
<polygon fill="none" stroke="black" points="644.33,-180.5 614.17,-162.5 644.33,-144.5 674.5,-162.5 644.33,-180.5"/>
<text text-anchor="middle" x="644.33" y="-158.8" font-family="Times,serif" font-size="14.00">w2</text>
</g>
<!-- n17&#45;&gt;c31 -->
<g id="edge19" class="edge">
<title>n17:e&#45;&gt;c31:w</title>
<path fill="none" stroke="black" d="M674.66,-162.5C686.89,-162.5 691.86,-166.44 700.46,-168.41"/>
<polygon fill="black" stroke="black" points="700.35,-171.91 710.66,-169.5 701.09,-164.95 700.35,-171.91"/>
</g>
<!-- n18 -->
<g id="node12" class="node">
<title>n18</title>
<polygon fill="none" stroke="black" points="755.16,-273.5 725,-255.5 755.16,-237.5 785.33,-255.5 755.16,-273.5"/>
<text text-anchor="middle" x="755.16" y="-251.8" font-family="Times,serif" font-size="14.00">w3</text>
</g>
<!-- c32 -->
<g id="node25" class="node">
<title>c32</title>
<polygon fill="none" stroke="black" points="835.66,-146.5 835.66,-192.5 924.66,-192.5 924.66,-146.5 835.66,-146.5"/>
<text text-anchor="middle" x="848.66" y="-177.3" font-family="Times,serif" font-size="14.00">A</text>
<polyline fill="none" stroke="black" points="835.66,-169.5 861.66,-169.5 "/>
<text text-anchor="middle" x="848.66" y="-154.3" font-family="Times,serif" font-size="14.00">B</text>
<polyline fill="none" stroke="black" points="861.66,-146.5 861.66,-192.5 "/>
<text text-anchor="middle" x="880.16" y="-173.3" font-family="Times,serif" font-size="14.00">$54</text>
<text text-anchor="middle" x="880.16" y="-158.3" font-family="Times,serif" font-size="14.00">$or</text>
<polyline fill="none" stroke="black" points="898.66,-146.5 898.66,-192.5 "/>
<text text-anchor="middle" x="911.66" y="-165.8" font-family="Times,serif" font-size="14.00">Y</text>
</g>
<!-- n18&#45;&gt;c32 -->
<g id="edge21" class="edge">
<title>n18:e&#45;&gt;c32:w</title>
<path fill="none" stroke="black" d="M786.16,-255.5C830.96,-255.5 794.11,-172.92 825.5,-159.37"/>
<polygon fill="black" stroke="black" points="826.46,-162.75 835.66,-157.5 825.2,-155.87 826.46,-162.75"/>
</g>
<!-- n19 -->
<g id="node13" class="node">
<title>n19</title>
<polygon fill="none" stroke="black" points="755.16,-111.5 725,-93.5 755.16,-75.5 785.33,-93.5 755.16,-111.5"/>
<text text-anchor="middle" x="755.16" y="-89.8" font-family="Times,serif" font-size="14.00">w4</text>
</g>
<!-- c33 -->
<g id="node26" class="node">
<title>c33</title>
<polygon fill="none" stroke="black" points="960.66,-112.5 960.66,-158.5 1049.66,-158.5 1049.66,-112.5 960.66,-112.5"/>
<text text-anchor="middle" x="973.66" y="-143.3" font-family="Times,serif" font-size="14.00">A</text>
<polyline fill="none" stroke="black" points="960.66,-135.5 986.66,-135.5 "/>
<text text-anchor="middle" x="973.66" y="-120.3" font-family="Times,serif" font-size="14.00">B</text>
<polyline fill="none" stroke="black" points="986.66,-112.5 986.66,-158.5 "/>
<text text-anchor="middle" x="1005.16" y="-139.3" font-family="Times,serif" font-size="14.00">$55</text>
<text text-anchor="middle" x="1005.16" y="-124.3" font-family="Times,serif" font-size="14.00">$or</text>
<polyline fill="none" stroke="black" points="1023.66,-112.5 1023.66,-158.5 "/>
<text text-anchor="middle" x="1036.66" y="-131.8" font-family="Times,serif" font-size="14.00">Y</text>
</g>
<!-- n19&#45;&gt;c33 -->
<g id="edge23" class="edge">
<title>n19:e&#45;&gt;c33:w</title>
<path fill="none" stroke="black" d="M786.16,-93.5C861.32,-93.5 880.31,-120.87 950.42,-123.32"/>
<polygon fill="black" stroke="black" points="950.61,-126.83 960.66,-123.5 950.73,-119.83 950.61,-126.83"/>
</g>
<!-- c21&#45;&gt;c22 -->
<g id="edge1" class="edge">
<title>c21:e&#45;&gt;c22:w</title>
<path fill="none" stroke="black" d="M447,-288.5C467.36,-288.5 461.83,-259.7 473.29,-249.8"/>
<polygon fill="black" stroke="black" points="474.65,-253.03 483,-246.5 472.41,-246.4 474.65,-253.03"/>
</g>
<!-- c22&#45;&gt;n16 -->
<g id="edge16" class="edge">
<title>c22:e&#45;&gt;n16:w</title>
<path fill="none" stroke="black" d="M578,-234.5C591.02,-234.5 595.24,-226.88 604.13,-223.31"/>
<polygon fill="black" stroke="black" points="604.79,-226.74 614,-221.5 603.53,-219.86 604.79,-226.74"/>
</g>
<!-- c23&#45;&gt;c24 -->
<g id="edge24" class="edge">
<title>c23:e&#45;&gt;c24:w</title>
<path fill="none" stroke="black" d="M447,-161.5C459,-161.5 464.25,-161.5 472.88,-161.5"/>
<polygon fill="black" stroke="black" points="473,-165 483,-161.5 473,-158 473,-165"/>
</g>
<!-- c24&#45;&gt;n17 -->
<g id="edge18" class="edge">
<title>c24:e&#45;&gt;n17:w</title>
<path fill="none" stroke="black" d="M578,-149.5C591.02,-149.5 595.24,-157.12 604.13,-160.69"/>
<polygon fill="black" stroke="black" points="603.53,-164.14 614,-162.5 604.79,-157.26 603.53,-164.14"/>
</g>
<!-- c25&#45;&gt;c26 -->
<g id="edge25" class="edge">
<title>c25:e&#45;&gt;c26:w</title>
<path fill="none" stroke="black" d="M185,-295.5C209.59,-295.5 198.66,-327.23 221,-337.5 312.48,-379.58 348.24,-341.13 447,-321.5 459.34,-319.05 464.12,-314.57 472.93,-312.54"/>
<polygon fill="black" stroke="black" points="473.41,-316.01 483,-311.5 472.69,-309.05 473.41,-316.01"/>
</g>
<!-- c26&#45;&gt;n18 -->
<g id="edge20" class="edge">
<title>c26:e&#45;&gt;n18:w</title>
<path fill="none" stroke="black" d="M578,-299.5C642.26,-299.5 655.06,-260.02 713.89,-255.85"/>
<polygon fill="black" stroke="black" points="714.29,-259.34 724.16,-255.5 714.05,-252.35 714.29,-259.34"/>
</g>
<!-- c27&#45;&gt;c28 -->
<g id="edge26" class="edge">
<title>c27:e&#45;&gt;c28:w</title>
<path fill="none" stroke="black" d="M185,-48.5C197.58,-48.5 202.23,-54.24 210.97,-57.02"/>
<polygon fill="black" stroke="black" points="210.6,-60.51 221,-58.5 211.62,-53.58 210.6,-60.51"/>
</g>
<!-- c28&#45;&gt;n19 -->
<g id="edge22" class="edge">
<title>c28:e&#45;&gt;n19:w</title>
<path fill="none" stroke="black" d="M316,-46.5C495.22,-46.5 539.92,-91.77 714.14,-93.45"/>
<polygon fill="black" stroke="black" points="714.15,-96.95 724.16,-93.5 714.18,-89.95 714.15,-96.95"/>
</g>
<!-- c29&#45;&gt;n13 -->
<g id="edge7" class="edge">
<title>c29:e&#45;&gt;n13:w</title>
<path fill="none" stroke="black" d="M185,-164.5C205.18,-164.5 210.04,-150.52 225.19,-145.94"/>
<polygon fill="black" stroke="black" points="226.08,-149.35 235.5,-144.5 225.11,-142.42 226.08,-149.35"/>
</g>
<!-- c30&#45;&gt;n15 -->
<g id="edge13" class="edge">
<title>c30:e&#45;&gt;n15:w</title>
<path fill="none" stroke="black" d="M316,-254.5C337.3,-254.5 340.64,-235.99 356.32,-230.21"/>
<polygon fill="black" stroke="black" points="357.22,-233.61 366.5,-228.5 356.06,-226.7 357.22,-233.61"/>
</g>
<!-- c31&#45;&gt;c32 -->
<g id="edge27" class="edge">
<title>c31:e&#45;&gt;c32:w</title>
<path fill="none" stroke="black" d="M799.66,-181.5C811.66,-181.5 816.91,-181.5 825.54,-181.5"/>
<polygon fill="black" stroke="black" points="825.66,-185 835.66,-181.5 825.66,-178 825.66,-185"/>
</g>
<!-- c32&#45;&gt;c33 -->
<g id="edge28" class="edge">
<title>c32:e&#45;&gt;c33:w</title>
<path fill="none" stroke="black" d="M924.66,-169.5C939.31,-169.5 941.6,-156.07 950.84,-150.2"/>
<polygon fill="black" stroke="black" points="951.95,-153.52 960.66,-147.5 950.09,-146.77 951.95,-153.52"/>
</g>
<!-- c33&#45;&gt;n11 -->
<g id="edge3" class="edge">
<title>c33:e&#45;&gt;n11:w</title>
<path fill="none" stroke="black" d="M1049.66,-135.5C1061.66,-135.5 1066.91,-135.5 1075.54,-135.5"/>
<polygon fill="black" stroke="black" points="1075.66,-139 1085.66,-135.5 1075.66,-132 1075.66,-139"/>
</g>
</g>
</svg>
