<?xml version="1.0" encoding="UTF-8" standalone="no"?>
<!DOCTYPE svg PUBLIC "-//W3C//DTD SVG 1.1//EN"
 "http://www.w3.org/Graphics/SVG/1.1/DTD/svg11.dtd">
<!-- Generated by graphviz version 2.43.0 (0)
 -->
<!-- Title: mux8b4x1 Pages: 1 -->
<svg width="581pt" height="1882pt"
 viewBox="0.00 0.00 581.00 1882.00" xmlns="http://www.w3.org/2000/svg" xmlns:xlink="http://www.w3.org/1999/xlink">
<g id="page0,1_graph0" class="graph" transform="scale(1 1) rotate(0) translate(4 1878)">
<title>mux8b4x1</title>
<polygon fill="white" stroke="transparent" points="-4,4 -4,-1878 577,-1878 577,4 -4,4"/>
<text text-anchor="middle" x="286.5" y="-7.8" font-family="Times,serif" font-size="14.00">mux8b4x1</text>
<!-- n1 -->
<g id="node1" class="node">
<title>n1</title>
<polygon fill="none" stroke="black" points="54,-1023.04 54,-1037.96 38.18,-1048.5 15.82,-1048.5 0,-1037.96 0,-1023.04 15.82,-1012.5 38.18,-1012.5 54,-1023.04"/>
<text text-anchor="middle" x="27" y="-1026.8" font-family="Times,serif" font-size="14.00">A</text>
</g>
<!-- x0 -->
<g id="node9" class="node">
<title>x0</title>
<path fill="none" stroke="black" d="M102,-1837.5C102,-1837.5 141,-1837.5 141,-1837.5 147,-1837.5 153,-1843.5 153,-1849.5 153,-1849.5 153,-1861.5 153,-1861.5 153,-1867.5 147,-1873.5 141,-1873.5 141,-1873.5 102,-1873.5 102,-1873.5 96,-1873.5 90,-1867.5 90,-1861.5 90,-1861.5 90,-1849.5 90,-1849.5 90,-1843.5 96,-1837.5 102,-1837.5"/>
<text text-anchor="middle" x="121.5" y="-1851.8" font-family="Times,serif" font-size="14.00">0:0 &#45; 0:0</text>
</g>
<!-- n1&#45;&gt;x0 -->
<g id="edge41" class="edge">
<title>n1:e&#45;&gt;x0:w</title>
<path fill="none" stroke="black" d="M54,-1030.5C142.17,-1030.5 9.41,-1792.31 80.31,-1851.82"/>
<polygon fill="black" stroke="black" points="79.41,-1855.22 90,-1855.5 81.89,-1848.68 79.41,-1855.22"/>
</g>
<!-- x5 -->
<g id="node15" class="node">
<title>x5</title>
<path fill="none" stroke="black" d="M102,-1617.5C102,-1617.5 141,-1617.5 141,-1617.5 147,-1617.5 153,-1623.5 153,-1629.5 153,-1629.5 153,-1641.5 153,-1641.5 153,-1647.5 147,-1653.5 141,-1653.5 141,-1653.5 102,-1653.5 102,-1653.5 96,-1653.5 90,-1647.5 90,-1641.5 90,-1641.5 90,-1629.5 90,-1629.5 90,-1623.5 96,-1617.5 102,-1617.5"/>
<text text-anchor="middle" x="121.5" y="-1631.8" font-family="Times,serif" font-size="14.00">1:1 &#45; 0:0</text>
</g>
<!-- n1&#45;&gt;x5 -->
<g id="edge48" class="edge">
<title>n1:e&#45;&gt;x5:w</title>
<path fill="none" stroke="black" d="M54,-1030.5C117.92,-1030.5 32.25,-1575.61 80.98,-1630.98"/>
<polygon fill="black" stroke="black" points="79.49,-1634.15 90,-1635.5 82.63,-1627.89 79.49,-1634.15"/>
</g>
<!-- x10 -->
<g id="node21" class="node">
<title>x10</title>
<path fill="none" stroke="black" d="M102,-1397.5C102,-1397.5 141,-1397.5 141,-1397.5 147,-1397.5 153,-1403.5 153,-1409.5 153,-1409.5 153,-1421.5 153,-1421.5 153,-1427.5 147,-1433.5 141,-1433.5 141,-1433.5 102,-1433.5 102,-1433.5 96,-1433.5 90,-1427.5 90,-1421.5 90,-1421.5 90,-1409.5 90,-1409.5 90,-1403.5 96,-1397.5 102,-1397.5"/>
<text text-anchor="middle" x="121.5" y="-1411.8" font-family="Times,serif" font-size="14.00">2:2 &#45; 0:0</text>
</g>
<!-- n1&#45;&gt;x10 -->
<g id="edge42" class="edge">
<title>n1:e&#45;&gt;x10:w</title>
<path fill="none" stroke="black" d="M54,-1030.5C136.24,-1030.5 15.34,-1383.12 80.12,-1413.43"/>
<polygon fill="black" stroke="black" points="79.49,-1416.87 90,-1415.5 80.93,-1410.02 79.49,-1416.87"/>
</g>
<!-- x15 -->
<g id="node27" class="node">
<title>x15</title>
<path fill="none" stroke="black" d="M102,-1177.5C102,-1177.5 141,-1177.5 141,-1177.5 147,-1177.5 153,-1183.5 153,-1189.5 153,-1189.5 153,-1201.5 153,-1201.5 153,-1207.5 147,-1213.5 141,-1213.5 141,-1213.5 102,-1213.5 102,-1213.5 96,-1213.5 90,-1207.5 90,-1201.5 90,-1201.5 90,-1189.5 90,-1189.5 90,-1183.5 96,-1177.5 102,-1177.5"/>
<text text-anchor="middle" x="121.5" y="-1191.8" font-family="Times,serif" font-size="14.00">3:3 &#45; 0:0</text>
</g>
<!-- n1&#45;&gt;x15 -->
<g id="edge43" class="edge">
<title>n1:e&#45;&gt;x15:w</title>
<path fill="none" stroke="black" d="M54,-1030.5C125.25,-1030.5 26.04,-1179.17 79.98,-1194.27"/>
<polygon fill="black" stroke="black" points="79.65,-1197.75 90,-1195.5 80.5,-1190.8 79.65,-1197.75"/>
</g>
<!-- x20 -->
<g id="node33" class="node">
<title>x20</title>
<path fill="none" stroke="black" d="M102,-848.5C102,-848.5 141,-848.5 141,-848.5 147,-848.5 153,-854.5 153,-860.5 153,-860.5 153,-872.5 153,-872.5 153,-878.5 147,-884.5 141,-884.5 141,-884.5 102,-884.5 102,-884.5 96,-884.5 90,-878.5 90,-872.5 90,-872.5 90,-860.5 90,-860.5 90,-854.5 96,-848.5 102,-848.5"/>
<text text-anchor="middle" x="121.5" y="-862.8" font-family="Times,serif" font-size="14.00">4:4 &#45; 0:0</text>
</g>
<!-- n1&#45;&gt;x20 -->
<g id="edge44" class="edge">
<title>n1:e&#45;&gt;x20:w</title>
<path fill="none" stroke="black" d="M54,-1030.5C124.83,-1030.5 26.39,-882.73 80.04,-867.73"/>
<polygon fill="black" stroke="black" points="80.5,-871.19 90,-866.5 79.65,-864.25 80.5,-871.19"/>
</g>
<!-- x25 -->
<g id="node39" class="node">
<title>x25</title>
<path fill="none" stroke="black" d="M102,-628.5C102,-628.5 141,-628.5 141,-628.5 147,-628.5 153,-634.5 153,-640.5 153,-640.5 153,-652.5 153,-652.5 153,-658.5 147,-664.5 141,-664.5 141,-664.5 102,-664.5 102,-664.5 96,-664.5 90,-658.5 90,-652.5 90,-652.5 90,-640.5 90,-640.5 90,-634.5 96,-628.5 102,-628.5"/>
<text text-anchor="middle" x="121.5" y="-642.8" font-family="Times,serif" font-size="14.00">5:5 &#45; 0:0</text>
</g>
<!-- n1&#45;&gt;x25 -->
<g id="edge45" class="edge">
<title>n1:e&#45;&gt;x25:w</title>
<path fill="none" stroke="black" d="M54,-1030.5C136.02,-1030.5 15.52,-678.79 80.14,-648.57"/>
<polygon fill="black" stroke="black" points="80.93,-651.98 90,-646.5 79.49,-645.13 80.93,-651.98"/>
</g>
<!-- x30 -->
<g id="node45" class="node">
<title>x30</title>
<path fill="none" stroke="black" d="M102,-408.5C102,-408.5 141,-408.5 141,-408.5 147,-408.5 153,-414.5 153,-420.5 153,-420.5 153,-432.5 153,-432.5 153,-438.5 147,-444.5 141,-444.5 141,-444.5 102,-444.5 102,-444.5 96,-444.5 90,-438.5 90,-432.5 90,-432.5 90,-420.5 90,-420.5 90,-414.5 96,-408.5 102,-408.5"/>
<text text-anchor="middle" x="121.5" y="-422.8" font-family="Times,serif" font-size="14.00">6:6 &#45; 0:0</text>
</g>
<!-- n1&#45;&gt;x30 -->
<g id="edge46" class="edge">
<title>n1:e&#45;&gt;x30:w</title>
<path fill="none" stroke="black" d="M54,-1030.5C117.82,-1030.5 32.34,-486.29 81,-431.01"/>
<polygon fill="black" stroke="black" points="82.63,-434.11 90,-426.5 79.49,-427.85 82.63,-434.11"/>
</g>
<!-- x35 -->
<g id="node51" class="node">
<title>x35</title>
<path fill="none" stroke="black" d="M102,-188.5C102,-188.5 141,-188.5 141,-188.5 147,-188.5 153,-194.5 153,-200.5 153,-200.5 153,-212.5 153,-212.5 153,-218.5 147,-224.5 141,-224.5 141,-224.5 102,-224.5 102,-224.5 96,-224.5 90,-218.5 90,-212.5 90,-212.5 90,-200.5 90,-200.5 90,-194.5 96,-188.5 102,-188.5"/>
<text text-anchor="middle" x="121.5" y="-202.8" font-family="Times,serif" font-size="14.00">7:7 &#45; 0:0</text>
</g>
<!-- n1&#45;&gt;x35 -->
<g id="edge47" class="edge">
<title>n1:e&#45;&gt;x35:w</title>
<path fill="none" stroke="black" d="M54,-1030.5C142.06,-1030.5 9.5,-269.62 80.33,-210.17"/>
<polygon fill="black" stroke="black" points="81.89,-213.32 90,-206.5 79.41,-206.78 81.89,-213.32"/>
</g>
<!-- n2 -->
<g id="node2" class="node">
<title>n2</title>
<polygon fill="none" stroke="black" points="54,-886.04 54,-900.96 38.18,-911.5 15.82,-911.5 0,-900.96 0,-886.04 15.82,-875.5 38.18,-875.5 54,-886.04"/>
<text text-anchor="middle" x="27" y="-889.8" font-family="Times,serif" font-size="14.00">B</text>
</g>
<!-- x1 -->
<g id="node10" class="node">
<title>x1</title>
<path fill="none" stroke="black" d="M102,-1782.5C102,-1782.5 141,-1782.5 141,-1782.5 147,-1782.5 153,-1788.5 153,-1794.5 153,-1794.5 153,-1806.5 153,-1806.5 153,-1812.5 147,-1818.5 141,-1818.5 141,-1818.5 102,-1818.5 102,-1818.5 96,-1818.5 90,-1812.5 90,-1806.5 90,-1806.5 90,-1794.5 90,-1794.5 90,-1788.5 96,-1782.5 102,-1782.5"/>
<text text-anchor="middle" x="121.5" y="-1796.8" font-family="Times,serif" font-size="14.00">0:0 &#45; 0:0</text>
</g>
<!-- n2&#45;&gt;x1 -->
<g id="edge51" class="edge">
<title>n2:e&#45;&gt;x1:w</title>
<path fill="none" stroke="black" d="M54,-893.5C151.31,-893.5 0.47,-1737.85 80.33,-1797.22"/>
<polygon fill="black" stroke="black" points="79.41,-1800.6 90,-1800.5 81.66,-1793.97 79.41,-1800.6"/>
</g>
<!-- x6 -->
<g id="node16" class="node">
<title>x6</title>
<path fill="none" stroke="black" d="M102,-1562.5C102,-1562.5 141,-1562.5 141,-1562.5 147,-1562.5 153,-1568.5 153,-1574.5 153,-1574.5 153,-1586.5 153,-1586.5 153,-1592.5 147,-1598.5 141,-1598.5 141,-1598.5 102,-1598.5 102,-1598.5 96,-1598.5 90,-1592.5 90,-1586.5 90,-1586.5 90,-1574.5 90,-1574.5 90,-1568.5 96,-1562.5 102,-1562.5"/>
<text text-anchor="middle" x="121.5" y="-1576.8" font-family="Times,serif" font-size="14.00">1:1 &#45; 0:0</text>
</g>
<!-- n2&#45;&gt;x6 -->
<g id="edge56" class="edge">
<title>n2:e&#45;&gt;x6:w</title>
<path fill="none" stroke="black" d="M54,-893.5C127,-893.5 23.67,-1520.16 80.83,-1576.47"/>
<polygon fill="black" stroke="black" points="79.44,-1579.67 90,-1580.5 82.26,-1573.27 79.44,-1579.67"/>
</g>
<!-- x11 -->
<g id="node22" class="node">
<title>x11</title>
<path fill="none" stroke="black" d="M102,-1342.5C102,-1342.5 141,-1342.5 141,-1342.5 147,-1342.5 153,-1348.5 153,-1354.5 153,-1354.5 153,-1366.5 153,-1366.5 153,-1372.5 147,-1378.5 141,-1378.5 141,-1378.5 102,-1378.5 102,-1378.5 96,-1378.5 90,-1372.5 90,-1366.5 90,-1366.5 90,-1354.5 90,-1354.5 90,-1348.5 96,-1342.5 102,-1342.5"/>
<text text-anchor="middle" x="121.5" y="-1356.8" font-family="Times,serif" font-size="14.00">2:2 &#45; 0:0</text>
</g>
<!-- n2&#45;&gt;x11 -->
<g id="edge49" class="edge">
<title>n2:e&#45;&gt;x11:w</title>
<path fill="none" stroke="black" d="M54,-893.5C154.43,-893.5 -2.32,-1328.24 80.02,-1358.81"/>
<polygon fill="black" stroke="black" points="79.56,-1362.28 90,-1360.5 80.73,-1355.38 79.56,-1362.28"/>
</g>
<!-- x16 -->
<g id="node28" class="node">
<title>x16</title>
<path fill="none" stroke="black" d="M102,-1122.5C102,-1122.5 141,-1122.5 141,-1122.5 147,-1122.5 153,-1128.5 153,-1134.5 153,-1134.5 153,-1146.5 153,-1146.5 153,-1152.5 147,-1158.5 141,-1158.5 141,-1158.5 102,-1158.5 102,-1158.5 96,-1158.5 90,-1152.5 90,-1146.5 90,-1146.5 90,-1134.5 90,-1134.5 90,-1128.5 96,-1122.5 102,-1122.5"/>
<text text-anchor="middle" x="121.5" y="-1136.8" font-family="Times,serif" font-size="14.00">3:3 &#45; 0:0</text>
</g>
<!-- n2&#45;&gt;x16 -->
<g id="edge50" class="edge">
<title>n2:e&#45;&gt;x16:w</title>
<path fill="none" stroke="black" d="M54,-893.5C105.57,-893.5 44.42,-1106.99 80.14,-1137.01"/>
<polygon fill="black" stroke="black" points="79.41,-1140.46 90,-1140.5 81.74,-1133.86 79.41,-1140.46"/>
</g>
<!-- x21 -->
<g id="node34" class="node">
<title>x21</title>
<path fill="none" stroke="black" d="M102,-793.5C102,-793.5 141,-793.5 141,-793.5 147,-793.5 153,-799.5 153,-805.5 153,-805.5 153,-817.5 153,-817.5 153,-823.5 147,-829.5 141,-829.5 141,-829.5 102,-829.5 102,-829.5 96,-829.5 90,-823.5 90,-817.5 90,-817.5 90,-805.5 90,-805.5 90,-799.5 96,-793.5 102,-793.5"/>
<text text-anchor="middle" x="121.5" y="-807.8" font-family="Times,serif" font-size="14.00">4:4 &#45; 0:0</text>
</g>
<!-- n2&#45;&gt;x21 -->
<g id="edge52" class="edge">
<title>n2:e&#45;&gt;x21:w</title>
<path fill="none" stroke="black" d="M54,-893.5C89.76,-893.5 58.19,-827.31 80.28,-813.87"/>
<polygon fill="black" stroke="black" points="81.11,-817.27 90,-811.5 79.46,-810.46 81.11,-817.27"/>
</g>
<!-- x26 -->
<g id="node40" class="node">
<title>x26</title>
<path fill="none" stroke="black" d="M102,-573.5C102,-573.5 141,-573.5 141,-573.5 147,-573.5 153,-579.5 153,-585.5 153,-585.5 153,-597.5 153,-597.5 153,-603.5 147,-609.5 141,-609.5 141,-609.5 102,-609.5 102,-609.5 96,-609.5 90,-603.5 90,-597.5 90,-597.5 90,-585.5 90,-585.5 90,-579.5 96,-573.5 102,-573.5"/>
<text text-anchor="middle" x="121.5" y="-587.8" font-family="Times,serif" font-size="14.00">5:5 &#45; 0:0</text>
</g>
<!-- n2&#45;&gt;x26 -->
<g id="edge53" class="edge">
<title>n2:e&#45;&gt;x26:w</title>
<path fill="none" stroke="black" d="M54,-893.5C117.76,-893.5 33.11,-624.74 80.06,-594.3"/>
<polygon fill="black" stroke="black" points="81.32,-597.58 90,-591.5 79.43,-590.84 81.32,-597.58"/>
</g>
<!-- x31 -->
<g id="node46" class="node">
<title>x31</title>
<path fill="none" stroke="black" d="M102,-353.5C102,-353.5 141,-353.5 141,-353.5 147,-353.5 153,-359.5 153,-365.5 153,-365.5 153,-377.5 153,-377.5 153,-383.5 147,-389.5 141,-389.5 141,-389.5 102,-389.5 102,-389.5 96,-389.5 90,-383.5 90,-377.5 90,-377.5 90,-365.5 90,-365.5 90,-359.5 96,-353.5 102,-353.5"/>
<text text-anchor="middle" x="121.5" y="-367.8" font-family="Times,serif" font-size="14.00">6:6 &#45; 0:0</text>
</g>
<!-- n2&#45;&gt;x31 -->
<g id="edge54" class="edge">
<title>n2:e&#45;&gt;x31:w</title>
<path fill="none" stroke="black" d="M54,-893.5C108.73,-893.5 40.79,-430.88 81.15,-376.67"/>
<polygon fill="black" stroke="black" points="83.13,-379.56 90,-371.5 79.6,-373.52 83.13,-379.56"/>
</g>
<!-- x36 -->
<g id="node52" class="node">
<title>x36</title>
<path fill="none" stroke="black" d="M102,-133.5C102,-133.5 141,-133.5 141,-133.5 147,-133.5 153,-139.5 153,-145.5 153,-145.5 153,-157.5 153,-157.5 153,-163.5 147,-169.5 141,-169.5 141,-169.5 102,-169.5 102,-169.5 96,-169.5 90,-163.5 90,-157.5 90,-157.5 90,-145.5 90,-145.5 90,-139.5 96,-133.5 102,-133.5"/>
<text text-anchor="middle" x="121.5" y="-147.8" font-family="Times,serif" font-size="14.00">7:7 &#45; 0:0</text>
</g>
<!-- n2&#45;&gt;x36 -->
<g id="edge55" class="edge">
<title>n2:e&#45;&gt;x36:w</title>
<path fill="none" stroke="black" d="M54,-893.5C132.99,-893.5 18.16,-213.9 80.5,-155.49"/>
<polygon fill="black" stroke="black" points="82.14,-158.6 90,-151.5 79.42,-152.15 82.14,-158.6"/>
</g>
<!-- n3 -->
<g id="node3" class="node">
<title>n3</title>
<polygon fill="none" stroke="black" points="54,-790.04 54,-804.96 38.18,-815.5 15.82,-815.5 0,-804.96 0,-790.04 15.82,-779.5 38.18,-779.5 54,-790.04"/>
<text text-anchor="middle" x="27" y="-793.8" font-family="Times,serif" font-size="14.00">C</text>
</g>
<!-- x2 -->
<g id="node11" class="node">
<title>x2</title>
<path fill="none" stroke="black" d="M102,-1727.5C102,-1727.5 141,-1727.5 141,-1727.5 147,-1727.5 153,-1733.5 153,-1739.5 153,-1739.5 153,-1751.5 153,-1751.5 153,-1757.5 147,-1763.5 141,-1763.5 141,-1763.5 102,-1763.5 102,-1763.5 96,-1763.5 90,-1757.5 90,-1751.5 90,-1751.5 90,-1739.5 90,-1739.5 90,-1733.5 96,-1727.5 102,-1727.5"/>
<text text-anchor="middle" x="121.5" y="-1741.8" font-family="Times,serif" font-size="14.00">0:0 &#45; 0:0</text>
</g>
<!-- n3&#45;&gt;x2 -->
<g id="edge61" class="edge">
<title>n3:e&#45;&gt;x2:w</title>
<path fill="none" stroke="black" d="M54,-797.5C155.91,-797.5 -4.11,-1683.59 80.41,-1742.43"/>
<polygon fill="black" stroke="black" points="79.41,-1745.79 90,-1745.5 81.54,-1739.12 79.41,-1745.79"/>
</g>
<!-- x7 -->
<g id="node17" class="node">
<title>x7</title>
<path fill="none" stroke="black" d="M102,-1507.5C102,-1507.5 141,-1507.5 141,-1507.5 147,-1507.5 153,-1513.5 153,-1519.5 153,-1519.5 153,-1531.5 153,-1531.5 153,-1537.5 147,-1543.5 141,-1543.5 141,-1543.5 102,-1543.5 102,-1543.5 96,-1543.5 90,-1537.5 90,-1531.5 90,-1531.5 90,-1519.5 90,-1519.5 90,-1513.5 96,-1507.5 102,-1507.5"/>
<text text-anchor="middle" x="121.5" y="-1521.8" font-family="Times,serif" font-size="14.00">1:1 &#45; 0:0</text>
</g>
<!-- n3&#45;&gt;x7 -->
<g id="edge64" class="edge">
<title>n3:e&#45;&gt;x7:w</title>
<path fill="none" stroke="black" d="M54,-797.5C131.51,-797.5 19.46,-1464.28 80.67,-1521.58"/>
<polygon fill="black" stroke="black" points="79.42,-1524.85 90,-1525.5 82.14,-1518.4 79.42,-1524.85"/>
</g>
<!-- x12 -->
<g id="node23" class="node">
<title>x12</title>
<path fill="none" stroke="black" d="M102,-1287.5C102,-1287.5 141,-1287.5 141,-1287.5 147,-1287.5 153,-1293.5 153,-1299.5 153,-1299.5 153,-1311.5 153,-1311.5 153,-1317.5 147,-1323.5 141,-1323.5 141,-1323.5 102,-1323.5 102,-1323.5 96,-1323.5 90,-1317.5 90,-1311.5 90,-1311.5 90,-1299.5 90,-1299.5 90,-1293.5 96,-1287.5 102,-1287.5"/>
<text text-anchor="middle" x="121.5" y="-1301.8" font-family="Times,serif" font-size="14.00">2:2 &#45; 0:0</text>
</g>
<!-- n3&#45;&gt;x12 -->
<g id="edge57" class="edge">
<title>n3:e&#45;&gt;x12:w</title>
<path fill="none" stroke="black" d="M54,-797.5C107.16,-797.5 42.27,-1245.85 81.13,-1300.14"/>
<polygon fill="black" stroke="black" points="79.63,-1303.32 90,-1305.5 83.25,-1297.33 79.63,-1303.32"/>
</g>
<!-- x17 -->
<g id="node29" class="node">
<title>x17</title>
<path fill="none" stroke="black" d="M102,-1067.5C102,-1067.5 141,-1067.5 141,-1067.5 147,-1067.5 153,-1073.5 153,-1079.5 153,-1079.5 153,-1091.5 153,-1091.5 153,-1097.5 147,-1103.5 141,-1103.5 141,-1103.5 102,-1103.5 102,-1103.5 96,-1103.5 90,-1097.5 90,-1091.5 90,-1091.5 90,-1079.5 90,-1079.5 90,-1073.5 96,-1067.5 102,-1067.5"/>
<text text-anchor="middle" x="121.5" y="-1081.8" font-family="Times,serif" font-size="14.00">3:3 &#45; 0:0</text>
</g>
<!-- n3&#45;&gt;x17 -->
<g id="edge58" class="edge">
<title>n3:e&#45;&gt;x17:w</title>
<path fill="none" stroke="black" d="M54,-797.5C114.72,-797.5 35.86,-1052.74 80.22,-1082.65"/>
<polygon fill="black" stroke="black" points="79.42,-1086.06 90,-1085.5 81.38,-1079.34 79.42,-1086.06"/>
</g>
<!-- x22 -->
<g id="node35" class="node">
<title>x22</title>
<path fill="none" stroke="black" d="M102,-738.5C102,-738.5 141,-738.5 141,-738.5 147,-738.5 153,-744.5 153,-750.5 153,-750.5 153,-762.5 153,-762.5 153,-768.5 147,-774.5 141,-774.5 141,-774.5 102,-774.5 102,-774.5 96,-774.5 90,-768.5 90,-762.5 90,-762.5 90,-750.5 90,-750.5 90,-744.5 96,-738.5 102,-738.5"/>
<text text-anchor="middle" x="121.5" y="-752.8" font-family="Times,serif" font-size="14.00">4:4 &#45; 0:0</text>
</g>
<!-- n3&#45;&gt;x22 -->
<g id="edge59" class="edge">
<title>n3:e&#45;&gt;x22:w</title>
<path fill="none" stroke="black" d="M54,-797.5C74.08,-797.5 68.96,-769.38 80.38,-759.72"/>
<polygon fill="black" stroke="black" points="81.63,-762.99 90,-756.5 79.41,-756.35 81.63,-762.99"/>
</g>
<!-- x27 -->
<g id="node41" class="node">
<title>x27</title>
<path fill="none" stroke="black" d="M102,-518.5C102,-518.5 141,-518.5 141,-518.5 147,-518.5 153,-524.5 153,-530.5 153,-530.5 153,-542.5 153,-542.5 153,-548.5 147,-554.5 141,-554.5 141,-554.5 102,-554.5 102,-554.5 96,-554.5 90,-548.5 90,-542.5 90,-542.5 90,-530.5 90,-530.5 90,-524.5 96,-518.5 102,-518.5"/>
<text text-anchor="middle" x="121.5" y="-532.8" font-family="Times,serif" font-size="14.00">5:5 &#45; 0:0</text>
</g>
<!-- n3&#45;&gt;x27 -->
<g id="edge60" class="edge">
<title>n3:e&#45;&gt;x27:w</title>
<path fill="none" stroke="black" d="M54,-797.5C108.66,-797.5 41.61,-570.01 80.1,-539.8"/>
<polygon fill="black" stroke="black" points="81.62,-542.98 90,-536.5 79.41,-536.34 81.62,-542.98"/>
</g>
<!-- x32 -->
<g id="node47" class="node">
<title>x32</title>
<path fill="none" stroke="black" d="M102,-298.5C102,-298.5 141,-298.5 141,-298.5 147,-298.5 153,-304.5 153,-310.5 153,-310.5 153,-322.5 153,-322.5 153,-328.5 147,-334.5 141,-334.5 141,-334.5 102,-334.5 102,-334.5 96,-334.5 90,-328.5 90,-322.5 90,-322.5 90,-310.5 90,-310.5 90,-304.5 96,-298.5 102,-298.5"/>
<text text-anchor="middle" x="121.5" y="-312.8" font-family="Times,serif" font-size="14.00">6:6 &#45; 0:0</text>
</g>
<!-- n3&#45;&gt;x32 -->
<g id="edge62" class="edge">
<title>n3:e&#45;&gt;x32:w</title>
<path fill="none" stroke="black" d="M54,-797.5C157.52,-797.5 -5.33,-348.82 79.99,-318.15"/>
<polygon fill="black" stroke="black" points="80.7,-321.58 90,-316.5 79.56,-314.67 80.7,-321.58"/>
</g>
<!-- x37 -->
<g id="node53" class="node">
<title>x37</title>
<path fill="none" stroke="black" d="M102,-78.5C102,-78.5 141,-78.5 141,-78.5 147,-78.5 153,-84.5 153,-90.5 153,-90.5 153,-102.5 153,-102.5 153,-108.5 147,-114.5 141,-114.5 141,-114.5 102,-114.5 102,-114.5 96,-114.5 90,-108.5 90,-102.5 90,-102.5 90,-90.5 90,-90.5 90,-84.5 96,-78.5 102,-78.5"/>
<text text-anchor="middle" x="121.5" y="-92.8" font-family="Times,serif" font-size="14.00">7:7 &#45; 0:0</text>
</g>
<!-- n3&#45;&gt;x37 -->
<g id="edge63" class="edge">
<title>n3:e&#45;&gt;x37:w</title>
<path fill="none" stroke="black" d="M54,-797.5C128.49,-797.5 22.39,-158.07 80.65,-100.62"/>
<polygon fill="black" stroke="black" points="82.26,-103.73 90,-96.5 79.44,-97.33 82.26,-103.73"/>
</g>
<!-- n4 -->
<g id="node4" class="node">
<title>n4</title>
<polygon fill="none" stroke="black" points="54,-736.04 54,-750.96 38.18,-761.5 15.82,-761.5 0,-750.96 0,-736.04 15.82,-725.5 38.18,-725.5 54,-736.04"/>
<text text-anchor="middle" x="27" y="-739.8" font-family="Times,serif" font-size="14.00">D</text>
</g>
<!-- x3 -->
<g id="node12" class="node">
<title>x3</title>
<path fill="none" stroke="black" d="M102,-1672.5C102,-1672.5 141,-1672.5 141,-1672.5 147,-1672.5 153,-1678.5 153,-1684.5 153,-1684.5 153,-1696.5 153,-1696.5 153,-1702.5 147,-1708.5 141,-1708.5 141,-1708.5 102,-1708.5 102,-1708.5 96,-1708.5 90,-1702.5 90,-1696.5 90,-1696.5 90,-1684.5 90,-1684.5 90,-1678.5 96,-1672.5 102,-1672.5"/>
<text text-anchor="middle" x="121.5" y="-1686.8" font-family="Times,serif" font-size="14.00">0:0 &#45; 0:0</text>
</g>
<!-- n4&#45;&gt;x3 -->
<g id="edge71" class="edge">
<title>n4:e&#45;&gt;x3:w</title>
<path fill="none" stroke="black" d="M54,-743.5C155.8,-743.5 -4.01,-1628.66 80.42,-1687.44"/>
<polygon fill="black" stroke="black" points="79.41,-1690.79 90,-1690.5 81.54,-1684.12 79.41,-1690.79"/>
</g>
<!-- x8 -->
<g id="node18" class="node">
<title>x8</title>
<path fill="none" stroke="black" d="M102,-1452.5C102,-1452.5 141,-1452.5 141,-1452.5 147,-1452.5 153,-1458.5 153,-1464.5 153,-1464.5 153,-1476.5 153,-1476.5 153,-1482.5 147,-1488.5 141,-1488.5 141,-1488.5 102,-1488.5 102,-1488.5 96,-1488.5 90,-1482.5 90,-1476.5 90,-1476.5 90,-1464.5 90,-1464.5 90,-1458.5 96,-1452.5 102,-1452.5"/>
<text text-anchor="middle" x="121.5" y="-1466.8" font-family="Times,serif" font-size="14.00">1:1 &#45; 0:0</text>
</g>
<!-- n4&#45;&gt;x8 -->
<g id="edge72" class="edge">
<title>n4:e&#45;&gt;x8:w</title>
<path fill="none" stroke="black" d="M54,-743.5C131.4,-743.5 19.55,-1409.37 80.69,-1466.59"/>
<polygon fill="black" stroke="black" points="79.42,-1469.85 90,-1470.5 82.14,-1463.4 79.42,-1469.85"/>
</g>
<!-- x13 -->
<g id="node24" class="node">
<title>x13</title>
<path fill="none" stroke="black" d="M102,-1232.5C102,-1232.5 141,-1232.5 141,-1232.5 147,-1232.5 153,-1238.5 153,-1244.5 153,-1244.5 153,-1256.5 153,-1256.5 153,-1262.5 147,-1268.5 141,-1268.5 141,-1268.5 102,-1268.5 102,-1268.5 96,-1268.5 90,-1262.5 90,-1256.5 90,-1256.5 90,-1244.5 90,-1244.5 90,-1238.5 96,-1232.5 102,-1232.5"/>
<text text-anchor="middle" x="121.5" y="-1246.8" font-family="Times,serif" font-size="14.00">2:2 &#45; 0:0</text>
</g>
<!-- n4&#45;&gt;x13 -->
<g id="edge65" class="edge">
<title>n4:e&#45;&gt;x13:w</title>
<path fill="none" stroke="black" d="M54,-743.5C107.06,-743.5 42.35,-1190.96 81.15,-1245.15"/>
<polygon fill="black" stroke="black" points="79.63,-1248.32 90,-1250.5 83.25,-1242.33 79.63,-1248.32"/>
</g>
<!-- x18 -->
<g id="node30" class="node">
<title>x18</title>
<path fill="none" stroke="black" d="M102,-1012.5C102,-1012.5 141,-1012.5 141,-1012.5 147,-1012.5 153,-1018.5 153,-1024.5 153,-1024.5 153,-1036.5 153,-1036.5 153,-1042.5 147,-1048.5 141,-1048.5 141,-1048.5 102,-1048.5 102,-1048.5 96,-1048.5 90,-1042.5 90,-1036.5 90,-1036.5 90,-1024.5 90,-1024.5 90,-1018.5 96,-1012.5 102,-1012.5"/>
<text text-anchor="middle" x="121.5" y="-1026.8" font-family="Times,serif" font-size="14.00">3:3 &#45; 0:0</text>
</g>
<!-- n4&#45;&gt;x18 -->
<g id="edge66" class="edge">
<title>n4:e&#45;&gt;x18:w</title>
<path fill="none" stroke="black" d="M54,-743.5C114.51,-743.5 36.03,-997.85 80.25,-1027.66"/>
<polygon fill="black" stroke="black" points="79.42,-1031.06 90,-1030.5 81.38,-1024.34 79.42,-1031.06"/>
</g>
<!-- x23 -->
<g id="node36" class="node">
<title>x23</title>
<path fill="none" stroke="black" d="M102,-683.5C102,-683.5 141,-683.5 141,-683.5 147,-683.5 153,-689.5 153,-695.5 153,-695.5 153,-707.5 153,-707.5 153,-713.5 147,-719.5 141,-719.5 141,-719.5 102,-719.5 102,-719.5 96,-719.5 90,-713.5 90,-707.5 90,-707.5 90,-695.5 90,-695.5 90,-689.5 96,-683.5 102,-683.5"/>
<text text-anchor="middle" x="121.5" y="-697.8" font-family="Times,serif" font-size="14.00">4:4 &#45; 0:0</text>
</g>
<!-- n4&#45;&gt;x23 -->
<g id="edge67" class="edge">
<title>n4:e&#45;&gt;x23:w</title>
<path fill="none" stroke="black" d="M54,-743.5C74.36,-743.5 68.83,-714.7 80.29,-704.8"/>
<polygon fill="black" stroke="black" points="81.65,-708.03 90,-701.5 79.41,-701.4 81.65,-708.03"/>
</g>
<!-- x28 -->
<g id="node42" class="node">
<title>x28</title>
<path fill="none" stroke="black" d="M102,-463.5C102,-463.5 141,-463.5 141,-463.5 147,-463.5 153,-469.5 153,-475.5 153,-475.5 153,-487.5 153,-487.5 153,-493.5 147,-499.5 141,-499.5 141,-499.5 102,-499.5 102,-499.5 96,-499.5 90,-493.5 90,-487.5 90,-487.5 90,-475.5 90,-475.5 90,-469.5 96,-463.5 102,-463.5"/>
<text text-anchor="middle" x="121.5" y="-477.8" font-family="Times,serif" font-size="14.00">5:5 &#45; 0:0</text>
</g>
<!-- n4&#45;&gt;x28 -->
<g id="edge68" class="edge">
<title>n4:e&#45;&gt;x28:w</title>
<path fill="none" stroke="black" d="M54,-743.5C108.87,-743.5 41.44,-515.14 80.07,-484.81"/>
<polygon fill="black" stroke="black" points="81.62,-487.98 90,-481.5 79.41,-481.34 81.62,-487.98"/>
</g>
<!-- x33 -->
<g id="node48" class="node">
<title>x33</title>
<path fill="none" stroke="black" d="M102,-243.5C102,-243.5 141,-243.5 141,-243.5 147,-243.5 153,-249.5 153,-255.5 153,-255.5 153,-267.5 153,-267.5 153,-273.5 147,-279.5 141,-279.5 141,-279.5 102,-279.5 102,-279.5 96,-279.5 90,-273.5 90,-267.5 90,-267.5 90,-255.5 90,-255.5 90,-249.5 96,-243.5 102,-243.5"/>
<text text-anchor="middle" x="121.5" y="-257.8" font-family="Times,serif" font-size="14.00">6:6 &#45; 0:0</text>
</g>
<!-- n4&#45;&gt;x33 -->
<g id="edge69" class="edge">
<title>n4:e&#45;&gt;x33:w</title>
<path fill="none" stroke="black" d="M54,-743.5C157.74,-743.5 -5.52,-293.89 79.97,-263.15"/>
<polygon fill="black" stroke="black" points="80.7,-266.58 90,-261.5 79.56,-259.67 80.7,-266.58"/>
</g>
<!-- x38 -->
<g id="node54" class="node">
<title>x38</title>
<path fill="none" stroke="black" d="M102,-23.5C102,-23.5 141,-23.5 141,-23.5 147,-23.5 153,-29.5 153,-35.5 153,-35.5 153,-47.5 153,-47.5 153,-53.5 147,-59.5 141,-59.5 141,-59.5 102,-59.5 102,-59.5 96,-59.5 90,-53.5 90,-47.5 90,-47.5 90,-35.5 90,-35.5 90,-29.5 96,-23.5 102,-23.5"/>
<text text-anchor="middle" x="121.5" y="-37.8" font-family="Times,serif" font-size="14.00">7:7 &#45; 0:0</text>
</g>
<!-- n4&#45;&gt;x38 -->
<g id="edge70" class="edge">
<title>n4:e&#45;&gt;x38:w</title>
<path fill="none" stroke="black" d="M54,-743.5C128.59,-743.5 22.3,-103.15 80.64,-45.62"/>
<polygon fill="black" stroke="black" points="82.26,-48.73 90,-41.5 79.44,-42.33 82.26,-48.73"/>
</g>
<!-- n5 -->
<g id="node5" class="node">
<title>n5</title>
<polygon fill="none" stroke="black" points="573,-918.04 573,-932.96 557.18,-943.5 534.82,-943.5 519,-932.96 519,-918.04 534.82,-907.5 557.18,-907.5 573,-918.04"/>
<text text-anchor="middle" x="546" y="-921.8" font-family="Times,serif" font-size="14.00">out</text>
</g>
<!-- n6 -->
<g id="node6" class="node">
<title>n6</title>
<polygon fill="none" stroke="black" points="148.5,-968.04 148.5,-982.96 132.68,-993.5 110.32,-993.5 94.5,-982.96 94.5,-968.04 110.32,-957.5 132.68,-957.5 148.5,-968.04"/>
<text text-anchor="middle" x="121.5" y="-971.8" font-family="Times,serif" font-size="14.00">s0</text>
</g>
<!-- c8 -->
<g id="node8" class="node">
<title>c8</title>
<polygon fill="none" stroke="black" points="189,-1633.5 189,-1771.5 384,-1771.5 384,-1633.5 189,-1633.5"/>
<text text-anchor="middle" x="203.5" y="-1756.3" font-family="Times,serif" font-size="14.00">A</text>
<polyline fill="none" stroke="black" points="189,-1748.5 218,-1748.5 "/>
<text text-anchor="middle" x="203.5" y="-1733.3" font-family="Times,serif" font-size="14.00">B</text>
<polyline fill="none" stroke="black" points="189,-1725.5 218,-1725.5 "/>
<text text-anchor="middle" x="203.5" y="-1710.3" font-family="Times,serif" font-size="14.00">C</text>
<polyline fill="none" stroke="black" points="189,-1702.5 218,-1702.5 "/>
<text text-anchor="middle" x="203.5" y="-1687.3" font-family="Times,serif" font-size="14.00">D</text>
<polyline fill="none" stroke="black" points="189,-1679.5 218,-1679.5 "/>
<text text-anchor="middle" x="203.5" y="-1664.3" font-family="Times,serif" font-size="14.00">s0</text>
<polyline fill="none" stroke="black" points="189,-1656.5 218,-1656.5 "/>
<text text-anchor="middle" x="203.5" y="-1641.3" font-family="Times,serif" font-size="14.00">s1</text>
<polyline fill="none" stroke="black" points="218,-1633.5 218,-1771.5 "/>
<text text-anchor="middle" x="284" y="-1706.3" font-family="Times,serif" font-size="14.00">mux_4x1[0].mx_inst</text>
<text text-anchor="middle" x="284" y="-1691.3" font-family="Times,serif" font-size="14.00">mux_4x1</text>
<polyline fill="none" stroke="black" points="350,-1633.5 350,-1771.5 "/>
<text text-anchor="middle" x="367" y="-1698.8" font-family="Times,serif" font-size="14.00">out</text>
</g>
<!-- n6&#45;&gt;c8 -->
<g id="edge87" class="edge">
<title>n6:e&#45;&gt;c8:w</title>
<path fill="none" stroke="black" d="M149.5,-975.5C223.05,-975.5 121.89,-1606.72 179.75,-1663.44"/>
<polygon fill="black" stroke="black" points="178.44,-1666.68 189,-1667.5 181.25,-1660.27 178.44,-1666.68"/>
</g>
<!-- c9 -->
<g id="node14" class="node">
<title>c9</title>
<polygon fill="none" stroke="black" points="189,-1413.5 189,-1551.5 384,-1551.5 384,-1413.5 189,-1413.5"/>
<text text-anchor="middle" x="203.5" y="-1536.3" font-family="Times,serif" font-size="14.00">A</text>
<polyline fill="none" stroke="black" points="189,-1528.5 218,-1528.5 "/>
<text text-anchor="middle" x="203.5" y="-1513.3" font-family="Times,serif" font-size="14.00">B</text>
<polyline fill="none" stroke="black" points="189,-1505.5 218,-1505.5 "/>
<text text-anchor="middle" x="203.5" y="-1490.3" font-family="Times,serif" font-size="14.00">C</text>
<polyline fill="none" stroke="black" points="189,-1482.5 218,-1482.5 "/>
<text text-anchor="middle" x="203.5" y="-1467.3" font-family="Times,serif" font-size="14.00">D</text>
<polyline fill="none" stroke="black" points="189,-1459.5 218,-1459.5 "/>
<text text-anchor="middle" x="203.5" y="-1444.3" font-family="Times,serif" font-size="14.00">s0</text>
<polyline fill="none" stroke="black" points="189,-1436.5 218,-1436.5 "/>
<text text-anchor="middle" x="203.5" y="-1421.3" font-family="Times,serif" font-size="14.00">s1</text>
<polyline fill="none" stroke="black" points="218,-1413.5 218,-1551.5 "/>
<text text-anchor="middle" x="284" y="-1486.3" font-family="Times,serif" font-size="14.00">mux_4x1[1].mx_inst</text>
<text text-anchor="middle" x="284" y="-1471.3" font-family="Times,serif" font-size="14.00">mux_4x1</text>
<polyline fill="none" stroke="black" points="350,-1413.5 350,-1551.5 "/>
<text text-anchor="middle" x="367" y="-1478.8" font-family="Times,serif" font-size="14.00">out</text>
</g>
<!-- n6&#45;&gt;c9 -->
<g id="edge88" class="edge">
<title>n6:e&#45;&gt;c9:w</title>
<path fill="none" stroke="black" d="M149.5,-975.5C251.06,-975.5 95.43,-1414.9 178.9,-1445.79"/>
<polygon fill="black" stroke="black" points="178.56,-1449.28 189,-1447.5 179.72,-1442.38 178.56,-1449.28"/>
</g>
<!-- c10 -->
<g id="node20" class="node">
<title>c10</title>
<polygon fill="none" stroke="black" points="189,-1193.5 189,-1331.5 384,-1331.5 384,-1193.5 189,-1193.5"/>
<text text-anchor="middle" x="203.5" y="-1316.3" font-family="Times,serif" font-size="14.00">A</text>
<polyline fill="none" stroke="black" points="189,-1308.5 218,-1308.5 "/>
<text text-anchor="middle" x="203.5" y="-1293.3" font-family="Times,serif" font-size="14.00">B</text>
<polyline fill="none" stroke="black" points="189,-1285.5 218,-1285.5 "/>
<text text-anchor="middle" x="203.5" y="-1270.3" font-family="Times,serif" font-size="14.00">C</text>
<polyline fill="none" stroke="black" points="189,-1262.5 218,-1262.5 "/>
<text text-anchor="middle" x="203.5" y="-1247.3" font-family="Times,serif" font-size="14.00">D</text>
<polyline fill="none" stroke="black" points="189,-1239.5 218,-1239.5 "/>
<text text-anchor="middle" x="203.5" y="-1224.3" font-family="Times,serif" font-size="14.00">s0</text>
<polyline fill="none" stroke="black" points="189,-1216.5 218,-1216.5 "/>
<text text-anchor="middle" x="203.5" y="-1201.3" font-family="Times,serif" font-size="14.00">s1</text>
<polyline fill="none" stroke="black" points="218,-1193.5 218,-1331.5 "/>
<text text-anchor="middle" x="284" y="-1266.3" font-family="Times,serif" font-size="14.00">mux_4x1[2].mx_inst</text>
<text text-anchor="middle" x="284" y="-1251.3" font-family="Times,serif" font-size="14.00">mux_4x1</text>
<polyline fill="none" stroke="black" points="350,-1193.5 350,-1331.5 "/>
<text text-anchor="middle" x="367" y="-1258.8" font-family="Times,serif" font-size="14.00">out</text>
</g>
<!-- n6&#45;&gt;c10 -->
<g id="edge81" class="edge">
<title>n6:e&#45;&gt;c10:w</title>
<path fill="none" stroke="black" d="M149.5,-975.5C202.42,-975.5 141.55,-1195.14 179.36,-1224.31"/>
<polygon fill="black" stroke="black" points="178.41,-1227.69 189,-1227.5 180.6,-1221.04 178.41,-1227.69"/>
</g>
<!-- c11 -->
<g id="node26" class="node">
<title>c11</title>
<polygon fill="none" stroke="black" points="189,-973.5 189,-1111.5 384,-1111.5 384,-973.5 189,-973.5"/>
<text text-anchor="middle" x="203.5" y="-1096.3" font-family="Times,serif" font-size="14.00">A</text>
<polyline fill="none" stroke="black" points="189,-1088.5 218,-1088.5 "/>
<text text-anchor="middle" x="203.5" y="-1073.3" font-family="Times,serif" font-size="14.00">B</text>
<polyline fill="none" stroke="black" points="189,-1065.5 218,-1065.5 "/>
<text text-anchor="middle" x="203.5" y="-1050.3" font-family="Times,serif" font-size="14.00">C</text>
<polyline fill="none" stroke="black" points="189,-1042.5 218,-1042.5 "/>
<text text-anchor="middle" x="203.5" y="-1027.3" font-family="Times,serif" font-size="14.00">D</text>
<polyline fill="none" stroke="black" points="189,-1019.5 218,-1019.5 "/>
<text text-anchor="middle" x="203.5" y="-1004.3" font-family="Times,serif" font-size="14.00">s0</text>
<polyline fill="none" stroke="black" points="189,-996.5 218,-996.5 "/>
<text text-anchor="middle" x="203.5" y="-981.3" font-family="Times,serif" font-size="14.00">s1</text>
<polyline fill="none" stroke="black" points="218,-973.5 218,-1111.5 "/>
<text text-anchor="middle" x="284" y="-1046.3" font-family="Times,serif" font-size="14.00">mux_4x1[3].mx_inst</text>
<text text-anchor="middle" x="284" y="-1031.3" font-family="Times,serif" font-size="14.00">mux_4x1</text>
<polyline fill="none" stroke="black" points="350,-973.5 350,-1111.5 "/>
<text text-anchor="middle" x="367" y="-1038.8" font-family="Times,serif" font-size="14.00">out</text>
</g>
<!-- n6&#45;&gt;c11 -->
<g id="edge82" class="edge">
<title>n6:e&#45;&gt;c11:w</title>
<path fill="none" stroke="black" d="M149.5,-975.5C168.03,-975.5 167.54,-997.03 179.23,-1004.77"/>
<polygon fill="black" stroke="black" points="178.43,-1008.18 189,-1007.5 180.31,-1001.44 178.43,-1008.18"/>
</g>
<!-- c12 -->
<g id="node32" class="node">
<title>c12</title>
<polygon fill="none" stroke="black" points="189,-739.5 189,-877.5 384,-877.5 384,-739.5 189,-739.5"/>
<text text-anchor="middle" x="203.5" y="-862.3" font-family="Times,serif" font-size="14.00">A</text>
<polyline fill="none" stroke="black" points="189,-854.5 218,-854.5 "/>
<text text-anchor="middle" x="203.5" y="-839.3" font-family="Times,serif" font-size="14.00">B</text>
<polyline fill="none" stroke="black" points="189,-831.5 218,-831.5 "/>
<text text-anchor="middle" x="203.5" y="-816.3" font-family="Times,serif" font-size="14.00">C</text>
<polyline fill="none" stroke="black" points="189,-808.5 218,-808.5 "/>
<text text-anchor="middle" x="203.5" y="-793.3" font-family="Times,serif" font-size="14.00">D</text>
<polyline fill="none" stroke="black" points="189,-785.5 218,-785.5 "/>
<text text-anchor="middle" x="203.5" y="-770.3" font-family="Times,serif" font-size="14.00">s0</text>
<polyline fill="none" stroke="black" points="189,-762.5 218,-762.5 "/>
<text text-anchor="middle" x="203.5" y="-747.3" font-family="Times,serif" font-size="14.00">s1</text>
<polyline fill="none" stroke="black" points="218,-739.5 218,-877.5 "/>
<text text-anchor="middle" x="284" y="-812.3" font-family="Times,serif" font-size="14.00">mux_4x1[4].mx_inst</text>
<text text-anchor="middle" x="284" y="-797.3" font-family="Times,serif" font-size="14.00">mux_4x1</text>
<polyline fill="none" stroke="black" points="350,-739.5 350,-877.5 "/>
<text text-anchor="middle" x="367" y="-804.8" font-family="Times,serif" font-size="14.00">out</text>
</g>
<!-- n6&#45;&gt;c12 -->
<g id="edge83" class="edge">
<title>n6:e&#45;&gt;c12:w</title>
<path fill="none" stroke="black" d="M149.5,-975.5C237.23,-975.5 108.89,-789.73 178.9,-774.49"/>
<polygon fill="black" stroke="black" points="179.39,-777.96 189,-773.5 178.71,-770.99 179.39,-777.96"/>
</g>
<!-- c13 -->
<g id="node38" class="node">
<title>c13</title>
<polygon fill="none" stroke="black" points="189,-519.5 189,-657.5 384,-657.5 384,-519.5 189,-519.5"/>
<text text-anchor="middle" x="203.5" y="-642.3" font-family="Times,serif" font-size="14.00">A</text>
<polyline fill="none" stroke="black" points="189,-634.5 218,-634.5 "/>
<text text-anchor="middle" x="203.5" y="-619.3" font-family="Times,serif" font-size="14.00">B</text>
<polyline fill="none" stroke="black" points="189,-611.5 218,-611.5 "/>
<text text-anchor="middle" x="203.5" y="-596.3" font-family="Times,serif" font-size="14.00">C</text>
<polyline fill="none" stroke="black" points="189,-588.5 218,-588.5 "/>
<text text-anchor="middle" x="203.5" y="-573.3" font-family="Times,serif" font-size="14.00">D</text>
<polyline fill="none" stroke="black" points="189,-565.5 218,-565.5 "/>
<text text-anchor="middle" x="203.5" y="-550.3" font-family="Times,serif" font-size="14.00">s0</text>
<polyline fill="none" stroke="black" points="189,-542.5 218,-542.5 "/>
<text text-anchor="middle" x="203.5" y="-527.3" font-family="Times,serif" font-size="14.00">s1</text>
<polyline fill="none" stroke="black" points="218,-519.5 218,-657.5 "/>
<text text-anchor="middle" x="284" y="-592.3" font-family="Times,serif" font-size="14.00">mux_4x1[5].mx_inst</text>
<text text-anchor="middle" x="284" y="-577.3" font-family="Times,serif" font-size="14.00">mux_4x1</text>
<polyline fill="none" stroke="black" points="350,-519.5 350,-657.5 "/>
<text text-anchor="middle" x="367" y="-584.8" font-family="Times,serif" font-size="14.00">out</text>
</g>
<!-- n6&#45;&gt;c13 -->
<g id="edge84" class="edge">
<title>n6:e&#45;&gt;c13:w</title>
<path fill="none" stroke="black" d="M149.5,-975.5C240.01,-975.5 106.07,-585.82 179.05,-555.38"/>
<polygon fill="black" stroke="black" points="179.82,-558.8 189,-553.5 178.52,-551.92 179.82,-558.8"/>
</g>
<!-- c14 -->
<g id="node44" class="node">
<title>c14</title>
<polygon fill="none" stroke="black" points="189,-299.5 189,-437.5 384,-437.5 384,-299.5 189,-299.5"/>
<text text-anchor="middle" x="203.5" y="-422.3" font-family="Times,serif" font-size="14.00">A</text>
<polyline fill="none" stroke="black" points="189,-414.5 218,-414.5 "/>
<text text-anchor="middle" x="203.5" y="-399.3" font-family="Times,serif" font-size="14.00">B</text>
<polyline fill="none" stroke="black" points="189,-391.5 218,-391.5 "/>
<text text-anchor="middle" x="203.5" y="-376.3" font-family="Times,serif" font-size="14.00">C</text>
<polyline fill="none" stroke="black" points="189,-368.5 218,-368.5 "/>
<text text-anchor="middle" x="203.5" y="-353.3" font-family="Times,serif" font-size="14.00">D</text>
<polyline fill="none" stroke="black" points="189,-345.5 218,-345.5 "/>
<text text-anchor="middle" x="203.5" y="-330.3" font-family="Times,serif" font-size="14.00">s0</text>
<polyline fill="none" stroke="black" points="189,-322.5 218,-322.5 "/>
<text text-anchor="middle" x="203.5" y="-307.3" font-family="Times,serif" font-size="14.00">s1</text>
<polyline fill="none" stroke="black" points="218,-299.5 218,-437.5 "/>
<text text-anchor="middle" x="284" y="-372.3" font-family="Times,serif" font-size="14.00">mux_4x1[6].mx_inst</text>
<text text-anchor="middle" x="284" y="-357.3" font-family="Times,serif" font-size="14.00">mux_4x1</text>
<polyline fill="none" stroke="black" points="350,-299.5 350,-437.5 "/>
<text text-anchor="middle" x="367" y="-364.8" font-family="Times,serif" font-size="14.00">out</text>
</g>
<!-- n6&#45;&gt;c14 -->
<g id="edge85" class="edge">
<title>n6:e&#45;&gt;c14:w</title>
<path fill="none" stroke="black" d="M149.5,-975.5C217.48,-975.5 127.22,-394.66 179.74,-337.94"/>
<polygon fill="black" stroke="black" points="181.5,-340.98 189,-333.5 178.47,-334.67 181.5,-340.98"/>
</g>
<!-- c15 -->
<g id="node50" class="node">
<title>c15</title>
<polygon fill="none" stroke="black" points="189,-79.5 189,-217.5 384,-217.5 384,-79.5 189,-79.5"/>
<text text-anchor="middle" x="203.5" y="-202.3" font-family="Times,serif" font-size="14.00">A</text>
<polyline fill="none" stroke="black" points="189,-194.5 218,-194.5 "/>
<text text-anchor="middle" x="203.5" y="-179.3" font-family="Times,serif" font-size="14.00">B</text>
<polyline fill="none" stroke="black" points="189,-171.5 218,-171.5 "/>
<text text-anchor="middle" x="203.5" y="-156.3" font-family="Times,serif" font-size="14.00">C</text>
<polyline fill="none" stroke="black" points="189,-148.5 218,-148.5 "/>
<text text-anchor="middle" x="203.5" y="-133.3" font-family="Times,serif" font-size="14.00">D</text>
<polyline fill="none" stroke="black" points="189,-125.5 218,-125.5 "/>
<text text-anchor="middle" x="203.5" y="-110.3" font-family="Times,serif" font-size="14.00">s0</text>
<polyline fill="none" stroke="black" points="189,-102.5 218,-102.5 "/>
<text text-anchor="middle" x="203.5" y="-87.3" font-family="Times,serif" font-size="14.00">s1</text>
<polyline fill="none" stroke="black" points="218,-79.5 218,-217.5 "/>
<text text-anchor="middle" x="284" y="-152.3" font-family="Times,serif" font-size="14.00">mux_4x1[7].mx_inst</text>
<text text-anchor="middle" x="284" y="-137.3" font-family="Times,serif" font-size="14.00">mux_4x1</text>
<polyline fill="none" stroke="black" points="350,-79.5 350,-217.5 "/>
<text text-anchor="middle" x="367" y="-144.8" font-family="Times,serif" font-size="14.00">out</text>
</g>
<!-- n6&#45;&gt;c15 -->
<g id="edge86" class="edge">
<title>n6:e&#45;&gt;c15:w</title>
<path fill="none" stroke="black" d="M149.5,-975.5C241.82,-975.5 104.08,-176.29 179.33,-116.97"/>
<polygon fill="black" stroke="black" points="180.77,-120.17 189,-113.5 178.41,-113.58 180.77,-120.17"/>
</g>
<!-- n7 -->
<g id="node7" class="node">
<title>n7</title>
<polygon fill="none" stroke="black" points="148.5,-914.04 148.5,-928.96 132.68,-939.5 110.32,-939.5 94.5,-928.96 94.5,-914.04 110.32,-903.5 132.68,-903.5 148.5,-914.04"/>
<text text-anchor="middle" x="121.5" y="-917.8" font-family="Times,serif" font-size="14.00">s1</text>
</g>
<!-- n7&#45;&gt;c8 -->
<g id="edge95" class="edge">
<title>n7:e&#45;&gt;c8:w</title>
<path fill="none" stroke="black" d="M149.5,-921.5C226.5,-921.5 118.61,-1583.7 179.72,-1640.61"/>
<polygon fill="black" stroke="black" points="178.42,-1643.86 189,-1644.5 181.13,-1637.41 178.42,-1643.86"/>
</g>
<!-- n7&#45;&gt;c9 -->
<g id="edge96" class="edge">
<title>n7:e&#45;&gt;c9:w</title>
<path fill="none" stroke="black" d="M149.5,-921.5C202.17,-921.5 141.26,-1365.43 180.18,-1419.19"/>
<polygon fill="black" stroke="black" points="178.63,-1422.34 189,-1424.5 182.24,-1416.35 178.63,-1422.34"/>
</g>
<!-- n7&#45;&gt;c10 -->
<g id="edge89" class="edge">
<title>n7:e&#45;&gt;c10:w</title>
<path fill="none" stroke="black" d="M149.5,-921.5C209.28,-921.5 135.24,-1172.31 179.33,-1201.7"/>
<polygon fill="black" stroke="black" points="178.42,-1205.08 189,-1204.5 180.37,-1198.36 178.42,-1205.08"/>
</g>
<!-- n7&#45;&gt;c11 -->
<g id="edge90" class="edge">
<title>n7:e&#45;&gt;c11:w</title>
<path fill="none" stroke="black" d="M149.5,-921.5C178.42,-921.5 161.67,-969.73 179.17,-981.79"/>
<polygon fill="black" stroke="black" points="178.43,-985.22 189,-984.5 180.29,-978.47 178.43,-985.22"/>
</g>
<!-- n7&#45;&gt;c12 -->
<g id="edge91" class="edge">
<title>n7:e&#45;&gt;c12:w</title>
<path fill="none" stroke="black" d="M149.5,-921.5C223.69,-921.5 121.91,-766.79 178.92,-751.68"/>
<polygon fill="black" stroke="black" points="179.48,-755.14 189,-750.5 178.66,-748.19 179.48,-755.14"/>
</g>
<!-- n7&#45;&gt;c13 -->
<g id="edge92" class="edge">
<title>n7:e&#45;&gt;c13:w</title>
<path fill="none" stroke="black" d="M149.5,-921.5C233.08,-921.5 112.87,-563.38 178.94,-532.6"/>
<polygon fill="black" stroke="black" points="179.93,-535.97 189,-530.5 178.5,-529.12 179.93,-535.97"/>
</g>
<!-- n7&#45;&gt;c14 -->
<g id="edge93" class="edge">
<title>n7:e&#45;&gt;c14:w</title>
<path fill="none" stroke="black" d="M149.5,-921.5C214.08,-921.5 130.35,-370.98 179.87,-315.07"/>
<polygon fill="black" stroke="black" points="181.62,-318.1 189,-310.5 178.49,-311.84 181.62,-318.1"/>
</g>
<!-- n7&#45;&gt;c15 -->
<g id="edge94" class="edge">
<title>n7:e&#45;&gt;c15:w</title>
<path fill="none" stroke="black" d="M149.5,-921.5C238.33,-921.5 107.56,-154.15 179.23,-94.2"/>
<polygon fill="black" stroke="black" points="180.89,-97.32 189,-90.5 178.41,-90.77 180.89,-97.32"/>
</g>
<!-- x4 -->
<g id="node13" class="node">
<title>x4</title>
<path fill="none" stroke="black" d="M432,-1573.5C432,-1573.5 471,-1573.5 471,-1573.5 477,-1573.5 483,-1579.5 483,-1585.5 483,-1585.5 483,-1597.5 483,-1597.5 483,-1603.5 477,-1609.5 471,-1609.5 471,-1609.5 432,-1609.5 432,-1609.5 426,-1609.5 420,-1603.5 420,-1597.5 420,-1597.5 420,-1585.5 420,-1585.5 420,-1579.5 426,-1573.5 432,-1573.5"/>
<text text-anchor="middle" x="451.5" y="-1587.8" font-family="Times,serif" font-size="14.00">0:0 &#45; 0:0</text>
</g>
<!-- c8&#45;&gt;x4 -->
<g id="edge5" class="edge">
<title>c8:e&#45;&gt;x4:w</title>
<path fill="none" stroke="black" d="M396,-1699.53C420.85,-1683.74 383,-1609.76 408.24,-1594.32"/>
<polygon fill="none" stroke="black" points="395.65,-1699.62 390.79,-1704.94 384,-1702.5 388.86,-1697.18 395.65,-1699.62"/>
<polygon fill="none" stroke="black" points="408.33,-1594.3 413.23,-1589.01 420,-1591.5 415.1,-1596.79 408.33,-1594.3"/>
</g>
<!-- x0&#45;&gt;c8 -->
<g id="edge1" class="edge">
<title>x0:e&#45;&gt;c8:w</title>
<path fill="none" stroke="black" d="M164.8,-1852.12C184.34,-1837.31 157.56,-1778.27 177.38,-1763.74"/>
<polygon fill="none" stroke="black" points="164.54,-1852.2 159.87,-1857.69 153,-1855.5 157.67,-1850 164.54,-1852.2"/>
<polygon fill="none" stroke="black" points="177.44,-1763.73 182.15,-1758.26 189,-1760.5 184.3,-1765.97 177.44,-1763.73"/>
</g>
<!-- x1&#45;&gt;c8 -->
<g id="edge2" class="edge">
<title>x1:e&#45;&gt;c8:w</title>
<path fill="none" stroke="black" d="M164.5,-1795.97C174.99,-1784.35 167.01,-1753.57 177.53,-1741.99"/>
<polygon fill="none" stroke="black" points="164.17,-1796.1 160.05,-1802.02 153,-1800.5 157.12,-1794.58 164.17,-1796.1"/>
<polygon fill="none" stroke="black" points="177.83,-1741.88 181.95,-1735.96 189,-1737.5 184.87,-1743.41 177.83,-1741.88"/>
</g>
<!-- x2&#45;&gt;c8 -->
<g id="edge3" class="edge">
<title>x2:e&#45;&gt;c8:w</title>
<path fill="none" stroke="black" d="M164.31,-1740.93C169.95,-1735.13 171.93,-1725.19 177.48,-1719.3"/>
<polygon fill="none" stroke="black" points="164.12,-1741 160.06,-1746.96 153,-1745.5 157.06,-1739.54 164.12,-1741"/>
<polygon fill="none" stroke="black" points="177.92,-1719.11 181.92,-1713.11 189,-1714.5 185,-1720.5 177.92,-1719.11"/>
</g>
<!-- x3&#45;&gt;c8 -->
<g id="edge4" class="edge">
<title>x3:e&#45;&gt;c8:w</title>
<path fill="none" stroke="black" d="M165.22,-1690.5C169.29,-1690.5 172.73,-1690.5 176.81,-1690.5"/>
<polygon fill="none" stroke="black" points="165,-1690.5 159,-1694.5 153,-1690.5 159,-1686.5 165,-1690.5"/>
<polygon fill="none" stroke="black" points="177,-1690.5 183,-1686.5 189,-1690.5 183,-1694.5 177,-1690.5"/>
</g>
<!-- x4&#45;&gt;n5 -->
<g id="edge79" class="edge">
<title>x4:e&#45;&gt;n5:w</title>
<path fill="none" stroke="black" d="M483,-1591.5C553.63,-1591.5 455,-986.47 509.77,-929.75"/>
<polygon fill="black" stroke="black" points="511.38,-932.86 519,-925.5 508.45,-926.51 511.38,-932.86"/>
</g>
<!-- x9 -->
<g id="node19" class="node">
<title>x9</title>
<path fill="none" stroke="black" d="M432,-1362.5C432,-1362.5 471,-1362.5 471,-1362.5 477,-1362.5 483,-1368.5 483,-1374.5 483,-1374.5 483,-1386.5 483,-1386.5 483,-1392.5 477,-1398.5 471,-1398.5 471,-1398.5 432,-1398.5 432,-1398.5 426,-1398.5 420,-1392.5 420,-1386.5 420,-1386.5 420,-1374.5 420,-1374.5 420,-1368.5 426,-1362.5 432,-1362.5"/>
<text text-anchor="middle" x="451.5" y="-1376.8" font-family="Times,serif" font-size="14.00">0:0 &#45; 1:1</text>
</g>
<!-- c9&#45;&gt;x9 -->
<g id="edge10" class="edge">
<title>c9:e&#45;&gt;x9:w</title>
<path fill="none" stroke="black" d="M395.85,-1479.34C417.69,-1464.14 386.28,-1398.75 408.2,-1383.63"/>
<polygon fill="none" stroke="black" points="395.59,-1479.4 390.83,-1484.82 384,-1482.5 388.77,-1477.09 395.59,-1479.4"/>
<polygon fill="none" stroke="black" points="408.4,-1383.57 413.18,-1378.17 420,-1380.5 415.23,-1385.9 408.4,-1383.57"/>
</g>
<!-- x5&#45;&gt;c9 -->
<g id="edge6" class="edge">
<title>x5:e&#45;&gt;c9:w</title>
<path fill="none" stroke="black" d="M164.8,-1632.12C184.34,-1617.31 157.56,-1558.27 177.38,-1543.74"/>
<polygon fill="none" stroke="black" points="164.54,-1632.2 159.87,-1637.69 153,-1635.5 157.67,-1630 164.54,-1632.2"/>
<polygon fill="none" stroke="black" points="177.44,-1543.73 182.15,-1538.26 189,-1540.5 184.3,-1545.97 177.44,-1543.73"/>
</g>
<!-- x6&#45;&gt;c9 -->
<g id="edge7" class="edge">
<title>x6:e&#45;&gt;c9:w</title>
<path fill="none" stroke="black" d="M164.5,-1575.97C174.99,-1564.35 167.01,-1533.57 177.53,-1521.99"/>
<polygon fill="none" stroke="black" points="164.17,-1576.1 160.05,-1582.02 153,-1580.5 157.12,-1574.58 164.17,-1576.1"/>
<polygon fill="none" stroke="black" points="177.83,-1521.88 181.95,-1515.96 189,-1517.5 184.87,-1523.41 177.83,-1521.88"/>
</g>
<!-- x7&#45;&gt;c9 -->
<g id="edge8" class="edge">
<title>x7:e&#45;&gt;c9:w</title>
<path fill="none" stroke="black" d="M164.31,-1520.93C169.95,-1515.13 171.93,-1505.19 177.48,-1499.3"/>
<polygon fill="none" stroke="black" points="164.12,-1521 160.06,-1526.96 153,-1525.5 157.06,-1519.54 164.12,-1521"/>
<polygon fill="none" stroke="black" points="177.92,-1499.11 181.92,-1493.11 189,-1494.5 185,-1500.5 177.92,-1499.11"/>
</g>
<!-- x8&#45;&gt;c9 -->
<g id="edge9" class="edge">
<title>x8:e&#45;&gt;c9:w</title>
<path fill="none" stroke="black" d="M165.22,-1470.5C169.29,-1470.5 172.73,-1470.5 176.81,-1470.5"/>
<polygon fill="none" stroke="black" points="165,-1470.5 159,-1474.5 153,-1470.5 159,-1466.5 165,-1470.5"/>
<polygon fill="none" stroke="black" points="177,-1470.5 183,-1466.5 189,-1470.5 183,-1474.5 177,-1470.5"/>
</g>
<!-- x9&#45;&gt;n5 -->
<g id="edge80" class="edge">
<title>x9:e&#45;&gt;n5:w</title>
<path fill="none" stroke="black" d="M483,-1380.5C580.66,-1380.5 429.59,-958.64 508.79,-927.33"/>
<polygon fill="black" stroke="black" points="509.78,-930.71 519,-925.5 508.54,-923.82 509.78,-930.71"/>
</g>
<!-- x14 -->
<g id="node25" class="node">
<title>x14</title>
<path fill="none" stroke="black" d="M432,-1161.5C432,-1161.5 471,-1161.5 471,-1161.5 477,-1161.5 483,-1167.5 483,-1173.5 483,-1173.5 483,-1185.5 483,-1185.5 483,-1191.5 477,-1197.5 471,-1197.5 471,-1197.5 432,-1197.5 432,-1197.5 426,-1197.5 420,-1191.5 420,-1185.5 420,-1185.5 420,-1173.5 420,-1173.5 420,-1167.5 426,-1161.5 432,-1161.5"/>
<text text-anchor="middle" x="451.5" y="-1175.8" font-family="Times,serif" font-size="14.00">0:0 &#45; 2:2</text>
</g>
<!-- c10&#45;&gt;x14 -->
<g id="edge15" class="edge">
<title>c10:e&#45;&gt;x14:w</title>
<path fill="none" stroke="black" d="M395.94,-1258.5C411.24,-1244.38 392.64,-1197.02 408.32,-1183.27"/>
<polygon fill="none" stroke="black" points="395.38,-1258.69 390.96,-1264.38 384,-1262.5 388.42,-1256.8 395.38,-1258.69"/>
<polygon fill="none" stroke="black" points="408.58,-1183.19 413.06,-1177.54 420,-1179.5 415.52,-1185.15 408.58,-1183.19"/>
</g>
<!-- x10&#45;&gt;c10 -->
<g id="edge11" class="edge">
<title>x10:e&#45;&gt;c10:w</title>
<path fill="none" stroke="black" d="M164.8,-1412.12C184.34,-1397.31 157.56,-1338.27 177.38,-1323.74"/>
<polygon fill="none" stroke="black" points="164.54,-1412.2 159.87,-1417.69 153,-1415.5 157.67,-1410 164.54,-1412.2"/>
<polygon fill="none" stroke="black" points="177.44,-1323.73 182.15,-1318.26 189,-1320.5 184.3,-1325.97 177.44,-1323.73"/>
</g>
<!-- x11&#45;&gt;c10 -->
<g id="edge12" class="edge">
<title>x11:e&#45;&gt;c10:w</title>
<path fill="none" stroke="black" d="M164.5,-1355.97C174.99,-1344.35 167.01,-1313.57 177.53,-1301.99"/>
<polygon fill="none" stroke="black" points="164.17,-1356.1 160.05,-1362.02 153,-1360.5 157.12,-1354.58 164.17,-1356.1"/>
<polygon fill="none" stroke="black" points="177.83,-1301.88 181.95,-1295.96 189,-1297.5 184.87,-1303.41 177.83,-1301.88"/>
</g>
<!-- x12&#45;&gt;c10 -->
<g id="edge13" class="edge">
<title>x12:e&#45;&gt;c10:w</title>
<path fill="none" stroke="black" d="M164.31,-1300.93C169.95,-1295.13 171.93,-1285.19 177.48,-1279.3"/>
<polygon fill="none" stroke="black" points="164.12,-1301 160.06,-1306.96 153,-1305.5 157.06,-1299.54 164.12,-1301"/>
<polygon fill="none" stroke="black" points="177.92,-1279.11 181.92,-1273.11 189,-1274.5 185,-1280.5 177.92,-1279.11"/>
</g>
<!-- x13&#45;&gt;c10 -->
<g id="edge14" class="edge">
<title>x13:e&#45;&gt;c10:w</title>
<path fill="none" stroke="black" d="M165.22,-1250.5C169.29,-1250.5 172.73,-1250.5 176.81,-1250.5"/>
<polygon fill="none" stroke="black" points="165,-1250.5 159,-1254.5 153,-1250.5 159,-1246.5 165,-1250.5"/>
<polygon fill="none" stroke="black" points="177,-1250.5 183,-1246.5 189,-1250.5 183,-1254.5 177,-1250.5"/>
</g>
<!-- x14&#45;&gt;n5 -->
<g id="edge73" class="edge">
<title>x14:e&#45;&gt;n5:w</title>
<path fill="none" stroke="black" d="M483,-1179.5C536.22,-1179.5 471.76,-958.11 509.35,-928.71"/>
<polygon fill="black" stroke="black" points="510.62,-931.98 519,-925.5 508.41,-925.34 510.62,-931.98"/>
</g>
<!-- x19 -->
<g id="node31" class="node">
<title>x19</title>
<path fill="none" stroke="black" d="M432,-979.5C432,-979.5 471,-979.5 471,-979.5 477,-979.5 483,-985.5 483,-991.5 483,-991.5 483,-1003.5 483,-1003.5 483,-1009.5 477,-1015.5 471,-1015.5 471,-1015.5 432,-1015.5 432,-1015.5 426,-1015.5 420,-1009.5 420,-1003.5 420,-1003.5 420,-991.5 420,-991.5 420,-985.5 426,-979.5 432,-979.5"/>
<text text-anchor="middle" x="451.5" y="-993.8" font-family="Times,serif" font-size="14.00">0:0 &#45; 3:3</text>
</g>
<!-- c11&#45;&gt;x19 -->
<g id="edge20" class="edge">
<title>c11:e&#45;&gt;x19:w</title>
<path fill="none" stroke="black" d="M395.24,-1037.68C402.64,-1028.98 401.39,-1010.73 408.91,-1002.15"/>
<polygon fill="none" stroke="black" points="395.03,-1037.77 391.09,-1043.81 384,-1042.5 387.94,-1036.46 395.03,-1037.77"/>
<polygon fill="none" stroke="black" points="408.93,-1002.14 412.92,-996.13 420,-997.5 416.01,-1003.51 408.93,-1002.14"/>
</g>
<!-- x15&#45;&gt;c11 -->
<g id="edge16" class="edge">
<title>x15:e&#45;&gt;c11:w</title>
<path fill="none" stroke="black" d="M164.8,-1192.12C184.34,-1177.31 157.56,-1118.27 177.38,-1103.74"/>
<polygon fill="none" stroke="black" points="164.54,-1192.2 159.87,-1197.69 153,-1195.5 157.67,-1190 164.54,-1192.2"/>
<polygon fill="none" stroke="black" points="177.44,-1103.73 182.15,-1098.26 189,-1100.5 184.3,-1105.97 177.44,-1103.73"/>
</g>
<!-- x16&#45;&gt;c11 -->
<g id="edge17" class="edge">
<title>x16:e&#45;&gt;c11:w</title>
<path fill="none" stroke="black" d="M164.5,-1135.97C174.99,-1124.35 167.01,-1093.57 177.53,-1081.99"/>
<polygon fill="none" stroke="black" points="164.17,-1136.1 160.05,-1142.02 153,-1140.5 157.12,-1134.58 164.17,-1136.1"/>
<polygon fill="none" stroke="black" points="177.83,-1081.88 181.95,-1075.96 189,-1077.5 184.87,-1083.41 177.83,-1081.88"/>
</g>
<!-- x17&#45;&gt;c11 -->
<g id="edge18" class="edge">
<title>x17:e&#45;&gt;c11:w</title>
<path fill="none" stroke="black" d="M164.31,-1080.93C169.95,-1075.13 171.93,-1065.19 177.48,-1059.3"/>
<polygon fill="none" stroke="black" points="164.12,-1081 160.06,-1086.96 153,-1085.5 157.06,-1079.54 164.12,-1081"/>
<polygon fill="none" stroke="black" points="177.92,-1059.11 181.92,-1053.11 189,-1054.5 185,-1060.5 177.92,-1059.11"/>
</g>
<!-- x18&#45;&gt;c11 -->
<g id="edge19" class="edge">
<title>x18:e&#45;&gt;c11:w</title>
<path fill="none" stroke="black" d="M165.22,-1030.5C169.29,-1030.5 172.73,-1030.5 176.81,-1030.5"/>
<polygon fill="none" stroke="black" points="165,-1030.5 159,-1034.5 153,-1030.5 159,-1026.5 165,-1030.5"/>
<polygon fill="none" stroke="black" points="177,-1030.5 183,-1026.5 189,-1030.5 183,-1034.5 177,-1030.5"/>
</g>
<!-- x19&#45;&gt;n5 -->
<g id="edge74" class="edge">
<title>x19:e&#45;&gt;n5:w</title>
<path fill="none" stroke="black" d="M483,-997.5C514.58,-997.5 490.58,-941.39 509.13,-928.23"/>
<polygon fill="black" stroke="black" points="510.3,-931.54 519,-925.5 508.43,-924.8 510.3,-931.54"/>
</g>
<!-- x24 -->
<g id="node37" class="node">
<title>x24</title>
<path fill="none" stroke="black" d="M432,-835.5C432,-835.5 471,-835.5 471,-835.5 477,-835.5 483,-841.5 483,-847.5 483,-847.5 483,-859.5 483,-859.5 483,-865.5 477,-871.5 471,-871.5 471,-871.5 432,-871.5 432,-871.5 426,-871.5 420,-865.5 420,-859.5 420,-859.5 420,-847.5 420,-847.5 420,-841.5 426,-835.5 432,-835.5"/>
<text text-anchor="middle" x="451.5" y="-849.8" font-family="Times,serif" font-size="14.00">0:0 &#45; 4:4</text>
</g>
<!-- c12&#45;&gt;x24 -->
<g id="edge25" class="edge">
<title>c12:e&#45;&gt;x24:w</title>
<path fill="none" stroke="black" d="M395.24,-813.32C402.64,-822.02 401.39,-840.27 408.91,-848.85"/>
<polygon fill="none" stroke="black" points="395.03,-813.23 387.94,-814.54 384,-808.5 391.09,-807.19 395.03,-813.23"/>
<polygon fill="none" stroke="black" points="408.93,-848.86 416.01,-847.49 420,-853.5 412.92,-854.87 408.93,-848.86"/>
</g>
<!-- x20&#45;&gt;c12 -->
<g id="edge21" class="edge">
<title>x20:e&#45;&gt;c12:w</title>
<path fill="none" stroke="black" d="M165.22,-866.5C169.29,-866.5 172.73,-866.5 176.81,-866.5"/>
<polygon fill="none" stroke="black" points="165,-866.5 159,-870.5 153,-866.5 159,-862.5 165,-866.5"/>
<polygon fill="none" stroke="black" points="177,-866.5 183,-862.5 189,-866.5 183,-870.5 177,-866.5"/>
</g>
<!-- x21&#45;&gt;c12 -->
<g id="edge22" class="edge">
<title>x21:e&#45;&gt;c12:w</title>
<path fill="none" stroke="black" d="M164.39,-816.22C170.15,-822.34 171.95,-832.94 177.79,-838.97"/>
<polygon fill="none" stroke="black" points="164.09,-816.1 157.01,-817.49 153,-811.5 160.07,-810.1 164.09,-816.1"/>
<polygon fill="none" stroke="black" points="177.88,-839 184.94,-837.54 189,-843.5 181.94,-844.96 177.88,-839"/>
</g>
<!-- x22&#45;&gt;c12 -->
<g id="edge23" class="edge">
<title>x22:e&#45;&gt;c12:w</title>
<path fill="none" stroke="black" d="M164.61,-761.1C175.24,-773.03 166.69,-804.79 177.74,-816.28"/>
<polygon fill="none" stroke="black" points="164.16,-760.92 157.1,-762.43 153,-756.5 160.05,-754.99 164.16,-760.92"/>
<polygon fill="none" stroke="black" points="177.76,-816.29 184.79,-814.65 189,-820.5 181.98,-822.14 177.76,-816.29"/>
</g>
<!-- x23&#45;&gt;c12 -->
<g id="edge24" class="edge">
<title>x23:e&#45;&gt;c12:w</title>
<path fill="none" stroke="black" d="M164.8,-704.88C184.34,-719.69 157.56,-778.73 177.38,-793.26"/>
<polygon fill="none" stroke="black" points="164.54,-704.8 157.67,-707 153,-701.5 159.87,-699.31 164.54,-704.8"/>
<polygon fill="none" stroke="black" points="177.44,-793.27 184.3,-791.03 189,-796.5 182.15,-798.74 177.44,-793.27"/>
</g>
<!-- x24&#45;&gt;n5 -->
<g id="edge75" class="edge">
<title>x24:e&#45;&gt;n5:w</title>
<path fill="none" stroke="black" d="M483,-853.5C514.58,-853.5 490.58,-909.61 509.13,-922.77"/>
<polygon fill="black" stroke="black" points="508.43,-926.2 519,-925.5 510.3,-919.46 508.43,-926.2"/>
</g>
<!-- x29 -->
<g id="node43" class="node">
<title>x29</title>
<path fill="none" stroke="black" d="M432,-675.5C432,-675.5 471,-675.5 471,-675.5 477,-675.5 483,-681.5 483,-687.5 483,-687.5 483,-699.5 483,-699.5 483,-705.5 477,-711.5 471,-711.5 471,-711.5 432,-711.5 432,-711.5 426,-711.5 420,-705.5 420,-699.5 420,-699.5 420,-687.5 420,-687.5 420,-681.5 426,-675.5 432,-675.5"/>
<text text-anchor="middle" x="451.5" y="-689.8" font-family="Times,serif" font-size="14.00">0:0 &#45; 5:5</text>
</g>
<!-- c13&#45;&gt;x29 -->
<g id="edge30" class="edge">
<title>c13:e&#45;&gt;x29:w</title>
<path fill="none" stroke="black" d="M395.8,-591.53C418.82,-606.79 385.19,-675.16 408.18,-690.46"/>
<polygon fill="none" stroke="black" points="395.62,-591.48 388.82,-593.87 384,-588.5 390.81,-586.12 395.62,-591.48"/>
<polygon fill="none" stroke="black" points="408.38,-690.51 415.19,-688.13 420,-693.5 413.19,-695.88 408.38,-690.51"/>
</g>
<!-- x25&#45;&gt;c13 -->
<g id="edge26" class="edge">
<title>x25:e&#45;&gt;c13:w</title>
<path fill="none" stroke="black" d="M165.22,-646.5C169.29,-646.5 172.73,-646.5 176.81,-646.5"/>
<polygon fill="none" stroke="black" points="165,-646.5 159,-650.5 153,-646.5 159,-642.5 165,-646.5"/>
<polygon fill="none" stroke="black" points="177,-646.5 183,-642.5 189,-646.5 183,-650.5 177,-646.5"/>
</g>
<!-- x26&#45;&gt;c13 -->
<g id="edge27" class="edge">
<title>x26:e&#45;&gt;c13:w</title>
<path fill="none" stroke="black" d="M164.39,-596.22C170.15,-602.34 171.95,-612.94 177.79,-618.97"/>
<polygon fill="none" stroke="black" points="164.09,-596.1 157.01,-597.49 153,-591.5 160.07,-590.1 164.09,-596.1"/>
<polygon fill="none" stroke="black" points="177.88,-619 184.94,-617.54 189,-623.5 181.94,-624.96 177.88,-619"/>
</g>
<!-- x27&#45;&gt;c13 -->
<g id="edge28" class="edge">
<title>x27:e&#45;&gt;c13:w</title>
<path fill="none" stroke="black" d="M164.61,-541.1C175.24,-553.03 166.69,-584.79 177.74,-596.28"/>
<polygon fill="none" stroke="black" points="164.16,-540.92 157.1,-542.43 153,-536.5 160.05,-534.99 164.16,-540.92"/>
<polygon fill="none" stroke="black" points="177.76,-596.29 184.79,-594.65 189,-600.5 181.98,-602.14 177.76,-596.29"/>
</g>
<!-- x28&#45;&gt;c13 -->
<g id="edge29" class="edge">
<title>x28:e&#45;&gt;c13:w</title>
<path fill="none" stroke="black" d="M164.8,-484.88C184.34,-499.69 157.56,-558.73 177.38,-573.26"/>
<polygon fill="none" stroke="black" points="164.54,-484.8 157.67,-487 153,-481.5 159.87,-479.31 164.54,-484.8"/>
<polygon fill="none" stroke="black" points="177.44,-573.27 184.3,-571.03 189,-576.5 182.15,-578.74 177.44,-573.27"/>
</g>
<!-- x29&#45;&gt;n5 -->
<g id="edge76" class="edge">
<title>x29:e&#45;&gt;n5:w</title>
<path fill="none" stroke="black" d="M483,-693.5C583.68,-693.5 426.45,-909.47 509,-924.66"/>
<polygon fill="black" stroke="black" points="508.74,-928.15 519,-925.5 509.33,-921.18 508.74,-928.15"/>
</g>
<!-- x34 -->
<g id="node49" class="node">
<title>x34</title>
<path fill="none" stroke="black" d="M432,-485.5C432,-485.5 471,-485.5 471,-485.5 477,-485.5 483,-491.5 483,-497.5 483,-497.5 483,-509.5 483,-509.5 483,-515.5 477,-521.5 471,-521.5 471,-521.5 432,-521.5 432,-521.5 426,-521.5 420,-515.5 420,-509.5 420,-509.5 420,-497.5 420,-497.5 420,-491.5 426,-485.5 432,-485.5"/>
<text text-anchor="middle" x="451.5" y="-499.8" font-family="Times,serif" font-size="14.00">0:0 &#45; 6:6</text>
</g>
<!-- c14&#45;&gt;x34 -->
<g id="edge35" class="edge">
<title>c14:e&#45;&gt;x34:w</title>
<path fill="none" stroke="black" d="M395.95,-370.84C430.03,-387.23 374.07,-484.5 407.92,-501.09"/>
<polygon fill="none" stroke="black" points="395.78,-370.81 389.12,-373.58 384,-368.5 390.66,-365.73 395.78,-370.81"/>
<polygon fill="none" stroke="black" points="408.23,-501.15 414.9,-498.4 420,-503.5 413.33,-506.25 408.23,-501.15"/>
</g>
<!-- x30&#45;&gt;c14 -->
<g id="edge31" class="edge">
<title>x30:e&#45;&gt;c14:w</title>
<path fill="none" stroke="black" d="M165.22,-426.5C169.29,-426.5 172.73,-426.5 176.81,-426.5"/>
<polygon fill="none" stroke="black" points="165,-426.5 159,-430.5 153,-426.5 159,-422.5 165,-426.5"/>
<polygon fill="none" stroke="black" points="177,-426.5 183,-422.5 189,-426.5 183,-430.5 177,-426.5"/>
</g>
<!-- x31&#45;&gt;c14 -->
<g id="edge32" class="edge">
<title>x31:e&#45;&gt;c14:w</title>
<path fill="none" stroke="black" d="M164.39,-376.22C170.15,-382.34 171.95,-392.94 177.79,-398.97"/>
<polygon fill="none" stroke="black" points="164.09,-376.1 157.01,-377.49 153,-371.5 160.07,-370.1 164.09,-376.1"/>
<polygon fill="none" stroke="black" points="177.88,-399 184.94,-397.54 189,-403.5 181.94,-404.96 177.88,-399"/>
</g>
<!-- x32&#45;&gt;c14 -->
<g id="edge33" class="edge">
<title>x32:e&#45;&gt;c14:w</title>
<path fill="none" stroke="black" d="M164.61,-321.1C175.24,-333.03 166.69,-364.79 177.74,-376.28"/>
<polygon fill="none" stroke="black" points="164.16,-320.92 157.1,-322.43 153,-316.5 160.05,-314.99 164.16,-320.92"/>
<polygon fill="none" stroke="black" points="177.76,-376.29 184.79,-374.65 189,-380.5 181.98,-382.14 177.76,-376.29"/>
</g>
<!-- x33&#45;&gt;c14 -->
<g id="edge34" class="edge">
<title>x33:e&#45;&gt;c14:w</title>
<path fill="none" stroke="black" d="M164.8,-264.88C184.34,-279.69 157.56,-338.73 177.38,-353.26"/>
<polygon fill="none" stroke="black" points="164.54,-264.8 157.67,-267 153,-261.5 159.87,-259.31 164.54,-264.8"/>
<polygon fill="none" stroke="black" points="177.44,-353.27 184.3,-351.03 189,-356.5 182.15,-358.74 177.44,-353.27"/>
</g>
<!-- x34&#45;&gt;n5 -->
<g id="edge77" class="edge">
<title>x34:e&#45;&gt;n5:w</title>
<path fill="none" stroke="black" d="M483,-503.5C573.44,-503.5 436.4,-893.18 509.07,-923.62"/>
<polygon fill="black" stroke="black" points="508.52,-927.08 519,-925.5 509.83,-920.2 508.52,-927.08"/>
</g>
<!-- x39 -->
<g id="node55" class="node">
<title>x39</title>
<path fill="none" stroke="black" d="M432,-348.5C432,-348.5 471,-348.5 471,-348.5 477,-348.5 483,-354.5 483,-360.5 483,-360.5 483,-372.5 483,-372.5 483,-378.5 477,-384.5 471,-384.5 471,-384.5 432,-384.5 432,-384.5 426,-384.5 420,-378.5 420,-372.5 420,-372.5 420,-360.5 420,-360.5 420,-354.5 426,-348.5 432,-348.5"/>
<text text-anchor="middle" x="451.5" y="-362.8" font-family="Times,serif" font-size="14.00">0:0 &#45; 7:7</text>
</g>
<!-- c15&#45;&gt;x39 -->
<g id="edge40" class="edge">
<title>c15:e&#45;&gt;x39:w</title>
<path fill="none" stroke="black" d="M396.16,-149.89C464.24,-167.55 339.7,-347.59 407.92,-365.13"/>
<polygon fill="none" stroke="black" points="395.92,-149.87 389.51,-153.16 384,-148.5 390.42,-145.21 395.92,-149.87"/>
<polygon fill="none" stroke="black" points="408.08,-365.15 414.49,-361.85 420,-366.5 413.59,-369.8 408.08,-365.15"/>
</g>
<!-- x35&#45;&gt;c15 -->
<g id="edge36" class="edge">
<title>x35:e&#45;&gt;c15:w</title>
<path fill="none" stroke="black" d="M165.22,-206.5C169.29,-206.5 172.73,-206.5 176.81,-206.5"/>
<polygon fill="none" stroke="black" points="165,-206.5 159,-210.5 153,-206.5 159,-202.5 165,-206.5"/>
<polygon fill="none" stroke="black" points="177,-206.5 183,-202.5 189,-206.5 183,-210.5 177,-206.5"/>
</g>
<!-- x36&#45;&gt;c15 -->
<g id="edge37" class="edge">
<title>x36:e&#45;&gt;c15:w</title>
<path fill="none" stroke="black" d="M164.39,-156.22C170.15,-162.34 171.95,-172.94 177.79,-178.97"/>
<polygon fill="none" stroke="black" points="164.09,-156.1 157.01,-157.49 153,-151.5 160.07,-150.1 164.09,-156.1"/>
<polygon fill="none" stroke="black" points="177.88,-179 184.94,-177.54 189,-183.5 181.94,-184.96 177.88,-179"/>
</g>
<!-- x37&#45;&gt;c15 -->
<g id="edge38" class="edge">
<title>x37:e&#45;&gt;c15:w</title>
<path fill="none" stroke="black" d="M164.61,-101.1C175.24,-113.03 166.69,-144.79 177.74,-156.28"/>
<polygon fill="none" stroke="black" points="164.16,-100.92 157.1,-102.43 153,-96.5 160.05,-94.99 164.16,-100.92"/>
<polygon fill="none" stroke="black" points="177.76,-156.29 184.79,-154.65 189,-160.5 181.98,-162.14 177.76,-156.29"/>
</g>
<!-- x38&#45;&gt;c15 -->
<g id="edge39" class="edge">
<title>x38:e&#45;&gt;c15:w</title>
<path fill="none" stroke="black" d="M164.8,-44.88C184.34,-59.69 157.56,-118.73 177.38,-133.26"/>
<polygon fill="none" stroke="black" points="164.54,-44.8 157.67,-47 153,-41.5 159.87,-39.31 164.54,-44.8"/>
<polygon fill="none" stroke="black" points="177.44,-133.27 184.3,-131.03 189,-136.5 182.15,-138.74 177.44,-133.27"/>
</g>
<!-- x39&#45;&gt;n5 -->
<g id="edge78" class="edge">
<title>x39:e&#45;&gt;n5:w</title>
<path fill="none" stroke="black" d="M483,-366.5C541.84,-366.5 465.99,-866.03 510.09,-920.67"/>
<polygon fill="black" stroke="black" points="508.54,-923.81 519,-925.5 511.88,-917.66 508.54,-923.81"/>
</g>
</g>
</svg>
