<?xml version="1.0" encoding="UTF-8" standalone="no"?>
<!DOCTYPE svg PUBLIC "-//W3C//DTD SVG 1.1//EN"
 "http://www.w3.org/Graphics/SVG/1.1/DTD/svg11.dtd">
<!-- Generated by graphviz version 2.43.0 (0)
 -->
<!-- Title: not8b Pages: 1 -->
<svg width="479pt" height="469pt"
 viewBox="0.00 0.00 479.00 469.00" xmlns="http://www.w3.org/2000/svg" xmlns:xlink="http://www.w3.org/1999/xlink">
<g id="page0,1_graph0" class="graph" transform="scale(1 1) rotate(0) translate(4 465)">
<title>not8b</title>
<polygon fill="white" stroke="transparent" points="-4,4 -4,-465 475,-465 475,4 -4,4"/>
<text text-anchor="middle" x="235.5" y="-7.8" font-family="Times,serif" font-size="14.00">not8b</text>
<!-- n1 -->
<g id="node1" class="node">
<title>n1</title>
<polygon fill="none" stroke="black" points="54,-234.04 54,-248.96 38.18,-259.5 15.82,-259.5 0,-248.96 0,-234.04 15.82,-223.5 38.18,-223.5 54,-234.04"/>
<text text-anchor="middle" x="27" y="-237.8" font-family="Times,serif" font-size="14.00">A</text>
</g>
<!-- x0 -->
<g id="node4" class="node">
<title>x0</title>
<path fill="none" stroke="black" d="M102,-421.5C102,-421.5 141,-421.5 141,-421.5 147,-421.5 153,-427.5 153,-433.5 153,-433.5 153,-445.5 153,-445.5 153,-451.5 147,-457.5 141,-457.5 141,-457.5 102,-457.5 102,-457.5 96,-457.5 90,-451.5 90,-445.5 90,-445.5 90,-433.5 90,-433.5 90,-427.5 96,-421.5 102,-421.5"/>
<text text-anchor="middle" x="121.5" y="-435.8" font-family="Times,serif" font-size="14.00">0:0 &#45; 0:0</text>
</g>
<!-- n1&#45;&gt;x0 -->
<g id="edge17" class="edge">
<title>n1:e&#45;&gt;x0:w</title>
<path fill="none" stroke="black" d="M54,-241.5C139.6,-241.5 12.41,-422.85 79.72,-438.43"/>
<polygon fill="black" stroke="black" points="79.69,-441.95 90,-439.5 80.41,-434.99 79.69,-441.95"/>
</g>
<!-- x2 -->
<g id="node7" class="node">
<title>x2</title>
<path fill="none" stroke="black" d="M102,-364.5C102,-364.5 141,-364.5 141,-364.5 147,-364.5 153,-370.5 153,-376.5 153,-376.5 153,-388.5 153,-388.5 153,-394.5 147,-400.5 141,-400.5 141,-400.5 102,-400.5 102,-400.5 96,-400.5 90,-394.5 90,-388.5 90,-388.5 90,-376.5 90,-376.5 90,-370.5 96,-364.5 102,-364.5"/>
<text text-anchor="middle" x="121.5" y="-378.8" font-family="Times,serif" font-size="14.00">1:1 &#45; 0:0</text>
</g>
<!-- n1&#45;&gt;x2 -->
<g id="edge21" class="edge">
<title>n1:e&#45;&gt;x2:w</title>
<path fill="none" stroke="black" d="M54,-241.5C114.76,-241.5 36.05,-365.94 79.92,-381.01"/>
<polygon fill="black" stroke="black" points="79.6,-384.5 90,-382.5 80.62,-377.58 79.6,-384.5"/>
</g>
<!-- x4 -->
<g id="node10" class="node">
<title>x4</title>
<path fill="none" stroke="black" d="M102,-307.5C102,-307.5 141,-307.5 141,-307.5 147,-307.5 153,-313.5 153,-319.5 153,-319.5 153,-331.5 153,-331.5 153,-337.5 147,-343.5 141,-343.5 141,-343.5 102,-343.5 102,-343.5 96,-343.5 90,-337.5 90,-331.5 90,-331.5 90,-319.5 90,-319.5 90,-313.5 96,-307.5 102,-307.5"/>
<text text-anchor="middle" x="121.5" y="-321.8" font-family="Times,serif" font-size="14.00">2:2 &#45; 0:0</text>
</g>
<!-- n1&#45;&gt;x4 -->
<g id="edge22" class="edge">
<title>n1:e&#45;&gt;x4:w</title>
<path fill="none" stroke="black" d="M54,-241.5C90.49,-241.5 57.69,-309.3 80.1,-323.08"/>
<polygon fill="black" stroke="black" points="79.45,-326.52 90,-325.5 81.12,-319.72 79.45,-326.52"/>
</g>
<!-- x6 -->
<g id="node13" class="node">
<title>x6</title>
<path fill="none" stroke="black" d="M102,-251.5C102,-251.5 141,-251.5 141,-251.5 147,-251.5 153,-257.5 153,-263.5 153,-263.5 153,-275.5 153,-275.5 153,-281.5 147,-287.5 141,-287.5 141,-287.5 102,-287.5 102,-287.5 96,-287.5 90,-281.5 90,-275.5 90,-275.5 90,-263.5 90,-263.5 90,-257.5 96,-251.5 102,-251.5"/>
<text text-anchor="middle" x="121.5" y="-265.8" font-family="Times,serif" font-size="14.00">3:3 &#45; 0:0</text>
</g>
<!-- n1&#45;&gt;x6 -->
<g id="edge23" class="edge">
<title>n1:e&#45;&gt;x6:w</title>
<path fill="none" stroke="black" d="M54,-241.5C70.15,-241.5 70.55,-259.28 80.3,-266.5"/>
<polygon fill="black" stroke="black" points="79.41,-269.89 90,-269.5 81.48,-263.2 79.41,-269.89"/>
</g>
<!-- x8 -->
<g id="node16" class="node">
<title>x8</title>
<path fill="none" stroke="black" d="M102,-196.5C102,-196.5 141,-196.5 141,-196.5 147,-196.5 153,-202.5 153,-208.5 153,-208.5 153,-220.5 153,-220.5 153,-226.5 147,-232.5 141,-232.5 141,-232.5 102,-232.5 102,-232.5 96,-232.5 90,-226.5 90,-220.5 90,-220.5 90,-208.5 90,-208.5 90,-202.5 96,-196.5 102,-196.5"/>
<text text-anchor="middle" x="121.5" y="-210.8" font-family="Times,serif" font-size="14.00">4:4 &#45; 0:0</text>
</g>
<!-- n1&#45;&gt;x8 -->
<g id="edge24" class="edge">
<title>n1:e&#45;&gt;x8:w</title>
<path fill="none" stroke="black" d="M54,-241.5C69.94,-241.5 70.63,-224.35 80.38,-217.39"/>
<polygon fill="black" stroke="black" points="81.43,-220.73 90,-214.5 79.42,-214.02 81.43,-220.73"/>
</g>
<!-- x10 -->
<g id="node19" class="node">
<title>x10</title>
<path fill="none" stroke="black" d="M102,-140.5C102,-140.5 141,-140.5 141,-140.5 147,-140.5 153,-146.5 153,-152.5 153,-152.5 153,-164.5 153,-164.5 153,-170.5 147,-176.5 141,-176.5 141,-176.5 102,-176.5 102,-176.5 96,-176.5 90,-170.5 90,-164.5 90,-164.5 90,-152.5 90,-152.5 90,-146.5 96,-140.5 102,-140.5"/>
<text text-anchor="middle" x="121.5" y="-154.8" font-family="Times,serif" font-size="14.00">5:5 &#45; 0:0</text>
</g>
<!-- n1&#45;&gt;x10 -->
<g id="edge18" class="edge">
<title>n1:e&#45;&gt;x10:w</title>
<path fill="none" stroke="black" d="M54,-241.5C90.13,-241.5 57.94,-174.5 80.19,-160.89"/>
<polygon fill="black" stroke="black" points="81.12,-164.27 90,-158.5 79.46,-157.47 81.12,-164.27"/>
</g>
<!-- x12 -->
<g id="node22" class="node">
<title>x12</title>
<path fill="none" stroke="black" d="M102,-84.5C102,-84.5 141,-84.5 141,-84.5 147,-84.5 153,-90.5 153,-96.5 153,-96.5 153,-108.5 153,-108.5 153,-114.5 147,-120.5 141,-120.5 141,-120.5 102,-120.5 102,-120.5 96,-120.5 90,-114.5 90,-108.5 90,-108.5 90,-96.5 90,-96.5 90,-90.5 96,-84.5 102,-84.5"/>
<text text-anchor="middle" x="121.5" y="-98.8" font-family="Times,serif" font-size="14.00">6:6 &#45; 0:0</text>
</g>
<!-- n1&#45;&gt;x12 -->
<g id="edge19" class="edge">
<title>n1:e&#45;&gt;x12:w</title>
<path fill="none" stroke="black" d="M54,-241.5C113.95,-241.5 36.71,-118.82 80.05,-103.97"/>
<polygon fill="black" stroke="black" points="80.62,-107.42 90,-102.5 79.6,-100.5 80.62,-107.42"/>
</g>
<!-- x14 -->
<g id="node25" class="node">
<title>x14</title>
<path fill="none" stroke="black" d="M102,-26.5C102,-26.5 141,-26.5 141,-26.5 147,-26.5 153,-32.5 153,-38.5 153,-38.5 153,-50.5 153,-50.5 153,-56.5 147,-62.5 141,-62.5 141,-62.5 102,-62.5 102,-62.5 96,-62.5 90,-56.5 90,-50.5 90,-50.5 90,-38.5 90,-38.5 90,-32.5 96,-26.5 102,-26.5"/>
<text text-anchor="middle" x="121.5" y="-40.8" font-family="Times,serif" font-size="14.00">7:7 &#45; 0:0</text>
</g>
<!-- n1&#45;&gt;x14 -->
<g id="edge20" class="edge">
<title>n1:e&#45;&gt;x14:w</title>
<path fill="none" stroke="black" d="M54,-241.5C139.18,-241.5 12.77,-61.07 79.77,-45.56"/>
<polygon fill="black" stroke="black" points="80.41,-49.01 90,-44.5 79.69,-42.05 80.41,-49.01"/>
</g>
<!-- n2 -->
<g id="node2" class="node">
<title>n2</title>
<polygon fill="none" stroke="black" points="471,-234.04 471,-248.96 455.18,-259.5 432.82,-259.5 417,-248.96 417,-234.04 432.82,-223.5 455.18,-223.5 471,-234.04"/>
<text text-anchor="middle" x="444" y="-237.8" font-family="Times,serif" font-size="14.00">out</text>
</g>
<!-- c4 -->
<g id="node3" class="node">
<title>c4</title>
<polygon fill="none" stroke="black" points="189,-422.5 189,-460.5 282,-460.5 282,-422.5 189,-422.5"/>
<text text-anchor="middle" x="202" y="-437.8" font-family="Times,serif" font-size="14.00">A</text>
<polyline fill="none" stroke="black" points="215,-422.5 215,-460.5 "/>
<text text-anchor="middle" x="235.5" y="-445.3" font-family="Times,serif" font-size="14.00">$65</text>
<text text-anchor="middle" x="235.5" y="-430.3" font-family="Times,serif" font-size="14.00">$not</text>
<polyline fill="none" stroke="black" points="256,-422.5 256,-460.5 "/>
<text text-anchor="middle" x="269" y="-437.8" font-family="Times,serif" font-size="14.00">Y</text>
</g>
<!-- x1 -->
<g id="node5" class="node">
<title>x1</title>
<path fill="none" stroke="black" d="M330,-421.5C330,-421.5 369,-421.5 369,-421.5 375,-421.5 381,-427.5 381,-433.5 381,-433.5 381,-445.5 381,-445.5 381,-451.5 375,-457.5 369,-457.5 369,-457.5 330,-457.5 330,-457.5 324,-457.5 318,-451.5 318,-445.5 318,-445.5 318,-433.5 318,-433.5 318,-427.5 324,-421.5 330,-421.5"/>
<text text-anchor="middle" x="349.5" y="-435.8" font-family="Times,serif" font-size="14.00">0:0 &#45; 0:0</text>
</g>
<!-- c4&#45;&gt;x1 -->
<g id="edge2" class="edge">
<title>c4:e&#45;&gt;x1:w</title>
<path fill="none" stroke="black" d="M294.22,-441.04C298.3,-440.71 301.73,-440.28 305.81,-439.96"/>
<polygon fill="none" stroke="black" points="293.99,-441.04 288.15,-445.27 282,-441.5 287.84,-437.28 293.99,-441.04"/>
<polygon fill="none" stroke="black" points="306.01,-439.95 311.85,-435.73 318,-439.5 312.16,-443.72 306.01,-439.95"/>
</g>
<!-- x0&#45;&gt;c4 -->
<g id="edge1" class="edge">
<title>x0:e&#45;&gt;c4:w</title>
<path fill="none" stroke="black" d="M165.22,-439.96C169.3,-440.29 172.73,-440.72 176.81,-441.04"/>
<polygon fill="none" stroke="black" points="164.99,-439.96 158.84,-443.72 153,-439.5 159.15,-435.73 164.99,-439.96"/>
<polygon fill="none" stroke="black" points="177.01,-441.05 183.16,-437.28 189,-441.5 182.85,-445.27 177.01,-441.05"/>
</g>
<!-- x1&#45;&gt;n2 -->
<g id="edge28" class="edge">
<title>x1:e&#45;&gt;n2:w</title>
<path fill="none" stroke="black" d="M381,-439.5C466.6,-439.5 339.41,-258.15 406.72,-242.57"/>
<polygon fill="black" stroke="black" points="407.41,-246.01 417,-241.5 406.69,-239.05 407.41,-246.01"/>
</g>
<!-- c5 -->
<g id="node6" class="node">
<title>c5</title>
<polygon fill="none" stroke="black" points="189,-365.5 189,-403.5 282,-403.5 282,-365.5 189,-365.5"/>
<text text-anchor="middle" x="202" y="-380.8" font-family="Times,serif" font-size="14.00">A</text>
<polyline fill="none" stroke="black" points="215,-365.5 215,-403.5 "/>
<text text-anchor="middle" x="235.5" y="-388.3" font-family="Times,serif" font-size="14.00">$66</text>
<text text-anchor="middle" x="235.5" y="-373.3" font-family="Times,serif" font-size="14.00">$not</text>
<polyline fill="none" stroke="black" points="256,-365.5 256,-403.5 "/>
<text text-anchor="middle" x="269" y="-380.8" font-family="Times,serif" font-size="14.00">Y</text>
</g>
<!-- x3 -->
<g id="node8" class="node">
<title>x3</title>
<path fill="none" stroke="black" d="M330,-364.5C330,-364.5 369,-364.5 369,-364.5 375,-364.5 381,-370.5 381,-376.5 381,-376.5 381,-388.5 381,-388.5 381,-394.5 375,-400.5 369,-400.5 369,-400.5 330,-400.5 330,-400.5 324,-400.5 318,-394.5 318,-388.5 318,-388.5 318,-376.5 318,-376.5 318,-370.5 324,-364.5 330,-364.5"/>
<text text-anchor="middle" x="349.5" y="-378.8" font-family="Times,serif" font-size="14.00">0:0 &#45; 1:1</text>
</g>
<!-- c5&#45;&gt;x3 -->
<g id="edge4" class="edge">
<title>c5:e&#45;&gt;x3:w</title>
<path fill="none" stroke="black" d="M294.22,-384.04C298.3,-383.71 301.73,-383.28 305.81,-382.96"/>
<polygon fill="none" stroke="black" points="293.99,-384.04 288.15,-388.27 282,-384.5 287.84,-380.28 293.99,-384.04"/>
<polygon fill="none" stroke="black" points="306.01,-382.95 311.85,-378.73 318,-382.5 312.16,-386.72 306.01,-382.95"/>
</g>
<!-- x2&#45;&gt;c5 -->
<g id="edge3" class="edge">
<title>x2:e&#45;&gt;c5:w</title>
<path fill="none" stroke="black" d="M165.22,-382.96C169.3,-383.29 172.73,-383.72 176.81,-384.04"/>
<polygon fill="none" stroke="black" points="164.99,-382.96 158.84,-386.72 153,-382.5 159.15,-378.73 164.99,-382.96"/>
<polygon fill="none" stroke="black" points="177.01,-384.05 183.16,-380.28 189,-384.5 182.85,-388.27 177.01,-384.05"/>
</g>
<!-- x3&#45;&gt;n2 -->
<g id="edge29" class="edge">
<title>x3:e&#45;&gt;n2:w</title>
<path fill="none" stroke="black" d="M381,-382.5C441.76,-382.5 363.05,-258.06 406.92,-242.99"/>
<polygon fill="black" stroke="black" points="407.62,-246.42 417,-241.5 406.6,-239.5 407.62,-246.42"/>
</g>
<!-- c6 -->
<g id="node9" class="node">
<title>c6</title>
<polygon fill="none" stroke="black" points="189,-308.5 189,-346.5 282,-346.5 282,-308.5 189,-308.5"/>
<text text-anchor="middle" x="202" y="-323.8" font-family="Times,serif" font-size="14.00">A</text>
<polyline fill="none" stroke="black" points="215,-308.5 215,-346.5 "/>
<text text-anchor="middle" x="235.5" y="-331.3" font-family="Times,serif" font-size="14.00">$67</text>
<text text-anchor="middle" x="235.5" y="-316.3" font-family="Times,serif" font-size="14.00">$not</text>
<polyline fill="none" stroke="black" points="256,-308.5 256,-346.5 "/>
<text text-anchor="middle" x="269" y="-323.8" font-family="Times,serif" font-size="14.00">Y</text>
</g>
<!-- x5 -->
<g id="node11" class="node">
<title>x5</title>
<path fill="none" stroke="black" d="M330,-307.5C330,-307.5 369,-307.5 369,-307.5 375,-307.5 381,-313.5 381,-319.5 381,-319.5 381,-331.5 381,-331.5 381,-337.5 375,-343.5 369,-343.5 369,-343.5 330,-343.5 330,-343.5 324,-343.5 318,-337.5 318,-331.5 318,-331.5 318,-319.5 318,-319.5 318,-313.5 324,-307.5 330,-307.5"/>
<text text-anchor="middle" x="349.5" y="-321.8" font-family="Times,serif" font-size="14.00">0:0 &#45; 2:2</text>
</g>
<!-- c6&#45;&gt;x5 -->
<g id="edge6" class="edge">
<title>c6:e&#45;&gt;x5:w</title>
<path fill="none" stroke="black" d="M294.22,-327.04C298.3,-326.71 301.73,-326.28 305.81,-325.96"/>
<polygon fill="none" stroke="black" points="293.99,-327.04 288.15,-331.27 282,-327.5 287.84,-323.28 293.99,-327.04"/>
<polygon fill="none" stroke="black" points="306.01,-325.95 311.85,-321.73 318,-325.5 312.16,-329.72 306.01,-325.95"/>
</g>
<!-- x4&#45;&gt;c6 -->
<g id="edge5" class="edge">
<title>x4:e&#45;&gt;c6:w</title>
<path fill="none" stroke="black" d="M165.22,-325.96C169.3,-326.29 172.73,-326.72 176.81,-327.04"/>
<polygon fill="none" stroke="black" points="164.99,-325.96 158.84,-329.72 153,-325.5 159.15,-321.73 164.99,-325.96"/>
<polygon fill="none" stroke="black" points="177.01,-327.05 183.16,-323.28 189,-327.5 182.85,-331.27 177.01,-327.05"/>
</g>
<!-- x5&#45;&gt;n2 -->
<g id="edge30" class="edge">
<title>x5:e&#45;&gt;n2:w</title>
<path fill="none" stroke="black" d="M381,-325.5C417.49,-325.5 384.69,-257.7 407.1,-243.92"/>
<polygon fill="black" stroke="black" points="408.12,-247.28 417,-241.5 406.45,-240.48 408.12,-247.28"/>
</g>
<!-- c7 -->
<g id="node12" class="node">
<title>c7</title>
<polygon fill="none" stroke="black" points="189,-251.5 189,-289.5 282,-289.5 282,-251.5 189,-251.5"/>
<text text-anchor="middle" x="202" y="-266.8" font-family="Times,serif" font-size="14.00">A</text>
<polyline fill="none" stroke="black" points="215,-251.5 215,-289.5 "/>
<text text-anchor="middle" x="235.5" y="-274.3" font-family="Times,serif" font-size="14.00">$68</text>
<text text-anchor="middle" x="235.5" y="-259.3" font-family="Times,serif" font-size="14.00">$not</text>
<polyline fill="none" stroke="black" points="256,-251.5 256,-289.5 "/>
<text text-anchor="middle" x="269" y="-266.8" font-family="Times,serif" font-size="14.00">Y</text>
</g>
<!-- x7 -->
<g id="node14" class="node">
<title>x7</title>
<path fill="none" stroke="black" d="M330,-251.5C330,-251.5 369,-251.5 369,-251.5 375,-251.5 381,-257.5 381,-263.5 381,-263.5 381,-275.5 381,-275.5 381,-281.5 375,-287.5 369,-287.5 369,-287.5 330,-287.5 330,-287.5 324,-287.5 318,-281.5 318,-275.5 318,-275.5 318,-263.5 318,-263.5 318,-257.5 324,-251.5 330,-251.5"/>
<text text-anchor="middle" x="349.5" y="-265.8" font-family="Times,serif" font-size="14.00">0:0 &#45; 3:3</text>
</g>
<!-- c7&#45;&gt;x7 -->
<g id="edge8" class="edge">
<title>c7:e&#45;&gt;x7:w</title>
<path fill="none" stroke="black" d="M294.22,-270.27C298.29,-270.11 301.73,-269.89 305.81,-269.73"/>
<polygon fill="none" stroke="black" points="294,-270.27 288.07,-274.39 282,-270.5 287.92,-266.39 294,-270.27"/>
<polygon fill="none" stroke="black" points="306,-269.73 311.93,-265.61 318,-269.5 312.08,-273.61 306,-269.73"/>
</g>
<!-- x6&#45;&gt;c7 -->
<g id="edge7" class="edge">
<title>x6:e&#45;&gt;c7:w</title>
<path fill="none" stroke="black" d="M165.22,-269.73C169.29,-269.89 172.73,-270.11 176.81,-270.27"/>
<polygon fill="none" stroke="black" points="165,-269.73 158.92,-273.61 153,-269.5 159.07,-265.61 165,-269.73"/>
<polygon fill="none" stroke="black" points="177,-270.27 183.08,-266.39 189,-270.5 182.93,-274.39 177,-270.27"/>
</g>
<!-- x7&#45;&gt;n2 -->
<g id="edge31" class="edge">
<title>x7:e&#45;&gt;n2:w</title>
<path fill="none" stroke="black" d="M381,-269.5C397.15,-269.5 397.55,-251.72 407.3,-244.5"/>
<polygon fill="black" stroke="black" points="408.48,-247.8 417,-241.5 406.41,-241.11 408.48,-247.8"/>
</g>
<!-- c8 -->
<g id="node15" class="node">
<title>c8</title>
<polygon fill="none" stroke="black" points="189,-194.5 189,-232.5 282,-232.5 282,-194.5 189,-194.5"/>
<text text-anchor="middle" x="202" y="-209.8" font-family="Times,serif" font-size="14.00">A</text>
<polyline fill="none" stroke="black" points="215,-194.5 215,-232.5 "/>
<text text-anchor="middle" x="235.5" y="-217.3" font-family="Times,serif" font-size="14.00">$69</text>
<text text-anchor="middle" x="235.5" y="-202.3" font-family="Times,serif" font-size="14.00">$not</text>
<polyline fill="none" stroke="black" points="256,-194.5 256,-232.5 "/>
<text text-anchor="middle" x="269" y="-209.8" font-family="Times,serif" font-size="14.00">Y</text>
</g>
<!-- x9 -->
<g id="node17" class="node">
<title>x9</title>
<path fill="none" stroke="black" d="M330,-196.5C330,-196.5 369,-196.5 369,-196.5 375,-196.5 381,-202.5 381,-208.5 381,-208.5 381,-220.5 381,-220.5 381,-226.5 375,-232.5 369,-232.5 369,-232.5 330,-232.5 330,-232.5 324,-232.5 318,-226.5 318,-220.5 318,-220.5 318,-208.5 318,-208.5 318,-202.5 324,-196.5 330,-196.5"/>
<text text-anchor="middle" x="349.5" y="-210.8" font-family="Times,serif" font-size="14.00">0:0 &#45; 4:4</text>
</g>
<!-- c8&#45;&gt;x9 -->
<g id="edge10" class="edge">
<title>c8:e&#45;&gt;x9:w</title>
<path fill="none" stroke="black" d="M294.22,-213.73C298.29,-213.89 301.73,-214.11 305.81,-214.27"/>
<polygon fill="none" stroke="black" points="294,-213.73 287.92,-217.61 282,-213.5 288.07,-209.61 294,-213.73"/>
<polygon fill="none" stroke="black" points="306,-214.27 312.08,-210.39 318,-214.5 311.93,-218.39 306,-214.27"/>
</g>
<!-- x8&#45;&gt;c8 -->
<g id="edge9" class="edge">
<title>x8:e&#45;&gt;c8:w</title>
<path fill="none" stroke="black" d="M165.22,-214.27C169.29,-214.11 172.73,-213.89 176.81,-213.73"/>
<polygon fill="none" stroke="black" points="165,-214.27 159.07,-218.39 153,-214.5 158.92,-210.39 165,-214.27"/>
<polygon fill="none" stroke="black" points="177,-213.73 182.93,-209.61 189,-213.5 183.08,-217.61 177,-213.73"/>
</g>
<!-- x9&#45;&gt;n2 -->
<g id="edge32" class="edge">
<title>x9:e&#45;&gt;n2:w</title>
<path fill="none" stroke="black" d="M381,-214.5C396.94,-214.5 397.63,-231.65 407.38,-238.61"/>
<polygon fill="black" stroke="black" points="406.42,-241.98 417,-241.5 408.43,-235.27 406.42,-241.98"/>
</g>
<!-- c9 -->
<g id="node18" class="node">
<title>c9</title>
<polygon fill="none" stroke="black" points="189,-137.5 189,-175.5 282,-175.5 282,-137.5 189,-137.5"/>
<text text-anchor="middle" x="202" y="-152.8" font-family="Times,serif" font-size="14.00">A</text>
<polyline fill="none" stroke="black" points="215,-137.5 215,-175.5 "/>
<text text-anchor="middle" x="235.5" y="-160.3" font-family="Times,serif" font-size="14.00">$70</text>
<text text-anchor="middle" x="235.5" y="-145.3" font-family="Times,serif" font-size="14.00">$not</text>
<polyline fill="none" stroke="black" points="256,-137.5 256,-175.5 "/>
<text text-anchor="middle" x="269" y="-152.8" font-family="Times,serif" font-size="14.00">Y</text>
</g>
<!-- x11 -->
<g id="node20" class="node">
<title>x11</title>
<path fill="none" stroke="black" d="M330,-140.5C330,-140.5 369,-140.5 369,-140.5 375,-140.5 381,-146.5 381,-152.5 381,-152.5 381,-164.5 381,-164.5 381,-170.5 375,-176.5 369,-176.5 369,-176.5 330,-176.5 330,-176.5 324,-176.5 318,-170.5 318,-164.5 318,-164.5 318,-152.5 318,-152.5 318,-146.5 324,-140.5 330,-140.5"/>
<text text-anchor="middle" x="349.5" y="-154.8" font-family="Times,serif" font-size="14.00">0:0 &#45; 5:5</text>
</g>
<!-- c9&#45;&gt;x11 -->
<g id="edge12" class="edge">
<title>c9:e&#45;&gt;x11:w</title>
<path fill="none" stroke="black" d="M294.22,-156.96C298.3,-157.29 301.73,-157.72 305.81,-158.04"/>
<polygon fill="none" stroke="black" points="293.99,-156.96 287.84,-160.72 282,-156.5 288.15,-152.73 293.99,-156.96"/>
<polygon fill="none" stroke="black" points="306.01,-158.05 312.16,-154.28 318,-158.5 311.85,-162.27 306.01,-158.05"/>
</g>
<!-- x10&#45;&gt;c9 -->
<g id="edge11" class="edge">
<title>x10:e&#45;&gt;c9:w</title>
<path fill="none" stroke="black" d="M165.22,-158.04C169.3,-157.71 172.73,-157.28 176.81,-156.96"/>
<polygon fill="none" stroke="black" points="164.99,-158.04 159.15,-162.27 153,-158.5 158.84,-154.28 164.99,-158.04"/>
<polygon fill="none" stroke="black" points="177.01,-156.95 182.85,-152.73 189,-156.5 183.16,-160.72 177.01,-156.95"/>
</g>
<!-- x11&#45;&gt;n2 -->
<g id="edge25" class="edge">
<title>x11:e&#45;&gt;n2:w</title>
<path fill="none" stroke="black" d="M381,-158.5C417.13,-158.5 384.94,-225.5 407.19,-239.11"/>
<polygon fill="black" stroke="black" points="406.46,-242.53 417,-241.5 408.12,-235.73 406.46,-242.53"/>
</g>
<!-- c10 -->
<g id="node21" class="node">
<title>c10</title>
<polygon fill="none" stroke="black" points="189,-80.5 189,-118.5 282,-118.5 282,-80.5 189,-80.5"/>
<text text-anchor="middle" x="202" y="-95.8" font-family="Times,serif" font-size="14.00">A</text>
<polyline fill="none" stroke="black" points="215,-80.5 215,-118.5 "/>
<text text-anchor="middle" x="235.5" y="-103.3" font-family="Times,serif" font-size="14.00">$71</text>
<text text-anchor="middle" x="235.5" y="-88.3" font-family="Times,serif" font-size="14.00">$not</text>
<polyline fill="none" stroke="black" points="256,-80.5 256,-118.5 "/>
<text text-anchor="middle" x="269" y="-95.8" font-family="Times,serif" font-size="14.00">Y</text>
</g>
<!-- x13 -->
<g id="node23" class="node">
<title>x13</title>
<path fill="none" stroke="black" d="M330,-84.5C330,-84.5 369,-84.5 369,-84.5 375,-84.5 381,-90.5 381,-96.5 381,-96.5 381,-108.5 381,-108.5 381,-114.5 375,-120.5 369,-120.5 369,-120.5 330,-120.5 330,-120.5 324,-120.5 318,-114.5 318,-108.5 318,-108.5 318,-96.5 318,-96.5 318,-90.5 324,-84.5 330,-84.5"/>
<text text-anchor="middle" x="349.5" y="-98.8" font-family="Times,serif" font-size="14.00">0:0 &#45; 6:6</text>
</g>
<!-- c10&#45;&gt;x13 -->
<g id="edge14" class="edge">
<title>c10:e&#45;&gt;x13:w</title>
<path fill="none" stroke="black" d="M294.23,-100.2C298.3,-100.68 301.73,-101.32 305.8,-101.81"/>
<polygon fill="none" stroke="black" points="293.98,-100.18 287.76,-103.83 282,-99.5 288.22,-95.85 293.98,-100.18"/>
<polygon fill="none" stroke="black" points="306.02,-101.82 312.24,-98.17 318,-102.5 311.78,-106.15 306.02,-101.82"/>
</g>
<!-- x12&#45;&gt;c10 -->
<g id="edge13" class="edge">
<title>x12:e&#45;&gt;c10:w</title>
<path fill="none" stroke="black" d="M165.23,-101.8C169.3,-101.32 172.73,-100.68 176.8,-100.19"/>
<polygon fill="none" stroke="black" points="164.98,-101.82 159.22,-106.15 153,-102.5 158.76,-98.17 164.98,-101.82"/>
<polygon fill="none" stroke="black" points="177.02,-100.18 182.78,-95.85 189,-99.5 183.24,-103.83 177.02,-100.18"/>
</g>
<!-- x13&#45;&gt;n2 -->
<g id="edge26" class="edge">
<title>x13:e&#45;&gt;n2:w</title>
<path fill="none" stroke="black" d="M381,-102.5C440.95,-102.5 363.71,-225.18 407.05,-240.03"/>
<polygon fill="black" stroke="black" points="406.6,-243.5 417,-241.5 407.62,-236.58 406.6,-243.5"/>
</g>
<!-- c11 -->
<g id="node24" class="node">
<title>c11</title>
<polygon fill="none" stroke="black" points="189,-23.5 189,-61.5 282,-61.5 282,-23.5 189,-23.5"/>
<text text-anchor="middle" x="202" y="-38.8" font-family="Times,serif" font-size="14.00">A</text>
<polyline fill="none" stroke="black" points="215,-23.5 215,-61.5 "/>
<text text-anchor="middle" x="235.5" y="-46.3" font-family="Times,serif" font-size="14.00">$72</text>
<text text-anchor="middle" x="235.5" y="-31.3" font-family="Times,serif" font-size="14.00">$not</text>
<polyline fill="none" stroke="black" points="256,-23.5 256,-61.5 "/>
<text text-anchor="middle" x="269" y="-38.8" font-family="Times,serif" font-size="14.00">Y</text>
</g>
<!-- x15 -->
<g id="node26" class="node">
<title>x15</title>
<path fill="none" stroke="black" d="M330,-26.5C330,-26.5 369,-26.5 369,-26.5 375,-26.5 381,-32.5 381,-38.5 381,-38.5 381,-50.5 381,-50.5 381,-56.5 375,-62.5 369,-62.5 369,-62.5 330,-62.5 330,-62.5 324,-62.5 318,-56.5 318,-50.5 318,-50.5 318,-38.5 318,-38.5 318,-32.5 324,-26.5 330,-26.5"/>
<text text-anchor="middle" x="349.5" y="-40.8" font-family="Times,serif" font-size="14.00">0:0 &#45; 7:7</text>
</g>
<!-- c11&#45;&gt;x15 -->
<g id="edge16" class="edge">
<title>c11:e&#45;&gt;x15:w</title>
<path fill="none" stroke="black" d="M294.22,-42.96C298.3,-43.29 301.73,-43.72 305.81,-44.04"/>
<polygon fill="none" stroke="black" points="293.99,-42.96 287.84,-46.72 282,-42.5 288.15,-38.73 293.99,-42.96"/>
<polygon fill="none" stroke="black" points="306.01,-44.05 312.16,-40.28 318,-44.5 311.85,-48.27 306.01,-44.05"/>
</g>
<!-- x14&#45;&gt;c11 -->
<g id="edge15" class="edge">
<title>x14:e&#45;&gt;c11:w</title>
<path fill="none" stroke="black" d="M165.22,-44.04C169.3,-43.71 172.73,-43.28 176.81,-42.96"/>
<polygon fill="none" stroke="black" points="164.99,-44.04 159.15,-48.27 153,-44.5 158.84,-40.28 164.99,-44.04"/>
<polygon fill="none" stroke="black" points="177.01,-42.95 182.85,-38.73 189,-42.5 183.16,-46.72 177.01,-42.95"/>
</g>
<!-- x15&#45;&gt;n2 -->
<g id="edge27" class="edge">
<title>x15:e&#45;&gt;n2:w</title>
<path fill="none" stroke="black" d="M381,-44.5C466.18,-44.5 339.77,-224.93 406.77,-240.44"/>
<polygon fill="black" stroke="black" points="406.69,-243.95 417,-241.5 407.41,-236.99 406.69,-243.95"/>
</g>
</g>
</svg>
