<?xml version="1.0" encoding="UTF-8" standalone="no"?>
<!DOCTYPE svg PUBLIC "-//W3C//DTD SVG 1.1//EN"
 "http://www.w3.org/Graphics/SVG/1.1/DTD/svg11.dtd">
<!-- Generated by graphviz version 2.43.0 (0)
 -->
<!-- Title: alu8bit Pages: 1 -->
<svg width="1695pt" height="581pt"
 viewBox="0.00 0.00 1694.54 581.00" xmlns="http://www.w3.org/2000/svg" xmlns:xlink="http://www.w3.org/1999/xlink">
<g id="page0,1_graph0" class="graph" transform="scale(1 1) rotate(0) translate(4 577)">
<title>alu8bit</title>
<polygon fill="white" stroke="transparent" points="-4,4 -4,-577 1690.54,-577 1690.54,4 -4,4"/>
<text text-anchor="middle" x="843.27" y="-7.8" font-family="Times,serif" font-size="14.00">alu8bit</text>
<!-- n4 -->
<g id="node1" class="node">
<title>n4</title>
<polygon fill="none" stroke="black" points="741.22,-493.54 741.22,-508.46 713.53,-519 674.37,-519 646.68,-508.46 646.68,-493.54 674.37,-483 713.53,-483 741.22,-493.54"/>
<text text-anchor="middle" x="693.95" y="-497.3" font-family="Times,serif" font-size="14.00">A_EQ_B</text>
</g>
<!-- n5 -->
<g id="node2" class="node">
<title>n5</title>
<polygon fill="none" stroke="black" points="741.62,-439.54 741.62,-454.46 713.7,-465 674.2,-465 646.27,-454.46 646.27,-439.54 674.2,-429 713.7,-429 741.62,-439.54"/>
<text text-anchor="middle" x="693.95" y="-443.3" font-family="Times,serif" font-size="14.00">A_GR_B</text>
</g>
<!-- n6 -->
<g id="node3" class="node">
<title>n6</title>
<polygon fill="none" stroke="black" points="739.9,-385.54 739.9,-400.46 712.98,-411 674.91,-411 647.99,-400.46 647.99,-385.54 674.91,-375 712.98,-375 739.9,-385.54"/>
<text text-anchor="middle" x="693.95" y="-389.3" font-family="Times,serif" font-size="14.00">A_LS_B</text>
</g>
<!-- n7 -->
<g id="node4" class="node">
<title>n7</title>
<polygon fill="none" stroke="black" points="741.62,-331.54 741.62,-346.46 713.7,-357 674.2,-357 646.27,-346.46 646.27,-331.54 674.2,-321 713.7,-321 741.62,-331.54"/>
<text text-anchor="middle" x="693.95" y="-335.3" font-family="Times,serif" font-size="14.00">CarryOut</text>
</g>
<!-- n8 -->
<g id="node5" class="node">
<title>n8</title>
<polygon fill="none" stroke="black" points="743.84,-277.54 743.84,-292.46 714.62,-303 673.28,-303 644.05,-292.46 644.05,-277.54 673.28,-267 714.62,-267 743.84,-277.54"/>
<text text-anchor="middle" x="693.95" y="-281.3" font-family="Times,serif" font-size="14.00">OverFlow</text>
</g>
<!-- n9 -->
<g id="node6" class="node">
<title>n9</title>
<polygon fill="none" stroke="black" points="1300.77,-195.54 1300.77,-210.46 1281.9,-221 1255.2,-221 1236.33,-210.46 1236.33,-195.54 1255.2,-185 1281.9,-185 1300.77,-195.54"/>
<text text-anchor="middle" x="1268.55" y="-199.3" font-family="Times,serif" font-size="14.00">R_W</text>
</g>
<!-- c31 -->
<g id="node29" class="node">
<title>c31</title>
<polygon fill="none" stroke="black" points="1342.54,-76 1342.54,-168 1596.54,-168 1596.54,-76 1342.54,-76"/>
<text text-anchor="middle" x="1369.54" y="-152.8" font-family="Times,serif" font-size="14.00">R_W</text>
<polyline fill="none" stroke="black" points="1342.54,-145 1396.54,-145 "/>
<text text-anchor="middle" x="1369.54" y="-129.8" font-family="Times,serif" font-size="14.00">i_clk</text>
<polyline fill="none" stroke="black" points="1342.54,-122 1396.54,-122 "/>
<text text-anchor="middle" x="1369.54" y="-106.8" font-family="Times,serif" font-size="14.00">i_d</text>
<polyline fill="none" stroke="black" points="1342.54,-99 1396.54,-99 "/>
<text text-anchor="middle" x="1369.54" y="-83.8" font-family="Times,serif" font-size="14.00">i_rst_n</text>
<polyline fill="none" stroke="black" points="1396.54,-76 1396.54,-168 "/>
<text text-anchor="middle" x="1478.04" y="-125.8" font-family="Times,serif" font-size="14.00">rg</text>
<text text-anchor="middle" x="1478.04" y="-110.8" font-family="Times,serif" font-size="14.00">active_low_asynch_rst_dff</text>
<polyline fill="none" stroke="black" points="1559.54,-76 1559.54,-168 "/>
<text text-anchor="middle" x="1578.04" y="-118.3" font-family="Times,serif" font-size="14.00">o_q</text>
</g>
<!-- n9&#45;&gt;c31 -->
<g id="edge41" class="edge">
<title>n9:e&#45;&gt;c31:w</title>
<path fill="none" stroke="black" d="M1301.55,-203C1324.87,-203 1318.34,-169.64 1332.79,-159.74"/>
<polygon fill="black" stroke="black" points="1333.86,-163.08 1342.54,-157 1331.96,-156.34 1333.86,-163.08"/>
</g>
<!-- n10 -->
<g id="node7" class="node">
<title>n10</title>
<polygon fill="none" stroke="black" points="376.5,-355.54 376.5,-370.46 360.68,-381 338.32,-381 322.5,-370.46 322.5,-355.54 338.32,-345 360.68,-345 376.5,-355.54"/>
<text text-anchor="middle" x="349.5" y="-359.3" font-family="Times,serif" font-size="14.00">X</text>
</g>
<!-- c27 -->
<g id="node25" class="node">
<title>c27</title>
<polygon fill="none" stroke="black" points="417,-227.5 417,-388.5 608,-388.5 608,-227.5 417,-227.5"/>
<text text-anchor="middle" x="433" y="-358.3" font-family="Times,serif" font-size="14.00">A</text>
<polyline fill="none" stroke="black" points="417,-335.5 449,-335.5 "/>
<text text-anchor="middle" x="433" y="-304.8" font-family="Times,serif" font-size="14.00">B</text>
<polyline fill="none" stroke="black" points="417,-281.5 449,-281.5 "/>
<text text-anchor="middle" x="433" y="-250.8" font-family="Times,serif" font-size="14.00">sel</text>
<polyline fill="none" stroke="black" points="449,-227.5 449,-388.5 "/>
<text text-anchor="middle" x="493" y="-311.8" font-family="Times,serif" font-size="14.00">alu</text>
<text text-anchor="middle" x="493" y="-296.8" font-family="Times,serif" font-size="14.00">eightBitALU</text>
<polyline fill="none" stroke="black" points="537,-227.5 537,-388.5 "/>
<text text-anchor="middle" x="572.5" y="-373.3" font-family="Times,serif" font-size="14.00">A_EQ_B</text>
<polyline fill="none" stroke="black" points="537,-365.5 608,-365.5 "/>
<text text-anchor="middle" x="572.5" y="-350.3" font-family="Times,serif" font-size="14.00">A_GR_B</text>
<polyline fill="none" stroke="black" points="537,-342.5 608,-342.5 "/>
<text text-anchor="middle" x="572.5" y="-327.3" font-family="Times,serif" font-size="14.00">A_LS_B</text>
<polyline fill="none" stroke="black" points="537,-319.5 608,-319.5 "/>
<text text-anchor="middle" x="572.5" y="-304.3" font-family="Times,serif" font-size="14.00">CarryOut</text>
<polyline fill="none" stroke="black" points="537,-296.5 608,-296.5 "/>
<text text-anchor="middle" x="572.5" y="-281.3" font-family="Times,serif" font-size="14.00">OverFlow</text>
<polyline fill="none" stroke="black" points="537,-273.5 608,-273.5 "/>
<text text-anchor="middle" x="572.5" y="-258.3" font-family="Times,serif" font-size="14.00">ZeroFlag</text>
<polyline fill="none" stroke="black" points="537,-250.5 608,-250.5 "/>
<text text-anchor="middle" x="572.5" y="-235.3" font-family="Times,serif" font-size="14.00">out</text>
</g>
<!-- n10&#45;&gt;c27 -->
<g id="edge9" class="edge">
<title>n10:e&#45;&gt;c27:w</title>
<path fill="none" stroke="black" stroke-width="3" d="M377.5,-363C391.08,-363 396.78,-362.4 406.79,-362.13"/>
<polygon fill="black" stroke="black" stroke-width="3" points="407.05,-365.63 417,-362 406.96,-358.63 407.05,-365.63"/>
</g>
<!-- c28 -->
<g id="node27" class="node">
<title>c28</title>
<polygon fill="none" stroke="black" points="445.5,-407.5 445.5,-476.5 579.5,-476.5 579.5,-407.5 445.5,-407.5"/>
<text text-anchor="middle" x="461.5" y="-461.3" font-family="Times,serif" font-size="14.00">A</text>
<polyline fill="none" stroke="black" points="445.5,-453.5 477.5,-453.5 "/>
<text text-anchor="middle" x="461.5" y="-438.3" font-family="Times,serif" font-size="14.00">B</text>
<polyline fill="none" stroke="black" points="445.5,-430.5 477.5,-430.5 "/>
<text text-anchor="middle" x="461.5" y="-415.3" font-family="Times,serif" font-size="14.00">sel</text>
<polyline fill="none" stroke="black" points="477.5,-407.5 477.5,-476.5 "/>
<text text-anchor="middle" x="511.5" y="-445.8" font-family="Times,serif" font-size="14.00">el</text>
<text text-anchor="middle" x="511.5" y="-430.8" font-family="Times,serif" font-size="14.00">eightbitlu</text>
<polyline fill="none" stroke="black" points="545.5,-407.5 545.5,-476.5 "/>
<text text-anchor="middle" x="562.5" y="-438.3" font-family="Times,serif" font-size="14.00">out</text>
</g>
<!-- n10&#45;&gt;c28 -->
<g id="edge10" class="edge">
<title>n10:e&#45;&gt;c28:w</title>
<path fill="none" stroke="black" stroke-width="3" d="M377.5,-363C427.92,-363 395.62,-451.16 434.41,-463.56"/>
<polygon fill="black" stroke="black" stroke-width="3" points="434.11,-467.05 444.5,-465 435.1,-460.12 434.11,-467.05"/>
</g>
<!-- c32 -->
<g id="node30" class="node">
<title>c32</title>
<polygon fill="none" stroke="black" points="435.5,-135 435.5,-181 589.5,-181 589.5,-135 435.5,-135"/>
<text text-anchor="middle" x="451.5" y="-165.8" font-family="Times,serif" font-size="14.00">A</text>
<polyline fill="none" stroke="black" points="435.5,-158 467.5,-158 "/>
<text text-anchor="middle" x="451.5" y="-142.8" font-family="Times,serif" font-size="14.00">sel</text>
<polyline fill="none" stroke="black" points="467.5,-135 467.5,-181 "/>
<text text-anchor="middle" x="511.5" y="-161.8" font-family="Times,serif" font-size="14.00">sh</text>
<text text-anchor="middle" x="511.5" y="-146.8" font-family="Times,serif" font-size="14.00">eightbitshfun</text>
<polyline fill="none" stroke="black" points="555.5,-135 555.5,-181 "/>
<text text-anchor="middle" x="572.5" y="-154.3" font-family="Times,serif" font-size="14.00">out</text>
</g>
<!-- n10&#45;&gt;c32 -->
<g id="edge11" class="edge">
<title>n10:e&#45;&gt;c32:w</title>
<path fill="none" stroke="black" stroke-width="3" d="M377.5,-363C463.27,-363 354.7,-185.51 424.53,-170.95"/>
<polygon fill="black" stroke="black" stroke-width="3" points="424.88,-174.43 434.5,-170 424.21,-167.46 424.88,-174.43"/>
</g>
<!-- n11 -->
<g id="node8" class="node">
<title>n11</title>
<polygon fill="none" stroke="black" points="376.5,-301.54 376.5,-316.46 360.68,-327 338.32,-327 322.5,-316.46 322.5,-301.54 338.32,-291 360.68,-291 376.5,-301.54"/>
<text text-anchor="middle" x="349.5" y="-305.3" font-family="Times,serif" font-size="14.00">Y</text>
</g>
<!-- n11&#45;&gt;c27 -->
<g id="edge12" class="edge">
<title>n11:e&#45;&gt;c27:w</title>
<path fill="none" stroke="black" stroke-width="3" d="M377.5,-309C391.08,-309 396.78,-309 406.79,-309"/>
<polygon fill="black" stroke="black" stroke-width="3" points="407,-312.5 417,-309 407,-305.5 407,-312.5"/>
</g>
<!-- n11&#45;&gt;c28 -->
<g id="edge13" class="edge">
<title>n11:e&#45;&gt;c28:w</title>
<path fill="none" stroke="black" stroke-width="3" d="M377.5,-309C439.94,-309 385.3,-427.36 434.47,-440.77"/>
<polygon fill="black" stroke="black" stroke-width="3" points="434.15,-444.25 444.5,-442 435,-437.31 434.15,-444.25"/>
</g>
<!-- n12 -->
<g id="node9" class="node">
<title>n12</title>
<polygon fill="none" stroke="black" points="740.31,-223.54 740.31,-238.46 713.15,-249 674.74,-249 647.59,-238.46 647.59,-223.54 674.74,-213 713.15,-213 740.31,-223.54"/>
<text text-anchor="middle" x="693.95" y="-227.3" font-family="Times,serif" font-size="14.00">ZeroFlag</text>
</g>
<!-- n13 -->
<g id="node10" class="node">
<title>n13</title>
<polygon fill="none" stroke="black" points="1299.46,-141.54 1299.46,-156.46 1281.35,-167 1255.75,-167 1237.64,-156.46 1237.64,-141.54 1255.75,-131 1281.35,-131 1299.46,-141.54"/>
<text text-anchor="middle" x="1268.55" y="-145.3" font-family="Times,serif" font-size="14.00">i_clk</text>
</g>
<!-- n13&#45;&gt;c31 -->
<g id="edge15" class="edge">
<title>n13:e&#45;&gt;c31:w</title>
<path fill="none" stroke="black" d="M1300.55,-149C1316.34,-149 1321.04,-139.47 1332.33,-135.61"/>
<polygon fill="black" stroke="black" points="1333.2,-139.01 1342.54,-134 1332.12,-132.1 1333.2,-139.01"/>
</g>
<!-- n14 -->
<g id="node11" class="node">
<title>n14</title>
<polygon fill="none" stroke="black" points="1306.53,-33.54 1306.53,-48.46 1284.28,-59 1252.82,-59 1230.57,-48.46 1230.57,-33.54 1252.82,-23 1284.28,-23 1306.53,-33.54"/>
<text text-anchor="middle" x="1268.55" y="-37.3" font-family="Times,serif" font-size="14.00">i_rst_n</text>
</g>
<!-- n14&#45;&gt;c31 -->
<g id="edge16" class="edge">
<title>n14:e&#45;&gt;c31:w</title>
<path fill="none" stroke="black" d="M1306.54,-41C1328.24,-41 1320.67,-73.14 1332.77,-83.69"/>
<polygon fill="black" stroke="black" points="1331.94,-87.11 1342.54,-87 1334.19,-80.48 1331.94,-87.11"/>
</g>
<!-- n15 -->
<g id="node12" class="node">
<title>n15</title>
<polygon fill="none" stroke="black" points="1686.54,-114.54 1686.54,-129.46 1670.72,-140 1648.35,-140 1632.54,-129.46 1632.54,-114.54 1648.35,-104 1670.72,-104 1686.54,-114.54"/>
<text text-anchor="middle" x="1659.54" y="-118.3" font-family="Times,serif" font-size="14.00">out</text>
</g>
<!-- n16 -->
<g id="node13" class="node">
<title>n16</title>
<polygon fill="none" stroke="black" points="54,-175.54 54,-190.46 38.18,-201 15.82,-201 0,-190.46 0,-175.54 15.82,-165 38.18,-165 54,-175.54"/>
<text text-anchor="middle" x="27" y="-179.3" font-family="Times,serif" font-size="14.00">sel</text>
</g>
<!-- x0 -->
<g id="node20" class="node">
<title>x0</title>
<path fill="none" stroke="black" d="M102,-87C102,-87 141,-87 141,-87 147,-87 153,-93 153,-99 153,-99 153,-111 153,-111 153,-117 147,-123 141,-123 141,-123 102,-123 102,-123 96,-123 90,-117 90,-111 90,-111 90,-99 90,-99 90,-93 96,-87 102,-87"/>
<text text-anchor="middle" x="121.5" y="-101.3" font-family="Times,serif" font-size="14.00">0:0 &#45; 0:0</text>
</g>
<!-- n16&#45;&gt;x0 -->
<g id="edge18" class="edge">
<title>n16:e&#45;&gt;x0:w</title>
<path fill="none" stroke="black" d="M54,-183C88,-183 59.71,-121.13 80.09,-107.6"/>
<polygon fill="black" stroke="black" points="81.21,-110.92 90,-105 79.44,-104.15 81.21,-110.92"/>
</g>
<!-- x1 -->
<g id="node22" class="node">
<title>x1</title>
<path fill="none" stroke="black" d="M102,-142C102,-142 141,-142 141,-142 147,-142 153,-148 153,-154 153,-154 153,-166 153,-166 153,-172 147,-178 141,-178 141,-178 102,-178 102,-178 96,-178 90,-172 90,-166 90,-166 90,-154 90,-154 90,-148 96,-142 102,-142"/>
<text text-anchor="middle" x="121.5" y="-156.3" font-family="Times,serif" font-size="14.00">1:1 &#45; 0:0</text>
</g>
<!-- n16&#45;&gt;x1 -->
<g id="edge19" class="edge">
<title>n16:e&#45;&gt;x1:w</title>
<path fill="none" stroke="black" d="M54,-183C68.83,-183 70.87,-168.96 80.11,-162.82"/>
<polygon fill="black" stroke="black" points="81.34,-166.11 90,-160 79.42,-159.38 81.34,-166.11"/>
</g>
<!-- x2 -->
<g id="node24" class="node">
<title>x2</title>
<path fill="none" stroke="black" d="M102,-32C102,-32 141,-32 141,-32 147,-32 153,-38 153,-44 153,-44 153,-56 153,-56 153,-62 147,-68 141,-68 141,-68 102,-68 102,-68 96,-68 90,-62 90,-56 90,-56 90,-44 90,-44 90,-38 96,-32 102,-32"/>
<text text-anchor="middle" x="121.5" y="-46.3" font-family="Times,serif" font-size="14.00">3:3 &#45; 0:0</text>
</g>
<!-- n16&#45;&gt;x2 -->
<g id="edge20" class="edge">
<title>n16:e&#45;&gt;x2:w</title>
<path fill="none" stroke="black" d="M54,-183C111.17,-183 39.6,-67.08 79.67,-51.68"/>
<polygon fill="black" stroke="black" points="80.69,-55.06 90,-50 79.57,-48.15 80.69,-55.06"/>
</g>
<!-- x3 -->
<g id="node26" class="node">
<title>x3</title>
<path fill="none" stroke="black" d="M216,-236C216,-236 255,-236 255,-236 261,-236 267,-242 267,-248 267,-248 267,-260 267,-260 267,-266 261,-272 255,-272 255,-272 216,-272 216,-272 210,-272 204,-266 204,-260 204,-260 204,-248 204,-248 204,-242 210,-236 216,-236"/>
<text text-anchor="middle" x="235.5" y="-250.3" font-family="Times,serif" font-size="14.00">1:0 &#45; 1:0</text>
</g>
<!-- n16&#45;&gt;x3 -->
<g id="edge21" class="edge">
<title>n16:e&#45;&gt;x3:w</title>
<path fill="none" stroke="black" stroke-width="3" d="M54,-183C77.26,-183 70.15,-208.86 90,-221 131.41,-246.33 148.08,-253.11 192.3,-253.91"/>
<polygon fill="black" stroke="black" stroke-width="3" points="192.47,-257.41 202.5,-254 192.53,-250.42 192.47,-257.41"/>
</g>
<!-- x4 -->
<g id="node28" class="node">
<title>x4</title>
<path fill="none" stroke="black" d="M102,-334C102,-334 141,-334 141,-334 147,-334 153,-340 153,-346 153,-346 153,-358 153,-358 153,-364 147,-370 141,-370 141,-370 102,-370 102,-370 96,-370 90,-364 90,-358 90,-358 90,-346 90,-346 90,-340 96,-334 102,-334"/>
<text text-anchor="middle" x="121.5" y="-348.3" font-family="Times,serif" font-size="14.00">1:0 &#45; 1:0</text>
</g>
<!-- n16&#45;&gt;x4 -->
<g id="edge22" class="edge">
<title>n16:e&#45;&gt;x4:w</title>
<path fill="none" stroke="black" stroke-width="3" d="M54,-183C126.9,-183 24.65,-335.27 79.75,-350.74"/>
<polygon fill="black" stroke="black" stroke-width="3" points="79.65,-354.25 90,-352 80.5,-347.3 79.65,-354.25"/>
</g>
<!-- x6 -->
<g id="node34" class="node">
<title>x6</title>
<path fill="none" stroke="black" d="M493,-80C493,-80 532,-80 532,-80 538,-80 544,-86 544,-92 544,-92 544,-104 544,-104 544,-110 538,-116 532,-116 532,-116 493,-116 493,-116 487,-116 481,-110 481,-104 481,-104 481,-92 481,-92 481,-86 487,-80 493,-80"/>
<text text-anchor="middle" x="512.5" y="-94.3" font-family="Times,serif" font-size="14.00">2:2 &#45; 0:0</text>
</g>
<!-- n16&#45;&gt;x6 -->
<g id="edge23" class="edge">
<title>n16:e&#45;&gt;x6:w</title>
<path fill="none" stroke="black" d="M54,-183C70.1,-183 73.93,-186.11 90,-187 175.2,-191.72 196.75,-190.87 282,-187 326.14,-185 342.93,-200.43 381,-178 405.53,-163.55 395.06,-143.15 417,-125 437.49,-108.05 446.87,-100.04 469.38,-98.35"/>
<polygon fill="black" stroke="black" points="469.63,-101.84 479.5,-98 469.39,-94.84 469.63,-101.84"/>
</g>
<!-- n17 -->
<g id="node14" class="node">
<title>n17</title>
<polygon fill="none" stroke="black" points="987.23,-113 957.06,-95 987.23,-77 1017.39,-95 987.23,-113"/>
<text text-anchor="middle" x="987.23" y="-91.3" font-family="Times,serif" font-size="14.00">w1</text>
</g>
<!-- c33 -->
<g id="node32" class="node">
<title>c33</title>
<polygon fill="none" stroke="black" points="1053.56,-60.5 1053.56,-129.5 1194.56,-129.5 1194.56,-60.5 1053.56,-60.5"/>
<text text-anchor="middle" x="1069.56" y="-114.3" font-family="Times,serif" font-size="14.00">A</text>
<polyline fill="none" stroke="black" points="1053.56,-106.5 1085.56,-106.5 "/>
<text text-anchor="middle" x="1069.56" y="-91.3" font-family="Times,serif" font-size="14.00">B</text>
<polyline fill="none" stroke="black" points="1053.56,-83.5 1085.56,-83.5 "/>
<text text-anchor="middle" x="1069.56" y="-68.3" font-family="Times,serif" font-size="14.00">sel</text>
<polyline fill="none" stroke="black" points="1085.56,-60.5 1085.56,-129.5 "/>
<text text-anchor="middle" x="1123.06" y="-98.8" font-family="Times,serif" font-size="14.00">ux</text>
<text text-anchor="middle" x="1123.06" y="-83.8" font-family="Times,serif" font-size="14.00">mux8b2_1</text>
<polyline fill="none" stroke="black" points="1160.56,-60.5 1160.56,-129.5 "/>
<text text-anchor="middle" x="1177.56" y="-91.3" font-family="Times,serif" font-size="14.00">out</text>
</g>
<!-- n17&#45;&gt;c33 -->
<g id="edge25" class="edge">
<title>n17:e&#45;&gt;c33:w</title>
<path fill="none" stroke="black" stroke-width="3" d="M1017.56,-95C1029.56,-95 1034.81,-95 1043.44,-95"/>
<polygon fill="black" stroke="black" stroke-width="3" points="1043.56,-98.5 1053.56,-95 1043.56,-91.5 1043.56,-98.5"/>
</g>
<!-- n18 -->
<g id="node15" class="node">
<title>n18</title>
<polygon fill="none" stroke="black" points="693.95,-573 663.78,-555 693.95,-537 724.11,-555 693.95,-573"/>
<text text-anchor="middle" x="693.95" y="-551.3" font-family="Times,serif" font-size="14.00">w2</text>
</g>
<!-- c34 -->
<g id="node33" class="node">
<title>c34</title>
<polygon fill="none" stroke="black" points="779.9,-87.5 779.9,-156.5 920.9,-156.5 920.9,-87.5 779.9,-87.5"/>
<text text-anchor="middle" x="795.9" y="-141.3" font-family="Times,serif" font-size="14.00">A</text>
<polyline fill="none" stroke="black" points="779.9,-133.5 811.9,-133.5 "/>
<text text-anchor="middle" x="795.9" y="-118.3" font-family="Times,serif" font-size="14.00">B</text>
<polyline fill="none" stroke="black" points="779.9,-110.5 811.9,-110.5 "/>
<text text-anchor="middle" x="795.9" y="-95.3" font-family="Times,serif" font-size="14.00">sel</text>
<polyline fill="none" stroke="black" points="811.9,-87.5 811.9,-156.5 "/>
<text text-anchor="middle" x="849.4" y="-125.8" font-family="Times,serif" font-size="14.00">uy</text>
<text text-anchor="middle" x="849.4" y="-110.8" font-family="Times,serif" font-size="14.00">mux8b2_1</text>
<polyline fill="none" stroke="black" points="886.9,-87.5 886.9,-156.5 "/>
<text text-anchor="middle" x="903.9" y="-118.3" font-family="Times,serif" font-size="14.00">out</text>
</g>
<!-- n18&#45;&gt;c34 -->
<g id="edge27" class="edge">
<title>n18:e&#45;&gt;c34:w</title>
<path fill="none" stroke="black" stroke-width="3" d="M724.95,-555C813.1,-555 698.17,-177.94 769.67,-147.01"/>
<polygon fill="black" stroke="black" stroke-width="3" points="770.76,-150.37 779.9,-145 769.41,-143.5 770.76,-150.37"/>
</g>
<!-- n19 -->
<g id="node16" class="node">
<title>n19</title>
<polygon fill="none" stroke="black" points="693.95,-157 663.78,-139 693.95,-121 724.11,-139 693.95,-157"/>
<text text-anchor="middle" x="693.95" y="-135.3" font-family="Times,serif" font-size="14.00">w3</text>
</g>
<!-- n19&#45;&gt;c34 -->
<g id="edge29" class="edge">
<title>n19:e&#45;&gt;c34:w</title>
<path fill="none" stroke="black" stroke-width="3" d="M724.95,-139C746.72,-139 752.72,-126.67 769.81,-123.01"/>
<polygon fill="black" stroke="black" stroke-width="3" points="770.3,-126.48 779.9,-122 769.6,-119.52 770.3,-126.48"/>
</g>
<!-- n20 -->
<g id="node17" class="node">
<title>n20</title>
<polygon fill="none" stroke="black" points="987.23,-167 957.06,-149 987.23,-131 1017.39,-149 987.23,-167"/>
<text text-anchor="middle" x="987.23" y="-145.3" font-family="Times,serif" font-size="14.00">w4</text>
</g>
<!-- n20&#45;&gt;c33 -->
<g id="edge32" class="edge">
<title>n20:e&#45;&gt;c33:w</title>
<path fill="none" stroke="black" stroke-width="3" d="M1017.56,-149C1034.55,-149 1033.84,-128.93 1043.91,-121.09"/>
<polygon fill="black" stroke="black" stroke-width="3" points="1045.1,-124.38 1053.56,-118 1042.97,-117.71 1045.1,-124.38"/>
</g>
<!-- n21 -->
<g id="node18" class="node">
<title>n21</title>
<polygon fill="none" stroke="black" points="1268.55,-113 1238.38,-95 1268.55,-77 1298.71,-95 1268.55,-113"/>
<text text-anchor="middle" x="1268.55" y="-91.3" font-family="Times,serif" font-size="14.00">w5</text>
</g>
<!-- n21&#45;&gt;c31 -->
<g id="edge34" class="edge">
<title>n21:e&#45;&gt;c31:w</title>
<path fill="none" stroke="black" stroke-width="3" d="M1299.55,-95C1315.83,-95 1320.64,-104.71 1332.44,-108.51"/>
<polygon fill="black" stroke="black" stroke-width="3" points="1332.13,-112 1342.54,-110 1333.16,-105.07 1332.13,-112"/>
</g>
<!-- c23 -->
<g id="node19" class="node">
<title>c23</title>
<polygon fill="none" stroke="black" points="189,-83 189,-121 282,-121 282,-83 189,-83"/>
<text text-anchor="middle" x="202" y="-98.3" font-family="Times,serif" font-size="14.00">A</text>
<polyline fill="none" stroke="black" points="215,-83 215,-121 "/>
<text text-anchor="middle" x="235.5" y="-105.8" font-family="Times,serif" font-size="14.00">$1</text>
<text text-anchor="middle" x="235.5" y="-90.8" font-family="Times,serif" font-size="14.00">$not</text>
<polyline fill="none" stroke="black" points="256,-83 256,-121 "/>
<text text-anchor="middle" x="269" y="-98.3" font-family="Times,serif" font-size="14.00">Y</text>
</g>
<!-- x5 -->
<g id="node31" class="node">
<title>x5</title>
<path fill="none" stroke="black" d="M330,-123C330,-123 369,-123 369,-123 375,-123 381,-129 381,-135 381,-135 381,-157 381,-157 381,-163 375,-169 369,-169 369,-169 330,-169 330,-169 324,-169 318,-163 318,-157 318,-157 318,-135 318,-135 318,-129 324,-123 330,-123"/>
<text text-anchor="middle" x="349.5" y="-153.8" font-family="Times,serif" font-size="14.00">0:0 &#45; 1:1</text>
<polyline fill="none" stroke="black" points="318,-146 381,-146 "/>
<text text-anchor="middle" x="349.5" y="-130.8" font-family="Times,serif" font-size="14.00">0:0 &#45; 0:0</text>
</g>
<!-- c23&#45;&gt;x5 -->
<g id="edge8" class="edge">
<title>c23:e&#45;&gt;x5:w</title>
<path fill="none" stroke="black" d="M282,-102C299.23,-102 298.18,-122.72 308.27,-130.81"/>
<polygon fill="black" stroke="black" points="307.41,-134.22 318,-134 309.58,-127.56 307.41,-134.22"/>
</g>
<!-- x0&#45;&gt;c23 -->
<g id="edge1" class="edge">
<title>x0:e&#45;&gt;c23:w</title>
<path fill="none" stroke="black" d="M165.23,-104.3C169.3,-103.82 172.73,-103.18 176.8,-102.69"/>
<polygon fill="none" stroke="black" points="164.98,-104.32 159.22,-108.65 153,-105 158.76,-100.67 164.98,-104.32"/>
<polygon fill="none" stroke="black" points="177.02,-102.68 182.78,-98.35 189,-102 183.24,-106.33 177.02,-102.68"/>
</g>
<!-- c24 -->
<g id="node21" class="node">
<title>c24</title>
<polygon fill="none" stroke="black" points="189,-140 189,-178 282,-178 282,-140 189,-140"/>
<text text-anchor="middle" x="202" y="-155.3" font-family="Times,serif" font-size="14.00">A</text>
<polyline fill="none" stroke="black" points="215,-140 215,-178 "/>
<text text-anchor="middle" x="235.5" y="-162.8" font-family="Times,serif" font-size="14.00">$2</text>
<text text-anchor="middle" x="235.5" y="-147.8" font-family="Times,serif" font-size="14.00">$not</text>
<polyline fill="none" stroke="black" points="256,-140 256,-178 "/>
<text text-anchor="middle" x="269" y="-155.3" font-family="Times,serif" font-size="14.00">Y</text>
</g>
<!-- c24&#45;&gt;x5 -->
<g id="edge30" class="edge">
<title>c24:e&#45;&gt;x5:w</title>
<path fill="none" stroke="black" d="M282,-159C294,-159 299.25,-158.44 307.87,-158.16"/>
<polygon fill="black" stroke="black" points="308.06,-161.65 318,-158 307.95,-154.65 308.06,-161.65"/>
</g>
<!-- x1&#45;&gt;c24 -->
<g id="edge2" class="edge">
<title>x1:e&#45;&gt;c24:w</title>
<path fill="none" stroke="black" d="M165.22,-159.77C169.29,-159.61 172.73,-159.39 176.81,-159.23"/>
<polygon fill="none" stroke="black" points="165,-159.77 159.07,-163.89 153,-160 158.92,-155.89 165,-159.77"/>
<polygon fill="none" stroke="black" points="177,-159.23 182.93,-155.11 189,-159 183.08,-163.11 177,-159.23"/>
</g>
<!-- c25 -->
<g id="node23" class="node">
<title>c25</title>
<polygon fill="none" stroke="black" points="803.9,-30 803.9,-68 896.9,-68 896.9,-30 803.9,-30"/>
<text text-anchor="middle" x="816.9" y="-45.3" font-family="Times,serif" font-size="14.00">A</text>
<polyline fill="none" stroke="black" points="829.9,-30 829.9,-68 "/>
<text text-anchor="middle" x="850.4" y="-52.8" font-family="Times,serif" font-size="14.00">$3</text>
<text text-anchor="middle" x="850.4" y="-37.8" font-family="Times,serif" font-size="14.00">$not</text>
<polyline fill="none" stroke="black" points="870.9,-30 870.9,-68 "/>
<text text-anchor="middle" x="883.9" y="-45.3" font-family="Times,serif" font-size="14.00">Y</text>
</g>
<!-- c25&#45;&gt;c33 -->
<g id="edge35" class="edge">
<title>c25:e&#45;&gt;c33:w</title>
<path fill="none" stroke="black" d="M898.4,-49C913.78,-49 1009.35,-66.93 1043.53,-71.13"/>
<polygon fill="black" stroke="black" points="1043.29,-74.62 1053.56,-72 1043.9,-67.65 1043.29,-74.62"/>
</g>
<!-- x2&#45;&gt;c25 -->
<g id="edge3" class="edge">
<title>x2:e&#45;&gt;c25:w</title>
<path fill="none" stroke="black" d="M165.28,-50C242.17,-50 265.85,-50 348.5,-50 348.5,-50 348.5,-50 513.5,-50 637.76,-50 671.83,-49.06 790.28,-49"/>
<polygon fill="none" stroke="black" points="165,-50 159,-54 153,-50 159,-46 165,-50"/>
<polygon fill="none" stroke="black" points="790.4,-49 796.39,-45 802.4,-49 796.4,-53 790.4,-49"/>
</g>
<!-- c27&#45;&gt;n4 -->
<g id="edge36" class="edge">
<title>c27:e&#45;&gt;n4:w</title>
<path fill="none" stroke="black" d="M608,-377C661.46,-377 597.75,-484.18 634.73,-499.25"/>
<polygon fill="black" stroke="black" points="634.5,-502.76 644.95,-501 635.68,-495.86 634.5,-502.76"/>
</g>
<!-- c27&#45;&gt;n5 -->
<g id="edge37" class="edge">
<title>c27:e&#45;&gt;n5:w</title>
<path fill="none" stroke="black" d="M608,-354C648.48,-354 609.04,-431.04 635.16,-444.88"/>
<polygon fill="black" stroke="black" points="634.43,-448.31 644.95,-447 635.91,-441.47 634.43,-448.31"/>
</g>
<!-- c27&#45;&gt;n6 -->
<g id="edge38" class="edge">
<title>c27:e&#45;&gt;n6:w</title>
<path fill="none" stroke="black" d="M608,-331C636.47,-331 620.02,-378.47 637.27,-390.34"/>
<polygon fill="black" stroke="black" points="636.38,-393.72 646.95,-393 638.23,-386.97 636.38,-393.72"/>
</g>
<!-- c27&#45;&gt;n7 -->
<g id="edge39" class="edge">
<title>c27:e&#45;&gt;n7:w</title>
<path fill="none" stroke="black" d="M608,-308C625.25,-308 624.78,-328.07 635.11,-335.91"/>
<polygon fill="black" stroke="black" points="634.36,-339.35 644.95,-339 636.45,-332.67 634.36,-339.35"/>
</g>
<!-- c27&#45;&gt;n8 -->
<g id="edge40" class="edge">
<title>c27:e&#45;&gt;n8:w</title>
<path fill="none" stroke="black" d="M608,-285C620,-285 625.25,-285 633.88,-285"/>
<polygon fill="black" stroke="black" points="634,-288.5 644,-285 634,-281.5 634,-288.5"/>
</g>
<!-- c27&#45;&gt;n12 -->
<g id="edge14" class="edge">
<title>c27:e&#45;&gt;n12:w</title>
<path fill="none" stroke="black" d="M608,-262C625.98,-262 625.85,-241.54 637.03,-233.86"/>
<polygon fill="black" stroke="black" points="638.31,-237.14 646.95,-231 636.37,-230.41 638.31,-237.14"/>
</g>
<!-- c27&#45;&gt;n17 -->
<g id="edge24" class="edge">
<title>c27:e&#45;&gt;n17:w</title>
<path fill="none" stroke="black" stroke-width="3" d="M608,-239C630.32,-239 623.94,-213.78 644,-204 755.64,-149.54 819.72,-238.07 920.9,-166 946.34,-147.88 927.34,-106.42 946.88,-96.95"/>
<polygon fill="black" stroke="black" stroke-width="3" points="947.75,-100.35 956.9,-95 946.41,-93.48 947.75,-100.35"/>
</g>
<!-- x3&#45;&gt;c27 -->
<g id="edge4" class="edge">
<title>x3:e&#45;&gt;c27:w</title>
<path fill="none" stroke="black" stroke-width="3" d="M280.67,-254C332.99,-254 352.56,-254 404.92,-254"/>
<polygon fill="none" stroke="black" stroke-width="3" points="280.5,-254 274.5,-258 268.5,-254 274.5,-250 280.5,-254"/>
<polygon fill="none" stroke="black" stroke-width="3" points="405,-254 411,-250 417,-254 411,-258 405,-254"/>
</g>
<!-- c28&#45;&gt;n18 -->
<g id="edge26" class="edge">
<title>c28:e&#45;&gt;n18:w</title>
<path fill="none" stroke="black" stroke-width="3" d="M580.5,-442C638.91,-442 605.47,-541.73 652.75,-553.81"/>
<polygon fill="black" stroke="black" stroke-width="3" points="652.61,-557.31 662.95,-555 653.42,-550.36 652.61,-557.31"/>
</g>
<!-- x4&#45;&gt;c28 -->
<g id="edge5" class="edge">
<title>x4:e&#45;&gt;c28:w</title>
<path fill="none" stroke="black" stroke-width="3" d="M165.15,-352.19C283.69,-356 313.81,-415.01 432.36,-418.81"/>
<polygon fill="none" stroke="black" stroke-width="3" points="165,-352.19 158.94,-356.09 153,-352 159.06,-348.1 165,-352.19"/>
<polygon fill="none" stroke="black" stroke-width="3" points="432.5,-418.81 438.56,-414.91 444.5,-419 438.44,-422.9 432.5,-418.81"/>
</g>
<!-- c31&#45;&gt;n15 -->
<g id="edge17" class="edge">
<title>c31:e&#45;&gt;n15:w</title>
<path fill="none" stroke="black" stroke-width="3" d="M1596.54,-122C1608.54,-122 1613.79,-122 1622.41,-122"/>
<polygon fill="black" stroke="black" stroke-width="3" points="1622.54,-125.5 1632.54,-122 1622.54,-118.5 1622.54,-125.5"/>
</g>
<!-- c32&#45;&gt;n19 -->
<g id="edge28" class="edge">
<title>c32:e&#45;&gt;n19:w</title>
<path fill="none" stroke="black" stroke-width="3" d="M590.5,-158C620.15,-158 628.05,-142.93 652.94,-139.63"/>
<polygon fill="black" stroke="black" stroke-width="3" points="653.19,-143.12 662.95,-139 652.75,-136.14 653.19,-143.12"/>
</g>
<!-- x5&#45;&gt;c32 -->
<g id="edge6" class="edge">
<title>x5:e&#45;&gt;c32:w</title>
<path fill="none" stroke="black" stroke-width="3" d="M393.16,-146C404.24,-146 411.28,-146 422.37,-146"/>
<polygon fill="none" stroke="black" stroke-width="3" points="393,-146 387,-150 381,-146 387,-142 393,-146"/>
<polygon fill="none" stroke="black" stroke-width="3" points="422.5,-146 428.5,-142 434.5,-146 428.5,-150 422.5,-146"/>
</g>
<!-- c33&#45;&gt;n21 -->
<g id="edge33" class="edge">
<title>c33:e&#45;&gt;n21:w</title>
<path fill="none" stroke="black" stroke-width="3" d="M1194.56,-95C1209.79,-95 1215.91,-95 1227.44,-95"/>
<polygon fill="black" stroke="black" stroke-width="3" points="1227.55,-98.5 1237.55,-95 1227.55,-91.5 1227.55,-98.5"/>
</g>
<!-- c34&#45;&gt;n20 -->
<g id="edge31" class="edge">
<title>c34:e&#45;&gt;n20:w</title>
<path fill="none" stroke="black" stroke-width="3" d="M920.9,-122C936.83,-122 937.53,-139.15 947.28,-146.11"/>
<polygon fill="black" stroke="black" stroke-width="3" points="946.31,-149.48 956.9,-149 948.33,-142.77 946.31,-149.48"/>
</g>
<!-- x6&#45;&gt;c34 -->
<g id="edge7" class="edge">
<title>x6:e&#45;&gt;c34:w</title>
<path fill="none" stroke="black" d="M557.65,-98C647.93,-98.08 677.42,-98.92 767.67,-99"/>
<polygon fill="none" stroke="black" points="557.5,-98 551.5,-102 545.5,-98 551.5,-94 557.5,-98"/>
<polygon fill="none" stroke="black" points="767.9,-99 773.9,-95 779.9,-99 773.89,-103 767.9,-99"/>
</g>
</g>
</svg>
