<?xml version="1.0" encoding="UTF-8" standalone="no"?>
<!DOCTYPE svg PUBLIC "-//W3C//DTD SVG 1.1//EN"
 "http://www.w3.org/Graphics/SVG/1.1/DTD/svg11.dtd">
<!-- Generated by graphviz version 2.43.0 (0)
 -->
<!-- Title: eightBitALU Pages: 1 -->
<svg width="833pt" height="908pt"
 viewBox="0.00 0.00 832.98 907.50" xmlns="http://www.w3.org/2000/svg" xmlns:xlink="http://www.w3.org/1999/xlink">
<g id="page0,1_graph0" class="graph" transform="scale(1 1) rotate(0) translate(4 903.5)">
<title>eightBitALU</title>
<polygon fill="white" stroke="transparent" points="-4,4 -4,-903.5 828.98,-903.5 828.98,4 -4,4"/>
<text text-anchor="middle" x="412.49" y="-7.8" font-family="Times,serif" font-size="14.00">eightBitALU</text>
<!-- n2 -->
<g id="node1" class="node">
<title>n2</title>
<polygon fill="none" stroke="black" points="169,-735.04 169,-749.96 153.18,-760.5 130.81,-760.5 115,-749.96 115,-735.04 130.81,-724.5 153.18,-724.5 169,-735.04"/>
<text text-anchor="middle" x="142" y="-738.8" font-family="Times,serif" font-size="14.00">A</text>
</g>
<!-- c28 -->
<g id="node24" class="node">
<title>c28</title>
<polygon fill="none" stroke="black" points="229.99,-608 229.99,-769 420.99,-769 420.99,-608 229.99,-608"/>
<text text-anchor="middle" x="247.99" y="-738.8" font-family="Times,serif" font-size="14.00">A</text>
<polyline fill="none" stroke="black" points="229.99,-716 265.99,-716 "/>
<text text-anchor="middle" x="247.99" y="-685.3" font-family="Times,serif" font-size="14.00">B</text>
<polyline fill="none" stroke="black" points="229.99,-662 265.99,-662 "/>
<text text-anchor="middle" x="247.99" y="-631.3" font-family="Times,serif" font-size="14.00">Cin</text>
<polyline fill="none" stroke="black" points="265.99,-608 265.99,-769 "/>
<text text-anchor="middle" x="307.99" y="-692.3" font-family="Times,serif" font-size="14.00">sgn1</text>
<text text-anchor="middle" x="307.99" y="-677.3" font-family="Times,serif" font-size="14.00">signcom8bit</text>
<polyline fill="none" stroke="black" points="349.99,-608 349.99,-769 "/>
<text text-anchor="middle" x="385.49" y="-753.8" font-family="Times,serif" font-size="14.00">A_EQ_B</text>
<polyline fill="none" stroke="black" points="349.99,-746 420.99,-746 "/>
<text text-anchor="middle" x="385.49" y="-730.8" font-family="Times,serif" font-size="14.00">A_GR_B</text>
<polyline fill="none" stroke="black" points="349.99,-723 420.99,-723 "/>
<text text-anchor="middle" x="385.49" y="-707.8" font-family="Times,serif" font-size="14.00">A_LS_B</text>
<polyline fill="none" stroke="black" points="349.99,-700 420.99,-700 "/>
<text text-anchor="middle" x="385.49" y="-684.8" font-family="Times,serif" font-size="14.00">CarryOut</text>
<polyline fill="none" stroke="black" points="349.99,-677 420.99,-677 "/>
<text text-anchor="middle" x="385.49" y="-661.8" font-family="Times,serif" font-size="14.00">OverFlow</text>
<polyline fill="none" stroke="black" points="349.99,-654 420.99,-654 "/>
<text text-anchor="middle" x="385.49" y="-638.8" font-family="Times,serif" font-size="14.00">ZeroFlag</text>
<polyline fill="none" stroke="black" points="349.99,-631 420.99,-631 "/>
<text text-anchor="middle" x="385.49" y="-615.8" font-family="Times,serif" font-size="14.00">out</text>
</g>
<!-- n2&#45;&gt;c28 -->
<g id="edge20" class="edge">
<title>n2:e&#45;&gt;c28:w</title>
<path fill="none" stroke="black" stroke-width="3" d="M170,-742.5C192.91,-742.5 201.06,-742.5 219.82,-742.5"/>
<polygon fill="black" stroke="black" stroke-width="3" points="219.99,-746 229.99,-742.5 219.99,-739 219.99,-746"/>
</g>
<!-- n3 -->
<g id="node2" class="node">
<title>n3</title>
<polygon fill="none" stroke="black" points="556.25,-874.04 556.25,-888.96 528.57,-899.5 489.41,-899.5 461.72,-888.96 461.72,-874.04 489.41,-863.5 528.57,-863.5 556.25,-874.04"/>
<text text-anchor="middle" x="508.99" y="-877.8" font-family="Times,serif" font-size="14.00">A_EQ_B</text>
</g>
<!-- n4 -->
<g id="node3" class="node">
<title>n4</title>
<polygon fill="none" stroke="black" points="556.66,-820.04 556.66,-834.96 528.73,-845.5 489.24,-845.5 461.31,-834.96 461.31,-820.04 489.24,-809.5 528.73,-809.5 556.66,-820.04"/>
<text text-anchor="middle" x="508.99" y="-823.8" font-family="Times,serif" font-size="14.00">A_GR_B</text>
</g>
<!-- n5 -->
<g id="node4" class="node">
<title>n5</title>
<polygon fill="none" stroke="black" points="554.94,-766.04 554.94,-780.96 528.02,-791.5 489.95,-791.5 463.03,-780.96 463.03,-766.04 489.95,-755.5 528.02,-755.5 554.94,-766.04"/>
<text text-anchor="middle" x="508.99" y="-769.8" font-family="Times,serif" font-size="14.00">A_LS_B</text>
</g>
<!-- n6 -->
<g id="node5" class="node">
<title>n6</title>
<polygon fill="none" stroke="black" points="54,-458.04 54,-472.96 38.18,-483.5 15.82,-483.5 0,-472.96 0,-458.04 15.82,-447.5 38.18,-447.5 54,-458.04"/>
<text text-anchor="middle" x="27" y="-461.8" font-family="Times,serif" font-size="14.00">B</text>
</g>
<!-- c21 -->
<g id="node19" class="node">
<title>c21</title>
<polygon fill="none" stroke="black" points="95.5,-284.5 95.5,-322.5 188.5,-322.5 188.5,-284.5 95.5,-284.5"/>
<text text-anchor="middle" x="108.5" y="-299.8" font-family="Times,serif" font-size="14.00">A</text>
<polyline fill="none" stroke="black" points="121.5,-284.5 121.5,-322.5 "/>
<text text-anchor="middle" x="142" y="-307.3" font-family="Times,serif" font-size="14.00">$16</text>
<text text-anchor="middle" x="142" y="-292.3" font-family="Times,serif" font-size="14.00">$not</text>
<polyline fill="none" stroke="black" points="162.5,-284.5 162.5,-322.5 "/>
<text text-anchor="middle" x="175.5" y="-299.8" font-family="Times,serif" font-size="14.00">Y</text>
</g>
<!-- n6&#45;&gt;c21 -->
<g id="edge24" class="edge">
<title>n6:e&#45;&gt;c21:w</title>
<path fill="none" stroke="black" stroke-width="3" d="M54,-465.5C124.4,-465.5 30.37,-319.54 84.06,-304.71"/>
<polygon fill="black" stroke="black" stroke-width="3" points="84.49,-308.18 94,-303.5 83.65,-301.24 84.49,-308.18"/>
</g>
<!-- n6&#45;&gt;c28 -->
<g id="edge25" class="edge">
<title>n6:e&#45;&gt;c28:w</title>
<path fill="none" stroke="black" stroke-width="3" d="M54,-465.5C92.99,-465.5 68.08,-513.26 90,-545.5 138.22,-616.43 140.61,-684.01 219.93,-689.18"/>
<polygon fill="black" stroke="black" stroke-width="3" points="219.89,-692.68 229.99,-689.5 220.11,-685.69 219.89,-692.68"/>
</g>
<!-- n7 -->
<g id="node6" class="node">
<title>n7</title>
<polygon fill="none" stroke="black" points="556.66,-712.04 556.66,-726.96 528.73,-737.5 489.24,-737.5 461.31,-726.96 461.31,-712.04 489.24,-701.5 528.73,-701.5 556.66,-712.04"/>
<text text-anchor="middle" x="508.99" y="-715.8" font-family="Times,serif" font-size="14.00">CarryOut</text>
</g>
<!-- n8 -->
<g id="node7" class="node">
<title>n8</title>
<polygon fill="none" stroke="black" points="558.88,-658.04 558.88,-672.96 529.65,-683.5 488.32,-683.5 459.09,-672.96 459.09,-658.04 488.32,-647.5 529.65,-647.5 558.88,-658.04"/>
<text text-anchor="middle" x="508.99" y="-661.8" font-family="Times,serif" font-size="14.00">OverFlow</text>
</g>
<!-- n9 -->
<g id="node8" class="node">
<title>n9</title>
<polygon fill="none" stroke="black" points="555.35,-604.04 555.35,-618.96 528.19,-629.5 489.78,-629.5 462.63,-618.96 462.63,-604.04 489.78,-593.5 528.19,-593.5 555.35,-604.04"/>
<text text-anchor="middle" x="508.99" y="-607.8" font-family="Times,serif" font-size="14.00">ZeroFlag</text>
</g>
<!-- n10 -->
<g id="node9" class="node">
<title>n10</title>
<polygon fill="none" stroke="black" points="508.99,-305.5 481.99,-287.5 508.99,-269.5 535.99,-287.5 508.99,-305.5"/>
<text text-anchor="middle" x="508.99" y="-283.8" font-family="Times,serif" font-size="14.00">cf</text>
</g>
<!-- n11 -->
<g id="node10" class="node">
<title>n11</title>
<polygon fill="none" stroke="black" points="508.99,-251.5 481.34,-233.5 508.99,-215.5 536.64,-233.5 508.99,-251.5"/>
<text text-anchor="middle" x="508.99" y="-229.8" font-family="Times,serif" font-size="14.00">ng</text>
</g>
<!-- n12 -->
<g id="node11" class="node">
<title>n12</title>
<polygon fill="none" stroke="black" points="824.98,-307.04 824.98,-321.96 809.17,-332.5 786.8,-332.5 770.98,-321.96 770.98,-307.04 786.8,-296.5 809.17,-296.5 824.98,-307.04"/>
<text text-anchor="middle" x="797.98" y="-310.8" font-family="Times,serif" font-size="14.00">out</text>
</g>
<!-- n13 -->
<g id="node12" class="node">
<title>n13</title>
<polygon fill="none" stroke="black" points="508.99,-575.5 471.11,-557.5 508.99,-539.5 546.86,-557.5 508.99,-575.5"/>
<text text-anchor="middle" x="508.99" y="-553.8" font-family="Times,serif" font-size="14.00">out1</text>
</g>
<!-- c26 -->
<g id="node21" class="node">
<title>c26</title>
<polygon fill="none" stroke="black" points="596.98,-245.5 596.98,-383.5 734.98,-383.5 734.98,-245.5 596.98,-245.5"/>
<text text-anchor="middle" x="611.48" y="-368.3" font-family="Times,serif" font-size="14.00">A</text>
<polyline fill="none" stroke="black" points="596.98,-360.5 625.98,-360.5 "/>
<text text-anchor="middle" x="611.48" y="-345.3" font-family="Times,serif" font-size="14.00">B</text>
<polyline fill="none" stroke="black" points="596.98,-337.5 625.98,-337.5 "/>
<text text-anchor="middle" x="611.48" y="-322.3" font-family="Times,serif" font-size="14.00">C</text>
<polyline fill="none" stroke="black" points="596.98,-314.5 625.98,-314.5 "/>
<text text-anchor="middle" x="611.48" y="-299.3" font-family="Times,serif" font-size="14.00">D</text>
<polyline fill="none" stroke="black" points="596.98,-291.5 625.98,-291.5 "/>
<text text-anchor="middle" x="611.48" y="-276.3" font-family="Times,serif" font-size="14.00">s0</text>
<polyline fill="none" stroke="black" points="596.98,-268.5 625.98,-268.5 "/>
<text text-anchor="middle" x="611.48" y="-253.3" font-family="Times,serif" font-size="14.00">s1</text>
<polyline fill="none" stroke="black" points="625.98,-245.5 625.98,-383.5 "/>
<text text-anchor="middle" x="663.48" y="-318.3" font-family="Times,serif" font-size="14.00">mx1</text>
<text text-anchor="middle" x="663.48" y="-303.3" font-family="Times,serif" font-size="14.00">mux8b4x1</text>
<polyline fill="none" stroke="black" points="700.98,-245.5 700.98,-383.5 "/>
<text text-anchor="middle" x="717.98" y="-310.8" font-family="Times,serif" font-size="14.00">out</text>
</g>
<!-- n13&#45;&gt;c26 -->
<g id="edge9" class="edge">
<title>n13:e&#45;&gt;c26:w</title>
<path fill="none" stroke="black" stroke-width="3" d="M547.99,-557.5C629.22,-557.5 522.39,-388.75 586.73,-373.59"/>
<polygon fill="black" stroke="black" stroke-width="3" points="587.41,-377.03 596.98,-372.5 586.67,-370.07 587.41,-377.03"/>
</g>
<!-- n13&#45;&gt;c26 -->
<g id="edge10" class="edge">
<title>n13:e&#45;&gt;c26:w</title>
<path fill="none" stroke="black" stroke-width="3" d="M547.99,-557.5C639.25,-557.5 512.66,-365.43 586.9,-350.43"/>
<polygon fill="black" stroke="black" stroke-width="3" points="587.34,-353.9 596.98,-349.5 586.7,-346.93 587.34,-353.9"/>
</g>
<!-- n14 -->
<g id="node13" class="node">
<title>n14</title>
<polygon fill="none" stroke="black" points="508.99,-143.5 471.11,-125.5 508.99,-107.5 546.86,-125.5 508.99,-143.5"/>
<text text-anchor="middle" x="508.99" y="-121.8" font-family="Times,serif" font-size="14.00">out3</text>
</g>
<!-- n14&#45;&gt;c26 -->
<g id="edge12" class="edge">
<title>n14:e&#45;&gt;c26:w</title>
<path fill="none" stroke="black" stroke-width="3" d="M547.99,-125.5C625.78,-125.5 525.64,-286.3 586.75,-301.37"/>
<polygon fill="black" stroke="black" stroke-width="3" points="586.66,-304.88 596.98,-302.5 587.43,-297.92 586.66,-304.88"/>
</g>
<!-- n15 -->
<g id="node14" class="node">
<title>n15</title>
<polygon fill="none" stroke="black" points="54,-89.04 54,-103.96 38.18,-114.5 15.82,-114.5 0,-103.96 0,-89.04 15.82,-78.5 38.18,-78.5 54,-89.04"/>
<text text-anchor="middle" x="27" y="-92.8" font-family="Times,serif" font-size="14.00">sel</text>
</g>
<!-- x1 -->
<g id="node22" class="node">
<title>x1</title>
<path fill="none" stroke="black" d="M305.99,-78.5C305.99,-78.5 344.99,-78.5 344.99,-78.5 350.99,-78.5 356.99,-84.5 356.99,-90.5 356.99,-90.5 356.99,-102.5 356.99,-102.5 356.99,-108.5 350.99,-114.5 344.99,-114.5 344.99,-114.5 305.99,-114.5 305.99,-114.5 299.99,-114.5 293.99,-108.5 293.99,-102.5 293.99,-102.5 293.99,-90.5 293.99,-90.5 293.99,-84.5 299.99,-78.5 305.99,-78.5"/>
<text text-anchor="middle" x="325.49" y="-92.8" font-family="Times,serif" font-size="14.00">1:1 &#45; 0:0</text>
</g>
<!-- n15&#45;&gt;x1 -->
<g id="edge13" class="edge">
<title>n15:e&#45;&gt;x1:w</title>
<path fill="none" stroke="black" d="M54,-96.5C156.58,-96.5 184.7,-96.5 282.49,-96.5"/>
<polygon fill="black" stroke="black" points="282.49,-100 292.49,-96.5 282.49,-93 282.49,-100"/>
</g>
<!-- x2 -->
<g id="node23" class="node">
<title>x2</title>
<path fill="none" stroke="black" d="M305.99,-23.5C305.99,-23.5 344.99,-23.5 344.99,-23.5 350.99,-23.5 356.99,-29.5 356.99,-35.5 356.99,-35.5 356.99,-47.5 356.99,-47.5 356.99,-53.5 350.99,-59.5 344.99,-59.5 344.99,-59.5 305.99,-59.5 305.99,-59.5 299.99,-59.5 293.99,-53.5 293.99,-47.5 293.99,-47.5 293.99,-35.5 293.99,-35.5 293.99,-29.5 299.99,-23.5 305.99,-23.5"/>
<text text-anchor="middle" x="325.49" y="-37.8" font-family="Times,serif" font-size="14.00">0:0 &#45; 0:0</text>
</g>
<!-- n15&#45;&gt;x2 -->
<g id="edge14" class="edge">
<title>n15:e&#45;&gt;x2:w</title>
<path fill="none" stroke="black" d="M54,-96.5C105.2,-96.5 223.16,-47.76 282.18,-42.04"/>
<polygon fill="black" stroke="black" points="282.69,-45.52 292.49,-41.5 282.32,-38.53 282.69,-45.52"/>
</g>
<!-- x3 -->
<g id="node25" class="node">
<title>x3</title>
<path fill="none" stroke="black" d="M122.5,-499.5C122.5,-499.5 161.5,-499.5 161.5,-499.5 167.5,-499.5 173.5,-505.5 173.5,-511.5 173.5,-511.5 173.5,-523.5 173.5,-523.5 173.5,-529.5 167.5,-535.5 161.5,-535.5 161.5,-535.5 122.5,-535.5 122.5,-535.5 116.5,-535.5 110.5,-529.5 110.5,-523.5 110.5,-523.5 110.5,-511.5 110.5,-511.5 110.5,-505.5 116.5,-499.5 122.5,-499.5"/>
<text text-anchor="middle" x="142" y="-513.8" font-family="Times,serif" font-size="14.00">0:0 &#45; 0:0</text>
</g>
<!-- n15&#45;&gt;x3 -->
<g id="edge15" class="edge">
<title>n15:e&#45;&gt;x3:w</title>
<path fill="none" stroke="black" d="M54,-96.5C144.66,-96.5 24.74,-485.25 98.96,-515.62"/>
<polygon fill="black" stroke="black" points="98.52,-519.1 109,-517.5 99.81,-512.22 98.52,-519.1"/>
</g>
<!-- n16 -->
<g id="node15" class="node">
<title>n16</title>
<polygon fill="none" stroke="black" points="508.99,-413.5 478.82,-395.5 508.99,-377.5 539.15,-395.5 508.99,-413.5"/>
<text text-anchor="middle" x="508.99" y="-391.8" font-family="Times,serif" font-size="14.00">w1</text>
</g>
<!-- n17 -->
<g id="node16" class="node">
<title>n17</title>
<polygon fill="none" stroke="black" points="508.99,-359.5 478.82,-341.5 508.99,-323.5 539.15,-341.5 508.99,-359.5"/>
<text text-anchor="middle" x="508.99" y="-337.8" font-family="Times,serif" font-size="14.00">w2</text>
</g>
<!-- n18 -->
<g id="node17" class="node">
<title>n18</title>
<polygon fill="none" stroke="black" points="508.99,-467.5 478.82,-449.5 508.99,-431.5 539.15,-449.5 508.99,-467.5"/>
<text text-anchor="middle" x="508.99" y="-445.8" font-family="Times,serif" font-size="14.00">w3</text>
</g>
<!-- n19 -->
<g id="node18" class="node">
<title>n19</title>
<polygon fill="none" stroke="black" points="508.99,-197.5 481.99,-179.5 508.99,-161.5 535.99,-179.5 508.99,-197.5"/>
<text text-anchor="middle" x="508.99" y="-175.8" font-family="Times,serif" font-size="14.00">zf</text>
</g>
<!-- c29 -->
<g id="node28" class="node">
<title>c29</title>
<polygon fill="none" stroke="black" points="229.99,-222 229.99,-383 420.99,-383 420.99,-222 229.99,-222"/>
<text text-anchor="middle" x="247.99" y="-352.8" font-family="Times,serif" font-size="14.00">A</text>
<polyline fill="none" stroke="black" points="229.99,-330 265.99,-330 "/>
<text text-anchor="middle" x="247.99" y="-299.3" font-family="Times,serif" font-size="14.00">B</text>
<polyline fill="none" stroke="black" points="229.99,-276 265.99,-276 "/>
<text text-anchor="middle" x="247.99" y="-245.3" font-family="Times,serif" font-size="14.00">Cin</text>
<polyline fill="none" stroke="black" points="265.99,-222 265.99,-383 "/>
<text text-anchor="middle" x="307.99" y="-306.3" font-family="Times,serif" font-size="14.00">sgn3</text>
<text text-anchor="middle" x="307.99" y="-291.3" font-family="Times,serif" font-size="14.00">signcom8bit</text>
<polyline fill="none" stroke="black" points="349.99,-222 349.99,-383 "/>
<text text-anchor="middle" x="385.49" y="-367.8" font-family="Times,serif" font-size="14.00">A_EQ_B</text>
<polyline fill="none" stroke="black" points="349.99,-360 420.99,-360 "/>
<text text-anchor="middle" x="385.49" y="-344.8" font-family="Times,serif" font-size="14.00">A_GR_B</text>
<polyline fill="none" stroke="black" points="349.99,-337 420.99,-337 "/>
<text text-anchor="middle" x="385.49" y="-321.8" font-family="Times,serif" font-size="14.00">A_LS_B</text>
<polyline fill="none" stroke="black" points="349.99,-314 420.99,-314 "/>
<text text-anchor="middle" x="385.49" y="-298.8" font-family="Times,serif" font-size="14.00">CarryOut</text>
<polyline fill="none" stroke="black" points="349.99,-291 420.99,-291 "/>
<text text-anchor="middle" x="385.49" y="-275.8" font-family="Times,serif" font-size="14.00">OverFlow</text>
<polyline fill="none" stroke="black" points="349.99,-268 420.99,-268 "/>
<text text-anchor="middle" x="385.49" y="-252.8" font-family="Times,serif" font-size="14.00">ZeroFlag</text>
<polyline fill="none" stroke="black" points="349.99,-245 420.99,-245 "/>
<text text-anchor="middle" x="385.49" y="-229.8" font-family="Times,serif" font-size="14.00">out</text>
</g>
<!-- c21&#45;&gt;c29 -->
<g id="edge4" class="edge">
<title>c21:e&#45;&gt;c29:w</title>
<path fill="none" stroke="black" stroke-width="3" d="M190,-303.5C203.88,-303.5 209.63,-303.5 219.96,-303.5"/>
<polygon fill="black" stroke="black" stroke-width="3" points="219.99,-307 229.99,-303.5 219.99,-300 219.99,-307"/>
</g>
<!-- v0 -->
<g id="node20" class="node">
<title>v0</title>
<ellipse fill="none" stroke="black" cx="508.99" cy="-503.5" rx="51.99" ry="18"/>
<text text-anchor="middle" x="508.99" y="-499.8" font-family="Times,serif" font-size="14.00">8&#39;00000000</text>
</g>
<!-- v0&#45;&gt;c26 -->
<g id="edge29" class="edge">
<title>v0:e&#45;&gt;c26:w</title>
<path fill="none" stroke="black" stroke-width="3" d="M560.98,-503.5C637.5,-503.5 527.93,-342.7 587,-327.63"/>
<polygon fill="black" stroke="black" stroke-width="3" points="587.44,-331.1 596.98,-326.5 586.65,-324.15 587.44,-331.1"/>
</g>
<!-- c26&#45;&gt;n12 -->
<g id="edge7" class="edge">
<title>c26:e&#45;&gt;n12:w</title>
<path fill="none" stroke="black" stroke-width="3" d="M734.98,-314.5C746.98,-314.5 752.23,-314.5 760.86,-314.5"/>
<polygon fill="black" stroke="black" stroke-width="3" points="760.98,-318 770.98,-314.5 760.98,-311 760.98,-318"/>
</g>
<!-- x1&#45;&gt;c26 -->
<g id="edge1" class="edge">
<title>x1:e&#45;&gt;c26:w</title>
<path fill="none" stroke="black" d="M370.59,-96.17C452.51,-91.65 494.87,-43.7 560.98,-98.5 620.55,-147.88 526.77,-265.17 584.82,-278.3"/>
<polygon fill="none" stroke="black" points="370.49,-96.17 364.6,-100.33 358.49,-96.5 364.38,-92.34 370.49,-96.17"/>
<polygon fill="none" stroke="black" points="585.04,-278.32 591.4,-274.93 596.98,-279.5 590.62,-282.89 585.04,-278.32"/>
</g>
<!-- x2&#45;&gt;c26 -->
<g id="edge2" class="edge">
<title>x2:e&#45;&gt;c26:w</title>
<path fill="none" stroke="black" d="M370.71,-41.29C453.52,-38.46 498.02,-9.01 560.98,-68.5 619.44,-123.73 523.52,-242.54 584.72,-255.37"/>
<polygon fill="none" stroke="black" points="370.49,-41.29 364.56,-45.4 358.49,-41.5 364.42,-37.4 370.49,-41.29"/>
<polygon fill="none" stroke="black" points="585.03,-255.4 591.37,-251.97 596.98,-256.5 590.64,-259.93 585.03,-255.4"/>
</g>
<!-- c28&#45;&gt;n3 -->
<g id="edge21" class="edge">
<title>c28:e&#45;&gt;n3:w</title>
<path fill="none" stroke="black" d="M420.99,-757.5C474.7,-757.5 412.31,-864.68 449.7,-879.75"/>
<polygon fill="black" stroke="black" points="449.54,-883.27 459.99,-881.5 450.72,-876.37 449.54,-883.27"/>
</g>
<!-- c28&#45;&gt;n4 -->
<g id="edge22" class="edge">
<title>c28:e&#45;&gt;n4:w</title>
<path fill="none" stroke="black" d="M420.99,-734.5C461.78,-734.5 423.5,-811.54 450.08,-825.38"/>
<polygon fill="black" stroke="black" points="449.48,-828.83 459.99,-827.5 450.94,-821.99 449.48,-828.83"/>
</g>
<!-- c28&#45;&gt;n5 -->
<g id="edge23" class="edge">
<title>c28:e&#45;&gt;n5:w</title>
<path fill="none" stroke="black" d="M420.99,-711.5C449.9,-711.5 434.31,-758.97 452.1,-770.84"/>
<polygon fill="black" stroke="black" points="451.42,-774.28 461.99,-773.5 453.24,-767.52 451.42,-774.28"/>
</g>
<!-- c28&#45;&gt;n7 -->
<g id="edge26" class="edge">
<title>c28:e&#45;&gt;n7:w</title>
<path fill="none" stroke="black" d="M420.99,-688.5C438.98,-688.5 438.86,-708.96 450.06,-716.64"/>
<polygon fill="black" stroke="black" points="449.41,-720.09 459.99,-719.5 451.35,-713.37 449.41,-720.09"/>
</g>
<!-- c28&#45;&gt;n8 -->
<g id="edge27" class="edge">
<title>c28:e&#45;&gt;n8:w</title>
<path fill="none" stroke="black" d="M420.99,-665.5C433.45,-665.5 438.83,-665.5 447.86,-665.5"/>
<polygon fill="black" stroke="black" points="447.99,-669 457.99,-665.5 447.99,-662 447.99,-669"/>
</g>
<!-- c28&#45;&gt;n9 -->
<g id="edge28" class="edge">
<title>c28:e&#45;&gt;n9:w</title>
<path fill="none" stroke="black" d="M420.99,-642.5C439.73,-642.5 439.94,-621.64 452.02,-614.14"/>
<polygon fill="black" stroke="black" points="453.22,-617.45 461.99,-611.5 451.42,-610.68 453.22,-617.45"/>
</g>
<!-- c28&#45;&gt;n13 -->
<g id="edge8" class="edge">
<title>c28:e&#45;&gt;n13:w</title>
<path fill="none" stroke="black" stroke-width="3" d="M420.99,-619.5C452.13,-619.5 438.96,-570.75 460.06,-559.71"/>
<polygon fill="black" stroke="black" stroke-width="3" points="460.98,-563.09 469.99,-557.5 459.46,-556.25 460.98,-563.09"/>
</g>
<!-- x3&#45;&gt;c28 -->
<g id="edge3" class="edge">
<title>x3:e&#45;&gt;c28:w</title>
<path fill="none" stroke="black" d="M186.9,-519.73C220.13,-534.45 184.87,-617.45 218.04,-632.24"/>
<polygon fill="none" stroke="black" points="186.79,-519.71 180.15,-522.54 175,-517.5 181.63,-514.68 186.79,-519.71"/>
<polygon fill="none" stroke="black" points="218.2,-632.27 224.84,-629.46 229.99,-634.5 223.35,-637.32 218.2,-632.27"/>
</g>
<!-- v4 -->
<g id="node26" class="node">
<title>v4</title>
<ellipse fill="none" stroke="black" cx="142" cy="-359.5" rx="51.99" ry="18"/>
<text text-anchor="middle" x="142" y="-355.8" font-family="Times,serif" font-size="14.00">8&#39;00000001</text>
</g>
<!-- v4&#45;&gt;c29 -->
<g id="edge30" class="edge">
<title>v4:e&#45;&gt;c29:w</title>
<path fill="none" stroke="black" stroke-width="3" d="M193.99,-359.5C206.03,-359.5 211.23,-357.81 219.85,-356.97"/>
<polygon fill="black" stroke="black" stroke-width="3" points="220.16,-360.46 229.99,-356.5 219.84,-353.47 220.16,-360.46"/>
</g>
<!-- v5 -->
<g id="node27" class="node">
<title>v5</title>
<ellipse fill="none" stroke="black" cx="142" cy="-247.5" rx="27" ry="18"/>
<text text-anchor="middle" x="142" y="-243.8" font-family="Times,serif" font-size="14.00">1&#39;0</text>
</g>
<!-- v5&#45;&gt;c29 -->
<g id="edge31" class="edge">
<title>v5:e&#45;&gt;c29:w</title>
<path fill="none" stroke="black" d="M170,-247.5C192.91,-247.5 201.05,-248.24 219.82,-248.45"/>
<polygon fill="black" stroke="black" points="219.97,-251.95 229.99,-248.5 220.01,-244.95 219.97,-251.95"/>
</g>
<!-- c29&#45;&gt;n10 -->
<g id="edge5" class="edge">
<title>c29:e&#45;&gt;n10:w</title>
<path fill="none" stroke="black" d="M420.99,-302.5C444.72,-302.5 451.71,-291.32 470.86,-288.26"/>
<polygon fill="black" stroke="black" points="471.28,-291.74 480.99,-287.5 470.75,-284.76 471.28,-291.74"/>
</g>
<!-- c29&#45;&gt;n11 -->
<g id="edge6" class="edge">
<title>c29:e&#45;&gt;n11:w</title>
<path fill="none" stroke="black" d="M420.99,-279.5C450.34,-279.5 447.94,-243.65 469.84,-235.25"/>
<polygon fill="black" stroke="black" points="470.73,-238.65 479.99,-233.5 469.54,-231.75 470.73,-238.65"/>
</g>
<!-- c29&#45;&gt;n14 -->
<g id="edge11" class="edge">
<title>c29:e&#45;&gt;n14:w</title>
<path fill="none" stroke="black" stroke-width="3" d="M420.99,-233.5C469.79,-233.5 425.05,-140.94 459.96,-127.2"/>
<polygon fill="black" stroke="black" stroke-width="3" points="460.71,-130.62 469.99,-125.5 459.54,-123.72 460.71,-130.62"/>
</g>
<!-- c29&#45;&gt;n16 -->
<g id="edge16" class="edge">
<title>c29:e&#45;&gt;n16:w</title>
<path fill="none" stroke="black" d="M420.99,-348.5C449.98,-348.5 446.62,-385.13 468.02,-393.71"/>
<polygon fill="black" stroke="black" points="467.53,-397.18 477.99,-395.5 468.76,-390.29 467.53,-397.18"/>
</g>
<!-- c29&#45;&gt;n17 -->
<g id="edge17" class="edge">
<title>c29:e&#45;&gt;n17:w</title>
<path fill="none" stroke="black" d="M420.99,-325.5C443.4,-325.5 449.89,-337.1 467.58,-340.55"/>
<polygon fill="black" stroke="black" points="467.71,-344.07 477.99,-341.5 468.35,-337.1 467.71,-344.07"/>
</g>
<!-- c29&#45;&gt;n18 -->
<g id="edge18" class="edge">
<title>c29:e&#45;&gt;n18:w</title>
<path fill="none" stroke="black" d="M420.99,-371.5C460.07,-371.5 439.66,-436.11 468.05,-447.72"/>
<polygon fill="black" stroke="black" points="467.53,-451.19 477.99,-449.5 468.76,-444.3 467.53,-451.19"/>
</g>
<!-- c29&#45;&gt;n19 -->
<g id="edge19" class="edge">
<title>c29:e&#45;&gt;n19:w</title>
<path fill="none" stroke="black" d="M420.99,-256.5C460.48,-256.5 441.85,-192.71 470.89,-181.25"/>
<polygon fill="black" stroke="black" points="471.73,-184.66 480.99,-179.5 470.53,-177.76 471.73,-184.66"/>
</g>
</g>
</svg>
